<?xml version="1.0" encoding="utf-8"?>
<!-- Generator: Adobe Illustrator 24.0.1, SVG Export Plug-In . SVG Version: 6.00 Build 0)  -->
<svg version="1.1" id="Layer_1" xmlns="http://www.w3.org/2000/svg" xmlns:xlink="http://www.w3.org/1999/xlink" x="0px" y="0px"
	 viewBox="0 0 1920 1080" style="enable-background:new 0 0 1920 1080;" xml:space="preserve">
<style type="text/css">
	.st0{fill:#FFFFFF;}
</style>
<g>
	<path class="st0" d="M149,625.2l-47.3-8.5c5.3-19,14.5-33.1,27.5-42.3c13-9.2,32.3-13.7,57.9-13.7c23.3,0,40.6,2.8,51.9,8.3
		c11.4,5.5,19.4,12.5,24,21c4.6,8.5,7,24,7,46.7l-0.6,60.9c0,17.3,0.8,30.1,2.5,38.3c1.7,8.2,4.8,17,9.4,26.4h-51.6
		c-1.4-3.5-3-8.6-5-15.4c-0.9-3.1-1.5-5.1-1.9-6.1c-8.9,8.7-18.4,15.2-28.6,19.5c-10.1,4.3-21,6.5-32.5,6.5
		c-20.3,0-36.3-5.5-48-16.5c-11.7-11-17.5-24.9-17.5-41.7c0-11.1,2.7-21.1,8-29.8c5.3-8.7,12.8-15.4,22.4-20
		c9.6-4.6,23.4-8.7,41.5-12.2c24.4-4.6,41.2-8.8,50.6-12.8v-5.2c0-10-2.5-17.2-7.4-21.4c-4.9-4.3-14.3-6.4-28-6.4
		c-9.3,0-16.5,1.8-21.7,5.5C156.4,609.6,152.2,616,149,625.2z M218.7,667.5c-6.7,2.2-17.3,4.9-31.7,8c-14.5,3.1-23.9,6.1-28.4,9.1
		c-6.8,4.8-10.2,10.9-10.2,18.4c0,7.3,2.7,13.6,8.2,18.9c5.4,5.3,12.4,8,20.8,8c9.4,0,18.4-3.1,26.9-9.3
		c6.3-4.7,10.5-10.5,12.4-17.3c1.4-4.5,2-12.9,2-25.4V667.5z"/>
	<path class="st0" d="M488.2,623.3l-51.4,9.3c-1.7-10.3-5.7-18-11.8-23.2c-6.1-5.2-14.1-7.8-23.8-7.8c-13,0-23.3,4.5-31.1,13.4
		c-7.7,9-11.6,24-11.6,45c0,23.4,3.9,39.9,11.8,49.5c7.9,9.6,18.4,14.5,31.6,14.5c9.9,0,18-2.8,24.3-8.4c6.3-5.6,10.8-15.3,13.4-29
		l51.2,8.7c-5.3,23.5-15.5,41.3-30.6,53.2c-15.1,12-35.3,18-60.7,18c-28.8,0-51.8-9.1-68.9-27.3c-17.1-18.2-25.7-43.3-25.7-75.5
		c0-32.5,8.6-57.9,25.8-76c17.2-18.1,40.4-27.2,69.8-27.2c24,0,43.1,5.2,57.2,15.5C471.8,586.5,482,602.2,488.2,623.3z"/>
	<path class="st0" d="M694.6,623.3l-51.4,9.3c-1.7-10.3-5.7-18-11.8-23.2c-6.1-5.2-14.1-7.8-23.8-7.8c-13,0-23.3,4.5-31.1,13.4
		c-7.7,9-11.6,24-11.6,45c0,23.4,3.9,39.9,11.8,49.5c7.9,9.6,18.4,14.5,31.6,14.5c9.9,0,18-2.8,24.3-8.4c6.3-5.6,10.8-15.3,13.4-29
		l51.2,8.7c-5.3,23.5-15.5,41.3-30.6,53.2c-15.1,12-35.3,18-60.7,18c-28.8,0-51.8-9.1-68.9-27.3c-17.1-18.2-25.7-43.3-25.7-75.5
		c0-32.5,8.6-57.9,25.8-76c17.2-18.1,40.4-27.2,69.8-27.2c24,0,43.1,5.2,57.2,15.5C678.2,586.5,688.4,602.2,694.6,623.3z"/>
	<path class="st0" d="M843.3,699.4l51.9,8.7c-6.7,19-17.2,33.6-31.6,43.5c-14.4,10-32.4,14.9-54.1,14.9c-34.3,0-59.6-11.2-76.1-33.6
		c-13-17.9-19.5-40.6-19.5-67.9c0-32.7,8.5-58.2,25.6-76.7c17.1-18.5,38.7-27.7,64.7-27.7c29.3,0,52.4,9.7,69.4,29
		c16.9,19.4,25,49,24.3,89H767.4c0.4,15.5,4.6,27.5,12.6,36.1c8,8.6,18.1,12.9,30.1,12.9c8.2,0,15-2.2,20.6-6.7
		C836.2,716.5,840.4,709.3,843.3,699.4z M846.2,646.7c-0.4-15.1-4.3-26.6-11.7-34.4c-7.4-7.9-16.5-11.8-27.1-11.8
		c-11.4,0-20.8,4.1-28.2,12.4c-7.4,8.3-11.1,19.5-10.9,33.8H846.2z"/>
	<path class="st0" d="M1114.8,762.1h-52.1V661.6c0-21.3-1.1-35-3.3-41.3c-2.2-6.2-5.8-11.1-10.9-14.6c-5-3.5-11-5.2-18.1-5.2
		c-9,0-17.1,2.5-24.3,7.4c-7.2,4.9-12.1,11.5-14.8,19.7c-2.7,8.2-4,23.3-4,45.3v89.2h-52.1v-197h48.4V594
		c17.2-22.3,38.8-33.4,64.9-33.4c11.5,0,22,2.1,31.5,6.2c9.5,4.1,16.7,9.4,21.6,15.9c4.9,6.4,8.3,13.7,10.2,21.9
		c1.9,8.2,2.9,19.9,2.9,35.1V762.1z"/>
	<path class="st0" d="M1253,565.1v41.6h-35.6V686c0,16.1,0.3,25.5,1,28.1c0.7,2.7,2.2,4.9,4.6,6.6c2.4,1.7,5.3,2.6,8.8,2.6
		c4.8,0,11.8-1.7,21-5l4.5,40.4c-12.1,5.2-25.9,7.8-41.2,7.8c-9.4,0-17.9-1.6-25.4-4.7c-7.5-3.2-13.1-7.2-16.6-12.2
		c-3.5-5-6-11.8-7.3-20.3c-1.1-6.1-1.7-18.3-1.7-36.7v-85.9h-23.9v-41.6h23.9v-39.1l52.3-30.4v69.6H1253z"/>
	<path class="st0" d="M1414,762.1v-29.5c-7.2,10.5-16.6,18.8-28.3,24.9c-11.7,6.1-24,9.1-37,9.1c-13.2,0-25.1-2.9-35.6-8.7
		c-10.5-5.8-18.1-14-22.8-24.5c-4.7-10.5-7.1-25-7.1-43.6V565.1h52.1v90.5c0,27.7,1,44.7,2.9,50.9c1.9,6.2,5.4,11.2,10.5,14.8
		c5.1,3.6,11.5,5.5,19.3,5.5c8.9,0,16.9-2.4,23.9-7.3c7-4.9,11.9-10.9,14.5-18.2c2.6-7.2,3.9-25,3.9-53.2v-83.1h52.1v197H1414z"/>
	<path class="st0" d="M1561.3,762.1h-52.1v-197h48.4v28c8.3-13.2,15.7-22,22.4-26.2c6.6-4.2,14.1-6.3,22.5-6.3
		c11.9,0,23.3,3.3,34.3,9.8l-16.1,45.5c-8.8-5.7-16.9-8.5-24.5-8.5c-7.3,0-13.5,2-18.6,6c-5.1,4-9.1,11.3-12,21.8
		c-2.9,10.5-4.4,32.5-4.4,66V762.1z"/>
	<path class="st0" d="M1768.5,699.4l51.9,8.7c-6.7,19-17.2,33.6-31.6,43.5c-14.4,10-32.4,14.9-54.1,14.9
		c-34.3,0-59.6-11.2-76.1-33.6c-13-17.9-19.5-40.6-19.5-67.9c0-32.7,8.5-58.2,25.6-76.7c17.1-18.5,38.7-27.7,64.7-27.7
		c29.3,0,52.4,9.7,69.4,29c16.9,19.4,25,49,24.3,89h-130.6c0.4,15.5,4.6,27.5,12.6,36.1c8,8.6,18.1,12.9,30.1,12.9
		c8.2,0,15-2.2,20.6-6.7S1765.6,709.3,1768.5,699.4z M1771.4,646.7c-0.4-15.1-4.3-26.6-11.7-34.4c-7.4-7.9-16.5-11.8-27.1-11.8
		c-11.4,0-20.8,4.1-28.2,12.4c-7.4,8.3-11.1,19.5-10.9,33.8H1771.4z"/>
</g>
<g>
	<path class="st0" d="M1103.1,498.2v-48.7l120.7-47.5l-120.7-46.9v-48.3l173,74.8v41.3L1103.1,498.2z"/>
</g>
</svg>
