<?xml version="1.0" encoding="utf-8"?>
<!-- Generator: Adobe Illustrator 26.0.2, SVG Export Plug-In . SVG Version: 6.00 Build 0)  -->
<svg version="1.1" id="Layer_1" xmlns="http://www.w3.org/2000/svg" xmlns:xlink="http://www.w3.org/1999/xlink" x="0px" y="0px"
	 width="218px" height="80px" viewBox="0 0 218 80" style="enable-background:new 0 0 218 80;" xml:space="preserve">
<style type="text/css">
	.st0{fill:#FFFFFF;}
</style>
<g>
	<path class="st0" d="M126.9,30.2c-1.8-0.2-3.6-0.3-5.4-0.3c-5.3,0-9.3,2-11.5,5.6c-2.1,3.6-3.2,7.6-3.2,11.7
		c0,6.7,3.1,9.6,10.2,9.6c3.1,0,6.1-0.3,9-1.1l0.8-4.4c-2.4,1.1-5,1.8-7.7,1.8c-4.4,0-6.5-2.3-6.5-7c0.1-3.1,0.8-6.1,2.1-8.8
		c0.6-0.9,1.3-1.7,2.2-2.4c1.6-1,3.5-1.6,5.4-1.5c2.4,0,4.8,0.4,7,1.3l0.8-4.4c-0.2,0-0.3,0-0.5,0L126.9,30.2z"/>
	<path class="st0" d="M35.1,56.4c2.7,0.1,4.4,0.1,5.6,0.1c4.7,0,8-1.5,10.1-4.6c2.4-3.6,3.7-7.9,3.7-12.2c0-6.6-2.6-9.5-8.8-9.5
		c-0.7,0-2.8,0-6.6,0.1h-5.1v0.3l-1,6.2l-1.1,6.5l-1.2,6.5l-1.2,6.2l-0.1,0.3h0.5C32.4,56.4,34.1,56.4,35.1,56.4z M35.8,52.8
		c0.1-0.9,0.4-2.3,0.7-4.2c0.9-5.3,1.1-6.5,1.9-10.7c0.3-1.5,0.5-2.7,0.7-3.6l0.1-0.4c1.3-0.2,2.6-0.3,4-0.3c3.9,0,5.7,1.9,5.7,6.2
		c0.1,5.1-1.9,10.5-4.4,12.3c-1.4,0.9-3.1,1.3-4.8,1.2h-1.8c-0.8,0-1.4-0.1-1.7-0.1l-0.3-0.1V52.8z"/>
	<path class="st0" d="M103.2,53.3h-3.1h-3.3h-3.5h-3.2h-0.3c0-0.1,0-0.2,0-0.3c0.1-0.3,0.2-1,0.3-2c0.1-0.7,0.3-1.6,0.5-2.7
		c0.2-1.1,0.3-2.1,0.4-2.6c0.2-1.1,0.3-1.8,0.3-2c0-0.1,0-0.2,0-0.3h0.3h2.2h3.3h2.8h2.6h0.5l0.6-3.2h-2.8c-0.4,0-1.5,0-3,0H92
		c0-0.1,0-0.2,0.1-0.3c0-0.2,0.1-0.7,0.3-1.4c0.1-0.5,0.1-1,0.3-1.7c0.1-0.7,0.2-1.2,0.3-1.4c0.1-0.7,0.2-1.1,0.3-1.3
		c0-0.1,0-0.2,0.1-0.3h0.3h2.7h3.4h3.3h2.9c0.1,0,0.2,0,0.3,0l0.6-3.2H88.2v0.1v0.3l-1,6.2l-1.1,6.5l-1.2,6.5l-1.2,6.2l-0.1,0.3H103
		l0.6-3.2H103.2z"/>
	<path class="st0" d="M60.5,56c0.2-1.9,0.8-5.5,1.7-10.6c0.1-0.7,0.6-3.3,1.3-8l0.1-0.7l0.3,0.6c0.9,1.7,2.2,4.4,4.1,8.6l4.8,10.1
		l0.1,0.4h5.5c0-0.2,0-0.3,0-0.4c0.1-0.9,0.4-2.9,0.9-6.1l1.1-6.5l1.2-6.5c0.6-3.2,1-5.2,1.2-6.1c0-0.1,0-0.3,0.1-0.4h-3.8L79,30.8
		c-0.8,5.6-1.4,8.8-3,18.4L75.8,50l-0.3-0.6l-4.3-8.8l-4.5-9.9l-0.1-0.4h-5.6v0.4l-1,6.1L59,43.4l-1.2,6.5L56.6,56l-0.1,0.4h3.9
		C60.5,56.3,60.5,56.2,60.5,56z"/>
	<path class="st0" d="M5.8,56c0.3-0.6,0.9-1.8,2-3.8c1-2,1.8-3.5,2.1-4l0.2-0.3h0.3c0.8,0,2.5,0,4.9,0c2,0,3.4,0,4.1,0h0.3v0.3
		c0.2,0.8,0.3,2.1,0.6,3.8c0.3,1.7,0.5,3.2,0.6,4.1v0.3h6.3l-0.1-0.3l-1.3-6l-1.4-6.7c-0.3-1.5-0.8-3.7-1.3-6.6
		c-0.5-2.6-0.9-4.7-1.1-6.1v-0.4h-6.2l-0.2,0.3c-0.7,1.4-1.9,3.5-3.3,6.2C8.2,44.3,6.5,47.3,4.9,50l-3.5,5.8l-0.3,0.6h4.6
		C5.7,56.3,5.7,56.2,5.8,56z M11.9,44.4c0.5-0.9,1.3-2.5,2.5-4.7s2-3.8,2.6-4.8l0.3-0.6l0.1,0.6c0.1,0.6,0.4,2.2,0.9,4.8
		c0.3,1.9,0.6,3.3,0.8,4.7l0.1,0.4l-0.4,0c-0.9,0-2,0-3.3,0s-2.6,0-3.5,0h-0.4L11.9,44.4z"/>
	<path class="st0" d="M193.4,7.2c-13.9,4.9-27.3,11.2-40,18.8c0.4,0.8,0.7,1.6,1,2.4c11.9-6,24.4-10.9,37.1-14.7
		c6.7-2,13.7-3.7,21.4-5.2c1.7-3.1,3.1-5.7,4.2-7.9C209.1,2.2,201.2,4.5,193.4,7.2z"/>
	<path class="st0" d="M156.8,35.1c0.3,0.9,0.6,1.8,0.9,2.7c9.1-2.3,18.3-4.2,27.6-5.6c4.9-0.8,10-1.4,15.1-2
		c1.5-2.5,2.9-4.9,4.3-7.3c-5.8,0.8-11.6,1.9-17.2,3.1C177,28.3,166.8,31.3,156.8,35.1z"/>
	<path class="st0" d="M180.5,43.3c-7.4,0.2-14.9,0.7-21.1,1.2c0.2,1.2,0.5,2.3,0.7,3.3c5.1,0.2,11.5,0.7,17.7,1.2l9.9,0.9
		c1.6-2.3,3.1-4.6,4.6-6.9C188.5,43.1,184.5,43.1,180.5,43.3z"/>
	<path class="st0" d="M160.9,54.7c0.1,1.5,0.1,2.8,0.1,3.8c3,1.6,5.9,3.4,8.8,5.3c1.7,1.1,3.5,2.4,5.1,3.6c1.6-2,3.2-4.1,4.7-6.2
		c-2-0.8-4.4-1.7-6.9-2.6C168.9,57.3,164.7,55.8,160.9,54.7z"/>
	<path class="st0" d="M159,42.8c7.6-0.9,15-1.5,22.6-1.9c0.9-2,1.8-4.1,2.6-6.1c-8.7,1.2-17.4,2.8-26,4.9c-2.5,0.7-5,1.3-7.4,1.9h0
		l-4.7,1.2c0.3,0.6,0.5,1.1,0.8,1.8c1.6-0.3,3.2-0.6,4.7-0.8C154.1,43.4,156.5,43.1,159,42.8z"/>
	<path class="st0" d="M176.6,51.4c-5.4-1-10.8-1.6-16.3-1.9c-2.6-0.1-5.1-0.3-7.4-0.3c-1.8,0-3.4-0.1-4.8,0c0.1,0.5,0.3,0.9,0.3,1.4
		c1.7,0.2,3.3,0.5,4.8,0.8c2.6,0.5,5.1,1,7.4,1.5c4.8,1.1,9.2,2.5,13.1,3.6C174.7,55,175.6,53.2,176.6,51.4z"/>
	<path class="st0" d="M156.2,33.4c10.4-4.1,21.2-7.5,32.1-10c0.8-2.3,1.5-4.7,2.2-6.9C178.4,20,166.5,24.6,155,30
		c-2.7,1.2-5.3,2.5-7.9,3.8c-1.6,0.8-3.3,1.6-4.9,2.5c0.5,0.6,1.1,1.4,1.7,2.4c1.5-0.7,3.1-1.4,4.6-2.1
		C151.1,35.5,153.7,34.3,156.2,33.4z"/>
	<polygon class="st0" points="4.7,65.9 5.3,66.4 5.7,66 5.1,65.6 	"/>
	<path class="st0" d="M2.5,70.8c0.6,0,1.1-0.2,1.5-0.6c0.1-0.4,0.2-0.8,0.2-1.2H8v-0.1c0.1-0.3,0.2-0.7,0.2-1c0-0.4-0.2-0.7-0.5-0.9
		c-0.2-0.3-0.5-0.4-0.9-0.4c-0.3,0-0.5,0.1-0.7,0.3C6,66.9,5.8,67,5.7,67.1l-1.6,1.1c-0.2-0.4-0.4-0.8-0.7-1.1L3,67.6
		c0.3,0.3,0.5,0.7,0.7,1.1c0.1,0.1,0.1,0.2,0.1,0.4v0.2c-0.2,0.2-0.4,0.4-0.6,0.5c-0.2,0.1-0.5,0.2-0.7,0.2c-0.6,0-1-0.4-1.1-1.1
		c0-0.3,0-0.7,0-1v-0.1c-0.1,0.2-0.1,0.4-0.2,0.6c-0.1,0.4-0.1,0.8-0.1,1.2c0.1,0.3,0.2,0.7,0.5,0.9C1.8,70.6,2.1,70.7,2.5,70.8z
		 M5.3,67.9l0.2-0.2l0.3-0.2c0.2-0.1,0.3-0.2,0.5-0.3h0.1c0.3,0,0.5,0.1,0.7,0.3c0.2,0.2,0.4,0.5,0.5,0.8h-3L5.3,67.9z"/>
	<path class="st0" d="M8.1,70C8.1,70,8.1,70,8.1,70C8.2,70,8.1,70,8.1,70L8.1,70z"/>
	<path class="st0" d="M9.1,67.9c0.1,0.2,0.3,0.3,0.4,0.5c0.1,0.2,0.2,0.4,0.3,0.6c-0.1,0.3-0.2,0.6-0.4,0.9C9.2,70,9,70.1,8.7,70.1
		c-0.2,0-0.4-0.1-0.5-0.1c0.2,0.2,0.3,0.4,0.5,0.5c0.1,0.1,0.3,0.2,0.5,0.2c0.3,0,0.6-0.3,0.8-0.8c0.2-0.4,0.3-0.9,0.2-1.3
		c-0.1-0.5-0.3-0.9-0.7-1.3L9.1,67.9z"/>
	<path class="st0" d="M38.8,69v-0.1l0.1-0.4c0.1-0.3,0.1-0.5,0.1-0.8l-0.4-2.1l0.1,0.1l0.2-0.7l-0.6-0.3c-0.1,0-0.2-0.1-0.2-0.1
		c-0.1-0.1-0.1-0.2-0.1-0.3l-0.2,0.5v0.1c0,0,0,0.1,0,0.1c0,0.1,0.1,0.2,0.2,0.2l0.7,2.9H37l0,0h-0.7c-0.1,0-0.2-0.1-0.2-0.2
		l-0.5-3.7L35,65.1l0.4,3.1h-0.9l-1-0.1l-0.1-0.9c0-0.2-0.1-0.3-0.1-0.4c-0.1-0.1-0.3-0.2-0.5-0.2c-0.4,0-0.8,0.1-1.1,0.4
		c-0.3,0.3-0.5,0.7-0.6,1.1H30l0,0h-1.6l0.1-0.1c0.2-0.3,0.3-0.6,0.4-0.9v-0.3c-0.1-0.4-0.4-0.7-1-0.7c-0.4,0-0.8,0.1-1.1,0.2
		l-0.3,0.9c0.5,0.1,1,0.4,1.1,1h-1.8h-0.2h-2.4h-0.2h-2.4h-0.2H18h-0.2h-2.4h-0.2h-2.6l0,0.1H12c-0.1,0-0.2,0-0.3-0.1
		c-0.1,0-0.1-0.1-0.1-0.3l-0.5-3.5l-0.6,0.7l0.5,3.5v0.2c0,0.1,0.1,0.2,0.2,0.2c0.1,0,0.1,0,0.2,0h1.3l0,0h2.5h0.2h2.4h0.2h2.4h0.2
		h2.4h0.2h2.4l0,0h2.1l0.2-0.3l0.2,0.3h2l0-0.1h0.9l0.2-0.4l2,1.1l0.2-0.7h1l0,0h0.9l0.1-0.2c0.1,0.2,0.2,0.3,0.4,0.2h1.3l0,0H38.8z
		 M28.2,67.6c0-0.1-0.1-0.2-0.1-0.3l-0.3-0.2c0.1,0,0.2,0,0.3,0c0.2,0,0.3,0.1,0.3,0.2C28.4,67.4,28.3,67.5,28.2,67.6z M31.8,68.1
		c0.1-0.3,0.5-0.6,0.9-0.5c0.2,0,0.4,0.1,0.4,0.3l0.1,1L31.8,68.1z"/>
	<polygon class="st0" points="42.9,71.3 42.5,71.6 43.1,72.2 43.4,71.9 43.8,72.2 44.2,71.8 43.6,71.3 43.3,71.6 	"/>
	<path class="st0" d="M55,67.7l0.3,0.6h-1.1l0,0h-2.6h-0.2h-2.4h-0.2h-2.5l-2.7,0L43.2,69h0.1c0.4,0,0.8,0.1,1.2,0.3
		c-0.1,0.1-0.2,0.2-0.2,0.3c-0.2,0.2-0.4,0.3-0.6,0.4c-0.2,0.1-0.4,0.1-0.7,0.1c-0.7,0-1.1-0.3-1.2-1.1c0-0.3,0-0.7,0-1
		c-0.2,0.5-0.3,1.1-0.3,1.7c0,0.4,0.2,0.7,0.5,0.9c0.3,0.2,0.6,0.4,0.9,0.4c0.6,0,1.3-0.2,1.8-0.7c0.1-0.2,0.2-0.4,0.2-0.6
		c0.1-0.2,0.2-0.4,0.2-0.5v-0.1h1h0.1h2.5H49h2.4h0.2H54l0,0.1h1.3l0.2-0.3l0.1,0.3h1.3l0-0.2h4.8l0.1-0.3c0.1-0.3,0.2-0.6,0.2-0.9
		c-0.1-0.2-0.2-0.4-0.4-0.6c-0.2-0.2-0.4-0.4-0.7-0.6c-0.1-0.1-0.3-0.2-0.4-0.2c-0.3,0.1-0.6,0.2-0.9,0.4l-0.4,0.3l-0.3,0.2
		l-0.4,0.3c0.1-0.2,0.1-0.5,0-0.7c0-0.1,0-0.2,0-0.3l-0.2-1.1l0.1,0l0.2-0.7l-0.4-0.2c-0.1-0.1-0.3-0.1-0.4-0.2
		c0-0.1-0.1-0.2-0.1-0.3l-0.3,0.6c0,0.1-0.1,0.2-0.1,0.2c0,0.1,0.1,0.2,0.2,0.2l0.7,2.7l-0.4,0.3h-1.1l0,0h-0.8l-0.5-1.1L55,67.7z
		 M59,67.9l0.2-0.2c0.3-0.2,0.6-0.4,1-0.5c0.2,0,0.5,0.1,0.7,0.3c0.2,0.2,0.4,0.5,0.5,0.7h-2.9L59,67.9z"/>
	<polygon class="st0" points="55.1,66.5 55.5,66.2 54.9,65.7 54.5,66.1 	"/>
	<path class="st0" d="M69.8,69.1V69l0.1-0.4c0.1-0.3,0.1-0.5,0.1-0.8l-0.5-2.2l0.2,0.1l0.2-0.7l-0.6-0.2c-0.1,0-0.2-0.1-0.2-0.1
		c-0.1-0.1-0.1-0.2-0.1-0.3l-0.2,0.5V65c0,0,0,0.1,0,0.1c0,0.1,0.1,0.2,0.2,0.2l0.7,2.9h-1.2l0,0h-2.7h-0.2h-0.8
		c-0.1-0.4-0.3-0.7-0.5-1c-0.2-0.3-0.4-0.5-0.7-0.5c-0.1,0-0.3,0.1-0.4,0.2c-0.2,0.2-0.3,0.5-0.4,0.7c-0.1,0.3-0.1,0.5-0.1,0.8
		c0,0.2,0.1,0.3,0.2,0.4c0.1,0.1,0.3,0.1,0.4,0.2h1c-0.1,0.3-0.2,0.5-0.4,0.7c-0.2,0.2-0.4,0.3-0.7,0.3c-0.2,0-0.4,0-0.6-0.1
		c0.5,0.6,0.8,0.8,1.1,0.8c0.3,0,0.6-0.3,0.8-0.9c0.1-0.3,0.2-0.5,0.2-0.8h0.9h0.1h2.5l0,0H69.8z M64,68.3h-0.6c0,0,0,0,0,0
		c-0.2,0-0.3-0.1-0.3-0.3c0-0.1,0-0.3,0.1-0.4c0.1-0.1,0.2-0.2,0.3-0.2C63.6,67.4,63.8,67.7,64,68.3L64,68.3z"/>
	<path class="st0" d="M71.3,65.4l-0.3-1l-0.6,0.9c0.1,0.4,0.2,0.9,0.3,1.3c0.1,0.7,0.2,1.3,0.3,1.7c0.1,0.3,0.1,0.7,0.1,1.1
		c0.1-0.3,0.3-0.7,0.3-1c0.1-0.4,0.1-0.7,0-1.1c-0.1-0.4-0.2-0.9-0.3-1.6v-0.1L71.3,65.4z"/>
	<polygon class="st0" points="76.5,72.2 76.9,71.8 76.2,71.3 75.9,71.6 75.5,71.3 75.2,71.6 75.8,72.2 76.1,71.9 	"/>
	<polygon class="st0" points="87.8,70.2 88.4,70.6 88.8,70.3 88.2,69.8 	"/>
	<path class="st0" d="M87.8,69.1l0.2-0.3l0.1,0.3h1.4l0-0.1h4.7l0.1-0.3c0.1-0.3,0.2-0.6,0.2-0.9c-0.1-0.2-0.2-0.4-0.3-0.6
		c-0.2-0.2-0.4-0.4-0.7-0.6c-0.1-0.1-0.3-0.1-0.5-0.1c-0.3,0.1-0.6,0.2-0.9,0.4l-0.4,0.3l-0.3,0.2l-0.4,0.3c0.1-0.2,0.1-0.5,0-0.7
		c0-0.1,0-0.2,0-0.3l-0.2-1.1H91l0.2-0.6l-0.4-0.2l-0.4-0.2c0-0.1-0.1-0.2-0.1-0.3L90,64.9c0,0.1-0.1,0.2-0.1,0.2
		c0,0.1,0.1,0.2,0.2,0.2l0.6,2.7l-0.4,0.3h-1.1l0,0h-0.8L88,67.2l-0.5,0.5l0.3,0.6h-1.1l0,0h-2.6h-0.2h-2.4h-0.2h-2.5l-2.7,0
		L75.9,69h0.1c0.4,0,0.8,0.1,1.2,0.3c-0.1,0.1-0.2,0.2-0.2,0.3c-0.2,0.2-0.4,0.3-0.6,0.4c-0.2,0.1-0.4,0.1-0.7,0.1
		c-0.7,0-1.1-0.3-1.2-1.1c0-0.3,0-0.7,0-1c-0.2,0.5-0.3,1.1-0.3,1.7c0,0.4,0.2,0.7,0.4,0.9c0.3,0.2,0.6,0.4,0.9,0.4
		c0.7,0,1.3-0.2,1.8-0.7c0.1-0.2,0.2-0.4,0.2-0.6c0.1-0.2,0.2-0.4,0.2-0.5v-0.1h1h0.1h2.5h0.2H84h0.2h2.4l0,0.1H87.8z M91.6,67.9
		l0.2-0.2c0.3-0.2,0.6-0.4,1-0.5c0.2,0,0.5,0.1,0.7,0.3c0.2,0.2,0.4,0.5,0.5,0.7h-2.9L91.6,67.9z"/>
	<polygon class="st0" points="92.8,65.6 92.1,65.2 91.8,65.6 92.4,66 	"/>
	<path class="st0" d="M95.7,70.1c-0.2,0-0.4,0-0.6-0.1c0.5,0.6,0.9,0.8,1.1,0.8c0.3,0,0.6-0.3,0.8-0.9c0.1-0.3,0.2-0.5,0.2-0.8h0.8
		h0.2h1.4c0.1-0.3,0.1-0.4,0.1-0.5c0.1-0.3,0.1-0.6,0.1-0.8c-0.1-0.4-0.3-0.7-0.6-1l-0.4,0.6c0.2,0.3,0.4,0.6,0.5,0.9h-1.2H98h-0.8
		c-0.1-0.4-0.2-0.7-0.4-1c-0.2-0.3-0.5-0.5-0.7-0.5c-0.1,0-0.3,0.1-0.4,0.2c-0.2,0.2-0.3,0.5-0.4,0.7c-0.1,0.3-0.1,0.5-0.1,0.8
		c0,0.2,0.1,0.3,0.2,0.4c0.1,0.1,0.3,0.2,0.4,0.2h1c-0.1,0.3-0.2,0.5-0.4,0.7C96.2,70,96,70.1,95.7,70.1z M96.6,68.3H96c0,0,0,0,0,0
		c-0.2,0-0.3-0.1-0.3-0.3c0-0.1,0-0.3,0.1-0.4c0.1-0.1,0.2-0.2,0.3-0.2C96.2,67.4,96.4,67.7,96.6,68.3L96.6,68.3z"/>
	<polygon class="st0" points="99.1,70.1 99.7,70.6 100.1,70.2 99.5,69.8 	"/>
	<path class="st0" d="M100.4,63.4c0-0.1,0.1-0.2,0.1-0.3c0-0.1-0.1-0.1-0.2-0.1c-0.2,0-0.4,0.1-0.6,0.3c-0.1,0.1-0.2,0.3-0.2,0.5
		c0,0.2,0.2,0.4,0.4,0.4c-0.1,0.2-0.2,0.4-0.2,0.5c0.2-0.3,0.6-0.5,0.9-0.5l0.1-0.4c-0.1,0.1-0.2,0.1-0.4,0.1
		c-0.2,0-0.5-0.1-0.7-0.2c0.1-0.2,0.3-0.3,0.5-0.2C100.3,63.4,100.4,63.4,100.4,63.4z"/>
	<path class="st0" d="M101,65.4l-0.3-1l-0.6,0.9c0.1,0.4,0.2,0.9,0.3,1.3c0.1,0.7,0.3,1.4,0.3,1.7c0,0.3,0.1,0.7,0.1,1.1h0
		c0.1-0.3,0.3-0.7,0.3-1c0.1-0.4,0.1-0.7,0-1.1c-0.1-0.4-0.2-0.9-0.3-1.6v-0.1L101,65.4z"/>
	<polygon class="st0" points="104.4,66.7 104.8,66.3 104.2,65.8 103.8,66.2 	"/>
	<path class="st0" d="M114.1,69.2h3.6l0.2-0.5l0.1-0.2c0-0.1,0-0.1,0-0.2c-0.1-0.2-0.2-0.3-0.3-0.4l-2.1-2l2.2-0.7l0.2-0.8l-2.9,0.8
		l-0.2,0.7v0.1c0,0.1,0,0.1,0,0.2c0,0.1,0,0.1,0.1,0.2l0.1,0.1l0.4,0.3l0.1-0.1l1.7,1.6h-3l0-0.1h-2.6h-0.2H109h-0.2h-2.5h-0.1h-0.8
		c-0.2-0.4-0.4-0.7-0.7-0.9l-0.4,0.6c0.1,0.1,0.3,0.3,0.4,0.5c0.1,0.2,0.2,0.3,0.3,0.5c-0.1,0.3-0.2,0.6-0.5,0.9
		c-0.2,0.2-0.5,0.3-0.7,0.3c-0.2,0-0.4-0.1-0.6-0.1l0.1,0.1c0.1,0.1,0.2,0.2,0.2,0.2c0.4,0.4,0.7,0.6,0.9,0.6c0.3,0,0.6-0.2,0.7-0.5
		c0.2-0.4,0.3-0.8,0.4-1.2h0.9h0.1h2.5h0.2h2.4h0.3h2.4L114.1,69.2z"/>
	<path class="st0" d="M118.9,70c-0.2,0-0.4-0.1-0.6-0.1l0.1,0.1c0.1,0.1,0.1,0.1,0.2,0.2c0.4,0.4,0.6,0.6,0.9,0.6
		c0.2,0,0.5-0.2,0.7-0.5c0.2-0.4,0.3-0.8,0.4-1.2h0.9v0.1h1.1l0.2-0.4l2,0.8v-0.1c0.2-0.5,0.3-0.7,0.3-0.8c0.1-0.1,0.1-0.3,0.1-0.4
		c-0.1-0.4-0.2-0.8-0.5-1.1c-0.3-0.4-0.6-0.6-0.8-0.6c-0.2,0-0.3,0.1-0.4,0.2c-0.2,0.2-0.3,0.4-0.5,0.7l-0.5,0.8h-0.9h-0.1h-0.9
		c-0.1-0.3-0.4-0.7-0.6-0.9l-0.4,0.6c0.1,0.2,0.3,0.3,0.4,0.5c0.1,0.2,0.2,0.3,0.3,0.5c-0.1,0.3-0.2,0.6-0.5,0.9
		C119.4,69.9,119.1,70,118.9,70z M123,67.9c0.3-0.5,0.5-0.7,0.6-0.7c0.2,0,0.3,0.1,0.4,0.2c0.2,0.2,0.3,0.5,0.4,0.8v0.3L123,67.9
		L123,67.9z"/>
	<path class="st0" d="M3.5,74l-2.7,5.4h1l0.7-1.5h1.7l0.1,1.5h1L4.7,74H3.5z M2.8,77.1l0.7-1.3c0.2-0.3,0.3-0.7,0.5-1
		c0,0.3,0,0.7,0.1,1l0.1,1.3H2.8z"/>
	<path class="st0" d="M8.8,75.4c-0.5,0-1,0.2-1.3,0.7l0.4-2.3l-0.9,0l-0.8,4c0,0.2-0.1,0.4-0.1,0.7c0,0.7,0.5,1,1.3,1c0,0,0,0,0,0
		c1.4-0.1,2.5-1.2,2.5-2.7c0,0,0,0,0,0C9.9,76,9.4,75.4,8.8,75.4z M7.6,78.7c0,0-0.1,0-0.1,0c-0.3,0-0.4-0.2-0.4-0.5
		c0-0.1,0-0.3,0-0.4l0.1-0.4c0.1-0.8,0.7-1.3,1.1-1.3c0.5,0,0.6,0.4,0.6,0.8C9,77.7,8.4,78.7,7.6,78.7z"/>
	<path class="st0" d="M13.1,77.3c-0.2,0.8-0.8,1.3-1.1,1.3c-0.3,0-0.5-0.2-0.5-0.6c0-0.2,0-0.4,0.1-0.5l0.4-2.1h-1l-0.4,2.2
		c0,0.2-0.1,0.5-0.1,0.7c0,0.1,0,0.2,0,0.2c0,0.5,0.5,0.9,1,0.9c0.5,0,1-0.3,1.3-0.8l-0.1,0.7h0.8c0.1-0.3,0.1-0.8,0.2-1.2l0.5-2.7
		l-0.8-0.1L13.1,77.3z"/>
	<path class="st0" d="M18.5,74c-0.5,0-1,0-1.4,0.1l-1,5.2c0.5,0.1,0.9,0.1,1.4,0.1c0.9,0.1,1.8-0.2,2.5-0.7c0.7-0.6,1.1-1.5,1.1-2.5
		c0-0.6-0.2-1.2-0.6-1.6C20,74.1,19.3,73.9,18.5,74z M19.5,77.9c-0.5,0.4-1.1,0.7-1.7,0.7c-0.2,0-0.4,0-0.6,0l0.7-3.9
		c0.2,0,0.4,0,0.6,0c1.1,0,1.6,0.6,1.6,1.5C20.1,76.8,19.9,77.4,19.5,77.9z"/>
	<path class="st0" d="M24.3,75.4c-0.5,0-1,0.2-1.3,0.7l0.5-2.3h-0.9l-1.1,5.6h0.9l0.3-1.8c0.1-0.8,0.7-1.3,1.1-1.3c0,0,0.1,0,0.1,0
		c0.2,0,0.4,0.3,0.4,0.5c0,0.2,0,0.3,0,0.5l-0.4,2.2h0.9l0.4-2.2c0-0.2,0.1-0.5,0.1-0.7c0,0,0-0.1,0-0.1
		C25.2,75.8,24.8,75.4,24.3,75.4z"/>
	<polygon class="st0" points="21.4,79.3 21.4,79.3 21.4,79.3 	"/>
	<path class="st0" d="M28.5,75.4c-1.5,0-2.6,1.3-2.6,2.7c0,0,0,0.1,0,0.1c0,0.7,0.5,1.2,1.1,1.2c0.6,0,1.1-0.4,1.4-1
		c0,0.3-0.1,0.6-0.1,0.9l0.9,0c0-0.6,0.1-1.2,0.2-1.8l0.4-2c-0.4-0.1-0.7-0.2-1.1-0.2C28.6,75.4,28.5,75.4,28.5,75.4z M28.4,77.2
		c-0.1,1-0.7,1.5-1.1,1.5c-0.4,0-0.6-0.3-0.6-0.7c0-0.9,0.6-1.7,1.5-1.8c0.1,0,0.3,0,0.4,0L28.4,77.2z"/>
	<path class="st0" d="M32.8,75.4c-0.5,0-1,0.2-1.3,0.7l0.5-2.3l-0.9,0l-0.8,4c0,0.2-0.1,0.4-0.1,0.7c0,0.7,0.5,1,1.3,1c0,0,0,0,0,0
		c1.4-0.1,2.5-1.2,2.5-2.7c0,0,0,0,0-0.1C34,76,33.5,75.4,32.8,75.4z M31.7,78.7c0,0-0.1,0-0.1,0c-0.3,0-0.4-0.2-0.4-0.5
		c0-0.1,0-0.3,0-0.4l0.1-0.4c0.1-0.8,0.7-1.3,1.1-1.3c0.5,0,0.6,0.4,0.6,0.8C33.1,77.7,32.5,78.7,31.7,78.7z"/>
	<polygon class="st0" points="34.4,79.3 35.3,79.3 36.1,75.5 35.1,75.5 	"/>
	<path class="st0" d="M35.8,73.9C35.8,73.9,35.8,73.9,35.8,73.9c-0.3,0-0.6,0.3-0.6,0.6c0,0.2,0.2,0.4,0.5,0.4v0.1c0,0,0,0,0,0
		c0.3,0,0.5-0.2,0.6-0.5c0,0,0,0,0,0C36.3,74.1,36.1,73.9,35.8,73.9z"/>
	<path class="st0" d="M41.6,76.3c-0.1,0.6-0.2,1.2-0.2,1.8c-0.1-0.5-0.3-1-0.5-1.7L40,74h-1.1l-1,5.4h0.9l0.5-2.3
		c0.1-0.9,0.2-1.5,0.3-2c0.1,0.6,0.3,1.2,0.5,1.7l1,2.5H42l0.9-5.4H42L41.6,76.3z"/>
	<path class="st0" d="M45.7,75.4c-1.5,0-2.6,1.3-2.6,2.7c0,0,0,0.1,0,0.1c0,0.7,0.5,1.2,1.1,1.2c0.6,0,1.1-0.4,1.4-1
		c-0.1,0.3-0.1,0.6-0.1,0.9h0.8c0-0.6,0.1-1.2,0.3-1.8l0.4-2c-0.4-0.1-0.8-0.2-1.2-0.2C45.8,75.4,45.8,75.4,45.7,75.4z M45.7,77.2
		c-0.1,1-0.7,1.5-1.1,1.5c-0.4,0-0.6-0.3-0.6-0.7c0-0.9,0.6-1.7,1.5-1.8c0.1,0,0.3,0,0.4,0L45.7,77.2z"/>
	<path class="st0" d="M49.3,74.5l-1,0.3l-0.1,0.7h-0.5l-0.1,0.7H48L47.7,78c-0.1,0.2-0.1,0.5-0.1,0.7c0,0.4,0.3,0.8,0.9,0.8
		c0.2,0,0.4,0,0.6-0.1l0.1-0.7c-0.1,0-0.2,0-0.3,0c0,0,0,0-0.1,0c-0.2,0-0.3-0.2-0.3-0.3c0-0.2,0-0.4,0.1-0.6l0.3-1.6h0.8l0.1-0.7
		h-0.9L49.3,74.5z"/>
	<path class="st0" d="M51.4,73.9C51.4,73.9,51.4,73.9,51.4,73.9c-0.3,0-0.6,0.3-0.6,0.6c0,0.2,0.2,0.4,0.5,0.4v0.1c0,0,0,0,0,0
		c0.3,0,0.5-0.2,0.5-0.5c0,0,0,0,0,0C51.9,74.1,51.7,73.9,51.4,73.9z"/>
	<polygon class="st0" points="50,79.3 50.9,79.3 51.6,75.5 50.7,75.5 	"/>
	<path class="st0" d="M54.2,75.4C54.2,75.4,54.1,75.4,54.2,75.4c-1.3,0.1-2.3,1.2-2.2,2.4c0,0.1,0,0.2,0,0.3
		c0.1,0.8,0.8,1.4,1.7,1.3c0,0,0,0,0,0c1.3-0.1,2.2-1.1,2.2-2.4c0,0,0-0.1,0-0.1C55.8,76,55.1,75.3,54.2,75.4z M53.7,78.7
		c-0.5,0-0.8-0.4-0.8-0.9c0-0.7,0.4-1.7,1.1-1.7c0.6,0,0.7,0.5,0.7,0.9C54.9,77.7,54.4,78.7,53.7,78.7z"/>
	<path class="st0" d="M59.1,75.4c-0.6,0-1.1,0.3-1.4,0.8l0.1-0.7h-0.8c-0.1,0.3-0.1,0.8-0.2,1.2l-0.5,2.6l0,0h0.9l0.3-1.8
		c0.1-0.9,0.7-1.4,1.1-1.4c0.4,0,0.5,0.2,0.5,0.6c0,0.1,0,0.3,0,0.4l-0.4,2.2h0.9l0.4-2.2c0-0.2,0.1-0.4,0.1-0.7c0-0.1,0-0.1,0-0.2
		C60,75.8,59.6,75.4,59.1,75.4z"/>
	<path class="st0" d="M63.3,75.4c-1.5,0-2.6,1.3-2.6,2.7c0,0,0,0.1,0,0.1c0,0.7,0.5,1.2,1.1,1.2c0.6,0,1.1-0.4,1.4-1
		c0,0.3-0.1,0.6-0.1,0.9H64c0-0.6,0.1-1.2,0.2-1.8l0.5-2c-0.4-0.1-0.8-0.2-1.2-0.2C63.4,75.4,63.4,75.4,63.3,75.4z M63.3,77.2
		c-0.1,1-0.7,1.5-1.1,1.5c-0.4,0-0.6-0.3-0.6-0.7c0-0.9,0.6-1.7,1.5-1.8c0.1,0,0.3,0,0.4,0L63.3,77.2z"/>
	<polygon class="st0" points="64.9,79.3 65.8,79.3 66.9,73.7 66,73.7 	"/>
	<polygon class="st0" points="71.7,77 71.8,76.2 69.9,76.2 70.2,74.8 72.2,74.8 72.4,74 69.4,74 68.4,79.3 71.5,79.3 71.6,78.6 
		69.5,78.6 69.8,77 	"/>
	<path class="st0" d="M76.2,75.5h-1.1l-0.5,0.7c-0.2,0.2-0.3,0.4-0.4,0.6c-0.1-0.1-0.1-0.3-0.2-0.6l-0.3-0.7l0,0h-1l0.9,1.9l-1.7,2
		h1.1l0.6-0.8c0.1-0.2,0.3-0.4,0.4-0.6c0.1,0.2,0.2,0.4,0.3,0.7l0.3,0.7h1l-0.9-2L76.2,75.5z"/>
	<polygon class="st0" points="76.1,79.3 76.1,79.3 76,79.3 	"/>
	<path class="st0" d="M78.9,75.4c-0.5,0-1,0.2-1.3,0.7l0.4-2.3h-0.9l-1.1,5.6H77l0.3-1.8c0.1-0.8,0.7-1.3,1.1-1.3c0,0,0.1,0,0.1,0
		c0.2,0,0.4,0.3,0.4,0.5c0,0.2,0,0.3,0,0.5l-0.4,2.2h0.9l0.4-2.2c0-0.2,0.1-0.5,0.1-0.7c0,0,0-0.1,0-0.1
		C79.9,75.8,79.5,75.4,78.9,75.4z"/>
	<path class="st0" d="M81.9,73.8C81.8,73.8,81.8,73.8,81.9,73.8c-0.3,0-0.6,0.3-0.6,0.6c0,0,0,0,0,0c0,0.3,0.2,0.5,0.5,0.4v0.1
		c0,0,0.1,0,0.1,0c0.3,0,0.5-0.3,0.4-0.6c0,0,0,0,0,0C82.3,74,82.1,73.8,81.9,73.8z"/>
	<polygon class="st0" points="80.4,79.3 81.4,79.3 82.1,75.5 81.2,75.5 	"/>
	<path class="st0" d="M85.2,75.4c-0.5,0-1,0.2-1.3,0.7l0.5-2.3l-0.9,0l-0.8,4c0,0.2-0.1,0.4-0.1,0.7c0,0.7,0.5,1,1.3,1c0,0,0,0,0,0
		c1.4-0.1,2.5-1.2,2.5-2.7c0,0,0-0.1,0-0.1C86.4,75.9,85.8,75.4,85.2,75.4z M84.1,78.7c0,0-0.1,0-0.1,0c-0.2,0-0.4-0.2-0.4-0.5
		c0-0.1,0-0.3,0-0.4l0.1-0.4c0.1-0.8,0.7-1.3,1.1-1.3c0.4,0,0.6,0.4,0.6,0.8C85.5,77.7,84.9,78.7,84.1,78.7z"/>
	<polygon class="st0" points="86.7,79.3 87.7,79.3 88.4,75.5 87.5,75.5 	"/>
	<path class="st0" d="M88.1,73.9C88.1,73.9,88.1,73.9,88.1,73.9c-0.3,0-0.6,0.3-0.6,0.6c0,0,0,0,0,0c0,0.3,0.3,0.4,0.5,0.4v0.1
		c0,0,0,0,0,0c0.3,0,0.5-0.2,0.5-0.5c0,0,0,0,0,0C88.6,74.1,88.4,73.9,88.1,73.9z"/>
	<path class="st0" d="M90.7,74.5l-1,0.3l-0.1,0.7h-0.5l-0.1,0.7h0.5L89.1,78C89,78.2,89,78.5,89,78.7c0,0.4,0.3,0.8,0.9,0.8
		c0.2,0,0.4,0,0.6-0.1l0.1-0.7c-0.1,0-0.2,0-0.3,0c0,0,0,0-0.1,0c-0.2,0-0.3-0.2-0.3-0.3c0-0.2,0-0.4,0.1-0.6l0.3-1.6h0.9l0.1-0.7
		h-0.9L90.7,74.5z"/>
	<path class="st0" d="M92.8,73.8C92.8,73.8,92.8,73.8,92.8,73.8c-0.3,0-0.6,0.3-0.6,0.6c0,0,0,0,0,0c0,0.3,0.2,0.4,0.5,0.4v0.1
		c0,0,0,0,0.1,0c0.3,0,0.5-0.3,0.5-0.6c0,0,0,0,0,0C93.3,74,93.1,73.8,92.8,73.8z"/>
	<polygon class="st0" points="91.4,79.3 92.3,79.3 93,75.5 92.1,75.5 	"/>
	<path class="st0" d="M95.7,75.4C95.6,75.4,95.6,75.4,95.7,75.4c-1.3,0.1-2.3,1.2-2.2,2.4c0,0.1,0,0.1,0,0.2
		c0.1,0.8,0.8,1.4,1.6,1.4c0,0,0,0,0,0c1.3-0.1,2.3-1.1,2.2-2.4c0,0,0-0.1,0-0.1C97.3,76,96.5,75.3,95.7,75.4z M95.2,78.7
		c-0.5,0-0.8-0.4-0.8-0.9c0-0.7,0.4-1.7,1.2-1.7c0.6,0,0.7,0.5,0.7,0.9C96.3,77.7,95.9,78.7,95.2,78.7z"/>
	<path class="st0" d="M100.5,75.4c-0.6,0-1.1,0.3-1.4,0.8l0.1-0.7h-0.8c-0.1,0.3-0.1,0.8-0.2,1.2l-0.5,2.6v0h0.9l0.3-1.8
		c0.1-0.9,0.7-1.4,1.1-1.4c0.4,0,0.5,0.2,0.5,0.6c0,0.1,0,0.3,0,0.4l-0.4,2.2h0.9l0.4-2.2c0-0.2,0.1-0.4,0.1-0.7c0-0.1,0-0.1,0-0.2
		C101.5,75.7,101,75.3,100.5,75.4z"/>
	<path class="st0" d="M106.9,74.7c0.3,0,0.7,0.1,1,0.2l0.3-0.8c-0.4-0.2-0.8-0.3-1.2-0.2c-0.1,0-0.2,0-0.2,0c-1.7,0.1-3.1,1.5-3,3.2
		c0,0.1,0,0.2,0,0.3c0.1,1.2,1.1,2,2.3,1.9c0.5,0,1-0.1,1.4-0.2v-0.7c-0.4,0.1-0.7,0.2-1.1,0.2c-0.1,0-0.2,0-0.3,0
		c-0.8-0.1-1.3-0.8-1.2-1.6c0-0.7,0.2-1.4,0.8-1.9C105.9,74.9,106.4,74.7,106.9,74.7z"/>
	<path class="st0" d="M110.3,75.4c-1.3,0.1-2.3,1.1-2.2,2.4c0,0.1,0,0.2,0,0.3c0.1,0.8,0.8,1.4,1.6,1.3c0.5,0,0.9-0.1,1.4-0.3l0-0.6
		c-0.3,0.2-0.7,0.3-1.1,0.2c-0.3,0-0.6-0.1-0.8-0.4c-0.1-0.2-0.1-0.4-0.1-0.6c1.5,0,2.5-0.3,2.5-1.3c0,0,0-0.1,0-0.1
		C111.5,75.7,110.9,75.3,110.3,75.4z M109.1,77.1c0.1-0.5,0.6-0.9,1.1-1c0.3,0,0.5,0.1,0.5,0.4C110.6,76.9,110,77.1,109.1,77.1z"/>
	<path class="st0" d="M114.6,75.4c-0.6,0-1.1,0.3-1.4,0.8l0.1-0.7h-0.8c-0.1,0.3-0.1,0.8-0.2,1.2l-0.5,2.7l0,0h0.9l0.3-1.8
		c0.1-0.9,0.7-1.4,1.1-1.4c0.4,0,0.5,0.2,0.5,0.6c0,0.1,0,0.3,0,0.4l-0.4,2.2h0.9l0.4-2.2c0-0.2,0.1-0.4,0.1-0.7c0-0.1,0-0.2,0-0.2
		C115.6,75.7,115.2,75.3,114.6,75.4z"/>
	<path class="st0" d="M118.1,74.5l-1,0.3l-0.1,0.7h-0.5l-0.1,0.7h0.5l-0.3,1.7c-0.1,0.2-0.1,0.5-0.1,0.7c0,0.4,0.3,0.8,0.9,0.8
		c0.2,0,0.4,0,0.6-0.1l0.1-0.7c-0.1,0-0.2,0-0.3,0c0,0,0,0-0.1,0c-0.2,0-0.3-0.2-0.3-0.3c0-0.2,0-0.4,0.1-0.6l0.3-1.6h0.9l0.1-0.7
		h-0.9L118.1,74.5z"/>
	<path class="st0" d="M120.2,76.3c0.1-0.3,0.1-0.5,0.1-0.8h-0.8c-0.1,0.4-0.1,0.9-0.2,1.5l-0.4,2.4h0.9l0.3-1.6
		c0.1-0.8,0.6-1.5,1.2-1.5h0.2l0.2-0.9h-0.2C120.8,75.4,120.4,75.8,120.2,76.3z"/>
	<path class="st0" d="M123.9,75.4c-1.3,0.1-2.3,1.1-2.2,2.4c0,0.1,0,0.2,0,0.3c0.1,0.8,0.8,1.4,1.6,1.3c0.5,0,0.9-0.1,1.3-0.3v-0.6
		c-0.3,0.2-0.7,0.3-1.1,0.2c-0.3,0-0.6-0.1-0.8-0.4c-0.1-0.2-0.1-0.4-0.1-0.6c1.5,0,2.5-0.3,2.5-1.3c0,0,0-0.1,0-0.1
		C125,75.7,124.5,75.3,123.9,75.4z M122.7,77.1c0.1-0.5,0.6-0.9,1.1-1c0.3,0,0.5,0.1,0.5,0.4C124.3,76.9,123.6,77.1,122.7,77.1z"/>
</g>
</svg>
