<?xml version="1.0" encoding="utf-8"?>
<!-- Generator: Adobe Illustrator 24.0.1, SVG Export Plug-In . SVG Version: 6.00 Build 0)  -->
<svg version="1.1" id="Layer_1" xmlns="http://www.w3.org/2000/svg" xmlns:xlink="http://www.w3.org/1999/xlink" x="0px" y="0px"
	 viewBox="0 0 510.2 170.1" style="enable-background:new 0 0 510.2 170.1;" xml:space="preserve">
<style type="text/css">
	.st0{fill:#FFFFFF;}
</style>
<path class="st0" d="M197.1,115.5l4-9.4l3.9,9.4H197.1z M203.5,102.9c-0.6-0.5-2.1-0.8-3.2-0.5c-1.1,0.3-1.9,1.5-3.1,4.4
	c-1.3,2.9-7.3,17.5-7.3,17.5h3.7l2.2-5.6h10.4l2.2,5.6h4.1C212.5,124.2,205,105,203.5,102.9"/>
<path class="st0" d="M264.2,115.5l4-9.4l3.9,9.4H264.2z M270.5,102.9c-0.5-0.5-2.1-0.8-3.2-0.5c-1.1,0.3-1.9,1.5-3.1,4.4
	c-1.3,2.9-7.3,17.5-7.3,17.5h3.7l2.2-5.6h10.5l2.2,5.6h4.1C279.5,124.2,272,105,270.5,102.9"/>
<path class="st0" d="M228.6,102.8v14.8c0,1.9-1.2,6.9-7.9,6.9c-2.8,0-4.8-0.5-8-3.8l2.5-2.3c2,2.4,3.7,2.8,5.3,2.8
	c2,0,4.4-1.1,4.4-4.5v-12.5c0-1.1,0.5-1.9,1.7-1.9C227.8,102.2,228.6,102.8,228.6,102.8"/>
<path class="st0" d="M281.7,124.2h3.8v-16.7l11.1,16.7h3.8v-21.5c-0.9-0.4-1.9-0.7-2.7-0.4s-1,1-1,1.5v14.4l-10.4-15.4
	c-0.9-0.5-1.8-0.8-2.8-0.6c-1.1,0.1-1.9,0.8-1.9,1.9v19.7L281.7,124.2L281.7,124.2z"/>
<path class="st0" d="M358,124.2h3.6v-21.5c-0.9-0.4-1.9-0.7-2.7-0.4s-1,1-1,1.5v20.3C357.9,124.2,358,124.2,358,124.2z"/>
<path class="st0" d="M448.7,124.2h3.6v-21.4c-0.2-0.4-1.9-0.8-2.7-0.5c-0.8,0.3-1,1-1,1.5v20.4H448.7z"/>
<path class="st0" d="M372.1,124.2h4.3l9-21.3c-1.4-0.8-2-0.7-2.9-0.6c-0.9,0.2-1.4,1.2-1.6,1.6s-6.6,16.5-6.6,16.5l-7.2-17.8
	c-0.9-0.3-2.3-0.6-2.9-0.1c-0.6,0.6-0.9,1.2-0.5,2.2S372.1,124.2,372.1,124.2"/>
<path class="st0" d="M386.9,124.2h16.2v-3.4h-12.5v-6h11.6c0,0,0.5-0.8,0.5-1.9s-1-1.5-1.8-1.5h-10.4v-5.6l12.1,0
	c0,0,0.5-0.8,0.5-1.9s-1-1.6-1.8-1.6h-12.2c-1.2,0-2.4,0.2-2.4,2.6S386.9,124.2,386.9,124.2"/>
<path class="st0" d="M414.7,113.2c-2.7,0.2-4.4-0.2-4.4-0.2v-7.2c0,0,1.7-0.2,2.5-0.2c4.2,0,7.1,0.8,7.1,3.8
	C420,112.4,417.4,113.1,414.7,113.2 M419.8,115.3c3.2-1.4,4-3.7,4.1-6c0-2.3-0.8-7.1-9.9-7.1c-4.9,0-7.3,0.1-7.3,2.6v19.1v0.3h3.9
	v-8.1c0,0,2.1,0.2,3,0.2s2.5-0.1,2.6-0.1c0.6,0.8,3.9,6.8,4.4,8h4.5C424.2,122.6,420.5,116,419.8,115.3"/>
<path class="st0" d="M426.7,122c2.5,1.4,5.4,2.5,9.4,2.5s9-1.4,9-6.7s-5.7-5.6-9.1-6.2s-5.3-1.1-5-3.6c0.4-2.5,3.7-2.5,5.6-2.4
	s5.1,1.1,6.2,2.1c1-1.1,1.9-2.8,0-3.9c-2-1.1-4.8-2.1-10.1-1.4c-3.1,0.5-5.3,2.7-5.5,5.2s0.2,5.7,7.1,7c5.2,0.9,7.4,1.1,6.8,4.1
	c-0.8,2.4-4.3,2.2-6.3,2.1c-1.9-0.2-5.3-1.4-6.4-2.2L426.7,122z"/>
<path class="st0" d="M462.4,124.2h3.7v-18.5h8c0,0,0.8-1.1,0.5-2.2s-0.9-1.2-2.2-1.2h-17.8c-0.6,1.7-0.5,2.1-0.3,2.6
	c0.2,0.5,0.7,0.8,1.9,0.8h6.2L462.4,124.2z"/>
<path class="st0" d="M488.5,116v8.2h-3.8V116l-8.3-12.8c0,0,1.1-0.8,1.8-0.9c0.8-0.1,1.3,0.1,1.5,0.5l6.9,9.9l6.8-9.8
	c0.4-0.6,1.1-0.8,2.1-0.6s1.6,0.8,1.6,0.8L488.5,116z"/>
<path class="st0" d="M200.8,79c3,0,5.6-1.2,7.7-3.5c2.1-2.3,3.2-5.1,3.2-8.3v-9.6h-3.9v9.1c0,2.2-0.6,4.2-1.7,5.8
	c-1.3,1.8-3.1,2.8-5.3,2.8s-4-0.9-5.3-2.8c-1.1-1.6-1.7-3.5-1.7-5.8v-9.1H190v9.6c0,3.3,1.1,6.1,3.3,8.4
	C195.4,77.8,197.8,79,200.8,79"/>
<rect x="199" y="50.8" class="st0" width="3.8" height="3.8"/>
<path class="st0" d="M279.4,73.2h0.8h6h0.8h25.8h1h3.1h3.5h4.1h18.4v-3.8h-9.7c-0.8-0.9-1.2-2.1-1.2-3.7c0-1.3,0.3-2.4,0.9-3.3
	c0.7-1,1.7-1.5,2.9-1.5c1.8,0,3,0.9,3.6,2.6l3.3-1.6c-1.1-2.8-3.7-4.4-6.8-4.4c-2.3,0-4.2,0.8-5.7,2.4c-1.5,1.6-2.2,3.6-2.2,5.9
	c0,1.3,0.2,2.5,0.8,3.6h-4.4h-0.6h-3.5h-3.5h-3.1h-1H310c-0.3-4.8-2-8.1-5.2-10c-1.8-1.1-3.9-1.7-6.3-1.7c-1.5,0-3,0.3-4.5,1
	c-1.4,0.6-2.6,1.4-3.7,2.4c0.9,1.3,1.5,2.3,1.9,3c0.8-0.9,1.9-1.6,3.1-2.2c1.1-0.4,2-0.7,2.9-0.7c2.5,0,4.5,0.9,5.9,2.6
	c1.2,1.5,1.8,3.3,1.8,5.5h-19h-0.8h-6h-0.8h-5.7h-1.1h-2.3v-1c0-2.3-0.7-4.2-2.1-5.7c-1.4-1.5-3.3-2.3-5.6-2.3
	c-2.3,0-4.2,0.8-5.6,2.2c-1.4,1.5-2.1,3.4-2.1,5.7v1.1h-2.8h-0.9h-6h-0.8h-6h-0.8h-6H231h-5.6h-1.2h-1.1c-1.4,0-2.4-0.2-3-0.6
	c-0.7-0.5-1.1-1.6-1.1-3.3V51.1h-3.8V67c0,1.9,0.4,3.4,1.4,4.5c1,1.2,2.4,1.8,4.3,1.8h3.3h1.2h5.6h0.8h6h0.8h6h0.8h5.9h0.9h4.4
	c1.5,2,3.5,3,6.2,3s4.8-1,6.2-3h3.8h1.1C273.7,73.2,279.4,73.2,279.4,73.2z M265.5,71.5c-0.7,0.9-1.6,1.3-2.8,1.3
	c-2.4,0-3.9-2-3.9-4.5c0-1.2,0.3-2.2,0.9-3c0.7-0.9,1.6-1.4,2.8-1.4c1.2,0,2.2,0.5,2.9,1.4c0.6,0.9,0.9,1.9,0.9,3.1
	C266.3,69.6,266,70.7,265.5,71.5"/>
<rect x="296.7" y="76.9" class="st0" width="3.8" height="3.9"/>
<rect x="358.2" y="47.9" class="st0" width="3.8" height="3.9"/>
<rect x="364.7" y="47.9" class="st0" width="3.8" height="3.9"/>
<path class="st0" d="M413.1,73.2h6.3h1h5.8h0.9h5.3c1.5,2,3.6,3.1,6.2,3.1c4.6,0,7.7-3.4,7.7-7.9s-3.1-8-7.7-8
	c-4.6,0-7.8,3.3-7.8,7.9c0,0.3,0,0.6,0.1,0.9v0.2H427h-0.9h-5.8h-1h-5.5c-0.8,0-1.3,0-1.5-0.1c-0.4-0.1-0.9-0.4-1.4-0.9
	c1.2-0.9,2.6-2.1,4-3.9c1.3-1.6,2.1-2.9,2.4-3.8c-2.8-2.4-6-3.6-9.8-3.6c-3.2,0-6.3,0.9-9.3,2.8v3.6c1.3,0.3,2.7,0.9,4.1,1.9
	c1.4,0.9,2.4,1.8,2.9,2.5c-0.8,0.6-1.7,0.9-2.5,1.1c-0.7,0.2-1.5,0.2-2.7,0.2h-4.9h-0.9h-6h-0.6h-6H381h-5.9h-1h-1.5
	c-2.6,0-3.9-1.4-3.9-4.1V54.3h-8.5c-4.4,0-7.1,3.2-7.1,8.4c0,4.8,2.7,8.1,7.1,8.1c1.7,0,3.2-0.9,4.4-2.6c0.8,3.1,3.2,5.1,6.2,5.1
	h3.2h1h5.9h0.8h6h0.8h6h0.9h4.9c2.6,0,5.1-0.8,7.6-2.5c0.6,0.7,1.3,1.2,2.2,1.6C411.1,73,412.1,73.2,413.1,73.2 M438.4,63.9
	c2.3,0,3.9,2,3.9,4.6s-1.5,4.4-3.7,4.4c-2.3,0-3.9-2-3.9-4.5C434.7,65.7,436.3,63.9,438.4,63.9 M364.8,62.4c0,2.9-1.5,5.3-4,5.3
	c-2.3,0-3.8-2.3-3.8-4.9c0-3.2,1.7-5.3,4.3-5.3h3.5L364.8,62.4L364.8,62.4z M402.5,62c1.8-0.9,3.6-1.4,5.3-1.4c1.8,0,3.4,0.4,5,1.4
	c-0.5,0.7-1.1,1.5-1.9,2.3c-0.9,0.9-1.7,1.5-2.5,1.9C406.6,64.1,404.6,62.8,402.5,62"/>
<path class="st0" d="M455.4,73.2h3.3h1.2h5.6h0.8h5.8h1h23.2v-2.4c0-5.4-1.6-9.1-4.9-11.3c-1.9-1.3-4.1-1.9-6.6-1.9
	c-1.5,0-3,0.3-4.6,1c-1.4,0.6-2.6,1.4-3.7,2.4c0.9,1.3,1.5,2.3,1.9,3c0.8-0.9,1.9-1.7,3.1-2.2c1.1-0.4,2-0.7,2.9-0.7
	c2.5,0,4.5,0.9,5.9,2.6c1.2,1.5,1.8,3.3,1.8,5.5h-19h-1h-5.8h-0.8h-5.6h-1.2h-1.1c-1.4,0-2.4-0.2-3-0.6c-0.7-0.5-1.1-1.6-1.1-3.3V51
	h-3.8v15.8c0,1.9,0.4,3.4,1.4,4.5C452.1,72.7,453.5,73.2,455.4,73.2"/>
<rect x="482.8" y="77" class="st0" width="3.8" height="3.9"/>
<rect x="189.7" y="88.1" class="st0" width="306.6" height="0.9"/>
<path class="st0" d="M242,119.9l-6-12l-1,16.3h-3.6l1.2-21.4c1.7-0.8,2.5-0.7,3.3-0.5c0.8,0.2,1.4,1,1.9,2c0.5,1,5.5,11.1,5.5,11.1
	l0,0c0,0,5-10.1,5.5-11.1s1.1-1.8,1.9-2c0.8-0.2,1.6-0.3,3.3,0.5l1.2,21.4h-3.6l-1-16.3l-6,12H242z"/>
<path class="st0" d="M321.4,124.4c-6.5,0-9.9-3.7-9.9-10v-11.7c0.3-0.3,1.4-0.5,2.4-0.4s1.5,0.7,1.5,1.7v9.5c0,7.3,3.7,7.6,6,7.6
	l0,0c2.4,0,6-0.3,6-7.6V104c0-1,0.5-1.6,1.5-1.7s2.1,0.2,2.4,0.4v11.7C331.3,120.8,327.9,124.4,321.4,124.4
	C321.4,124.4,321.4,124.4,321.4,124.4z"/>
<path class="st0" d="M335,124.2h3.8v-16.7l11.1,16.7h3.8v-21.5c-0.9-0.4-1.9-0.7-2.7-0.4s-1,1-1,1.5v14.4l-10.4-15.4
	c-0.9-0.5-1.8-0.8-2.8-0.6c-1.1,0.1-1.9,0.8-1.9,1.9v19.7L335,124.2L335,124.2z"/>
<path class="st0" d="M90.7,112L90.7,112c-0.3,0-0.7,0.3-0.7,0.7v13.4h0.3h1.1v-13.4C91.3,112.2,91,112,90.7,112"/>
<path class="st0" d="M80.1,114L80.1,114c-0.4,0.2-0.5,0.5-0.4,0.9l4.9,12.1c0.4-0.2,0.9-0.3,1.3-0.4L81,114.3
	C80.9,114.1,80.4,113.9,80.1,114"/>
<path class="st0" d="M71.2,119.9L71.2,119.9c-0.3,0.3-0.3,0.7,0,1l8.6,8.8c0.3-0.3,0.7-0.5,1.1-0.8l-8.8-9
	C71.9,119.6,71.4,119.6,71.2,119.9"/>
<path class="st0" d="M65.1,128.7L65.1,128.7c-0.2,0.4,0,0.7,0.3,0.9l10.6,4.6c0.3-0.4,0.4-0.8,0.7-1.1L66,128.4
	C65.6,128.2,65.3,128.4,65.1,128.7"/>
<path class="st0" d="M110,119.9L110,119.9c-0.3-0.3-0.7-0.3-1,0l-9.2,9.3c0.3,0.3,0.7,0.5,1.1,0.9l9.1-9.2
	C110.4,120.6,110.3,120.2,110,119.9"/>
<path class="st0" d="M116.1,128.7L116.1,128.7c-0.2-0.3-0.5-0.5-0.9-0.3l-11.4,4.9c0.3,0.4,0.4,0.8,0.7,1.1l11.3-4.9
	C116.1,129.4,116.3,129.1,116.1,128.7"/>
<path class="st0" d="M76.8,141.5c0.4-6.9,6.1-12.3,13.1-12.3c7.2,0,13.1,5.7,13.2,12.9c-6.4,4.1-10.7,8.8-12.6,11
	C88.4,150.7,83.9,145.7,76.8,141.5 M166.8,86.2c0,42.5-34.4,76.8-76.8,76.8s-76.8-34.4-76.8-76.8S47.5,9.3,89.9,9.3
	C132.4,9.3,166.8,43.8,166.8,86.2 M90.5,158L90.5,158c-0.9-1.1-16.5-20.2-46.2-16.4c2.4,1.9,4.9,3.8,7.5,5.5
	C57.9,146.9,75.3,147.4,90.5,158 M128.1,147c2.6-1.7,5.2-3.5,7.7-5.6c-29-3.4-44.2,15.3-45.2,16.6C104.9,148,121.2,146.9,128.1,147
	 M161.7,86.2c0-39.6-32.2-71.8-71.8-71.8S18.2,46.5,18.2,86.2c0,20.5,8.6,39,22.5,52.1c32-6.3,48.7,17.4,48.9,17.7l1.1,1.6l1.1-1.6
	c0.2-0.3,16.5-23.5,47.8-17.9h0.2C153.2,125,161.7,106.6,161.7,86.2"/>
<g>
	<path class="st0" d="M42.6,85.8c0.3,0,0.6-0.1,0.8-0.3c0.2-0.2,0.3-0.4,0.3-0.5c0-0.3-0.1-0.4-0.3-0.5c-0.2-0.2-0.4-0.3-0.8-0.3
		s-0.6,0.1-0.8,0.3c-0.2,0.2-0.3,0.4-0.3,0.5c0,0.3,0.1,0.4,0.3,0.5C42,85.6,42.3,85.8,42.6,85.8z"/>
	<path class="st0" d="M33.8,84.5c-0.1-0.1-0.2-0.2-0.4-0.3c-0.2-0.1-0.3-0.1-0.4-0.1c-0.2,0-0.3,0-0.4,0.1c-0.2,0.1-0.3,0.1-0.4,0.3
		c-0.1,0.1-0.2,0.2-0.3,0.4c-0.1,0.3-0.1,0.4-0.1,0.5s0,0.3,0.1,0.4c0.1,0.2,0.2,0.3,0.3,0.4c0.1,0.1,0.2,0.2,0.4,0.2
		c0.2,0.1,0.3,0.1,0.4,0.1c0.2,0,0.4,0,0.4-0.1c0.2-0.1,0.3-0.1,0.4-0.3c0.1-0.1,0.2-0.2,0.3-0.4c0.1-0.1,0.1-0.3,0.1-0.4
		s0-0.3-0.1-0.4C34,84.7,33.9,84.6,33.8,84.5z"/>
	<path class="st0" d="M42.6,86.5c-0.3,0-0.7,0.1-0.9,0.2c-0.2,0.2-0.3,0.4-0.3,0.6c0,0.3,0.1,0.4,0.3,0.6c0.2,0.1,0.5,0.2,0.9,0.2
		s0.7-0.1,0.9-0.2c0.2-0.2,0.3-0.4,0.3-0.6c0-0.3-0.1-0.4-0.3-0.6C43.3,86.5,43,86.5,42.6,86.5z"/>
	<path class="st0" d="M37.7,85.8c0.4,0,0.6-0.1,0.8-0.3c0.2-0.2,0.3-0.4,0.3-0.5c0-0.3-0.1-0.4-0.3-0.5c-0.2-0.2-0.4-0.3-0.8-0.3
		c-0.4,0-0.6,0.1-0.8,0.3c-0.2,0.2-0.3,0.4-0.3,0.5c0,0.3,0.1,0.4,0.3,0.5C37.1,85.6,37.3,85.8,37.7,85.8z"/>
	<path class="st0" d="M37.7,86.5c-0.4,0-0.7,0.1-0.9,0.2c-0.2,0.2-0.3,0.4-0.3,0.6c0,0.3,0.1,0.4,0.3,0.6c0.3,0.1,0.5,0.2,0.9,0.2
		c0.4,0,0.7-0.1,0.9-0.2c0.2-0.2,0.3-0.4,0.3-0.6c0-0.3-0.1-0.4-0.3-0.6C38.4,86.5,38,86.5,37.7,86.5z"/>
	<path class="st0" d="M140,84.5c-0.3,0-0.5,0.1-0.7,0.3c-0.2,0.2-0.3,0.4-0.3,0.7s0.1,0.5,0.3,0.7c0.2,0.2,0.4,0.3,0.8,0.3
		s0.5-0.1,0.7-0.3c0.2-0.2,0.3-0.4,0.3-0.7c0-0.3-0.1-0.5-0.3-0.7C140.6,84.6,140.3,84.5,140,84.5z"/>
	<path class="st0" d="M93.8,16.4c-1.3-0.1-2.7-0.1-4-0.1c-36.9,0-67.5,28.9-69.6,65.8c-1.1,19.9,6.3,39.4,20.6,53.6
		c1.8-0.4,3.5-0.7,5.1-0.9l14.5-97.2l0.1-1.4h3.9c1.6,0,1.4,1.4,1.4,1.4v4.8h4.8v-4.9c0-1.6,1.3-1.4,1.3-1.4h2.2
		c0,0,1.2-0.1,1.2,1.4v4.9h4.8v-4.9c0-1.5,1.1-1.4,1.1-1.4h2.5c1.2,0,1.2,1.4,1.2,1.4v4.9h4.8v-4.9c0,0-0.1-1.3,1.2-1.3h2.6
		c1,0,1,1.4,1,1.4v4.8h4.8v-4.9c0,0-0.1-1.4,1.4-1.4h2.3c1.2,0,1.1,1.3,1.1,1.3v4.9h4.8v-4.9c0,0-0.2-1.4,1.4-1.4h2
		c1.4,0,1.3,1.4,1.3,1.4v4.9h4.8v-4.9c0,0-0.2-1.4,1.1-1.4h4l11,98.7c1.7,0.1,3.5,0.2,5.2,0.5c11.8-12,19-28,20-45.2
		C161.7,51.6,132.1,18.6,93.8,16.4z M30.1,88.6h-0.9v-4h-0.1v0L28,85.4c0,0-0.1,0-0.1-0.1c-0.1,0-0.1-0.1-0.1-0.1l-0.1-0.1V85
		c0-0.1,0-0.2,0.1-0.3c0.1-0.1,0.2-0.2,0.3-0.3l0.9-0.6c0.1-0.1,0.3-0.2,0.4-0.2c0.1-0.1,0.3-0.1,0.3-0.1c0.1,0,0.2,0,0.3,0.1
		c0.1,0,0.2,0.1,0.2,0.1V88.6z M34.8,86.3c-0.2,0.3-0.3,0.6-0.5,0.9L33,88.7h-1l1.3-1.8c-0.1,0-0.1,0.1-0.3,0.1
		c-0.1,0-0.2,0.1-0.3,0.1c-0.3,0-0.5-0.1-0.8-0.2c-0.3-0.1-0.4-0.2-0.5-0.4c-0.2-0.2-0.3-0.3-0.4-0.5C31,85.9,31,85.6,31,85.5
		c0-0.3,0.1-0.5,0.2-0.7c0.1-0.3,0.3-0.4,0.4-0.6s0.3-0.3,0.6-0.3c0.3-0.1,0.5-0.2,0.8-0.2c0.3,0,0.5,0.1,0.8,0.1
		c0.3,0.1,0.4,0.2,0.6,0.4c0.2,0.2,0.3,0.3,0.4,0.5c0.1,0.2,0.2,0.4,0.2,0.7C35.1,85.6,35,86,34.8,86.3z M39.7,87.4
		c0,0.3-0.1,0.4-0.2,0.6c-0.1,0.2-0.3,0.4-0.4,0.4c-0.2,0.1-0.3,0.3-0.6,0.3c-0.3,0.1-0.5,0.1-0.9,0.1c-0.3,0-0.6,0-0.9-0.1
		c-0.3-0.1-0.4-0.2-0.6-0.3c-0.2-0.1-0.3-0.3-0.4-0.4c-0.1-0.2-0.2-0.3-0.2-0.6V87c0-0.1,0.1-0.3,0.2-0.3c0.1-0.1,0.2-0.2,0.3-0.3
		c0.3-0.1,0.4-0.2,0.6-0.3c-0.3-0.2-0.4-0.4-0.6-0.5c-0.1-0.2-0.2-0.4-0.2-0.6c0-0.2,0.1-0.4,0.2-0.6s0.2-0.3,0.3-0.4
		c0.2-0.1,0.4-0.3,0.6-0.3c0.3-0.1,0.5-0.1,0.8-0.1s0.5,0,0.8,0.1c0.3,0.1,0.4,0.2,0.6,0.3c0.2,0.1,0.3,0.3,0.4,0.4
		c0.1,0.2,0.2,0.4,0.2,0.6c0,0.2-0.1,0.4-0.2,0.6c-0.1,0.2-0.3,0.3-0.6,0.5c0.2,0.1,0.3,0.2,0.4,0.3c0.1,0.1,0.2,0.2,0.3,0.3
		c0.1,0.1,0.1,0.2,0.2,0.3V87.4z M44.7,87.4c0,0.3-0.1,0.4-0.2,0.6c-0.1,0.2-0.3,0.4-0.4,0.4c-0.2,0.1-0.3,0.3-0.6,0.3
		c-0.3,0.1-0.5,0.1-0.9,0.1c-0.3,0-0.6,0-0.9-0.1c-0.3-0.1-0.4-0.2-0.6-0.3c-0.2-0.1-0.3-0.3-0.4-0.4c-0.1-0.2-0.2-0.3-0.2-0.6V87
		c0-0.1,0.1-0.3,0.2-0.3c0.1-0.1,0.2-0.2,0.3-0.3c0.3-0.1,0.4-0.2,0.6-0.3c-0.3-0.2-0.4-0.4-0.6-0.5c-0.1-0.2-0.2-0.4-0.2-0.6
		c0-0.2,0.1-0.4,0.2-0.6S41,84,41.2,84c0.2-0.1,0.4-0.3,0.6-0.3c0.3-0.1,0.5-0.1,0.8-0.1s0.5,0,0.8,0.1c0.3,0.1,0.4,0.2,0.6,0.3
		c0.2,0.1,0.3,0.3,0.4,0.4c0.1,0.2,0.2,0.4,0.2,0.6c0,0.2-0.1,0.4-0.2,0.6c-0.1,0.2-0.3,0.3-0.6,0.5c0.2,0.1,0.3,0.2,0.4,0.3
		c0.1,0.1,0.2,0.2,0.3,0.3c0.1,0.1,0.1,0.2,0.2,0.3V87.4z M136.8,88.8h-1v-4.3l1-0.6V88.8z M142.1,88.8H141v-1.9
		c-0.3,0.3-0.6,0.4-1.2,0.4c-0.7,0-1.2-0.2-1.6-0.5c-0.4-0.4-0.5-0.8-0.5-1.3c0-0.5,0.2-1,0.6-1.2c0.3-0.3,0.9-0.5,1.5-0.5
		s1.1,0.2,1.5,0.5c0.5,0.3,0.7,0.7,0.7,1.2V88.8z M146.3,88.8l-1-4l-1.1,4h-1.1l1.4-5h1.4l1.4,5H146.3z M151.5,88.8l-1-4l-1,4h-1.1
		l1.4-5h1.4l1.4,5H151.5z"/>
</g>
<path class="st0" d="M93.2,136.4c0,0,0.3-0.1,1.2,0.2c1,0.3,1.2,0.7,1.2,0.7l6.1-14.4c0,0,0.2-0.3-0.5-0.8c-0.7-0.4-1.4-0.6-2-0.6
	c-0.6,0-0.5,0.2-0.8,0.9C98,123.1,93.2,136.4,93.2,136.4"/>
<path class="st0" d="M102.3,121c0,0-0.3-0.4-1.3-0.8c-1.1-0.4-1.8-0.3-1.8-0.3s5-11.6,10.1-24.5c6.5-16.3,13.8-34.8,14.2-35.5
	c0.3-0.8,1.5-0.3,1.2,0.5c-0.1,0.3-6.5,19.4-12.7,36C107.1,109.4,102.3,121,102.3,121"/>
<path class="st0" d="M94.2,137.5c-0.5-0.3-1.2-0.2-1.2-0.2l-2.7,6.8l2.8-6.6l0.3,0.4c-0.3,0.4-3.1,6.3-3.1,6.3h0.1
	c0.1,0,0.1,0,0.2-0.1c0,0,0.5-1.5,1.7-2.3c1.1-0.8,2.1-1.1,2.1-1.1l0.4-2.8C94.8,138,94.8,137.8,94.2,137.5"/>
<path class="st0" d="M134.3,134.8l-1-8.4l-6.2,2.3c-1.1-2.7-2.4-5.4-4-7.8l5.9-3.9c-2.7-4.1-6-7.8-9.9-10.8l-4.4,5.5
	c-2.3-1.8-4.8-3.4-7.5-4.8l3.1-6.3c-4.3-2.1-9.1-3.6-14-4.2l-1,7.1c-1.8-0.3-3.6-0.3-5.5-0.3s-3.7,0.2-5.6,0.3l-1-7.1
	c-4.9,0.7-9.7,2.1-14,4.2l3.1,6.4c-2.6,1.3-5.1,2.9-7.4,4.8l-4.5-5.6c-3.8,3.1-7.1,6.7-9.9,10.8l6,3.9c-1.6,2.4-2.9,5-4,7.7
	l-5.7-2.2l-1.2,8.3c1.8-0.2,3.6-0.3,5.4-0.3c2.1,0,4.2,0,6.1,0.3c0.3-1.4,0.7-2.8,1.2-4.1c0.9-2.3,2-4.5,3.3-6.5
	c1.9-2.9,4.3-5.6,7-7.8c1.9-1.6,4.1-2.9,6.2-4.1c3.1-1.5,6.5-2.6,10.1-3.1c1.5-0.2,3.1-0.3,4.7-0.3s3.1,0.1,4.6,0.3
	c3.5,0.5,7,1.5,10,3.1c2.3,1.1,4.4,2.5,6.3,4c2.7,2.2,5.1,4.8,7.1,7.8c1.3,2,2.5,4.2,3.3,6.6c0.5,1.4,1,2.8,1.2,4.2
	C126.3,134.6,130.2,134.4,134.3,134.8"/>
</svg>
