<?xml version="1.0" encoding="UTF-8"?><svg id="Layer_2" xmlns="http://www.w3.org/2000/svg" viewBox="0 0 1006.11 674.27"><defs><style>.cls-1{fill:#fff;}</style></defs><g id="Layer_1-2"><path class="cls-1" d="M989.99,0c.81,5.24,1.65,10.48,2.44,15.73,2.57,17.04-3.57,23.55-21.91,23.32-74.45-.94-148.91-.44-223.37-.36-29.97,.03-36.36,6.48-36.39,36.66-.07,70.32-.06,140.65,0,210.97,.02,28.5,.24,28.69,29.77,28.71,61.04,.05,122.09,.34,183.12-.21,14.57-.13,22.21,2.51,21.95,19.64-.24,16.48-8.14,18.11-21.43,18.02-63.72-.43-127.45,.25-191.17-.49-16.46-.19-22.63,4.92-22.5,21.7,.58,78.36,.44,156.72,.13,235.08-.07,17.93,7.38,24.82,25.52,24.68,80.49-.62,160.99-.14,241.48-.57,11.38-.06,21.15,1.36,28.48,10.71v20.11c-7.84,8.43-17.44,10.63-28.9,10.59-94-.38-188-.17-282-.24-23.78-.02-26.86-2.91-26.9-26.64-.15-89.83-.59-179.66,.31-269.49,.2-20.3-5.97-26.72-26.44-25.96-41.57,1.53-83.24,.42-124.87,.5-6.46,.01-12.93,.56-20.81,.93,1.7,3.61,2.02,5.95,3.3,6.76,62.49,39.23,73.39,99.66,64.36,165.42-12,87.43-67.35,136.27-156.02,145.03-69.03,6.82-138.14,1.37-207.17,3.64-16.58,.54-16.22-9.67-16.21-21.01,.07-90.5,.05-181,.01-271.5q-.01-29.41-29.8-29.43c-44.31,0-88.63-.39-132.94,.22C7.78,352.69,.07,350.88,0,333.23c-.07-18.77,9.9-18.38,22.94-18.3,46.33,.28,92.67-.57,138.98,.44,17.87,.39,23.26-6.07,23.14-23.31-.59-87.14,.4-174.3-.74-261.44-.27-20.9,6.35-26.07,26.38-25.46,59.63,1.83,119.4-1.86,178.95,4.43,39.11,4.13,76.78,12.76,109.37,36.16,36.98,26.54,52.91,63.42,55.93,108.35,3.5,52.09-8.48,97.73-45.03,136.2-6.63,6.98-22.4,11.75-18.58,20.57,4.11,9.49,19.32,3.81,29.55,3.95,38.94,.53,77.88,.23,116.83,.21q30.45-.02,30.5-31.43c.03-83.8,.2-167.59-.18-251.39-.06-12.65,1.64-23.71,11.75-32.21C783.19,0,886.59,0,989.99,0ZM228.08,339.17c0,87.73-.12,175.46,.08,263.19,.06,26.6,6.66,33.48,33.44,33.53,44.2,.08,88.53,2.57,132.54-3.1,34.3-4.42,67.09-13.8,93.16-38.23,65.41-61.32,33.43-192.37-55.09-226.51-29.82-11.5-29.17-11.5-29.4-43.28-.09-13.24,4.54-19.32,17.3-22.02,13.79-2.91,26.54-9.11,38.31-17.07,41.34-27.96,50.96-68.96,49.98-115.68-1.44-69.13-47.86-117.95-117.01-123.7-42.23-3.51-84.36-2.01-126.54-2.47-30.56-.33-36.73,6.06-36.76,36.15-.1,86.39-.04,172.78-.02,259.17Z"/></g></svg>