<?xml version="1.0" encoding="utf-8"?>
<!-- Generator: Adobe Illustrator 24.0.1, SVG Export Plug-In . SVG Version: 6.00 Build 0)  -->
<svg version="1.1" id="Layer_1" xmlns="http://www.w3.org/2000/svg" xmlns:xlink="http://www.w3.org/1999/xlink" x="0px" y="0px"
	 viewBox="0 0 287.5 100" style="enable-background:new 0 0 287.5 100;" xml:space="preserve">
<style type="text/css">
	.st0{fill:#FFFFFF;}
</style>
<title>Informa_Cityscape_Master_Logo_CMYK</title>
<g>
	<polygon class="st0" points="13.9,25.1 13.9,89.7 21,87.5 21,30.4 	"/>
	<polygon class="st0" points="13.9,25.1 21,30.4 21,87.5 34,83.6 34,6.2 13.9,17.3 	"/>
	<polyline class="st0" points="61.6,28.9 61.6,87.6 72.3,90.7 72.3,18.9 47.7,0 47.7,36.6 	"/>
	<polygon class="st0" points="47.7,36.6 37.7,42.2 37.7,100 61.6,92.9 61.6,87.6 47.7,83.6 	"/>
	<polygon class="st0" points="47.7,36.6 47.7,83.6 61.6,87.6 61.6,28.9 	"/>
	<polygon class="st0" points="13.9,25.1 0,14.6 0,92.9 21,100 21,87.5 13.9,89.7 	"/>
	<path class="st0" d="M122.9,61.8v-5.6h6v5.6H122.9z M123.1,87.6V65.3h5.6v22.3C128.7,87.6,123.1,87.6,123.1,87.6z"/>
	<path class="st0" d="M135.1,80V69.9h-3.8v-4.6h3.8v-7.2h5.6v7.2h4.6l2,4.6h-6.6v9.7c0,1.3,0.2,2.2,0.6,2.9c0.5,0.7,1.2,1.1,2.1,1
		c0.7,0,1.4-0.1,2.1-0.4c0.8-0.3,1.5-0.7,2-1.3l1.8,3.9c-1,0.8-2.1,1.5-3.3,1.9s-2.4,0.6-3.6,0.6c-2.7,0-4.6-0.8-5.7-2.3
		C135.7,84.5,135.1,82.5,135.1,80z"/>
	<path class="st0" d="M148.7,95.9l2.5-3.9c0.3,0.3,0.7,0.5,1,0.7c0.4,0.2,0.9,0.4,1.4,0.4c0.7,0,1.5-0.3,1.9-0.9
		c0.6-0.9,1.2-1.9,1.5-2.9l0.7-1.8l-10-22.1h6.5l6.4,15.2l5.6-15.2h6.1L163,87.7c-0.4,1.1-0.9,2.2-1.4,3.4c-0.4,1.1-1,2.2-1.6,3.3
		c-0.6,1-1.4,1.8-2.4,2.4c-1.1,0.7-2.4,1-3.7,0.9c-1.1,0-2.1-0.1-3.2-0.5C150.2,96.9,149.4,96.5,148.7,95.9z"/>
	<path class="st0" d="M171.9,84.9l3.4-3.7c0.8,0.7,1.7,1.3,2.6,1.7c1.2,0.5,2.4,0.7,3.6,0.7c1,0,2-0.1,2.9-0.5
		c0.7-0.2,1.1-0.8,1.1-1.5c0-0.4-0.1-0.8-0.4-1.2c-0.4-0.4-1-0.8-1.6-1c-1.2-0.5-2.4-0.8-3.7-1.1c-1.1-0.3-2.1-0.7-3.1-1.1
		c-1.1-0.5-2.1-1.2-2.8-2.2c-0.8-1-1.2-2.3-1.2-3.5c0-1.4,0.4-2.7,1.4-3.8c0.9-1.1,2.1-1.9,3.5-2.4s2.9-0.8,4.3-0.8
		c1.7,0,3.4,0.2,5,0.6c1.3,0.4,2.6,1,3.7,1.9l-2.9,3.9c-0.7-0.5-1.5-0.9-2.4-1.2c-1.1-0.4-2.3-0.6-3.4-0.5c-1.3,0-2.2,0.2-2.8,0.6
		c-0.5,0.3-0.8,0.9-0.8,1.4c0,0.7,0.4,1.2,1.3,1.6c1.3,0.5,2.7,1,4.1,1.3c2.2,0.5,4,1.3,5.4,2.4c1.3,1.1,2,2.7,2,4.8
		c0,1.4-0.4,2.7-1.3,3.7c-0.9,1.1-2.1,1.9-3.5,2.4c-1.5,0.6-3.1,0.9-4.8,0.9c-1.9,0-3.8-0.3-5.6-0.9C174.4,87,173,86.1,171.9,84.9z"
		/>
	<path class="st0" d="M210.7,81.1l3.3,3.6c-1.1,1.1-2.3,2-3.7,2.7c-1.6,0.7-3.3,1-5,1c-2.3,0.1-4.5-0.5-6.6-1.5
		c-1.7-1-3.2-2.4-4.1-4.2c-1-1.9-1.4-4-1.4-6.2c0-2.1,0.5-4.1,1.5-5.9s2.4-3.3,4.2-4.3c1.9-1.2,4.1-1.8,6.4-1.9c1.8,0,3.6,0.2,5,0.9
		c1.4,0.6,2.7,1.5,3.8,2.6l-3.6,3.6c-0.6-0.7-1.4-1.3-2.2-1.7c-1-0.4-2-0.6-3-0.5c-1.3,0-2.6,0.5-3.7,1.3c-0.9,0.7-1.6,1.5-2.1,2.6
		s-0.7,2.2-0.7,3.4c0,1.1,0.2,2.2,0.7,3.3c0.4,1.1,1.2,2,2.1,2.7c1.1,0.7,2.3,1.1,3.6,1.1c1.1,0,2.1-0.2,3.1-0.6
		C209.3,82.4,210.1,81.8,210.7,81.1z"/>
	<path class="st0" d="M230.3,87.6l-0.1-2.1c-0.8,0.8-1.7,1.5-2.8,1.9c-1.3,0.6-2.7,0.9-4.1,0.9c-1.2,0-2.5-0.3-3.6-0.8
		c-1.2-0.5-2.2-1.3-2.9-2.4c-0.8-1.2-1.2-2.6-1.2-4.1c0-2.5,0.9-4.5,2.7-5.9s4.2-2.1,7.1-2.1c0.5,0,1.2,0,1.9,0s1.7,0.1,2.9,0.1
		v-0.5c0-1-0.5-2-1.3-2.6c-0.9-0.6-2-0.9-3.4-0.9c-1.3,0-2.6,0.3-3.8,0.9c-0.8,0.4-1.6,0.8-2.4,1.3l-2.8-3.6c0.7-0.5,1.5-1,2.3-1.4
		c0.9-0.5,1.9-0.9,3-1.2c1.5-0.4,2.9-0.6,4.4-0.6c2.8,0,5.1,0.8,6.8,2.3s2.6,3.6,2.6,5.8v15L230.3,87.6z M230.2,79.7v-2.2
		c-0.7-0.1-1.5-0.1-2.4-0.1s-1.5,0-1.9,0c-1.8,0-3.1,0.4-3.8,1.1c-0.7,0.6-1.1,1.5-1.1,2.4s0.3,1.7,1,2.2s1.7,0.8,3,0.8
		c1.7,0,3.3-0.8,4.4-2.1C229.9,81.2,230.2,80.5,230.2,79.7z"/>
	<path class="st0" d="M239.8,97.1V65.3h5.4l0.1,2.5c0.8-0.8,1.6-1.4,2.6-1.9c1.2-0.7,2.7-1,4.5-1c2.3,0,4.2,0.6,5.6,1.7
		c1.5,1.1,2.6,2.6,3.3,4.3c0.7,1.8,1.1,3.7,1.1,5.6c0,1.5-0.2,3-0.8,4.5c-0.5,1.2-1.1,2.3-1.9,3.2c-1.1,1.4-2.5,2.5-4.2,3.2
		c-1.5,0.6-3,0.9-4.6,0.9c-1.1,0-2.2-0.1-3.3-0.4c-0.7-0.2-1.5-0.5-2.4-0.8V97h-5.4V97.1z M245.3,75.5v6.6c1.1,0.9,2.8,1.4,5,1.4
		c1.2,0,2.4-0.3,3.5-1c0.9-0.7,1.7-1.5,2.2-2.6c0.5-1,0.8-2.2,0.8-3.3c0-1.2-0.2-2.3-0.5-3.4c-0.3-1-1-1.9-1.8-2.5
		c-0.9-0.6-2-0.9-3.4-0.9c-1.1,0-2.1,0.3-3,0.9c-0.8,0.6-1.5,1.4-2,2.3C245.6,73.7,245.4,74.6,245.3,75.5z"/>
	<path class="st0" d="M284.2,80.9l3,3.4l-0.8,0.8c-0.6,0.5-1.2,1-1.9,1.4c-1,0.6-2,1-3.1,1.3c-1.5,0.4-3,0.6-4.5,0.5
		c-2.2,0.1-4.3-0.5-6.2-1.5c-1.7-1-3.2-2.5-4.1-4.3c-1-2-1.5-4.1-1.5-6.3c0-2.1,0.5-4.1,1.5-5.9c1.9-3.6,5.7-5.8,9.8-5.7
		c2.1,0,3.8,0.4,5.2,1.1c1.3,0.7,2.5,1.7,3.4,2.9c0.9,1.2,1.5,2.6,1.8,4.1c0.4,1.5,0.6,3.1,0.6,4.7v0.8h-16.6c0,1,0.3,2,0.9,2.8
		s1.4,1.5,2.4,1.9c0.9,0.4,1.9,0.7,2.9,0.7c1.2,0,2.4-0.1,3.6-0.5c0.8-0.3,1.6-0.6,2.3-1.1C283.4,81.6,283.8,81.3,284.2,80.9z
		 M270.8,74.1h10.9c0-0.8-0.2-1.6-0.6-2.3c-0.4-0.8-1-1.4-1.7-1.8c-0.9-0.5-1.9-0.8-2.9-0.7c-1.1,0-2.2,0.2-3.1,0.7
		c-0.8,0.4-1.5,1.1-1.9,1.8C271.1,72.5,270.9,73.3,270.8,74.1z"/>
	<path class="st0" d="M116.3,78.2l4.2,3.6c-0.8,1.1-1.8,2.1-2.8,2.9c-1.4,1.1-2.9,1.9-4.5,2.6c-1.8,0.7-3.7,1.1-5.6,1
		c-2.9,0.1-5.8-0.7-8.3-2.1c-2.4-1.4-4.4-3.4-5.7-5.9c-1.4-2.6-2.1-5.5-2.1-8.4c0-2.2,0.4-4.4,1.2-6.5c0.8-2,1.9-3.8,3.3-5.3
		c1.5-1.5,3.2-2.8,5.2-3.6c2.1-0.9,4.3-1.3,6.6-1.3c3.1,0,5.7,0.6,7.8,1.9c2,1.1,3.7,2.7,5,4.5l-4.2,3.7c-0.9-1.4-2.1-2.6-3.5-3.5
		c-1.3-0.9-3-1.3-5.1-1.3c-1.9,0-3.8,0.5-5.3,1.6c-1.5,1-2.7,2.5-3.5,4.2c-0.8,1.8-1.2,3.7-1.2,5.6s0.4,3.8,1.2,5.5
		c0.8,1.6,1.9,3,3.4,3.9c1.5,1,3.3,1.5,5.1,1.5c1.8,0,3.3-0.3,4.4-0.8c1-0.5,1.9-1.1,2.7-1.9C115.2,79.3,115.8,78.7,116.3,78.2z"/>
</g>
</svg>
