<?xml version="1.0" encoding="UTF-8"?><svg id="Layer_2" xmlns="http://www.w3.org/2000/svg" viewBox="0 0 997.29 920.63"><defs><style>.cls-1{fill:#fff;}</style></defs><g id="Layer_1-2"><g><path class="cls-1" d="M763.28,240.06c43.57-44.87,86.22-88.8,129.01-132.87-2.6-1.93-4.8-1.21-6.82-1.21-52.58-.05-105.17,.03-157.75-.15-4.76-.02-7.94,1.58-11.17,4.83-41.48,41.68-83.11,83.19-124.55,124.91-3.66,3.68-7.24,5.25-12.47,5.22-44.7-.21-89.39-.11-134.09-.15-2.28,0-4.69,.66-6.98-.67,.26-2.79,2.64-3.91,4.22-5.5,76.3-76.48,152.67-152.9,228.92-229.43,3.46-3.48,6.89-5,11.86-4.99C784.07,.18,884.69,.21,985.32,0c6.54-.01,8.32,1.66,8.27,8.25-.29,45.65-.21,91.3-.07,136.96,.01,4.36-1.11,7.6-4.09,10.86-24.34,26.65-48.52,53.44-72.71,80.23-2.29,2.53-4.41,4.48-8.35,4.47-47.09-.15-94.17-.11-141.26-.13-.69,0-1.38-.2-3.85-.58Z"/><path class="cls-1" d="M892.57,400.28c-43.82-42.86-86.48-84.6-129.12-126.32,1.56-2.54,3.68-1.52,5.38-1.53,45.65-.06,91.31-.01,136.96-.13,3.88,0,6.65,1.08,9.39,3.87,24.74,25.28,49.58,50.47,74.52,75.56,2.76,2.78,3.83,5.58,3.82,9.46-.11,45.89-.18,91.79,.06,137.68,.03,5.79-1.71,7.1-7.23,7.09-102.3-.13-204.6-.1-306.91,.05-4.47,0-7.53-1.4-10.62-4.51-47.98-48.35-96.02-96.65-144.24-144.78-3.86-3.86-3.65-5.74,.1-9.42,22.18-21.76,44.2-43.69,65.97-65.86,4.28-4.36,6.43-4.82,10.99-.11,37.05,38.32,74.42,76.33,111.67,114.46,2.69,2.75,5.13,5.11,9.63,5.1,54.74-.16,109.47-.11,164.21-.12,1.15,0,2.3-.2,5.43-.49Z"/><path class="cls-1" d="M161.72,.96c50.92,0,101.83,.07,152.75-.12,4.77-.02,7.92,1.52,11.16,4.8,48.06,48.62,96.19,97.18,144.48,145.57,4.08,4.09,4.55,6.3,.17,10.59-21.17,20.74-42.16,41.69-62.77,62.98-4.65,4.81-6.84,3.91-11.04-.24-38.43-37.97-77.12-75.68-115.59-113.6-3.48-3.43-6.89-4.98-11.86-4.96-51.87,.14-103.75,.12-155.62-.15-5.89-.03-7.63,1.51-7.59,7.52,.26,39.92,.03,79.84,.26,119.76,.03,5.75-1.18,7.79-7.4,7.72-30.12-.33-60.24-.26-90.36-.05-5.3,.04-7.42-.95-7.4-6.96,.22-75.3,.21-150.6,0-225.9C.89,2.02,2.85,.84,8.25,.86c51.15,.18,102.31,.1,153.47,.1Z"/><path class="cls-1" d="M.16,503.12c0-3.17,0-5.54,0-7.9,0-71.46,.1-142.92-.16-214.38-.03-6.99,1.88-8.71,8.74-8.62,29.87,.39,59.75,.43,89.62-.02,7.26-.11,8.52,2.22,8.46,8.85-.31,37.52-.04,75.04-.27,112.56-.03,5.52,1.36,7.33,7.11,7.3,52.34-.26,104.68-.27,157.02-.17,4.52,0,7.5-1.64,10.55-4.7,39.46-39.63,79.05-79.12,118.48-118.79,3.46-3.48,6.84-5.01,11.82-4.98,44.93,.19,89.86,.11,134.79,.11h7.07c-.49,3.43-2.8,4.58-4.4,6.17-74.29,74.09-148.64,148.11-222.87,222.26-3.66,3.66-7.43,4.71-12.47,5.35-16.8,2.13-28.93-3.6-40.36-16.37-19.1-21.33-40.33-40.76-60.37-61.27-4.22-4.32-6.51-5-11.11-.22-17.23,17.91-35.1,35.2-52.45,53-3.72,3.82-5.68,3.97-9.49,.06-17.34-17.81-35.17-35.13-52.49-52.96-4.15-4.27-6.29-4.99-10.91-.23-22.83,23.47-46.12,46.48-69.3,69.61-1.78,1.78-3.19,4.1-7.01,5.33Z"/><path class="cls-1" d="M797.24,787.97c0-41.83,.1-83.66-.12-125.49-.03-5.61,1.45-7.22,7.16-7.21,61.91,.21,123.82,.2,185.72,0,5.59-.02,7.42,1.43,7.25,7.13-.4,12.9-.44,25.82,.01,38.71,.22,6.4-1.44,8.53-8.24,8.48-42.07-.33-84.14-.03-126.2-.3-6.48-.04-8.71,1.56-8.38,8.3,.57,11.92,.43,23.9,.04,35.84-.17,5.34,1.35,6.88,6.78,6.84,38.24-.23,76.49,.02,114.73-.27,6.21-.05,8.31,1.39,8.03,7.86-.53,12.41-.43,24.86-.03,37.28,.18,5.43-1.51,6.78-6.83,6.75-38.24-.23-76.49,.03-114.73-.27-6.25-.05-8.26,1.42-7.99,7.88,.54,12.89,.42,25.82,.03,38.71-.16,5.4,1.46,6.83,6.82,6.81,42.55-.22,85.09,.03,127.64-.27,6.55-.05,8.6,1.66,8.35,8.28-.51,13.37-.28,26.77-.08,40.15,.07,4.43-.95,6.22-5.94,6.2-62.62-.18-125.25-.18-187.87,0-5.29,.02-6.25-1.88-6.23-6.64,.16-41.59,.09-83.18,.09-124.77Z"/><path class="cls-1" d="M709.41,655.41c-8.56,20.89-16.58,40.51-24.65,60.11-27.15,65.97-54.42,131.89-81.34,197.95-2.31,5.67-5.2,7.3-11,7.16-15.52-.38-31.06-.27-46.59-.04-4.18,.06-6.34-1.19-7.99-5.19-34.94-84.95-70.03-169.84-105.05-254.76-.61-1.47-1.71-2.95-.83-5.22,20.12,0,40.38,.1,60.65-.08,4.49-.04,4.78,3.21,5.81,5.94,15.41,40.59,30.75,81.21,46.13,121.81,8.24,21.77,16.51,43.53,24.87,65.55,2.8-2.09,3.02-4.86,3.92-7.23,22.59-59.55,45.22-119.1,67.6-178.73,2.04-5.45,4.53-7.59,10.62-7.44,18.85,.47,37.71,.17,57.83,.17Z"/><path class="cls-1" d="M1.92,787.14c0-41.57,.11-83.15-.12-124.72-.03-5.65,1.54-7.3,7.19-7.15,14.56,.39,29.15,.42,43.72,0,5.98-.18,7.58,1.61,7.56,7.55-.2,64.51,0,129.02-.3,193.53-.03,7.27,1.78,9.2,9.08,9.12,38.22-.38,76.46-.03,114.68-.33,6.36-.05,8.14,1.69,7.91,8-.49,13.6-.28,27.23-.08,40.85,.06,4-1.14,5.36-5.25,5.35-59.73-.11-119.46-.16-179.19,.05-5.89,.02-5.21-3.2-5.2-6.81,0-41.81,0-83.62,0-125.44Z"/><path class="cls-1" d="M336.42,787.41c0,41.58-.1,83.16,.12,124.74,.03,5.46-1.16,7.42-7.02,7.25-15.04-.44-30.11-.29-45.16-.06-4.51,.07-6.26-1.02-6.25-5.9,.13-84.12,.13-168.24,0-252.35,0-5.03,2.05-5.83,6.39-5.77,14.81,.2,29.64,.35,44.44-.06,5.83-.16,7.67,1.27,7.63,7.4-.28,41.58-.15,83.16-.15,124.74Z"/><path class="cls-1" d="M80.4,447.12c2.21,.05,3.14,1.6,4.28,2.75,17.42,17.4,34.74,34.89,52.27,52.18,2.94,2.9,2.81,4.55-.04,7.36-17.51,17.31-34.9,34.73-52.18,52.27-2.81,2.86-4.46,3.02-7.37,.06-17.26-17.56-34.7-34.94-52.14-52.31-2.29-2.28-3.65-3.86-.59-6.89,17.86-17.63,35.53-35.46,53.27-53.22,.83-.83,1.76-1.56,2.5-2.21Z"/><path class="cls-1" d="M206.76,447.17c2.3-.01,3.19,1.6,4.33,2.73,17.42,17.4,34.74,34.9,52.27,52.18,2.98,2.94,2.71,4.62-.1,7.4-17.51,17.31-34.91,34.72-52.18,52.27-2.89,2.94-4.55,2.81-7.38-.06-17.27-17.55-34.7-34.94-52.15-52.3-2.32-2.31-3.55-3.87-.52-6.86,17.87-17.63,35.53-35.46,53.27-53.21,.82-.83,1.76-1.54,2.46-2.15Z"/><path class="cls-1" d="M501.15,564.81c-1.12-.98-2.21-1.82-3.17-2.78-17.58-17.58-35.11-35.22-52.75-52.73-2.51-2.49-3.07-4.12-.24-6.92,17.68-17.48,35.23-35.09,52.7-52.78,2.57-2.6,4.2-2.87,6.9-.13,17.63,17.86,35.41,35.59,53.17,53.32,1.64,1.64,2.97,2.92,.66,5.21-18.3,18.22-36.51,36.52-54.77,54.78-.66,.66-1.45,1.18-2.51,2.03Z"/></g></g></svg>