<?xml version="1.0" encoding="utf-8"?>
<!-- Generator: Adobe Illustrator 24.0.1, SVG Export Plug-In . SVG Version: 6.00 Build 0)  -->
<svg version="1.1" id="Layer_1" xmlns="http://www.w3.org/2000/svg" xmlns:xlink="http://www.w3.org/1999/xlink" x="0px" y="0px"
	 viewBox="0 0 47.2 30" style="enable-background:new 0 0 47.2 30;" xml:space="preserve">
<style type="text/css">
	.st0{fill:#FFFFFF;}
</style>
<path class="st0" d="M4.7,15.7h1.6c1.7,0,3.1-1.4,3.1-3.1c0,0,0,0,0,0V3.1C9.4,1.4,8,0,6.3,0c0,0,0,0,0,0H0v15.7H4.7z M4.7,12.6H3.2
	V3.1h1.6c0.9,0,1.6,0.7,1.6,1.6c0,0,0,0,0,0V11l0,0C6.3,11.9,5.6,12.6,4.7,12.6C4.7,12.6,4.7,12.6,4.7,12.6z"/>
<path class="st0" d="M45.6,0C44.7,0,44,0.7,44,1.5c0,0,0,0,0,0v14.2h1.6c0.9,0,1.6-0.7,1.6-1.6V0H45.6z"/>
<path class="st0" d="M31.5,11c0-0.9-0.3-1.8-0.8-2.6l-0.1,0.1c-0.7,0.7-1.6,1.2-2.6,1.5c0.2,0.3,0.4,0.6,0.4,1
	c0,0.9-0.7,1.6-1.6,1.6c-0.9,0-1.6-0.7-1.6-1.6c0,0,0,0,0,0v-0.9H22v4c0,0.9,0.7,1.6,1.6,1.6h3.1C29.3,15.7,31.4,13.6,31.5,11z"/>
<path class="st0" d="M25.2,4.7c0-0.6,0.3-1.1,0.8-1.4V0h-4v5.6h3.1L25.2,4.7z"/>
<path class="st0" d="M14.1,6.2V0h-1.6C11.7,0,11,0.7,11,1.6c0,0,0,0,0,0v4h1.6C13.2,5.6,13.7,5.8,14.1,6.2z"/>
<path class="st0" d="M20.4,5.6v-4c0-0.9-0.7-1.6-1.6-1.6c0,0,0,0,0,0h-1.6v6.2c0.4-0.4,1-0.6,1.6-0.6H20.4z"/>
<path class="st0" d="M34.6,15.7c0.9,0,1.6-0.7,1.6-1.6v-4H33v5.6L34.6,15.7z"/>
<path class="st0" d="M36.2,5.6V3.8l0,0V1.6c0-0.6,0.2-1.1,0.6-1.6h-0.6C34.4,0,33,1.4,33,3.1c0,0,0,0,0,0v3.1c0.4-0.4,1-0.6,1.6-0.6
	H36.2z"/>
<path class="st0" d="M42.5,8.5c-0.7,1-1.9,1.6-3.1,1.6l0,0v4c0,0.9,0.7,1.6,1.6,1.6h1.6L42.5,8.5z"/>
<path class="st0" d="M12.6,6.3H11v6.3c0,1.7,1.4,3.1,3.1,3.1c0,0,0,0,0,0h3.2c1.7,0,3.1-1.4,3.1-3.1V9.4h6.3
	c2.6,0.1,4.8-1.9,4.9-4.5S29.8,0.1,27.2,0c-0.1,0-0.3,0-0.4,0v3.1c0.9,0.1,1.5,0.8,1.4,1.7c-0.1,0.8-0.7,1.4-1.4,1.4h-7.9
	c-0.9,0-1.6,0.7-1.6,1.6c0,0,0,0,0,0v4.7h-1.6c-0.9,0-1.6-0.7-1.6-1.6V7.9C14.1,7,13.4,6.3,12.6,6.3z"/>
<path class="st0" d="M25.9,10.1V11c0,0.5,0.4,0.9,0.9,0.9c0.5,0,0.9-0.4,0.9-0.9c0-0.5-0.4-0.9-0.9-0.9L25.9,10.1z"/>
<path class="st0" d="M16,16.3v0.9c-0.1,0.5,0.3,0.9,0.8,1s0.9-0.3,1-0.8c0-0.1,0-0.1,0-0.2c0-0.5-0.4-0.9-0.9-0.9c0,0,0,0,0,0H16z"
	/>
<path class="st0" d="M13.6,16.3v0.9c0,0.5,0.4,0.9,0.9,0.9c0.5,0,0.9-0.4,0.9-0.9s-0.4-0.9-0.9-0.9c0,0,0,0,0,0H13.6z"/>
<path class="st0" d="M39.3,4.7c0,0.4-0.2,0.8-0.5,1.1c-0.3,0.3-0.7,0.5-1.1,0.5h-3.1c-0.5,0-1,0.3-1.3,0.7C33.1,7.2,33,7.5,33,7.9
	v1.6h6.3c1.7,0,3.1-1.4,3.1-3.1V3.1C42.4,1.4,41,0,39.3,0h-0.9c-0.9,0-1.6,0.7-1.6,1.6v1.6h0.9C38.6,3.1,39.3,3.8,39.3,4.7
	C39.3,4.7,39.3,4.7,39.3,4.7z"/>
<path class="st0" d="M0.6,27.4h1.1v-0.3c0-0.2,0-0.3-0.3-0.3H0.6v-0.9h1.5v-0.5H0v3.4c0,0.3,0.1,0.3,0.3,0.3h1.9v-0.6H0.6V27.4z"/>
<path class="st0" d="M3.7,28.6c-0.5,0-0.6-0.1-0.6-0.9s0.1-0.8,0.6-0.8c0.2,0,0.4,0,0.6,0.1l0.1-0.5c-0.2-0.1-0.4-0.1-0.7-0.1
	c-0.8,0-1.2,0.4-1.2,1.3s0.3,1.4,1,1.4c0.3,0,0.6-0.1,0.9-0.2l-0.1-0.5C4.1,28.5,3.9,28.6,3.7,28.6z"/>
<path class="st0" d="M5.9,26.4c-0.8,0-1.1,0.4-1.1,1.3s0.3,1.4,1.1,1.4S7,28.7,7,27.7S6.7,26.4,5.9,26.4z M5.9,28.6
	c-0.4,0-0.5-0.1-0.5-0.9s0.1-0.8,0.5-0.8s0.5,0.2,0.5,0.8S6.3,28.6,5.9,28.6L5.9,28.6z"/>
<path class="st0" d="M8.7,26.4c-0.3,0-0.6,0.1-0.8,0.4c0-0.3,0-0.3-0.3-0.3H7.5v2.4c0,0.3,0.1,0.3,0.3,0.3h0.3v-1.6
	c0-0.4,0.1-0.5,0.6-0.5s0.5,0.1,0.5,0.6v1.3C9.1,29,9.2,29,9.4,29h0.3v-1.5C9.7,26.7,9.5,26.4,8.7,26.4z"/>
<path class="st0" d="M11.3,26.4c-0.8,0-1.1,0.4-1.1,1.3s0.3,1.4,1.1,1.4s1.1-0.3,1.1-1.4S12.1,26.4,11.3,26.4z M11.3,28.6
	c-0.4,0-0.6-0.1-0.6-0.9s0.1-0.8,0.6-0.8s0.5,0.2,0.5,0.8S11.7,28.6,11.3,28.6z"/>
<path class="st0" d="M15.6,26.4c-0.3,0-0.6,0.1-0.8,0.4c-0.1-0.2-0.4-0.4-0.8-0.4c-0.3,0-0.6,0.1-0.7,0.4c0-0.3,0-0.3-0.3-0.3h-0.2
	v2.4c0,0.3,0.1,0.3,0.3,0.3h0.3v-1.6c0-0.4,0.1-0.5,0.5-0.5s0.5,0.1,0.5,0.6v1.3c0,0.3,0.1,0.3,0.3,0.3H15v-1.6
	c0-0.4,0.1-0.5,0.5-0.5S16,27,16,27.5v1.3c0,0.3,0.1,0.3,0.3,0.3h0.3v-1.5C16.6,26.7,16.4,26.4,15.6,26.4z"/>
<path class="st0" d="M18,28.4l-0.6-2h-0.6l0.7,2.3c0.1,0.2,0.1,0.3,0.3,0.4c-0.1,0.2-0.2,0.6-0.3,0.9c0.1,0,0.2,0,0.2,0
	c0.2,0,0.3,0,0.4-0.3l0.2-0.7l0.8-2.6h-0.5L18,28.4z"/>
<path class="st0" d="M22,26.4c-0.3,0-0.6,0.1-0.9,0.1V27c0.3-0.1,0.5-0.1,0.8-0.1c0.5,0,0.5,0.2,0.5,0.6c-0.1,0-0.3-0.1-0.5-0.1
	c-0.9,0-1,0.4-1,0.8s0.1,0.8,0.9,0.8c0.5,0,0.7-0.1,0.7-0.4c0,0.2,0,0.3,0.3,0.3H23v-1.5C23,26.6,22.8,26.4,22,26.4z M22.4,28.2
	c0,0.3-0.1,0.4-0.5,0.4s-0.4-0.1-0.4-0.3s0-0.4,0.5-0.4c0.1,0,0.3,0,0.4,0V28.2z"/>
<path class="st0" d="M24.8,26.4c-0.3,0-0.6,0.1-0.8,0.4c0-0.3,0-0.3-0.3-0.3h-0.2v2.4c0,0.3,0.1,0.3,0.3,0.3h0.3v-1.6
	c0-0.4,0.1-0.5,0.5-0.5s0.5,0.1,0.5,0.6v1.3c0,0.3,0.1,0.3,0.3,0.3h0.3v-1.5C25.8,26.7,25.6,26.4,24.8,26.4z"/>
<path class="st0" d="M28.2,25.3h-0.3v1.2c-0.1-0.1-0.3-0.1-0.5-0.1c-0.8,0-1.1,0.4-1.1,1.3s0.3,1.4,1,1.4c0.3,0,0.5-0.1,0.7-0.3
	c0,0.2,0,0.3,0.3,0.3h0.2v-3.5C28.5,25.3,28.4,25.3,28.2,25.3z M27.4,28.6c-0.4,0-0.5-0.1-0.5-0.9s0-0.8,0.5-0.8s0.5,0.2,0.5,0.8
	S27.9,28.6,27.4,28.6z"/>
<path class="st0" d="M33,25.3h-2.6v0.5h1v2.9c0,0.3,0.1,0.3,0.3,0.3H32v-3.2h1V25.3z"/>
<path class="st0" d="M34,26.4c-0.8,0-1.1,0.4-1.1,1.3s0.3,1.4,1.1,1.4s1.1-0.3,1.1-1.4S34.8,26.4,34,26.4z M34,28.6
	c-0.4,0-0.5-0.1-0.5-0.9s0.1-0.8,0.5-0.8s0.5,0.2,0.5,0.8S34.4,28.6,34,28.6z"/>
<path class="st0" d="M37.2,28.1c0,0.4-0.1,0.5-0.4,0.5s-0.5,0-0.5-0.5v-1.7h-0.6V28c0,0.9,0.2,1.1,1,1.1c0.3,0,0.6-0.1,0.7-0.4
	c0,0.3,0,0.4,0.3,0.4h0.2v-2.7h-0.6V28.1z"/>
<path class="st0" d="M38.8,26.8c0-0.3,0-0.4-0.3-0.4h-0.2v2.4c0,0.3,0.1,0.3,0.2,0.3h0.3v-1.5c0-0.5,0.1-0.6,0.5-0.6
	c0.1,0,0.3,0,0.4,0v-0.5c-0.1,0-0.2,0-0.3,0C39.2,26.4,38.9,26.5,38.8,26.8z"/>
<path class="st0" d="M40.5,25.4c-0.1,0-0.3,0.1-0.3,0.2c0,0,0,0.1,0,0.1c0,0.2,0.1,0.3,0.3,0.3s0.3-0.1,0.3-0.3S40.7,25.4,40.5,25.4
	z"/>
<path class="st0" d="M40.5,26.4h-0.3v2.4c0,0.3,0.1,0.3,0.3,0.3h0.3v-2.4C40.8,26.4,40.7,26.4,40.5,26.4z"/>
<path class="st0" d="M42.3,27.5c-0.4-0.1-0.5-0.2-0.5-0.4s0.1-0.3,0.4-0.3c0.2,0,0.4,0,0.6,0.1l0.1-0.5c-0.2-0.1-0.4-0.1-0.7-0.1
	c-0.7,0-1,0.2-1,0.8c0,0.4,0,0.6,0.8,0.8c0.4,0.1,0.5,0.1,0.5,0.3s-0.1,0.3-0.4,0.3c-0.3,0-0.5-0.1-0.8-0.2l-0.1,0.5
	c0.2,0.2,0.5,0.3,0.8,0.2c0.7,0,1.1-0.3,1.1-0.8S43,27.7,42.3,27.5z"/>
<path class="st0" d="M46.2,26.4c-0.3,0-0.6,0.1-0.8,0.4c-0.1-0.2-0.3-0.4-0.8-0.4c-0.3,0-0.6,0.1-0.7,0.4c0-0.3,0-0.3-0.3-0.3h-0.2
	v2.4c0,0.3,0.1,0.3,0.3,0.3H44v-1.6c0-0.4,0.1-0.5,0.5-0.5S45,27,45,27.5v1.3c0,0.3,0.1,0.3,0.3,0.3h0.3v-1.6c0-0.4,0.1-0.5,0.5-0.5
	s0.5,0.1,0.5,0.6v1.3c0,0.3,0.1,0.3,0.3,0.3h0.3v-1.5C47.1,26.7,47,26.4,46.2,26.4z"/>
<path class="st0" d="M1.2,19.9c0,0.1,0.1,0.3,0.2,0.3c0,0,0.1,0,0.1,0c0.1,0,0.3-0.1,0.3-0.2c0,0,0,0,0-0.1c0-0.1-0.1-0.3-0.2-0.3
	c0,0,0,0-0.1,0C1.4,19.6,1.3,19.7,1.2,19.9C1.2,19.8,1.2,19.9,1.2,19.9z"/>
<path class="st0" d="M0.6,19.9c0,0.2,0.1,0.3,0.3,0.3s0.3-0.1,0.3-0.3c0-0.1-0.1-0.3-0.2-0.3c0,0-0.1,0-0.1,0
	C0.7,19.6,0.6,19.7,0.6,19.9C0.5,19.8,0.5,19.8,0.6,19.9z"/>
<path class="st0" d="M8,22.4v-0.5c-0.8-0.2-1-0.5-1.6-0.5c-0.2,0-0.5,0.1-0.7,0.2V22c0.2-0.1,0.4-0.1,0.6-0.1
	c0.4,0.1,0.8,0.2,1.1,0.4c-0.1,0.1-0.3,0.2-0.4,0.3c-0.5,0.2-1,0.2-1.5,0.2H2.3c-0.4,0-0.5-0.1-0.5-0.3v-1.8H1.5
	c-0.2,0-0.3,0-0.3,0.3v0.1c-0.7,0.2-1.2,0.3-1.2,1c0,0.4,0.1,0.8,0.7,0.8c0.4,0,0.5-0.1,0.5-0.4c0,0.7,0.3,0.9,0.9,0.9h3.5
	c0.6,0.1,1.2-0.1,1.7-0.4C7.6,22.7,7.8,22.5,8,22.4z M1.3,21.8c0,0.2-0.1,0.3-0.4,0.3s-0.3,0-0.3-0.3s0.1-0.3,0.8-0.5V21.8z"/>
<path class="st0" d="M14.5,23.9c0-0.2-0.1-0.3-0.3-0.3c-0.1,0-0.3,0.1-0.3,0.3s0.1,0.3,0.3,0.3C14.4,24.2,14.5,24.1,14.5,23.9z"/>
<path class="st0" d="M13.9,23.9c0-0.2-0.1-0.3-0.3-0.3s-0.3,0.1-0.3,0.3s0.1,0.3,0.3,0.3S13.9,24.1,13.9,23.9z"/>
<path class="st0" d="M19,19.8v2.6c0,0.3-0.2,0.3-0.5,0.3s-0.5,0-0.5-0.4v-1h-0.5v1.1c0,0.3-0.1,0.3-0.3,0.3s-0.3-0.1-0.3-0.5v-0.7
	h-0.5v0.9c0,0.3-0.1,0.3-0.3,0.3s-0.4,0-0.4-0.5v-0.7h-0.5v0.9c0,0.3-0.1,0.3-0.4,0.3s-0.5,0-0.5-0.4v-1h-0.5v1
	c0,0.3-0.2,0.3-0.5,0.3H9.6c-0.4,0-0.4-0.1-0.4-0.4v-2.7H8.9c-0.2,0-0.3,0-0.3,0.3v2.6c0,0.6,0.3,0.9,0.9,0.9h3.7
	c0.1,0,0.3,0,0.4-0.1c0.1-0.1,0.2-0.2,0.2-0.3c0.2,0.3,0.4,0.4,0.9,0.4l0,0c0.4,0,0.5-0.1,0.6-0.4c0.1,0.3,0.2,0.4,0.7,0.4
	c0.2,0,0.5-0.1,0.6-0.4c0.1,0.2,0.2,0.4,0.6,0.4c0.3,0,0.5-0.1,0.5-0.4c0.1,0.3,0.4,0.4,0.8,0.4l0,0c0.6,0,1-0.4,1.1-0.9
	c0,0,0-0.1,0-0.1v-2.6h-0.3C19.1,19.5,19,19.5,19,19.8z"/>
<path class="st0" d="M20.1,19.8v3.5h0.3c0.2,0,0.3,0,0.3-0.3v-3.5h-0.3C20.2,19.5,20.1,19.5,20.1,19.8z"/>
<path class="st0" d="M22.6,21.3c-0.8,0-1,0.6-1,1.1s0.1,0.9,0.8,0.9c0.4,0,0.5-0.1,0.6-0.2c0,0.6-0.2,0.7-0.7,0.7
	c-0.2,0-0.4,0-0.6-0.1l-0.1,0.6c0.2,0.1,0.5,0.2,0.7,0.1c0.9,0,1.2-0.5,1.2-1.5S23.3,21.3,22.6,21.3z M22.5,22.7
	c-0.4,0-0.4-0.1-0.4-0.4s0-0.5,0.4-0.5s0.5,0.4,0.5,0.7C23,22.6,22.8,22.7,22.5,22.7z"/>
<path class="st0" d="M27.5,22.3c0-0.6-0.2-0.9-1.2-1.5l-0.3,0.5c0.9,0.5,1,0.6,1,1s-0.1,0.4-0.7,0.4c-0.4,0-0.7,0-0.7,0l-0.1,0.6
	c0.3,0,0.5,0,0.8,0C27.2,23.2,27.5,23,27.5,22.3z"/>
<path class="st0" d="M38,20.6c0,0.1,0.1,0.3,0.2,0.3c0,0,0.1,0,0.1,0c0.1,0,0.3-0.1,0.3-0.2c0,0,0,0,0-0.1c0-0.1-0.1-0.3-0.2-0.3
	c0,0,0,0-0.1,0C38.2,20.3,38,20.4,38,20.6C38,20.6,38,20.6,38,20.6z"/>
<path class="st0" d="M37.3,20.6c0,0.2,0.1,0.3,0.3,0.3s0.3-0.1,0.3-0.3c0,0,0,0,0,0c0-0.2-0.1-0.3-0.3-0.3
	C37.4,20.4,37.3,20.5,37.3,20.6z"/>
<path class="st0" d="M41.5,22v-0.1c0-1-0.3-1.4-0.9-1.4c-0.5,0-0.9,0.4-0.9,0.9c0,0,0,0.1,0,0.1c0,0.4,0,0.8,0.8,0.8
	c0.3,0,0.5-0.1,0.5-0.3c0,0.4,0,0.5-0.8,0.5h-1.5c-0.3,0-0.5,0-0.5-0.4v-1h-0.5v1c0,0.3-0.2,0.3-0.5,0.3c-0.1,0-0.3,0-0.4,0
	c0-0.1,0.1-0.3,0-0.5c0-0.9-0.4-1.2-1-1.2c-0.8,0-1.1,0.6-1.8,1.7c-0.2,0-0.2-0.1-0.2-0.5v-0.7h-0.5v0.9c0,0.3-0.1,0.3-0.4,0.3h-3.7
	c-0.4,0-0.4-0.1-0.4-0.4v-2.7h-0.3c-0.2,0-0.3,0-0.3,0.3v2.6c0,0.6,0.3,0.9,0.9,0.9H33c0.3,0,0.5-0.1,0.5-0.4
	c0.1,0.3,0.3,0.4,0.7,0.4h1.5c0.3,0,0.7-0.1,0.9-0.3c0,0.2,0.2,0.3,0.6,0.3l0,0c0.2,0,0.3,0,0.5-0.1c0.1-0.1,0.2-0.2,0.2-0.3
	c0.2,0.3,0.5,0.4,0.8,0.4h1.5C41,23.2,41.5,23,41.5,22z M40.5,21.8c-0.4,0-0.4-0.1-0.4-0.3s0.1-0.4,0.4-0.4s0.5,0.2,0.5,0.6
	C40.9,21.8,40.8,21.8,40.5,21.8L40.5,21.8z M35.7,22.6h-1.1c0.5-0.9,0.7-1.1,1.2-1.1c0.3,0,0.5,0.1,0.5,0.7
	C36.3,22.6,36,22.6,35.7,22.6L35.7,22.6z"/>
<path class="st0" d="M40.6,20c0,0.2,0.1,0.3,0.3,0.3s0.3-0.1,0.3-0.3c0,0,0,0,0,0c0-0.2-0.1-0.3-0.3-0.3
	C40.8,19.7,40.6,19.8,40.6,20z"/>
<path class="st0" d="M39.9,20c0,0.1,0.1,0.3,0.2,0.3c0,0,0,0,0.1,0c0.1,0,0.3-0.1,0.3-0.2c0,0,0-0.1,0-0.1c0-0.2-0.1-0.3-0.3-0.3
	c0,0,0,0-0.1,0C40.1,19.7,39.9,19.8,39.9,20C39.9,20,39.9,20,39.9,20z"/>
<path class="st0" d="M41.8,20.3c0.5,0.6,0.8,1.5,0.7,2.3c-0.2,0.1-0.5,0.1-0.7,0.2l0.2,0.5c0.6-0.1,1.1-0.3,1.6-0.6l0,0
	c0.1,0.4,0.4,0.5,0.9,0.5h1.7c0.6,0,1-0.4,1-1c0,0,0-0.1,0-0.1v-2.7h-0.3c-0.2,0-0.3,0-0.3,0.3v2.6c0,0.3-0.2,0.3-0.5,0.3h-1.6
	c-0.4,0-0.4-0.1-0.4-0.4v-2.8h-0.3c-0.2,0-0.3,0-0.3,0.3v2.4c-0.2,0.1-0.3,0.2-0.5,0.2c0-0.9-0.3-1.8-0.8-2.5L41.8,20.3z"/>
</svg>
