<?xml version="1.0" encoding="utf-8"?>
<!-- Generator: Adobe Illustrator 19.2.1, SVG Export Plug-In . SVG Version: 6.00 Build 0)  -->
<svg version="1.1" id="Layer_1" xmlns="http://www.w3.org/2000/svg" xmlns:xlink="http://www.w3.org/1999/xlink" x="0px" y="0px"
	 viewBox="0 0 100.3 41.2" style="enable-background:new 0 0 100.3 41.2;" xml:space="preserve">
<style type="text/css">
	.st0{fill:#FFFFFF;}
</style>
<title>government-of-dubai</title>
<path class="st0" d="M4.6,35.8c-0.3-0.2-0.7-0.2-1-0.2c-0.6,0-1.1,0.2-1.5,0.7c-0.2,0.2-0.4,0.5-0.5,0.8c-0.1,0.4-0.2,0.8-0.2,1.2
	c0,0.3,0,0.7,0.1,1C1.6,39.6,1.8,39.8,2,40c0.2,0.2,0.4,0.4,0.6,0.5c0.3,0.1,0.6,0.2,0.9,0.2h0.2H4h0.2l0.2-0.1c0-0.1,0-0.2,0-0.3
	v-0.5c0-0.5,0-0.8,0-1s0-0.4,0-0.5h0.2h0.8h0.2c0,0.1,0,0.1,0,0.2c0,0.1,0,0.2,0,0.3s0,0.3,0,0.4s0,0.3,0,0.4v0.3c0,0.2,0,0.3,0,0.4
	c0,0.1,0,0.2,0,0.3C5.3,40.9,5,41,4.6,41.1c-0.4,0.1-0.8,0.1-1.1,0.1c-0.5,0-1,0-1.4-0.2c-0.4-0.1-0.7-0.3-1-0.6
	c-0.3-0.2-0.5-0.5-0.7-0.9C0.1,39.1,0,38.7,0,38.3c0-0.5,0.1-1,0.3-1.4c0.2-0.4,0.4-0.7,0.8-1c0.3-0.3,0.7-0.5,1.1-0.6
	c0.5-0.1,0.9-0.2,1.4-0.2c0.4,0,0.8,0,1.1,0.1c0.3,0.1,0.6,0.2,0.9,0.4L5.5,36c0,0.1-0.1,0.3-0.1,0.4H5.2C5.1,36.2,4.8,36,4.6,35.8"
	/>
<path class="st0" d="M6.8,36.9c0.3-0.8,0.9-1.3,1.7-1.6c0.4-0.2,0.9-0.2,1.4-0.2c0.4,0,0.9,0.1,1.3,0.2c0.4,0.1,0.7,0.3,1,0.6
	c0.3,0.3,0.5,0.6,0.7,1c0.2,0.4,0.3,0.9,0.2,1.3c0,0.8-0.3,1.6-0.9,2.2c-0.3,0.3-0.6,0.5-1,0.7c-0.4,0.2-0.9,0.2-1.3,0.2
	c-0.4,0-0.9-0.1-1.3-0.2c-0.4-0.1-0.7-0.3-1-0.5c-0.3-0.3-0.5-0.6-0.7-1c-0.2-0.4-0.3-0.9-0.3-1.4C6.6,37.7,6.6,37.3,6.8,36.9
	 M11.6,36.9c-0.1-0.3-0.2-0.5-0.4-0.8c-0.2-0.2-0.4-0.4-0.6-0.5c-0.2-0.1-0.5-0.2-0.8-0.2c-0.3,0-0.5,0.1-0.8,0.2
	c-0.2,0.1-0.4,0.3-0.6,0.6c-0.2,0.3-0.3,0.5-0.4,0.8C8,37.5,8,37.8,8,38.2c0,0.4,0,0.8,0.1,1.2c0.1,0.3,0.2,0.5,0.4,0.8
	c0.2,0.2,0.3,0.3,0.6,0.4c0.2,0.1,0.4,0.1,0.7,0.1c0.3,0,0.5-0.1,0.7-0.2c0.2-0.1,0.4-0.3,0.6-0.5c0.2-0.3,0.3-0.5,0.4-0.8
	c0.1-0.4,0.2-0.8,0.2-1.2C11.7,37.6,11.6,37.3,11.6,36.9"/>
<path class="st0" d="M17.1,37.3c0.3-0.7,0.5-1.4,0.8-2.1c0.1,0,0.3,0,0.4,0c0.1,0,0.3,0,0.4,0l-0.5,1.2l-0.6,1.5
	c-0.2,0.5-0.4,1.1-0.6,1.6s-0.4,1.1-0.6,1.5h-0.4h-0.4l-0.3-0.8l-0.4-1l-0.4-1.1L14,37l-0.4-1l-0.3-0.8h0.4h0.8h0.4
	c0.1,0.3,0.2,0.7,0.3,1l0.4,1.1c0.1,0.4,0.3,0.7,0.4,1.1l0.4,1.1C16.6,38.8,16.9,38,17.1,37.3"/>
<path class="st0" d="M19.4,36.3c0-0.4,0-0.7,0-1.1h0.8h0.8H22h0.7c0,0.1,0,0.2,0,0.4c0,0.1,0,0.1,0,0.2c0,0,0,0.1,0,0.2h-0.5h-0.6
	H21h-0.3c0,0.3,0,0.6,0,0.9s0,0.6,0,0.9h1h0.9c0,0.1,0,0.2,0,0.2s0,0.1,0,0.2c0,0,0,0.1,0,0.1c0,0,0,0.1,0,0.2
	c-0.6,0-1.3-0.1-1.9-0.1c0,0.2,0,0.4,0,0.5s0,0.4,0,0.5c0,0.4,0,0.7,0,1.1c0.3,0,0.6,0,1,0s0.7,0,1-0.1c0,0.1,0,0.1,0,0.2
	c0,0.1,0,0.1,0,0.2c0,0.1,0,0.1,0,0.2c0,0,0,0.1,0,0.1h-3.4c0-0.4,0-0.7,0-1.1s0-0.8,0-1.3v-1.3C19.4,37.1,19.4,36.7,19.4,36.3"/>
<path class="st0" d="M25,38.3v0.4c0,0.5,0,0.9,0,1.3s0,0.7,0,1.1l-0.2,0H24h-0.3c0-0.3,0-0.7,0-1.1s0-0.8,0-1.3v-1.1
	c0-0.5,0-0.9,0-1.3s0-0.7,0-1.1H24h0.4h0.5h0.7h0.6l0.4,0c0.1,0,0.2,0,0.3,0.1c0.1,0,0.2,0.1,0.2,0.1c0.2,0.1,0.3,0.3,0.4,0.5
	c0.1,0.2,0.2,0.4,0.1,0.7c0,0.4-0.1,0.7-0.3,1c-0.3,0.3-0.6,0.5-1,0.6c0.3,0.5,0.6,1,0.9,1.4l1,1.4h-0.4H27h-0.4L25,38.3L25,38.3
	L25,38.3z M26.3,36.2c0-0.1-0.1-0.2-0.2-0.3c-0.1-0.1-0.3-0.1-0.4-0.2c-0.2,0-0.4,0-0.6,0c0,0.8,0,1.5,0,2.3h0.2
	c0.3,0,0.6-0.1,0.9-0.3c0.2-0.3,0.3-0.6,0.3-0.9C26.4,36.6,26.4,36.4,26.3,36.2"/>
<path class="st0" d="M29.1,35.9c0-0.3,0-0.5,0-0.7c0.3,0.1,0.5,0.1,0.8,0l1.8,2c0.6,0.7,1.2,1.3,1.9,2v-1.5c0-0.3,0-0.5,0-0.8
	s0-0.5,0-0.8s0-0.4,0-0.6c0-0.1,0-0.2,0-0.3c0.1,0,0.3,0,0.4,0c0.1,0,0.3,0,0.4,0c0,0.5,0,1-0.1,1.4c0,0.4,0,0.8,0,1.2s0,0.7,0,1.1
	s0,0.8,0,1.2v1h-0.3h-0.3c-1.3-1.3-2.6-2.7-3.9-4.1c0,0.2,0,0.3,0,0.5s0,0.3,0,0.5v1c0,0.3,0,0.6,0,0.9s0,0.4,0,0.6s0,0.3,0,0.4
	s0,0.2,0,0.2h-0.2h-0.2h-0.4c0,0,0-0.2,0-0.5s0-0.6,0-1s0-0.8,0-1.3s0-0.9,0-1.3S29,36.2,29.1,35.9"/>
<path class="st0" d="M36.1,39.1c0,0.6-0.1,1.3-0.1,1.9h-0.2h-0.4h-0.2c0.2-1,0.3-2,0.5-2.9c0.1-1,0.3-2,0.4-3h0.2h0.3h0.2
	c0.2,0.3,0.3,0.7,0.5,1l0.5,1c0.2,0.4,0.3,0.7,0.5,1l0.5,1c0.3-0.6,0.7-1.3,1-2s0.7-1.4,1-2.1c0.1,0,0.2,0,0.4,0c0.1,0,0.2,0,0.4,0
	l0.2,1.6c0.1,0.6,0.1,1.1,0.2,1.7s0.1,1,0.2,1.5s0.1,0.8,0.2,1.1h-0.3h-0.7h-0.4c0-0.6-0.1-1.2-0.1-1.9s-0.1-1.4-0.2-2l0,0l-1,2
	c-0.3,0.7-0.6,1.3-0.9,2h-0.1h-0.1h-0.1c-0.3-0.6-0.6-1.3-0.9-1.9l-0.9-1.9l0,0C36.3,37.9,36.2,38.5,36.1,39.1"/>
<path class="st0" d="M43.2,36.3c0-0.4,0-0.7,0-1.1h0.8h0.8h1.1h0.7c0,0.1,0,0.2,0,0.4c0,0.1,0,0.1,0,0.2c0,0.1,0,0.1,0,0.2h-0.5
	h-0.6h-0.5h-0.4c0,0.3,0,0.6,0,0.9s0,0.6,0,0.9h1h0.9V38c0,0,0,0.1,0,0.2c0,0,0,0.1,0,0.1c0,0,0,0.1,0,0.2c-0.7,0-1.3-0.1-1.9-0.1
	c0,0.2,0,0.4,0,0.5s0,0.4,0,0.5c0,0.4,0,0.7,0,1.1c0.3,0,0.7,0,1,0s0.7,0,1-0.1c0,0.1,0,0.1,0,0.2c0,0.1,0,0.1,0,0.2
	c0,0.1,0,0.1,0,0.2c0,0,0,0.1,0,0.1h-3.4c0-0.4,0-0.7,0-1.1s0-0.8,0-1.3v-1.3C43.1,37.1,43.1,36.7,43.2,36.3"/>
<path class="st0" d="M47.6,35.9c0-0.3,0-0.5,0-0.7c0.3,0.1,0.5,0.1,0.8,0l1.8,2c0.6,0.7,1.2,1.3,1.9,2v-1.5c0-0.3,0-0.5,0-0.8
	s0-0.5,0-0.8s0-0.4,0-0.6c0-0.1,0-0.2,0-0.3c0.1,0,0.3,0,0.4,0c0.1,0,0.3,0,0.4,0c0,0.5,0,1-0.1,1.4s0,0.8,0,1.2s0,0.7,0,1.1
	s0,0.8,0,1.2v1h-0.3h-0.3c-1.3-1.3-2.6-2.7-3.9-4.1c0,0.2,0,0.3,0,0.5s0,0.3,0,0.5v1c0,0.3,0,0.6,0,0.9s0,0.4,0,0.6s0,0.3,0,0.4
	s0,0.2,0,0.2L48,41h-0.2h-0.4c0,0,0-0.2,0-0.5s0-0.6,0.1-1s0-0.8,0-1.3s0-0.9,0-1.3S47.5,36.1,47.6,35.9"/>
<path class="st0" d="M55.2,36.1c0-0.1,0-0.2,0-0.3h-0.3h-0.4H54h-0.4c0-0.1,0-0.1,0-0.2c0-0.1,0-0.1,0-0.2c0-0.1,0-0.1,0-0.2
	c0-0.1,0-0.1,0-0.2h0.5h0.5H57h0.5H58c0,0.1,0,0.1,0,0.2c0,0.1,0,0.1,0,0.2c0,0.1,0,0.1,0,0.2c0,0.1,0,0.1,0,0.2h-0.4h-0.4h-0.4
	h-0.3c0,0,0,0.1,0,0.1c0,0,0,0.1,0,0.2v2.6c0,0.5,0,0.9,0,1.3s0,0.7,0,1.1l-0.3,0h-0.8h-0.3c0-0.4,0-0.7,0-1.1s0-0.8,0-1.3
	L55.2,36.1L55.2,36.1z"/>
<path class="st0" d="M61.1,36.9c0.3-0.8,0.9-1.3,1.7-1.6c0.4-0.2,0.9-0.2,1.4-0.2c0.4,0,0.9,0.1,1.3,0.2c0.4,0.1,0.7,0.3,1,0.6
	c0.3,0.3,0.5,0.6,0.7,1c0.2,0.4,0.3,0.9,0.2,1.3c0,0.8-0.3,1.6-0.9,2.2c-0.3,0.3-0.6,0.5-1,0.7c-0.4,0.2-0.9,0.2-1.3,0.2
	c-0.4,0-0.9-0.1-1.3-0.2c-0.4-0.1-0.7-0.3-1-0.5c-0.3-0.3-0.5-0.6-0.7-1c-0.2-0.4-0.3-0.9-0.3-1.4C60.9,37.7,60.9,37.3,61.1,36.9
	 M65.9,36.9c-0.1-0.3-0.2-0.5-0.4-0.8c-0.2-0.2-0.4-0.4-0.6-0.5c-0.2-0.1-0.5-0.2-0.8-0.2c-0.3,0-0.5,0.1-0.8,0.2
	c-0.2,0.1-0.4,0.3-0.6,0.6c-0.2,0.3-0.3,0.5-0.4,0.8c-0.1,0.3-0.1,0.7-0.1,1c0,0.4,0,0.8,0.2,1.2c0.1,0.3,0.2,0.5,0.4,0.8
	c0.2,0.2,0.3,0.3,0.6,0.4c0.2,0.1,0.4,0.1,0.7,0.1c0.3,0,0.5-0.1,0.7-0.2c0.2-0.1,0.4-0.3,0.6-0.5c0.2-0.3,0.3-0.5,0.4-0.8
	c0.1-0.4,0.2-0.8,0.2-1.2C66,37.6,66,37.3,65.9,36.9"/>
<path class="st0" d="M68.3,36.3c0-0.4,0-0.7-0.1-1.1H69h0.8h1.1h0.7c0,0.1,0,0.2,0,0.4c0,0.1,0,0.2,0,0.2s0,0.1,0,0.2H71h-0.6H70
	h-0.3c0,0.3,0,0.6,0,0.9s0,0.6,0,0.9h1h0.9c0,0.1,0,0.2,0,0.2s0,0.1,0,0.2c0,0,0,0.1,0,0.1v0.2c-0.7,0-1.3-0.1-1.9-0.1v0.3
	c0,0.5,0,0.9,0,1.3s0,0.7,0,1.1h-0.3h-0.7h-0.3c0-0.4,0-0.7,0.1-1.1s0-0.8,0-1.3v-1.2C68.3,37.1,68.3,36.7,68.3,36.3"/>
<path class="st0" d="M75.1,36.3c0-0.4,0-0.7-0.1-1.1h0.3h0.4h0.6h0.9c0.5,0,0.9,0,1.3,0.1c0.4,0.1,0.7,0.2,1,0.5
	c0.3,0.2,0.5,0.5,0.7,0.8c0.3,0.8,0.3,1.8,0,2.6c-0.1,0.4-0.4,0.7-0.6,1c-0.3,0.3-0.6,0.5-0.9,0.6c-0.4,0.1-0.7,0.2-1.1,0.2h-2.2
	L75,41c0-0.4,0-0.7,0.1-1.1s0-0.8,0-1.3v-1.1C75.1,37.1,75.1,36.7,75.1,36.3 M76.3,39.3v0.5c0,0.2,0,0.3,0,0.5s0,0.2,0,0.3h0.3h0.4
	c0.6,0,1.1-0.2,1.5-0.7C79.1,39,79.3,38,79,37c-0.1-0.3-0.2-0.5-0.4-0.7c-0.2-0.2-0.4-0.4-0.6-0.5c-0.3-0.1-0.5-0.2-0.8-0.2h-0.5
	h-0.4c0,0,0,0.1,0,0.3s0,0.3,0,0.5L76.3,39.3L76.3,39.3z"/>
<path class="st0" d="M83.3,41c-0.3-0.1-0.6-0.2-0.8-0.4c-0.2-0.2-0.4-0.4-0.5-0.6c-0.1-0.3-0.2-0.7-0.2-1c0-0.2,0-0.4,0-0.6
	s0-0.3,0-0.5s0-0.3,0-0.5s0-0.3,0-0.4c0-0.5,0-0.8,0-1.1s0-0.5,0-0.6h0.3h0.7h0.3c-0.1,0.5-0.1,1.1-0.1,1.5s0,1,0,1.5
	c0,0.4,0,0.8,0.1,1.2c0.1,0.3,0.2,0.5,0.3,0.7c0.1,0.2,0.3,0.3,0.5,0.3c0.2,0.1,0.5,0.1,0.7,0.1c0.3,0,0.6-0.1,0.8-0.3
	c0.2-0.2,0.4-0.4,0.4-0.7c0.1-0.3,0.2-0.7,0.2-1c0-0.4,0-0.8,0-1.2s0-0.8,0-1.2s0-0.8-0.1-1.2h0.2h0.4H87c0,0.1,0,0.3,0,0.5
	s0,0.5,0,0.7s0,0.6,0,0.9s0,0.7,0,1.1c0.1,0.8-0.2,1.5-0.6,2.1c-0.5,0.5-1.2,0.7-1.9,0.6c-0.3,0-0.7,0-1-0.1"/>
<path class="st0" d="M88.3,36.3c0-0.4,0-0.7-0.1-1.1h0.3H89h0.8h0.8c0.2,0,0.5,0,0.7,0.1c0.2,0,0.4,0.1,0.6,0.2
	c0.1,0.1,0.3,0.2,0.3,0.4c0.1,0.2,0.1,0.4,0.1,0.6c0,0.2,0,0.4-0.2,0.6c-0.1,0.2-0.2,0.3-0.4,0.4c-0.1,0.1-0.3,0.2-0.4,0.3
	c-0.1,0.1-0.3,0.1-0.4,0.1l0,0c0.2,0,0.3,0,0.5,0.1c0.2,0.1,0.3,0.2,0.5,0.3c0.2,0.1,0.3,0.3,0.4,0.4c0.1,0.2,0.2,0.4,0.2,0.7
	c0,0.3-0.1,0.5-0.2,0.8c-0.1,0.2-0.3,0.4-0.4,0.5c-0.2,0.1-0.4,0.2-0.6,0.3C90.9,41,90.7,41,90.4,41h-1.7l-0.4,0
	c0-0.4,0-0.7,0.1-1.1s0-0.8,0-1.3v-1.1C88.4,37.1,88.4,36.7,88.3,36.3 M91,36.3c0-0.1-0.1-0.2-0.2-0.3c-0.1-0.1-0.2-0.2-0.3-0.2
	c-0.1-0.1-0.3-0.1-0.4-0.1h-0.3h-0.2c0,0.2,0,0.4,0,0.6s0,0.4,0,0.5s0,0.3,0,0.4s0,0.3,0,0.4H90c0.2,0,0.5-0.1,0.7-0.3
	c0.1-0.1,0.2-0.2,0.2-0.3C91,37,91,36.8,91,36.7C91,36.5,91,36.4,91,36.3 M90.8,38.5c-0.2-0.2-0.5-0.3-0.8-0.3h-0.4
	c0,0.1,0,0.2,0,0.4s0,0.3,0,0.5s0,0.3,0,0.4s0,0.3,0,0.4s0,0.3,0,0.4s0,0.2,0,0.3h0.5c0.1,0,0.2,0,0.4-0.1c0.1-0.1,0.2-0.1,0.3-0.2
	c0.1-0.1,0.2-0.2,0.2-0.3c0.1-0.2,0.1-0.3,0.1-0.5C91.1,39.1,91,38.8,90.8,38.5"/>
<path class="st0" d="M98.1,41h-0.4H97h-0.4l-0.3-0.9c-0.1-0.3-0.2-0.6-0.3-0.9H94c-0.1,0.3-0.2,0.6-0.3,0.9s-0.2,0.6-0.3,0.9h-0.2
	h-0.4h-0.2c0.1-0.2,0.2-0.4,0.3-0.6s0.2-0.6,0.4-0.9l0.4-1.1l0.5-1.2c0.2-0.4,0.3-0.8,0.5-1.2s0.3-0.7,0.4-1h0.2h0.3h0.2l0.6,1.5
	c0.2,0.6,0.4,1.1,0.6,1.6s0.4,1,0.6,1.5S97.9,40.7,98.1,41 M95.1,36.8c-0.2,0.3-0.3,0.7-0.4,1l-0.4,1h1.6c-0.1-0.3-0.2-0.7-0.4-1
	S95.2,37.1,95.1,36.8"/>
<path class="st0" d="M99,36.3c0-0.4,0-0.7,0-1.1h0.3h0.7h0.3c0,0.4,0,0.7-0.1,1.1s0,0.8,0,1.3v1.2c0,0.5,0,0.9,0,1.3s0,0.7,0.1,1.1
	l-0.3,0h-0.8h-0.3c0-0.4,0-0.7,0-1.1s0-0.8,0-1.3v-1.1C98.9,37.1,98.9,36.7,99,36.3"/>
<path class="st0" d="M0.2,15.5c0,0,6.5,8.5,20.4,8.5c6,0.1,11.9-1.5,17.1-4.5c0,0,0.2-0.6-0.8-0.8l-1.1-0.3c-1.4-0.4-2.7-0.9-4-1.6
	l0.7-1.9c1.4,0,2.7-0.3,3.9-1c0.6-0.3,0.1-1.3-0.2-1.6c-0.7-1.1-1.4-2.3-2-3.5c-0.1-0.5-0.4-1-0.8-1.3l0.4-2.5l2.7,2.7h-1.2
	c0,0,1.3,2.3,1.6,2.7c0.5,1,0.7,2.1,0.5,3.2c-0.2,1-0.8,1.8-1.6,2.4c0,0,2,0.6,2.4,0.7s1.1,0.7,0.6,2.3c-0.3,1.1-1,2.1-2,2.7
	c-0.9,0.6-6.1,4.5-18.9,4.3C10.6,26,4,21.4,4,21.4S1.5,18,0.8,16.9C0.5,16.5,0.3,16,0.2,15.5"/>
<path class="st0" d="M39,0.6c0,0-20.1,6.5-28.3,10.1l-1,1.9c0,0,18.7-7.1,28.5-10.3L39,0.6z"/>
<path class="st0" d="M22.3,14.4c0,0,1-1.9,1.5-2c1.1-0.1,2.2,0,3.3,0.4c0.7,0.3,0,1.1-0.4,1.7c-0.3,0.7-0.9,1.2-1.6,1.5
	c-0.7,0.2-3.8,0.6-2.3,0s3.9-1.4,2.3-1.4S22.3,14.4,22.3,14.4"/>
<path class="st0" d="M40.7,12.7c0.5,0.4,0.9,0.8,1.3,1.3c1.4,1.7,3.2,3,5.3,3.8c2.5,1,2.4,1.4,2,1.8c-3,2.1-6.1,4.1-9.3,5.9
	c-2.5,1.2-4.7,1.5-2.8-4c0,0-0.2-0.3-0.6,0.7s-2,5,0.3,5.9c0.8,0.3,1.7,0.2,4.2-1.1s7.8-4.9,8.6-5.8c0.6-0.7,0.8-1.7,0.7-2.6
	c-0.1-1-0.1-1.5-2.3-2.7s-4.2-2.2-5-3.4l1.1-0.1l-3.2-2L40.7,12.7L40.7,12.7z"/>
<polygon class="st0" points="51.3,13.5 53.3,15 52.3,17 50.3,15.5 "/>
<polygon class="st0" points="54.4,13 56.4,14.5 55.4,16.5 53.4,15 "/>
<polygon class="st0" points="41.3,16.6 43.3,18.1 42.3,20.1 40.3,18.6 "/>
<polygon class="st0" points="25.3,27.7 27.3,29.1 26.3,31.1 24.3,29.6 "/>
<polygon class="st0" points="22.1,28 24.2,29.5 23.2,31.5 21.2,30 "/>
<path class="st0" d="M47.6,3.3C47.3,3,47,2.8,47,2.8s1-1.6,0.2-2.7c-0.3-0.4-1.6,0.3-2.1,0.9c-0.4,0.5-0.4,1.3,0.1,1.8l0.9,0.7
	c-1,1.2-2.2,2.2-3.5,3.1c-2.5,1.8-4.7,3.4-4.7,3.4s-0.7,0.6,1.2-0.4C40.6,8.8,42,8,43.4,7.1c1.1-1,2.1-2.1,3.1-3.3
	C46.7,4,46.8,4.1,47,4.3c0.2,0.3,0.3,0.5,0.3,0.5S47.8,3.6,47.6,3.3 M46.6,2.5c0,0-1.3-1-1.2-1.2c0.3-0.3,0.8-0.4,1.1-0.1
	C47,1.5,46.6,2.5,46.6,2.5"/>
<path class="st0" d="M59.7,3.7c-0.2-0.2-0.3-0.4-0.5-0.5c0,0,0.9-1.6,0.1-2.7c-0.3-0.4-1.6,0.3-2.1,0.9c-0.4,0.6-0.4,1.3,0.2,1.8
	L58.2,4c-1,1.2-2.2,2.2-3.5,3.1c-2.5,1.8-4.7,3.3-4.7,3.3S49.3,11,51.2,10c1.5-0.7,2.9-1.6,4.3-2.5c1.1-1,2.1-2.1,3.1-3.3
	c0.2,0.1,0.4,0.3,0.6,0.5c0.2,0.3,0.3,0.5,0.3,0.5S59.9,4,59.7,3.7 M58.7,2.9c0,0-1.4-0.9-1.2-1.2c0.3-0.3,0.8-0.4,1.1-0.1
	C59.1,1.9,58.7,2.9,58.7,2.9"/>
<path class="st0" d="M94.5,8.8c-0.1-0.2-0.3-0.3-0.4-0.4c0.4-0.7,0.5-1.5,0.1-2.2c-0.2-0.3-1.3,0.2-1.7,0.8
	c-0.4,0.5-0.3,1.1,0.1,1.5L93.3,9c-0.8,1-1.8,1.8-2.8,2.5c-2.1,1.5-3.9,2.7-3.9,2.7s-0.6,0.5,1-0.3c1.2-0.6,2.4-1.3,3.5-2
	c0.9-0.8,1.8-1.7,2.5-2.7c0.2,0.1,0.3,0.3,0.5,0.4l0.2,0.4C94.5,9.6,94.6,9.2,94.5,8.8 M93.8,8.1c0,0-1.1-0.8-1-1
	C93,6.9,93.4,6.8,93.7,7C93.9,7.3,93.9,7.7,93.8,8.1"/>
<path class="st0" d="M72,7.4c0,0-11.1,3.9-13.5,5.1l-0.4,1.2c0,0,3.6-1.6,7.4-3c3.8-1.4,5.7-2.1,5.7-2.1L72,7.4z"/>
<path class="st0" d="M66.1,21.2c0.9,0.9,2,1.6,3.3,2c1.1,0.4,1.7-1.7,1.8-2.1s-0.8-3.7-2-3.8S66.8,19,66.8,19h-0.1
	c-0.1-0.1-0.2-0.1-0.3,0c0,0,0,0,0,0L66,19.4c-1.5,2.2-2.4,2.5-4,2.4c-1.9-0.1-3.1-2.4-3.4-3.2s-2.2,0-3.2,1.6
	c-0.9,1.8-1.6,3.7-2.3,5.6c-0.8,1.9-1.6,1.5-2.4,0.5s-1.1-3.9-1.1-5.1s-0.3-0.4-0.3-0.4c-0.6,5,1.3,7.9,2.3,7.8s1.6-1.3,2-2.2
	s1.2-4.1,2.1-5.2c0.4-0.6,1.1-0.9,1.8-0.8c0.1,0.1,0.3,0.3,0.3,0.4c0.3,0.5,1.9,3.1,4.1,3.1c1.3-0.1,2.5-0.9,3.2-2.1
	C65.4,21.7,65.8,20.8,66.1,21.2 M68.5,19.3c0.5,0.3,0.8,0.8,1,1.4c0.1,0.5-0.6,0.1-1.1-0.2c-0.4-0.2-0.7-0.5-1-0.8
	C67.7,19.4,68.1,19.2,68.5,19.3"/>
<path class="st0" d="M95.1,17.2c-1.5-0.6-4.7-2.6-6.6-1.7c-1.3,0.7-2.1,1.9-2.2,3.3c0.1,0.9,0.2,1.8,0.4,2.7
	c-2.6-0.8-3.5-3.6-5.8-6.2s-6.6-7-6.6-7c4.5-2.2,9.2-3.9,14.1-5C90.2,3,90.9,3.2,91,3.5c0.6,0.8-0.3,1.5-0.8,2.4
	c-0.7,1.3-1.3,2.6-1.8,4c-0.2,0.6-0.2,1.4,0.1,0.5s1.5-2.9,2-3.9s1.9-3.4,1.9-4.4s-1.7-1.1-2.9-0.9c-6.7,1-15.8,5.4-15.8,5.4
	l-0.9,2.7c2.9,3.4,5.5,7.1,7.8,10.9c0.2,0.6-2.1,1.1-2.1,1.1c-0.5-1.3-1.5-2.3-2.8-2.7c-0.8-0.1-1.8,0.8-2.5,2.2c-0.5,1,0,2.2,1,2.7
	c0.1,0.1,0.2,0.1,0.4,0.1c1,0.2,2,0.1,3-0.1c0.4,0.6,0.1,0.8,0.1,0.8c-1.9,2-4.3,3.6-6.8,4.7c-2.7,1.1-5-0.2-5.2-2.5
	c0-1.6,0.3-3.2,0.9-4.7c0,0,0-0.6-0.4,0.2c-0.7,1.4-1.2,3-1.3,4.6c-0.1,0.6,0.1,4.5,3.2,4.8c4.2,0.5,8.4-4.1,9.5-5.1
	c0.7-0.9,1.1-2,1.2-3.2c2.3-0.8,2.3-1.7,2.5-2.7c0.1-0.9,0-1.8-0.3-2.7c0,0,1.7,2.5,3.1,4.3c0.8,1,2,1.7,3.4,1.7
	c0,0.5,0.1,0.9,0.2,1.4c0.5,0,0.5-1.5,0.5-1.5c1.6-0.2,4.5-1.6,7-2.7s3.9-0.5,3.9-0.5l1-2C98.3,18.3,96.6,17.9,95.1,17.2 M74.8,21.6
	c-0.4-0.2-0.5-0.2-0.2-0.5c0.3-0.3,0.7-0.4,1.1-0.3c0.3,0.1,0.6,0.2,0.7,0.5c0.1,0.1,0.2,0.3,0.3,0.5C76,21.8,75.4,21.7,74.8,21.6
	 M90.7,20.9c-0.9,0.3-1.8,0.6-2.8,0.7c0,0-0.8-2.8-0.8-3c0-0.3,0.2-0.7,0.5-0.9c0.8-0.6,1.9-0.7,2.8-0.3c1.5,0.5,3.6,1.7,4.5,2
	C95,19.5,92.6,20.3,90.7,20.9"/>
<path class="st0" d="M64.4,5l-0.1,0.2c-0.2-0.1-0.5-0.3-0.7-0.4c-0.2,0-0.3-0.2-0.2-0.5s0.1-1,0.5-0.8c1,0.8,1.6,1.9,1.8,3.1
	c0,0,0.2-2.1,0.3-2.7s0.4-1.2,1.5-0.2l-0.3,0.8c0,0-0.8-0.8-1-0.1C66.1,5.1,66,5.9,66,6.6c-0.1,0.9-0.3,1.4-0.4,0.8
	c-0.1-0.7-0.4-1.3-0.8-1.9C64.8,5.3,64.6,5.1,64.4,5"/>
<path class="st0" d="M81.9,10.1l-0.1,0.2c-0.2-0.1-0.5-0.3-0.7-0.4c-0.2,0-0.3-0.1-0.2-0.5s0.1-1,0.5-0.8c1,0.8,1.6,1.9,1.7,3.1
	c0,0,0.2-2.1,0.3-2.7s0.4-1.2,1.5-0.2l-0.3,0.8c0,0-0.8-0.9-1-0.1c-0.1,0.7-0.2,1.4-0.3,2.2c-0.1,0.9-0.3,1.4-0.4,0.9
	c-0.1-0.7-0.4-1.3-0.8-1.9C82.2,10.5,82.1,10.3,81.9,10.1"/>
<path class="st0" d="M64.2,17.7c0.3,0.1,0.9-0.2,1.2-1.4c0.1-0.7-0.2,0-0.2,0c-0.1,0.2-0.3,0.3-0.5,0.2c-0.3-0.1-0.6-0.5-0.2-1.6
	c0.2-0.7,0.5-1.4,0.8-2c0-0.1-0.1-0.3-0.3,0.2c-0.5,0.9-0.9,1.9-1.2,2.9c-0.2,0.5,0,1.1,0.3,1.5L64.2,17.7z"/>
<path class="st0" d="M28.3,21.2c0.3,0.1,0.9-0.1,1.2-1.4c0.1-0.7-0.2,0-0.2,0C29.2,20,29,20.1,28.8,20c-0.3-0.1-0.6-0.5-0.2-1.6
	c0.2-0.7,0.5-1.4,0.8-2c0-0.1,0-0.3-0.3,0.2c-0.5,0.9-0.9,1.9-1.2,2.9c-0.2,0.5,0,1.1,0.3,1.5L28.3,21.2z"/>
</svg>
