<?xml version="1.0" encoding="utf-8"?>
<!-- Generator: Adobe Illustrator 24.0.1, SVG Export Plug-In . SVG Version: 6.00 Build 0)  -->
<svg version="1.1" id="Layer_1" xmlns="http://www.w3.org/2000/svg" xmlns:xlink="http://www.w3.org/1999/xlink" x="0px" y="0px"
	 viewBox="0 0 156 30" style="enable-background:new 0 0 156 30;" xml:space="preserve">
<style type="text/css">
	.st0{clip-path:url(#SVGID_2_);}
	.st1{fill-rule:evenodd;clip-rule:evenodd;fill:#FFFFFF;}
	.st2{fill:#FFFFFF;}
</style>
<g>
	<defs>
		<rect id="SVGID_1_" width="156" height="30"/>
	</defs>
	<clipPath id="SVGID_2_">
		<use xlink:href="#SVGID_1_"  style="overflow:visible;"/>
	</clipPath>
	<g class="st0">
		<path class="st1" d="M0,30h6.5c0,0,12.8-25,43.4-28c0,0-0.7-1.6-1-2C48.9,0,17.3,1.2,0,30z"/>
		<path class="st1" d="M40.7,9.7c8.7,0.7,7.6,9.2,7.6,9.2c-0.2,1.6-0.6,2.7-1.6,3.8c-5,5.1-10,1.6-10,1.6c4,3.3,10.4,3,10.4,3
			c8.6-5.7,7.1-15.7,4.3-22.1C51.4,5.2,45.5,6.1,40.7,9.7z"/>
		<path class="st1" d="M38.8,6.4c0,0-11.6,7.7-5.4,17.5c1.8,2.9,7.2,5.2,12.7,5.2c0,0-3.1,1-5.9,1C37.5,29.9,24,30,24,30
			S24.5,14.2,38.8,6.4z"/>
		<path class="st1" d="M22.2,30H9.4c0,0,7.6-16.8,30-25.1C39.4,4.9,24.1,10.7,22.2,30z"/>
		<path class="st2" d="M67.5,0.4H66v1.5h1.5V0.4z"/>
		<path class="st2" d="M69.4,0.4h-1.5v1.5h1.5V0.4z"/>
		<path class="st2" d="M104.2,0.4h-1.5v1.5h1.5V0.4z"/>
		<path class="st2" d="M106.5,0.4H105v1.5h1.5V0.4z"/>
		<path class="st2" d="M142.9,0.4h-1.5v1.5h1.5V0.4z"/>
		<path class="st2" d="M144.8,0.4h-1.5v1.5h1.5V0.4z"/>
		<path class="st1" d="M74.2,0.8c0-0.1,0-0.2-0.1-0.3c-0.1-0.1-0.2-0.1-0.3-0.1h-0.6c-0.2,0-0.4,0.2-0.4,0.4v10.5h1.5V0.8z"/>
		<path class="st1" d="M78.7,11.5c0-0.5,0-0.8,0-0.8V4.9c0-0.2-0.2-0.4-0.4-0.4h-0.6c-0.2,0-0.4,0.2-0.4,0.4v6.5
			c-0.1,0.5-0.3,0.9-0.7,1.1c-0.5,0.2-1.3,0.2-1.3,0.2v1.3C78.4,14,78.7,12.6,78.7,11.5z"/>
		<path class="st1" d="M152.6,8.9V1.4V0.5c0-0.2-0.2-0.4-0.4-0.4h-0.6c-0.2,0-0.4,0.2-0.4,0.4v0.9v7.5c0,0.5-0.5,1-1,1h-0.9
			l-1.5-8.7l-0.1-0.8c0-0.1-0.1-0.2-0.2-0.3C147.5,0,147.4,0,147.3,0l-0.6,0.1c-0.2,0-0.4,0.2-0.3,0.5l0.1,0.8l1.4,8.4h-2v1.4h4.4
			C151.5,11.3,152.6,10.2,152.6,8.9z"/>
		<path class="st1" d="M156,1.6V0.8c0-0.2-0.2-0.4-0.4-0.4h-0.6c-0.1,0-0.2,0-0.3,0.1c-0.1,0.1-0.1,0.2-0.1,0.3v0.8v9.6h1.5L156,1.6
			L156,1.6z"/>
		<path class="st2" d="M117,0.4c0-0.2-0.2-0.4-0.4-0.4H116c-0.1,0-0.2,0-0.3,0.1c-0.1,0.1-0.1,0.2-0.1,0.3v0.9v7.5c0,0.6-0.5,1-1,1
			h-1.7c-0.3,0-0.5-0.1-0.7-0.3c-0.2-0.2-0.3-0.4-0.3-0.7V1.3V0.4c0-0.2-0.2-0.4-0.4-0.4h-0.6c-0.2,0-0.4,0.2-0.4,0.4v0.9v7.5
			c0,0.6-0.5,1-1,1h-1.4c0.2-0.5,0.4-1.1,0.4-1.9c0-2.7-1.2-3.9-3.6-3.9c-2.3,0-3.6,1.4-3.6,3.9c0,0.8,0.1,1.4,0.4,1.9h-4.5
			c0.2-0.5,0.3-1.2,0.3-2.1c0-3.1-1.9-3.6-3.1-3.6h-3.5c-0.6,0-1.1,0.2-1.6,0.5V0.4c0-0.2-0.2-0.4-0.4-0.4h-0.6
			c-0.2,0-0.4,0.2-0.4,0.4v9.4h-5.6c-0.5,0-1-0.4-1-1V1.3V0.4c0-0.1,0-0.2-0.1-0.3C81.1,0,81,0,80.9,0h-0.6c-0.2,0-0.4,0.2-0.4,0.4
			v0.9v7.5c0,1.3,1.1,2.4,2.4,2.4h8.7v0h3.5c0.3,0,0.5,0,0.8,0h14.3c0.6,0,1.2-0.3,1.7-0.7c0.5,0.5,1.1,0.7,1.7,0.7h1.7
			c1.3,0,2.4-1.1,2.4-2.4V1.3L117,0.4z M102.7,7.9c0-1.7,0.7-2.5,2.2-2.5c1.5,0,2.2,0.4,2.2,2.5c0,1-0.3,1.7-0.8,1.9h-2.8
			C103,9.6,102.7,9,102.7,7.9z M89.3,6.8c0.2-0.7,0.9-1.2,1.6-1.2h3.5c0.8,0,1.7,0.3,1.7,2.1c0,1-0.2,1.7-0.4,1.9
			c-0.2,0.1-0.3,0.2-0.5,0.2h-5.8V6.8z"/>
		<path class="st1" d="M72,9.1L72,9.1l0-0.2c0,0,0-0.1,0-0.1V5.6v-1c0-0.2-0.2-0.4-0.4-0.4H71c-0.2,0-0.4,0.2-0.4,0.4v1v3.2
			c0,0.6-0.5,1-1,1H65c-0.5,0-1-0.4-1-1V6.4V6.1c0-0.1,0-0.2-0.1-0.3c-0.1-0.1-0.2-0.1-0.3-0.1H63c-0.1,0-0.2,0-0.3,0.1
			c-0.1,0.1-0.1,0.2-0.1,0.3v0.3v2.5c0,1.3,1.1,2.4,2.4,2.4h4.6C70.8,11.3,71.9,10.3,72,9.1z"/>
		<path class="st1" d="M144.7,9.1L144.7,9.1l0-0.2c0,0,0,0,0-0.1V5.8v-1c0-0.2-0.2-0.4-0.4-0.4h-0.6c-0.1,0-0.2,0-0.3,0.1
			c-0.1,0.1-0.1,0.2-0.1,0.3v1v3.1c0,0.5-0.5,1-1,1h-3c0.2-0.5,0.3-1.2,0.3-2.1c0-2.3-1-3.4-2.9-3.4h-2.2c-0.2,0-0.4,0.1-0.5,0.2
			c-0.2,0.2-0.3,0.6,0,1c0.1,0.1,0.2,0.2,0.3,0.2h0.8h1.5c0.8,0,1.5,0.2,1.5,2.1c0,1.3-0.2,1.7-0.4,1.9c-0.1,0.1-0.3,0.1-0.6,0.2
			h-0.8v0H131c-0.5,0-1-0.4-1-0.9V1.6V0.8c0-0.2-0.2-0.4-0.4-0.4H129c-0.2,0-0.4,0.2-0.4,0.4v0.8v7.3c0,1.3,1.1,2.3,2.4,2.3h5.8
			c0.2,0,0.4,0,0.5,0h5.1C143.6,11.2,144.6,10.3,144.7,9.1z"/>
		<path class="st1" d="M126.7,10.7c0.6-0.5,0.8-1.4,0.8-3c0-2.4-1-3.6-2.9-3.6H123h-0.6c-0.2,0-0.4,0.1-0.5,0.2
			c-0.2,0.2-0.3,0.7,0,1.1c0.1,0.1,0.2,0.2,0.3,0.2h0.8h1.6c0.8,0,1.5,0.2,1.5,2.1c0,1.3-0.2,1.8-0.4,2c-0.2,0.2-0.6,0.2-1.1,0.2
			h-3.1v1.4h3.1C125.3,11.3,126.1,11.3,126.7,10.7z"/>
		<path class="st2" d="M83.2,18c0-0.4-0.3-0.8-0.8-0.8s-0.8,0.3-0.8,0.8v10.9c0,0.4,0.3,0.8,0.8,0.8s0.8-0.3,0.8-0.8V18z"/>
		<path class="st2" d="M145.1,18c0-0.4-0.3-0.8-0.8-0.8s-0.8,0.3-0.8,0.8v10.9c0,0.4,0.3,0.8,0.8,0.8s0.8-0.3,0.8-0.8V18z"/>
		<path class="st1" d="M79.5,17.2h-8.2c-0.2,0-0.4,0.2-0.4,0.4v0.6c0,0.2,0.2,0.4,0.4,0.4h3.4v10.6c0,0.2,0.2,0.4,0.4,0.4h0.6
			c0.2,0,0.4-0.2,0.4-0.4V18.6h3.4c0.1,0,0.2,0,0.3-0.1c0.1-0.1,0.1-0.2,0.1-0.3v-0.6C79.9,17.4,79.7,17.3,79.5,17.2z"/>
		<path class="st2" d="M126.6,24.2c1.6-0.5,2.6-1.7,2.6-3.4c0-2.3-1.3-3.6-3.7-3.6c-0.7,0-1.2,0-1.7,0c-1.3,0-1.7,0-2,0.3
			c-0.3,0.3-0.3,0.6-0.3,0.8v10.8c0,0.1,0,0.2,0.1,0.3c0.1,0.1,0.2,0.1,0.3,0.1h0.6c0.2,0,0.4-0.2,0.4-0.4v-4.7c0.4,0,1,0,1.9,0
			c0.2,0,0.3,0,0.5,0l2.9,4.8c0.3,0.4,0.4,0.4,0.6,0.4h0.8c0.2,0,0.3-0.2,0.1-0.4L126.6,24.2z M122.9,23.1v-4.5c0.2,0,0.5,0,0.9,0
			c0.4,0,1,0,1.7,0c1.7,0,2.4,0.7,2.4,2.2c0,1.8-1.7,2.2-3.1,2.2C123.9,23.1,123.3,23.1,122.9,23.1z"/>
		<path class="st1" d="M94.5,17.2h-0.6c-0.2,0-0.4,0.2-0.4,0.4v4.9h-5.8v-4.9c0-0.2-0.2-0.4-0.4-0.4h-0.6c-0.2,0-0.4,0.2-0.4,0.4
			v11.6c0,0.2,0.2,0.4,0.4,0.4h0.6c0.2,0,0.4-0.2,0.4-0.4v-5.4h5.8v5.4c0,0.2,0.2,0.4,0.4,0.4h0.6c0.2,0,0.4-0.2,0.4-0.4V17.6
			C94.9,17.4,94.7,17.2,94.5,17.2z"/>
		<path class="st2" d="M112.4,17.7c-0.7,0-1.3,0-1.7,0c-1.1,0-1.6,0-2,0.3c-0.2,0.2-0.3,0.4-0.3,0.6c0,0.1,0,0.1,0,0.2v10.9
			c0,0.1,0,0.2,0.1,0.3c0.1,0.1,0.2,0.1,0.3,0.1h0.3c0,0,0.4,0,1,0c0.6,0,1.5,0,2.4,0c2.8-0.1,4.2-2.2,4.2-6.2
			C116.6,20.8,116.3,17.7,112.4,17.7z M112.4,28.6c-1,0-2,0-2.7,0v-9.4h0V19c0.2,0,0.5,0,0.9,0c0.5,0,1,0,1.7,0
			c1.9,0,2.8,0.7,2.8,4.8C115.2,28,113.7,28.5,112.4,28.6L112.4,28.6z"/>
		<path class="st2" d="M104.3,17.9c-0.3-0.2-0.6-0.4-0.9-0.4c-0.5-0.1-1.1-0.2-2.1-0.2c-1,0-1.6,0-2.1,0.2c-0.4,0.1-0.8,0.3-1.1,0.5
			c-1,0.9-1,2.6-1,3.1c0,0,0,0.1,0,0.1v2.4c0,0,0,0.1,0,0.1v0.6c0,0,0,0.1,0,0.1v5.3c0,0.2,0.2,0.4,0.4,0.4h0.6c0.1,0,0.2,0,0.3-0.1
			c0.1-0.1,0.1-0.2,0.1-0.3v-5h5.3c0,0,0,0,0.1,0v5c0,0.2,0.2,0.4,0.4,0.4h0.6c0.2,0,0.4-0.2,0.4-0.4v-8.5c0,0,0,0,0-0.1
			C105.4,20.7,105.4,18.7,104.3,17.9z M103.9,23.2h-5.3v-2.1h0c0,0-0.2-2.2,1.3-2.4c0.5,0,2.4,0,2.8,0c1.5,0.2,1.3,2.4,1.3,2.4
			L103.9,23.2C103.9,23.2,103.9,23.2,103.9,23.2z"/>
		<path class="st2" d="M139.2,17.9c-0.3-0.2-0.6-0.4-0.9-0.4c-0.5-0.1-1.1-0.2-2.1-0.2s-1.6,0-2.1,0.2c-0.4,0.1-0.8,0.3-1.1,0.5
			c-1,0.9-1,2.6-1,3.1c0,0,0,0.1,0,0.1v2.4c0,0,0,0.1,0,0.1v0.6c0,0,0,0.1,0,0.1v5.3c0,0.1,0,0.2,0.1,0.3c0.1,0.1,0.2,0.1,0.3,0.1
			h0.6c0.1,0,0.2,0,0.3-0.1c0.1-0.1,0.1-0.2,0.1-0.3v-5h5.3c0,0,0,0,0.1,0v5c0,0.1,0,0.2,0.1,0.3c0.1,0.1,0.2,0.1,0.3,0.1h0.6
			c0.2,0,0.4-0.2,0.4-0.4v-8.5c0,0,0,0,0-0.1C140.3,20.7,140.3,18.7,139.2,17.9z M138.8,23.2h-5.3v-2.1h0c0,0-0.2-2.2,1.3-2.4
			c0.5,0,2.4,0,2.8,0c1.5,0.2,1.3,2.4,1.3,2.4L138.8,23.2C138.8,23.2,138.8,23.2,138.8,23.2z"/>
		<path class="st1" d="M69,17.3h-1.4c-0.3,0-0.6,0-1,0c-0.7,0-1.3,0-2,0.1c-0.4,0-0.7,0.2-1,0.5c-0.8,0.7-0.9,2.1-0.9,2.7v5.8
			c0,0.6,0.1,2,0.9,2.7c0.3,0.2,0.6,0.4,1,0.5c0.7,0.1,1.3,0.1,2,0.1c0.4,0,0.7,0,1,0H69c0.2,0,0.4-0.2,0.4-0.4v-0.6
			c0-0.2-0.2-0.4-0.4-0.4h-2.7c-0.5,0-0.9,0-1.1,0C64.1,28.1,64,27,64,26.4c0-0.2,0-0.3,0-0.4v-2.2h5c0.2,0,0.4-0.2,0.4-0.4v-0.6
			c0-0.2-0.2-0.4-0.4-0.4h-5v-1.6c0-0.1,0-0.2,0-0.4c0-0.6,0.1-1.7,1.2-1.8c0.2,0,0.6,0,1.1,0H69c0.2,0,0.4-0.2,0.4-0.4v-0.6
			c0-0.1,0-0.2-0.1-0.3C69.2,17.3,69.1,17.3,69,17.3z"/>
		<path class="st1" d="M155.2,28.6h-2.7c-0.5,0-0.9,0-1.1,0c-1.1-0.1-1.2-1.2-1.2-1.9c0-0.1,0-0.3,0-0.3v-8.7c0-0.2-0.2-0.4-0.4-0.4
			h-0.6c-0.2,0-0.4,0.2-0.4,0.4v9.1c0,0,0,0.1,0,0.1c0,0.8,0.2,2,0.9,2.5c0.3,0.2,0.6,0.4,1,0.5c0.7,0.1,1.3,0.1,2,0.1
			c0.4,0,0.7,0,1,0h1.4c0.2,0,0.4-0.2,0.4-0.4V29c0-0.1,0-0.2-0.1-0.3C155.4,28.6,155.3,28.6,155.2,28.6z"/>
	</g>
</g>
</svg>
