<svg width="156" height="30" viewBox="0 0 156 30" fill="none" xmlns="http://www.w3.org/2000/svg">
<g clip-path="url(#clip0_784_70444)">
<path fill-rule="evenodd" clip-rule="evenodd" d="M0 30H6.51006C6.51006 30 19.2789 5.04024 49.875 1.98086C49.875 1.98086 49.1899 0.39349 48.8545 0C48.8536 0 17.3462 1.20372 0 30Z" fill="#A62032"/>
<path fill-rule="evenodd" clip-rule="evenodd" d="M40.7234 9.69711C49.4497 10.3957 48.3529 18.9138 48.3529 18.9138C48.1651 20.4995 47.7824 21.6529 46.7946 22.6775C41.8334 27.8268 36.75 24.3267 36.75 24.3267C40.7048 27.6446 47.1321 27.3694 47.1321 27.3694C55.6973 21.6314 54.2798 11.6375 51.3908 5.25C51.3908 5.25 45.5242 6.07814 40.7234 9.69711Z" fill="white"/>
<path fill-rule="evenodd" clip-rule="evenodd" d="M38.8267 6.375C38.8267 6.375 27.2352 14.0542 33.4267 23.8357C35.2745 26.7556 40.6294 29.0736 46.125 29.0336C46.125 29.0336 43.0669 30.0723 40.269 29.996C37.4712 29.9196 24 29.996 24 29.996C24 29.996 24.5481 14.2424 38.8267 6.375Z" fill="white"/>
<path fill-rule="evenodd" clip-rule="evenodd" d="M22.1579 30H9.375C9.375 30 16.9835 13.1612 39.375 4.875C39.375 4.875 24.1286 10.6718 22.1579 30Z" fill="white"/>
<path d="M67.5 0.375H66V1.875H67.5V0.375Z" fill="white"/>
<path d="M69.375 0.375H67.875V1.875H69.375V0.375Z" fill="white"/>
<path d="M104.25 0.375H102.75V1.875H104.25V0.375Z" fill="white"/>
<path d="M106.5 0.375H105V1.875H106.5V0.375Z" fill="white"/>
<path d="M142.875 0.375H141.375V1.875H142.875V0.375Z" fill="white"/>
<path d="M144.75 0.375H143.25V1.875H144.75V0.375Z" fill="white"/>
<path fill-rule="evenodd" clip-rule="evenodd" d="M74.25 0.771666C74.25 0.66631 74.2045 0.565282 74.1234 0.490867C74.0424 0.416453 73.9326 0.374765 73.8181 0.375001H73.1819C72.9437 0.375 72.7505 0.55245 72.75 0.771666V11.25H74.25V0.771666Z" fill="white"/>
<path fill-rule="evenodd" clip-rule="evenodd" d="M78.7456 11.5225C78.7589 11.0681 78.7376 10.7446 78.7376 10.7446V4.9071C78.7376 4.68262 78.56 4.5005 78.3406 4.5H77.7535C77.5341 4.5005 77.3565 4.68262 77.3565 4.9071V11.3589C77.2757 11.8469 77.0856 12.304 76.6708 12.4575C76.1539 12.6502 75.375 12.6129 75.375 12.6129V13.8715C78.425 13.9533 78.7127 12.5875 78.7456 11.5225Z" fill="white"/>
<path fill-rule="evenodd" clip-rule="evenodd" d="M152.625 8.86235V1.39646V0.541014C152.625 0.317063 152.445 0.135516 152.223 0.135516H151.628C151.406 0.135516 151.226 0.317063 151.226 0.541014V1.39646V8.86235C151.215 9.40942 150.767 9.84483 150.225 9.83573H149.332L147.881 1.18147L147.74 0.337811C147.722 0.231672 147.663 0.137035 147.576 0.0747548C147.489 0.0124749 147.381 -0.0123351 147.275 0.00579229L146.689 0.105579C146.47 0.143023 146.322 0.352508 146.359 0.573672L146.5 1.41642L147.912 9.83483H145.875V11.25H150.228C151.543 11.254 152.614 10.1872 152.625 8.86235Z" fill="white"/>
<path fill-rule="evenodd" clip-rule="evenodd" d="M155.996 1.61181V0.772737C155.996 0.552929 155.803 0.375 155.565 0.375001H154.931C154.817 0.374765 154.707 0.416565 154.626 0.49118C154.545 0.565796 154.5 0.667096 154.5 0.772737V1.61181V11.25H156V1.61181H155.996Z" fill="white"/>
<path d="M116.996 0.409342C116.995 0.183121 116.816 4.62234e-07 116.595 1.0258e-06H116.011C115.905 -0.000242202 115.803 0.0427772 115.728 0.11957C115.652 0.196363 115.61 0.300619 115.61 0.409342V1.27289V8.81136C115.6 9.3636 115.155 9.80314 114.615 9.79396H112.933C112.673 9.80009 112.421 9.69989 112.233 9.5155C112.045 9.33111 111.937 9.07772 111.932 8.81136V1.27473V0.411173C111.932 0.185101 111.753 0.00183253 111.532 0.00183253H110.94C110.719 0.00183253 110.54 0.185101 110.54 0.411173V1.27473V8.81136C110.53 9.36397 110.084 9.80366 109.544 9.79396H108.175C108.386 9.32234 108.533 8.70055 108.533 7.87821C108.533 5.21246 107.382 3.97161 104.909 3.97161C102.573 3.97161 101.286 5.35898 101.286 7.87821C101.286 8.70238 101.426 9.32418 101.638 9.79396H97.181C97.3904 9.2619 97.4924 8.57234 97.4924 7.69506C97.4853 4.5989 95.5503 4.14103 94.3976 4.14103H90.9422C90.3621 4.14079 89.7932 4.3043 89.2981 4.61355V0.409342C89.2981 0.183269 89.119 1.0258e-06 88.8981 1.0258e-06H88.3065C88.0855 1.0258e-06 87.9064 0.183269 87.9064 0.409342V9.79212H82.2628C81.7237 9.80132 81.2788 9.36288 81.2676 8.81136V1.27473V0.411173C81.2676 0.30245 81.2253 0.198194 81.1501 0.121401C81.0749 0.0446087 80.9729 0.0015893 80.8666 0.00183253H80.2759C80.0549 0.00183196 79.8755 0.184953 79.875 0.411173V1.27473V8.81136C79.8863 10.1521 80.956 11.2307 82.2664 11.2225H90.9475V11.25H94.403C94.6643 11.25 94.94 11.25 95.2138 11.2225H109.545C110.179 11.2236 110.788 10.9682 111.239 10.5119C111.69 10.9683 112.298 11.2238 112.932 11.2225H114.614C115.922 11.2276 116.989 10.15 117 8.81136V1.27473L116.996 0.409342ZM102.676 7.87637C102.676 6.13645 103.342 5.39835 104.903 5.39835C106.38 5.39835 107.13 5.78114 107.13 7.87637C107.13 8.89377 106.846 9.58425 106.345 9.79212H103.562C102.973 9.64927 102.676 9.00641 102.676 7.87637ZM89.2999 6.81593C89.4789 6.08974 90.16 5.56685 90.9439 5.56685H94.3994C95.2353 5.56685 96.09 5.8196 96.09 7.69322C96.09 8.71062 95.937 9.37454 95.6488 9.6163C95.4951 9.72626 95.3143 9.78973 95.127 9.79945H89.2999V6.81593Z" fill="white"/>
<path fill-rule="evenodd" clip-rule="evenodd" d="M71.9903 9.06269H72V8.89862C72 8.87374 72 8.84793 72 8.82304V5.5758V4.53701C72 4.30946 71.8228 4.125 71.6043 4.125H71.0191C70.8006 4.125 70.6234 4.30946 70.6234 4.53701V5.5758V8.82304C70.6099 9.37831 70.1698 9.81889 69.6363 9.81113H64.9922C64.4591 9.81786 64.02 9.37703 64.0069 8.82212V6.35374V6.0892C64.0071 5.97977 63.9656 5.87473 63.8913 5.79727C63.8171 5.7198 63.7163 5.67627 63.6112 5.67627H63.0207C62.9156 5.67627 62.8148 5.7198 62.7406 5.79727C62.6664 5.87473 62.6248 5.97977 62.625 6.0892V6.35374V8.82304C62.6362 10.1729 63.6948 11.2586 64.9913 11.2499H69.6354C70.8427 11.2569 71.8596 10.3123 71.9903 9.06269Z" fill="white"/>
<path fill-rule="evenodd" clip-rule="evenodd" d="M144.74 9.13319H144.75V8.97609C144.75 8.95124 144.75 8.92639 144.75 8.90154V5.77565V4.77539C144.75 4.5558 144.571 4.37778 144.35 4.37778H143.761C143.655 4.37754 143.553 4.41936 143.478 4.49398C143.403 4.5686 143.361 4.66987 143.361 4.77539V5.77565V8.90154C143.351 9.43677 142.907 9.86277 142.369 9.85386H139.354C139.533 9.34974 139.622 8.68676 139.622 7.80277C139.622 5.51737 138.661 4.35825 136.766 4.35825H134.612C134.428 4.35802 134.251 4.43085 134.121 4.56061C133.882 4.79847 133.817 5.20585 134.128 5.58749C134.208 5.68465 134.329 5.74042 134.455 5.73926H135.226H136.766C137.538 5.73926 138.231 5.89635 138.231 7.79922C138.231 9.08437 138.032 9.5379 137.866 9.69145C137.753 9.79529 137.548 9.83523 137.262 9.85032H136.499V9.86008H131.015C130.477 9.87149 130.031 9.44798 130.018 8.91308V1.60867V0.771728C130.018 0.552478 129.839 0.374999 129.618 0.375H129.025C128.804 0.374999 128.625 0.552478 128.625 0.771728V1.60867V8.91308C128.636 10.2126 129.703 11.2578 131.01 11.25H136.761C136.939 11.25 137.123 11.25 137.309 11.2402H142.366C143.584 11.2468 144.609 10.3368 144.74 9.13319Z" fill="white"/>
<path fill-rule="evenodd" clip-rule="evenodd" d="M126.667 10.6949C127.251 10.1523 127.5 9.25352 127.5 7.68907C127.5 5.32404 126.509 4.125 124.556 4.125H122.968H122.335C122.145 4.12476 121.963 4.2001 121.829 4.33433C121.584 4.58038 121.517 5.00087 121.836 5.39657C121.919 5.49708 122.043 5.55477 122.173 5.55357H122.968H124.556C125.351 5.55357 126.065 5.71699 126.065 7.6854C126.065 9.01481 125.861 9.48396 125.689 9.64279C125.517 9.80162 125.126 9.81723 124.556 9.81723H121.5V11.2495H124.556C125.264 11.2531 126.065 11.2531 126.667 10.6949Z" fill="white"/>
<path d="M83.25 18C83.25 17.5858 82.9142 17.25 82.5 17.25C82.0858 17.25 81.75 17.5858 81.75 18V28.875C81.75 29.2892 82.0858 29.625 82.5 29.625C82.9142 29.625 83.25 29.2892 83.25 28.875V18Z" fill="white"/>
<path d="M145.125 18C145.125 17.5858 144.789 17.25 144.375 17.25C143.961 17.25 143.625 17.5858 143.625 18V28.875C143.625 29.2892 143.961 29.625 144.375 29.625C144.789 29.625 145.125 29.2892 145.125 28.875V18Z" fill="white"/>
<path fill-rule="evenodd" clip-rule="evenodd" d="M79.475 17.25H71.2777C71.0553 17.25 70.875 17.4272 70.875 17.6458V18.232C70.875 18.4506 71.0553 18.6279 71.2777 18.6279H74.6809V29.2292C74.6809 29.4478 74.8612 29.625 75.0836 29.625H75.6718C75.8942 29.625 76.0745 29.4478 76.0745 29.2292V18.6279H79.4723C79.5791 18.6279 79.6815 18.5862 79.7571 18.5119C79.8326 18.4377 79.875 18.337 79.875 18.232V17.6476C79.876 17.4293 79.6971 17.2515 79.475 17.25Z" fill="white"/>
<path d="M126.599 24.2284C128.242 23.7416 129.175 22.5624 129.175 20.874C129.175 18.5502 127.852 17.2704 125.449 17.2704C124.745 17.2704 124.199 17.2633 123.761 17.257C122.45 17.2383 122.101 17.233 121.771 17.5632C121.5 17.8355 121.5 18.1737 121.5 18.398V29.2267C121.5 29.3322 121.541 29.4334 121.614 29.508C121.688 29.5826 121.787 29.6245 121.89 29.6245H122.469C122.684 29.6245 122.859 29.4464 122.859 29.2267V24.4848C123.278 24.4848 123.892 24.4776 124.71 24.4776C124.873 24.4776 125.031 24.4723 125.184 24.4634L128.121 29.2267C128.383 29.6548 128.541 29.6245 128.757 29.6245H129.534C129.75 29.6245 129.815 29.4465 129.679 29.2267L126.599 24.2284ZM122.861 23.099V18.6392C123.084 18.6392 123.398 18.6392 123.741 18.6446C124.184 18.6508 124.735 18.6588 125.449 18.6588C127.109 18.6588 127.813 19.321 127.813 20.874C127.813 22.7048 126.127 23.0892 124.712 23.0892C123.899 23.0892 123.283 23.0928 122.861 23.099Z" fill="white"/>
<path fill-rule="evenodd" clip-rule="evenodd" d="M94.4749 17.25H93.8823C93.6613 17.25 93.4821 17.4262 93.4821 17.6437V22.5084H87.642V17.6437C87.642 17.4262 87.4628 17.25 87.2419 17.25H86.6501C86.4292 17.25 86.25 17.4262 86.25 17.6437V29.2313C86.25 29.4488 86.4292 29.625 86.6501 29.625H87.2419C87.4628 29.625 87.642 29.4488 87.642 29.2313V23.8778H93.4821V29.2305C93.4821 29.4479 93.6613 29.6241 93.8823 29.6241H94.4749C94.6959 29.6241 94.875 29.4479 94.875 29.2305V17.6437C94.875 17.4262 94.6959 17.25 94.4749 17.25Z" fill="white"/>
<path d="M112.401 17.6644C111.69 17.6644 111.135 17.6493 110.69 17.6377C109.559 17.6092 109.09 17.5968 108.715 17.9635C108.556 18.1186 108.452 18.321 108.419 18.5403C108.39 18.5953 108.375 18.6563 108.375 18.7183V29.5959C108.375 29.7014 108.417 29.8026 108.491 29.8772C108.566 29.9519 108.667 29.9938 108.772 29.9938H109.065C109.073 29.9938 109.485 30 110.096 30C110.742 30 111.612 29.9929 112.459 29.9644C115.223 29.8754 116.625 27.8024 116.625 23.8131C116.626 20.8393 116.3 17.6644 112.401 17.6644ZM112.412 28.5794C111.424 28.6133 110.403 28.6159 109.758 28.6133V19.1704H109.769V19.0173C109.981 19.0102 110.311 19.0173 110.658 19.028C111.11 19.0396 111.674 19.0538 112.404 19.0538C114.327 19.0538 115.242 19.7659 115.242 23.8175C115.239 27.9537 113.729 28.5358 112.413 28.5794H112.412Z" fill="white"/>
<path d="M104.326 17.8546C104.06 17.6438 103.751 17.493 103.42 17.4129C102.87 17.2753 102.342 17.25 101.312 17.25C100.282 17.25 99.7278 17.2971 99.2045 17.4129C98.8034 17.4934 98.4283 17.6696 98.112 17.9261C97.1213 18.7967 97.1332 20.5687 97.1507 20.9814C97.1435 21.0111 97.1399 21.0414 97.1397 21.0719V23.5092C97.1306 23.5425 97.1256 23.5769 97.125 23.6114V24.2106C97.1256 24.2451 97.1306 24.2794 97.1397 24.3128V29.5801C97.1402 29.8033 97.3233 29.9841 97.5493 29.9846H98.156C98.2647 29.9846 98.3689 29.942 98.4457 29.8661C98.5225 29.7903 98.5657 29.6874 98.5657 29.5801V24.6133H103.894C103.912 24.6124 103.93 24.6106 103.947 24.6079V29.5955C103.947 29.8189 104.131 30 104.357 30H104.964C105.19 30 105.373 29.8189 105.373 29.5955V21.0701C105.373 21.0507 105.371 21.0313 105.368 21.0122C105.39 20.6547 105.432 18.718 104.326 17.8546ZM103.899 23.2051H98.5703V21.0701H98.5758C98.5758 21.0701 98.398 18.8302 99.8854 18.7089C100.435 18.6646 102.332 18.6664 102.643 18.7089C104.121 18.9107 103.952 21.0701 103.952 21.0701V23.2105C103.934 23.2073 103.916 23.2055 103.899 23.2051Z" fill="white"/>
<path d="M139.199 17.8546C138.933 17.6438 138.624 17.493 138.293 17.4129C137.748 17.2753 137.216 17.25 136.186 17.25C135.156 17.25 134.602 17.2971 134.079 17.4129C133.678 17.4934 133.303 17.6696 132.987 17.9261C131.995 18.7967 132.008 20.5687 132.026 20.9814C132.019 21.0111 132.015 21.0414 132.015 21.0719V23.5092C132.006 23.5425 132.001 23.5769 132 23.6114V24.2106C132.001 24.2451 132.006 24.2794 132.015 24.3128V29.5801C132.015 29.6874 132.058 29.7903 132.135 29.8661C132.211 29.942 132.316 29.9846 132.424 29.9846H133.031C133.139 29.9846 133.244 29.942 133.32 29.8661C133.397 29.7903 133.44 29.6874 133.44 29.5801V24.6133H138.767C138.785 24.6124 138.803 24.6106 138.82 24.6079V29.5955C138.82 29.7027 138.863 29.8056 138.94 29.8815C139.017 29.9574 139.121 30 139.23 30H139.84C140.066 30 140.25 29.8189 140.25 29.5955V21.0701C140.249 21.0507 140.247 21.0313 140.244 21.0122C140.262 20.6547 140.305 18.718 139.199 17.8546ZM138.772 23.2051H133.445V21.0701H133.45C133.45 21.0701 133.273 18.8302 134.76 18.7089C135.309 18.6646 137.206 18.6664 137.517 18.7089C138.994 18.9107 138.825 21.0701 138.825 21.0701V23.2105C138.807 23.2073 138.79 23.2055 138.772 23.2051Z" fill="white"/>
<path fill-rule="evenodd" clip-rule="evenodd" d="M68.9831 17.2679H67.5663C67.2805 17.2573 66.9473 17.2512 66.5624 17.2512C65.8881 17.2424 65.2141 17.2839 64.5459 17.3754C64.1759 17.4212 63.8284 17.5785 63.5491 17.8267C62.7276 18.561 62.6268 19.9545 62.625 20.575V26.337C62.6311 26.9743 62.7434 28.3281 63.5491 29.0483C63.8284 29.2965 64.1759 29.4538 64.5459 29.4996C65.2141 29.5911 65.8881 29.6326 66.5624 29.6238C66.9473 29.6238 67.2805 29.6177 67.5663 29.6071H68.9831C69.1995 29.6071 69.375 29.4307 69.375 29.2131V28.6305C69.375 28.4129 69.1995 28.2365 68.9831 28.2365H66.309C65.84 28.2277 65.4016 28.2127 65.1947 28.195C64.1426 28.1069 64.0216 26.9981 63.9988 26.3714C63.9936 26.2092 63.9918 26.077 63.991 26.0188V23.8654H68.9831C69.1995 23.8654 69.375 23.689 69.375 23.4714V22.8888C69.375 22.6712 69.1995 22.4948 68.9831 22.4948H63.991V20.8562C63.991 20.7989 63.991 20.6658 63.9988 20.5036C64.0216 19.8769 64.14 18.7672 65.1947 18.68C65.4016 18.6632 65.84 18.6482 66.309 18.6394H68.9831C69.1995 18.6394 69.375 18.463 69.375 18.2454V17.6637C69.3755 17.5589 69.3344 17.4582 69.2608 17.3839C69.1873 17.3096 69.0873 17.2679 68.9831 17.2679Z" fill="white"/>
<path fill-rule="evenodd" clip-rule="evenodd" d="M155.231 28.5757H152.556C152.088 28.5666 151.649 28.5512 151.442 28.5332C150.39 28.4427 150.269 27.3053 150.246 26.6624C150.246 26.5232 150.24 26.4038 150.239 26.3342V17.6542C150.239 17.431 150.064 17.25 149.847 17.25H149.267C149.05 17.25 148.875 17.431 148.875 17.6542V26.7673C148.876 26.8066 148.882 26.8456 148.893 26.883C148.935 27.6398 149.112 28.8876 149.799 29.4084C150.075 29.6182 150.381 29.8117 150.796 29.8713C151.464 29.9652 152.138 30.0078 152.812 29.9988C153.197 29.9988 153.53 29.9925 153.816 29.9816H155.233C155.45 29.9816 155.625 29.8007 155.625 29.5775V28.9798C155.625 28.8722 155.583 28.7689 155.509 28.6931C155.435 28.6172 155.335 28.5749 155.231 28.5757Z" fill="white"/>
</g>
<defs>
<clipPath id="clip0_784_70444">
<rect width="156" height="30" fill="white"/>
</clipPath>
</defs>
</svg>
