<?xml version="1.0" encoding="utf-8"?>
<!-- Generator: Adobe Illustrator 24.0.1, SVG Export Plug-In . SVG Version: 6.00 Build 0)  -->
<svg version="1.1" id="Layer_1" xmlns:sketch="http://www.bohemiancoding.com/sketch/ns"
	 xmlns="http://www.w3.org/2000/svg" xmlns:xlink="http://www.w3.org/1999/xlink" x="0px" y="0px" viewBox="0 0 158 32"
	 style="enable-background:new 0 0 158 32;" xml:space="preserve">
<style type="text/css">
	.st0{fill-rule:evenodd;clip-rule:evenodd;fill:#FFFFFF;}
</style>
<title>a. Logo</title>
<desc>Created with Sketch.</desc>
<g id="C1.0_Navigation" sketch:type="MSPage">
	<g id="C2.5.1_Interactions_Desktop-Phablet" transform="translate(-139.000000, -356.000000)" sketch:type="MSArtboardGroup">
		<g id="a.-Logo" transform="translate(139.000000, 356.000000)" sketch:type="MSLayerGroup">
			<path id="Fill-5" sketch:type="MSShapeGroup" class="st0" d="M39.1,6.9v14.3c0,1.3-0.6,3.3-5.8,3.3s-5.8-2-5.8-3.3V6.9h-3v14.5
				c0,3.5,2.9,5.1,8.3,5.1c2.8,0,4.8-0.5,6.3-0.9V32H42l0-25.1H39.1L39.1,6.9z M11.9,0C8.8,0,4.1,0.7,4.1,3.9v2.9H0.7v1.7h3.4v17.4
				H7V8.5h4.5l0-1.7H7V4.3c0-2.5,2.9-2.9,5-2.9c3.4,0,5.2,0.3,5.2,4.1l0,20.5H20V0.5h-2.9C15.5,0.5,14.7,0,11.9,0L11.9,0z
				 M154.4,8.7c-1.7,0-3.1,1.4-3.1,3.2c0,1.8,1.4,3.2,3.1,3.2c1.7,0,3.1-1.4,3.1-3.2C157.5,10.1,156.1,8.7,154.4,8.7L154.4,8.7z"/>
			<path id="Fill-6" sketch:type="MSShapeGroup" class="st0" d="M131.6,11.2c2.2-0.3,4.2-0.4,5.5-0.4c-0.7-2.7-3.8-3.7-9.1-3.7
				c-4.5,0-8.5,1.6-8.5,1.6v3.7c0,0,2.8-2.3,8.6-2.3C130,10.1,131,10.4,131.6,11.2L131.6,11.2z M62.2,20.6c-0.2,2.1-2.4,3.2-4.5,3.2
				c-4.6,0-5.3-2-5.3-6.7c0-4.7,0.9-6.7,5.1-6.7c2.7,0,4.6,1.1,4.7,3.2c0.1,1.7,0.2,2.5,0.2,3.5C62.3,18,62.3,19,62.2,20.6
				L62.2,20.6z M62.3,8.2C60.4,7.4,59,7,56.6,7c-7.2,0-9.5,2.8-9.5,10c0,7.2,3.2,10,10.5,10c4.4,0,7.6-1.7,9.9-1.7V1.1h-5.2V8.2
				L62.3,8.2z M146.7,7.5l-5.2,0v3.1h5.2V7.5L146.7,7.5z M132.2,20.5c0,2.7-2.5,3.4-4.3,3.4c-3,0-4.5-0.9-4.5-2.8
				c0-3.3,4.1-4.9,8.7-5.2V20.5L132.2,20.5z M147.8,12.5l-1.5,0c-21.1,0-27.9,4-27.9,8.5c0,4.2,3.6,6,9.4,6c3.7,0,7.5-1.6,9.5-1.6
				V15.2c2.5-0.3,4.3-0.4,4.3-0.4v11.8h5.2v-8.9C146.8,14.6,147.8,12.5,147.8,12.5L147.8,12.5z M105.2,23.7c-2.1,0-4.4-1.1-4.5-3.2
				c-0.1-1.6-0.2-2.5-0.2-3.5c0-1,0.1-1.8,0.2-3.5c0.2-2.1,2.1-3.2,4.7-3.2c4.2,0,5.1,2,5.1,6.7C110.5,21.7,109.8,23.7,105.2,23.7
				L105.2,23.7z M106.2,7c-2.4,0-3.8,0.4-5.8,1.1V1.1h-5.2v24.2c2.3,0,5.5,1.7,9.9,1.7c7.2,0,10.5-2.8,10.5-10
				C115.7,9.8,113.5,7,106.2,7L106.2,7z M85.8,20.7c0,1.3-0.4,3.3-4.3,3.3s-4.3-2-4.3-3.3V7.5h-5.2V22c0,3.5,3.6,5.1,9,5.1
				c4.8,0,7.9-1.5,9.4-1.6l0.7-0.1V7.5h-5.2V20.7L85.8,20.7z"/>
		</g>
	</g>
</g>
</svg>
