<?xml version="1.0" encoding="utf-8"?>
<!-- Generator: Adobe Illustrator 24.0.1, SVG Export Plug-In . SVG Version: 6.00 Build 0)  -->
<svg version="1.1" id="layer" xmlns="http://www.w3.org/2000/svg" xmlns:xlink="http://www.w3.org/1999/xlink" x="0px" y="0px"
	 viewBox="0 0 1487 652" style="enable-background:new 0 0 1487 652;" xml:space="preserve">
<style type="text/css">
	.st0{fill:#FFFFFF;}
	.st1{fill:#110507;}
</style>
<g>
	<path class="st0" d="M1313.4,265.5c-0.5,0.5-0.7,0.9-1.8,1.8c-1.4,0.9-2.7,1.1-4.4,0.9c-2.1,0-3.2-0.7-4.1-2.1c-3-4.1-5-8.5-8-15.8
		c-2.7-6.6-2.3-5.5-6.4-15.3c-1.8-4.8-5.3-12.1-7.3-14.9c-3-4.1-8.5-8-10.5-8.9c-2.5-0.9-5.7-1.8-9.4-2.1
		c-6.4-0.5-12.8,0.5-15.6,1.4c-2.1,0.5-6,1.8-7.8,4.1c-0.2,0.2-1.1,1.4-2.3,2.1c-2.7,1.4-3.4,1.1-7.1,3.9c-6,4.4-5,11-1.8,13.5h0.2
		c0-1.8,0-3.2,0.5-3.2c0.2,0,3.2,2.1,7.6,1.4c3.2-0.5,5.3,4.6,5.3,4.6l0.5-1.4c0,0,0.9,3.2,1.8,3.9l0.5-0.7c0.9,1.1,2.5,2.1,2.7,4.1
		c0,1.8-0.9,3.4-3.2,5.5c-0.9,0.7-6,5-11.5,10.5c-2.7,3-4.4,4.6-7.1,7.8c-1.4,1.6-2.7,2.5-4.4,2.7h-0.7c-1.6,0-3-0.9-3.7-1.6
		c-0.7-0.7-28.4-37.6-41.7-55c24.1-23.6,64.1-27.5,74.2-26.8c2.3,0.2,5,2.1,2.1,6c2.1,0.9,10.3,0.2,13.3-2.5
		c3,2.7,11.2,3.7,13.3,2.5c-3-3.9-0.2-5.7,2.1-6c9.8-0.7,47.9,1.1,74.4,27.3C1340.2,230.2,1322.8,252,1313.4,265.5 M1430.9,337.2
		c0.9-88.9-18.8-138.8-35.7-163.1c5.7-7.6,9.4-12.4,9.6-12.6c1.6-1.6,4.6-4.4,10.8-5.3c1.6-11.7,6-25.7,6-25.7s-11.7,8.5-22.7,13.3
		c0.9,6-0.7,9.6-2.3,11.7c-0.2,0.2-3,3.9-7.6,9.8c-7.3-8.7-16-16.5-28.6-23.8c-3-1.8-6.2-3.4-9.8-5c0.2-4.8-1.4-9.2-4.6-12.6
		c-0.2-2.7-2.5-6.2-5.3-7.3l0,0c-3-0.7-7.3,0.7-9.4,2.5c-4.8,0.7-9.4,3.2-12.6,6.9c-10.3-2.3-22.2-3.9-35.7-4.6
		c-1.6-6.6-6-11.5-11.2-14c-1.4-2.7-5.3-5.7-8.7-6l0,0l0,0l0,0c-3.4,0.2-7.3,3-8.7,6c-5.3,2.5-9.6,7.3-11.2,14
		c-13.5,0.9-25.4,2.5-35.7,4.6c-3.4-3.7-7.8-6.2-12.6-6.9c-2.1-2.1-6.4-3.4-9.4-2.5l0,0c-2.7,1.1-5,4.6-5.3,7.3
		c-3.2,3.2-4.8,7.8-4.6,12.6c-3.4,1.6-6.6,3.2-9.8,5c-12.6,7.3-20.6,14.2-28.2,23.6c-4.1-5.5-6.6-8.7-6.6-8.9
		c-1.6-2.1-3-5.7-2.3-11.7c-11-4.8-22.7-13.3-22.7-13.3s4.4,14,6,25.7c6,0.9,8.9,3.4,10.8,5.3c0.2,0.2,3.4,4.4,8.5,11
		c-17,24.3-36.9,74.4-36,164c0,8.2-3.4,85.9,21.8,138.1c2.7,5.3,10.3,19.2,24.3,32.3c11.5,10.8,25,18.3,40.3,22.4l1.8,0.5
		c19,5.3,35.3,2.3,41.9-1.6l-0.9,2.3l-0.9,2.1c-3.4,9.6-1.1,19.5,11.9,21.1c3.4,0.5,7.3,0.5,11.7,2.5c3.2,1.6,6.6,3.9,10.5,7.8
		c1.6,1.6,5,6,6.6,9.4l0,0l0,0c1.6-3.4,5-7.8,6.6-9.4c3.9-3.9,7.3-6.4,10.5-7.8c4.6-2.1,8.2-2.3,11.7-2.5
		c13.1-1.6,15.3-11.5,11.9-21.1l-0.9-2.3l-0.9-2.3c8.9,5.3,36.7,9.4,63.2-7.6c18.1-11.5,31.6-24.7,42.1-45.6
		C1434.3,423.3,1430.9,344.3,1430.9,337.2"/>
	<path class="st0" d="M1425.4,312.7c-7.3,6-14.4,12.1-37.6,25.4l-6,3.2V337c0-0.5,1.6-59.3-26.8-110c-1.8,2.5-7.8,10.1-14,17.9
		c3.7-0.5,7.3,0.5,10.8,3.9c6,5.7,15.6,19.7,21.1,34.1c3,9.2,5.5,21.5,4.8,32.1l0,0c0,0-3.4,59.8-10.3,117.1
		c-6.2,52-9.6,58.9-9.6,58.9c-3.9-4.8-5.7-11-6.6-14.4l-0.7,0.5c0,0-3.7-5.3-5.7-15.3c-2.5-11.7-3-32.5-2.7-42.6l0,0
		c0,0,0.2-3-2.3-8c-1.1-2.3-2.1-4.8-2.7-7.3l0,0c-3.7-16-11-20.6-15.1-25.4c-4.8-6-8.5-12.1-10.5-17.4l-0.5,0.2
		c-2.7,2.5-4.6,5-4.8,6.6c0.9,9.4,1.8,16,0.5,20.8l-2.1-1.6c0.7,6.2-2.3,13.3-0.5,19l-3.7-0.5l0.5,0.9c0.5,0.7,0.9,1.1,1.8,1.6
		l1.1,0.5c0.2,0.2,1.1,0.5,3.7,1.4c2.1-4.6,0.5-9.2-1.6-11.7c-1.8-2.1,0.5-5.3,3.9-3.7c4.6,2.1,9.6,5,15.1,10.1
		c7.6,7.3,9.8,14.2,8.2,15.6c-1.1,1.1-2.3,0.9-3.7,0.2l-0.2,0.9c-0.5,1.4-1.6,2.3-3.2,2.7l-0.2,0.2c-0.9,1.1-2.1,1.6-4.4,1.6
		c-2.1,0-4.1-1.1-4.6-1.4l-1.6-1.1l-0.9,1.6c6,8.2,17.6,21.5,25.9,36.4c6,10.5,8.7,19.2,8.7,19.2s-3.2,0.9-7.3,0
		c1.4,4.1,2.3,8,2.1,10.8c-3.2,0.2-7.3-0.2-11.7-2.7c0.2,0.7,0.2,1.4,0.5,2.1c3.7,2.7,7.8,5.7,9.6,7.1c-18.1,8.5-44.4,4.6-44.9,4.6
		c-1.4-0.2-2.3-0.2-3.4-0.5l-0.7,1.6c1.8,4.1,6,14,6.9,16c11.5,5.3,22.2,8.7,38.7,6c0,0,2.7-0.2,9.8-2.7
		c7.3-2.5,20.8-10.3,31.2-20.2c13.1-12.1,20.8-25,23.4-30c20.2-39.2,23.4-97.4,23.4-120.9c0-7.8,0-11.9,0-12.1
		C1426.3,331.7,1425.8,318.6,1425.4,312.7"/>
	<path class="st0" d="M1229.8,518.8c0.7-2.1,4.4-10.8,6.2-15.3c-0.2-0.7-0.5-1.6-0.7-2.3c-2.5,0.5-5,0.7-7.6,1.1
		c-1.6,0.2-26.6,4.1-44.9-4.6c2.3-1.6,6.4-5,11.9-8.5l0.2-1.1c-4.4,2.5-8.5,2.7-11.7,2.7c-0.2-2.7,0.5-6.6,2.1-10.8
		c-4.1,0.9-7.3,0-7.3,0s2.7-8.9,8.7-19.2c5.5-9.8,13.3-19.9,19.9-28.2c0.7-3.2,3.2-6,3.4-6.2l1.1-1.1c-0.7-0.7-1.4-1.1-2.1-1.8
		c-0.7,0.7-1.4,1.1-1.8,1.4c-2.1,0.9-3.4,1.4-4.6,1.4c-2.3,0-3.7-0.5-4.4-1.6l-0.2-0.2c-1.6-0.5-2.7-1.4-3.2-2.7l-0.2-0.9
		c-1.4,0.5-2.1,0.5-3.2-0.5c-1.6-1.4,0.7-8.5,8.2-15.6c5.3-5,10.3-8,15.1-10.1c3.7-1.6,5.7,1.6,3.9,3.7c-2.1,2.5-3.7,7.1-1.6,11.7
		c2.3-0.7,3-1.1,3.4-1.1c0.9-0.2,1.8-0.7,3-2.1l0.5-0.9l-3.2,0.5c1.6-3.9-0.9-13.7,0.7-20.2l-2.3,1.4c-1.1-5.7-0.9-14.9-0.5-19.5
		c0-1.1-1.6-3.2-3.9-5.5c-1.8,4.6-4.8,10.1-10.1,16.5c-4.1,5-11.5,9.4-15.1,25.4l0,0c-0.7,2.5-1.6,4.8-2.7,7.3c-2.5,5-2.3,8-2.3,8
		l0,0c0.2,10.1-0.2,30.9-2.7,42.6c-2.1,10.3-5.7,15.6-5.7,15.6l-0.5-0.5c-0.9,3.4-2.5,9.6-6.6,14.4c0,0-3.4-6.9-9.6-58.9
		c-6.9-57.3-10.3-117.3-10.3-117.3l0,0c-0.7-10.5,1.8-22.9,4.8-32.1c5.5-14.4,15.1-28.4,21.1-34.1c3.7-3.7,7.8-4.4,11.7-3.7
		c-1.1-1.6-2.3-3.2-2.3-3.2c-3.9-5.3-8.5-11-12.4-16c-27.9,49.2-27.3,108.1-27.3,108.6v6.2l-4.8-2.5c-22-12.6-31.6-20.2-38.7-26.1
		c-0.2,6-0.9,26.3-0.9,26.3c0,0.2,0,4.6,0,12.4c0,23.6,4.1,81.3,23.4,120.9c2.7,5,9.8,18.1,22.9,30.2c9.8,9.2,21.3,15.8,33.9,19.9
		c0.7,0.2,2.3,0.7,3,0.9c14.7,4.6,30.7,3.7,46.3-4.1L1229.8,518.8z"/>
	<path class="st0" d="M1241.7,534c0.2-6.9,1.4-17.2,3-26.3c-2.3,2.3-4.1,3.2-4.4,3.2l-1.1-0.9c-4.4,10.8-10.5,25.7-10.5,25.9
		C1231.4,533.3,1235.9,531.4,1241.7,534"/>
	<path class="st0" d="M1284.3,540.8c0.2-7.3-2.5-26.8-4.4-38l-0.7-0.9l-1.1-1.6c-0.7,2.3-1.4,4.6-2.5,6.9c-1.1,2.7-3.2,5.7-3.7,5.5
		c-0.2,0-5.5-3.7-8.9-11c-3.4,7.1-8.5,10.8-8.9,10.8s-2.3-2.7-3.7-5.5c-0.5-1.1-1.1-2.5-1.4-3.7c-1.8,11.7-4.4,30.5-3.9,37.6
		c-10.8-7.1-17.4,0-15.1,5l0.7,1.1c1.4,1.8,3,2.7,5.5,2.7c3.4,0.2,8,0.7,13.3,3c4.8,2.3,10.1,6,15.3,12.6
		c5.3-6.6,10.5-10.3,15.3-12.6c5.3-2.5,9.8-2.7,13.3-3c2.3-0.2,4.1-1.4,5.5-2.7l0.7-1.1C1301.7,540.8,1295,533.5,1284.3,540.8"/>
	<path class="st0" d="M1288.2,510.8c-0.2,0-1.6-0.9-3.7-2.5c1.6,8,3,18.1,3.2,25.7c5.7-2.3,10.3-0.7,13.1,1.8
		c0-0.2-6.6-17-10.5-27.3C1289.3,509.7,1288.2,510.8,1288.2,510.8"/>
	<path class="st1" d="M1426.3,339.5c-0.2-7.8-0.5-20.8-0.9-26.8c-7.3,6-14.4,12.1-37.6,25.4l-6,3.2V337c0-0.5,1.6-59.3-26.8-110
		c-1.8,2.3-7.8,10.1-14,17.9c3.7-0.5,7.3,0.5,10.8,3.9c6,5.7,15.6,19.7,21.1,34.1c3,9.2,5.5,21.5,4.8,32.1l0,0
		c0,0-3.4,59.8-10.3,117.1c-6.2,52-9.6,58.9-9.6,58.9c-3.9-4.8-5.7-11-6.6-14.4l-0.5,0.5c0,0-3.7-5.3-5.7-15.3
		c-2.5-11.7-3-32.5-2.7-42.6l0,0c0,0,0.2-3-2.3-8c-1.1-2.3-2.1-4.8-2.7-7.3l0,0c-3.7-16-11-20.6-15.1-25.4
		c-4.8-6-8.5-12.1-10.5-17.4l-0.5,0.2c-2.7,2.5-4.6,5-4.8,6.6c0.9,9.4,1.8,16,0.5,20.8l-2.1-1.6c0.7,6.2-2.3,13.3-0.5,19l-3.7-0.5
		l0.5,0.9c0.5,0.7,0.9,1.1,1.8,1.6l1.1,0.5c0.2,0.2,1.1,0.5,3.7,1.4c2.1-4.6,0.5-9.2-1.6-11.7c-1.8-2.1,0.5-5.3,3.9-3.7
		c4.6,2.1,9.6,5,15.1,10.1c7.6,7.3,9.8,14.2,8.2,15.6c-1.1,1.1-2.3,0.9-3.7,0.2l-0.2,0.9c-0.5,1.4-1.6,2.3-3.2,2.7l-0.2,0.2
		c-0.9,1.1-2.1,1.6-4.4,1.6c-2.1,0-4.1-1.1-4.6-1.4l-1.6-1.1l-1.1,1.6c6,8.2,17.6,21.5,25.9,36.4c6,10.5,8.7,19.5,8.7,19.5
		s-3.2,0.9-7.3,0c1.4,4.1,2.3,8,2.1,10.8c-3.2,0.2-7.3-0.2-11.7-2.7c0.2,0.7,0.2,1.4,0.5,2.1c3.7,2.7,7.8,5.7,9.6,7.1
		c-18.1,8.5-44.4,4.6-44.9,4.6c-1.4-0.2-2.3-0.2-3.4-0.5l-0.7,1.6c1.8,4.1,6,14,6.9,16c11.5,5.3,22.2,8.7,38.7,6
		c0,0,2.7-0.2,9.8-2.7c7.3-2.5,20.8-10.3,31.2-20.2c13.1-12.1,20.8-25,23.4-30c20.2-39.2,23.4-97.4,23.4-120.9
		C1426.3,344.1,1426.3,339.9,1426.3,339.5 M1300.8,535.8c0-0.2-6.6-17-10.5-27.3c-0.9,1.4-1.8,2.3-2.1,2.3c-0.2,0-1.6-0.9-3.7-2.5
		c1.6,8,3,18.1,3.2,25.7C1293.4,531.4,1298,533.3,1300.8,535.8 M1284.3,540.8c0.2-7.3-2.5-26.8-4.4-38l-0.7-0.9l-1.1-1.6
		c-0.7,2.3-1.4,4.6-2.5,6.9c-1.1,2.7-3.2,5.7-3.7,5.5c-0.2,0-5.5-3.7-8.9-11c-3.4,7.1-8.5,10.8-8.9,10.8s-2.3-2.7-3.7-5.5
		c-0.5-1.1-1.1-2.5-1.4-3.7c-1.8,11.7-4.4,30.5-3.9,37.6c-10.8-7.1-17.4,0-15.1,5l0.7,1.1c1.4,1.8,3,2.7,5.5,2.7
		c3.4,0.2,8,0.7,13.3,3c4.8,2.3,10.1,6,15.3,12.6c5.3-6.6,10.5-10.3,15.3-12.6c5.3-2.5,9.8-2.7,13.3-3c2.3-0.2,4.1-1.4,5.5-2.7
		l0.7-1.1C1301.7,540.8,1295,533.5,1284.3,540.8 M1228.4,535.8c3-2.5,7.6-4.1,13.1-1.8c0.2-6.9,1.4-17.2,3-26.3
		c-2.3,2.3-4.1,3.2-4.4,3.2l-1.1-0.9C1234.6,520.5,1228.6,535.6,1228.4,535.8 M1229.5,519.3l0.2-0.5c0.7-2.1,4.4-10.8,6.2-15.3
		c-0.2-0.7-0.5-1.6-0.7-2.3c-2.5,0.5-5,0.7-7.6,1.1c-1.6,0.2-26.6,4.1-44.9-4.6c2.3-1.6,6.4-5,11.9-8.5l0.2-1.1
		c-4.4,2.5-8.5,2.7-11.7,2.7c-0.2-2.7,0.5-6.6,2.1-10.8c-4.1,0.9-7.3,0-7.3,0s2.7-8.9,8.7-19.5c5.5-9.8,13.3-19.9,19.9-27.9
		c0.7-3.2,3.2-6,3.4-6.2l1.1-1.1c-0.7-0.7-1.4-1.1-2.1-1.8c-0.7,0.7-1.4,1.1-1.8,1.4c-2.1,0.9-3.4,1.4-4.6,1.4
		c-2.3,0-3.7-0.5-4.4-1.6l-0.2-0.2c-1.6-0.5-2.7-1.4-3.2-2.7l-0.2-0.9c-1.4,0.5-2.1,0.5-3.2-0.5c-1.6-1.4,0.7-8.5,8.2-15.6
		c5.3-5,10.3-8,15.1-10.1c3.7-1.6,5.7,1.6,3.9,3.7c-2.1,2.5-3.7,7.1-1.6,11.7c2.3-0.7,3-1.1,3.4-1.1c0.9-0.2,1.8-0.7,3-2.1l0.5-0.7
		l-3.2,0.5c1.6-3.9-0.9-13.7,0.7-20.2l-2.3,1.4c-1.1-5.7-0.9-14.9-0.5-19.5c0-1.1-1.6-3.2-3.9-5.5c-1.8,4.6-4.8,10.1-10.1,16.5
		c-4.1,5-11.5,9.4-15.1,25.4l0,0c-0.7,2.5-1.6,4.8-2.7,7.3c-2.5,5-2.3,8-2.3,8l0,0c0.2,10.1-0.2,30.9-2.7,42.6
		c-2.1,10.3-5.7,15.3-5.7,15.3l-0.5-0.5c-0.9,3.4-2.5,9.6-6.6,14.4c0,0-3.4-6.9-9.6-58.9c-6.9-57.3-10.3-117.3-10.3-117.3l0,0
		c-0.7-10.5,1.8-22.9,4.8-32.1c5.5-14.4,15.1-28.4,21.1-34.1c3.7-3.7,7.8-4.4,11.7-3.7c-1.1-1.6-2.3-3.2-2.3-3.2
		c-3.9-5.3-8.5-11-12.4-16c-27.9,49.2-27.3,108.1-27.3,108.6v6.2l-4.8-2.5c-22-12.6-31.6-20.2-38.7-26.1c-0.2,6-0.9,26.3-0.9,26.3
		c0,0.5,0,4.6,0,12.4c0,23.6,4.1,81.3,23.4,120.9c2.7,5,9.8,18.1,22.7,30.2c9.8,9.2,21.3,15.8,33.9,19.9c0.7,0.2,2.3,0.7,3,0.9
		C1197.9,528.2,1213.9,527.3,1229.5,519.3 M1101.5,306.3c2.7,2.3,16.5,14,38.5,26.6c0.5-13.1,0.9-60,29.1-110.2
		c-3.2-4.4-4.6-6.2-7.8-10.3c-2.3,2.5-5.3,4.1-9.6,5.5c0.2-9.8-2.1-15.3-4.8-21.3c-3.9,0.2-10.8,0.2-21.5-2.1
		C1111.1,224.7,1104,259.8,1101.5,306.3 M1125.5,194.3c1.4-0.7,5.7-3.4,8.5-7.3c1.4-1.8,2.5-3.9,3.2-5.5l-3-3.7
		C1131,182.8,1128.3,188.5,1125.5,194.3 M1140,175.9c0.5-0.9,0.9-1.6,1.4-2.1c-7.1-9.2-11.7-15.3-12.1-15.8
		c-1.1-1.4-4.1-7.1-3.2-11.7c-8.5-3.9-14.4-8.2-14.4-8.2S1124.8,156,1140,175.9 M1140.9,168.6c0.7,0.9,1.6,2.1,2.3,3
		c11.5-14.7,26.8-25.2,45.1-32.1c-1.4-2.1-3.4-7.1,1.8-12.4l0,0c8,0.9,9.8,5.7,10.5,8.2c14.4-3.9,31.4-6.2,50.4-6.9
		c0.7-13.1,10.1-16.3,10.1-16.3s0.2-2.5,2.1-3.2l0,0c2.1,0.9,2.1,3.2,2.1,3.2s9.4,3.2,10.1,16.3c19,0.7,36,3,50.4,6.9
		c0.5-2.5,2.5-7.3,10.5-8.2l0,0c5.5,5.3,3.2,10.1,1.8,12.4c18.6,6.9,34.4,17.9,45.8,32.5c0.9-1.1,1.6-2.1,2.3-3.2
		c-10.8-13.3-25.7-24.1-41.7-30.5c1.8-5.3,0-9.6-3-12.8c0-2.1-1.1-3.9-2.5-4.6l0,0c-1.6-0.2-3.9,0.5-5.5,2.1c-4.6,0.7-9.2,3-11.7,8
		c-11.9-3-25.4-4.8-42.4-5.7c-0.5-7.8-5-12.8-10.5-15.6c-1.1-2.7-3.4-4.4-5.5-4.8c-2.1,0.5-4.4,2.1-5.5,4.8
		c-5.7,2.7-10.3,7.6-10.5,15.6c-17.2,0.9-30.5,2.7-42.4,5.7c-2.5-5-7.1-7.3-11.7-8c-1.6-1.6-3.9-2.3-5.5-2.1
		c-1.4,0.7-2.5,2.5-2.5,4.6c-3,3.2-4.8,7.6-3,12.8C1165.8,145,1151.4,155.3,1140.9,168.6 M1385.8,174.6l1.1,2.1
		c15.3-20.4,29.6-39.2,29.6-39.2s-6,4.1-14.4,8.2c0.9,4.6-2.1,10.3-3.2,11.7C1398.3,158.1,1393.3,164.7,1385.8,174.6 M1391.9,178.2
		c-0.9,1.1-2.7,3.7-2.7,3.7c2.3,4.4,4.8,8.7,11.5,12.1C1398.1,188.5,1395.1,183.3,1391.9,178.2 M1348.4,228.2
		c1.1-1.6,6.9-9.2,14.4-19c-0.5-0.7-1.1-1.4-1.6-2.1c-5.3,6.9-10.5,14-15.6,20.8c-3.7,5-9.6,13.3-9.8,14.2
		C1335.8,243.7,1345.4,232.1,1348.4,228.2 M1252,496.9c0.7,2.5,2.1,5.7,3.2,7.3c0,0,5-4.1,6.4-13.3c-0.9,0.7-2.5,2.1-3.9,2.7
		C1255.6,495,1253.6,496.2,1252,496.9 M1189.2,496.9c7.8,3,29.3,3.2,39.4,2.1c12.8-1.6,22.7-5.5,30.9-11.2c-2.1-1.8-4.8-4.4-7.6-6.9
		c-4.4,3.4-8.2,6.2-10.5,7.3c-15.3,6.2-35.7,7.8-35.7,7.8s26.3-6,35.5-11c1.8-0.9,4.8-3.2,8.2-6.2c-3.4-3.2-6.6-6.6-9.4-9.2
		c-1.6,1.6-3,2.5-4.8,3.9c-3.4,2.5-8.5,4.1-12.4,6C1204.3,486.5,1192,494.3,1189.2,496.9 M1219.4,341.5c1.4-4.4,3-32.3-8-44.2
		C1214.2,308.1,1217.8,320.7,1219.4,341.5 M1198.6,272.6c-0.5,3.7-0.5,8.2,0.5,11.7c0.7,2.3,1.8,4.6,2.5,6.6
		C1202,283.8,1200.2,276,1198.6,272.6 M1204.1,281.5c0,7.8,1.6,13.7,4.4,23.4C1208.7,294.6,1206.6,284.3,1204.1,281.5 M1164,208.2
		c8,10.8,14.2,19,15.3,20.6c2.7,3.9,12.6,15.6,12.4,14c0-0.9-6-9.2-9.8-14.2c-5.5-7.3-11.2-15.1-16.7-22.4
		C1164.9,206.9,1164.5,207.5,1164,208.2 M1156.9,170L1156.9,170c-0.9-0.9-3-2.7-8,0.9c-9.2,8-6.2,15.1-15.8,21.5
		c3.4,0.7,6.2,0.9,8.5,0.9c1.6,0,2.7,0,3.9-0.2c1.8-0.2,3.2-0.5,4.4-0.7l0,0c2.3,5.3,5.5,10.1,5.3,19.2c11-6,6.6-24.7,17-24.5
		C1166.3,180.5,1157.8,171.1,1156.9,170 M1368.1,165.6c-6-6-15.3-12.4-26.8-17.4c-29.5-13.1-67.3-13.1-78.1-13.1l0,0l0,0
		c-10.8,0-48.3,0-78.1,13.1c-11.5,5-20.8,11.5-26.8,17.4c0,0,13.5,15.1,17,19.2c1.8,2.1,2.5,3.9,1.4,7.1
		c20.6-13.7,44-20.6,85.9-21.1h1.8c41,0.5,65.1,7.3,85.7,21.1c-1.1-3.2-0.5-5,1.4-7.1C1354.8,180.7,1368.1,165.6,1368.1,165.6
		 M1362.4,197.2c1.4,4.8,2.7,10.1,6.9,13.3l1.8,1.1l0,0c0-9.2,3-14,5.3-19.2l0,0c3.4,0.5,7.8,1.8,16.7,0.2
		c-8.5-5.7-6.6-12.1-13.1-19.2c-0.7-0.7-1.4-1.6-2.3-2.3c-2.3-1.6-3.9-2.1-5.3-2.3c-1.6,0-2.5,0.7-3,1.4c-0.9,0.9-9.6,10.5-15.6,17
		C1359.4,186.9,1360.8,191.7,1362.4,197.2 M1355.1,210.3c0.9-1.1,1.8-2.3,2.7-3.7c-12.1-10.8-30.2-21.5-49.9-25.9
		c-13.3-3-24.1-3.2-30.7-3c-5.5,0-9.2,2.3-9.2,5.7c-3.4-0.7-4.4-5-4.8-5.7c-0.2,1.8-2.1,5.3-4.8,5.7c0-3.4-3.4-5.5-9.2-5.7
		c-6.6,0-17.4,0.2-30.7,3c-20.2,4.4-37.6,14.2-49.7,25.2c0.9,1.1,1.8,2.3,2.7,3.4c11-10.3,25.4-18.3,41-22.9c12.8-3.7,28.6-5,36-4.8
		c6.4,0.2,7.3,3.9,6.6,6c3,0.2,7.1-2.3,8-3.9c0.7,1.4,4.6,4.1,8.2,3.9c-0.7-2.1,0.2-5.7,6.6-6c7.3-0.2,23.1,0.9,36,4.8
		C1328.9,191.3,1344.3,200.4,1355.1,210.3 M1307.2,268.2c1.6,0,3-0.2,4.4-0.9c1.1-0.7,1.4-1.1,1.8-1.8c9.4-13.5,26.6-35.3,39.6-52.5
		c-26.6-26.1-64.6-27.9-74.4-27.3c-2.3,0.2-5,2.1-2.1,6c-2.1,0.9-10.3,0.2-13.3-2.5c-3,2.7-11.2,3.7-13.3,2.5c3-3.9,0.2-5.7-2.1-6
		c-10.1-0.7-49.9,3.2-74,26.8c13.3,17.6,41,54.3,41.7,55c0.5,0.7,1.8,1.6,3.7,1.6h0.7c1.4,0,2.7-1.1,4.4-2.7c3-3.2,4.4-4.8,7.1-7.8
		c5.5-5.5,10.5-9.8,11.5-10.5c2.3-2.1,3-3.9,3.2-5.5c-0.2-2.1-1.8-2.7-2.7-3.9l-0.5,0.7c-0.9-0.7-1.8-3.9-1.8-3.9l-0.5,1.4
		c0,0-2.1-4.8-5.3-4.6c-4.4,0.7-7.3-1.4-7.6-1.4s-0.5,1.4-0.5,3.2h-0.2c-3-2.5-3.9-9.2,1.8-13.5c3.7-2.7,4.4-2.5,7.1-3.9
		c1.1-0.5,2.1-1.6,2.3-2.1c1.8-2.3,5.7-3.7,7.8-4.1c2.7-0.7,9.2-1.6,15.6-1.4c3.7,0.2,7.1,0.9,9.4,2.1c1.8,0.7,7.3,4.8,10.5,8.9
		c2.1,2.5,5.5,10.1,7.3,14.9c4.1,9.8,3.7,8.9,6.4,15.3c3.2,7.6,5,11.7,8,15.8C1304.2,267.6,1305.1,268,1307.2,268.2 M1225.9,340.2
		c0,3.9,2.7,9.4,6.4,11.5C1230.2,345.7,1228.4,343.8,1225.9,340.2 M1276.5,383.9c-1.4,2.3-2.5,3.4-4.4,5c0.7-1.6,0.7-3.4,0.7-3.4
		c-0.9,1.8-2.7,4.1-4.1,5.5c-3.2,3.2-3.9,6.4-3.9,6.4s0.9-1.1,4.8-3.4C1273.7,391.5,1275.1,387.8,1276.5,383.9 M1279,424.7
		c-1.1-1.6-4.1-5.5-6.6-7.8c1.8,4.1,2.5,6.9,2.7,7.8l0.5-0.2l1.4-0.2l1.6,0.2L1279,424.7z M1276.9,458.1c2.3,2.3,5,5,7.1,7.1
		c1.1-1.4,2.3-2.5,3-3.4l-7.1-6.6C1279.9,455.2,1278.8,456.3,1276.9,458.1 M1264.1,445.3c3.2,3.2,7.3,7.8,10.1,10.3
		c1.8-1.8,3-2.7,3-2.7l-10.8-9.8C1265.9,443.3,1265,444.2,1264.1,445.3 M1263,439.1c0,1.6,0,3,0,3.7l1.8-1.8L1263,439.1z
		 M1263,437.1c0-0.2,1.8-2.3,2.7-3l0.2-0.2c-0.5-3.9-1.4-8.7-2.7-10.5C1262.7,425.2,1263,432,1263,437.1 M1267.3,419
		c0.5,3,0.9,10.1,0.9,12.4l0,0c0.7-0.9,1.6-1.6,2.5-2.5C1270.8,427.4,1269.8,422,1267.3,419 M1262.7,416c0,0,0.7-0.2,2.3-1.1
		c1.4-0.9,2.5-1.8,3.2-3.2c0.7-1.4,0.7-2.7,0.5-3.4c0,0-0.2,1.4-2.1,3c-0.7,0.7-1.8,1.8-2.5,2.5C1263.2,414.8,1262.7,416,1262.7,416
		 M1260,395.8c0-5-5.5-5.5-6.9-10.5C1252.7,392.4,1257.5,392.4,1260,395.8 M1263,407.3L1263,407.3L1263,407.3c0,0,0.5-1.1,2.1-2.3
		c1.1-0.7,7.3-4.6,8.7-6.2c1.1-1.6,1.6-3.9,1.6-3.9s-1.1,1.8-3.7,3.2c-2.1,1.1-7.1,4.4-8,5.7c-0.5,0.7-0.7,1.4-0.7,2.1l-0.5-1.4
		c-1.6-3.2-6.2-4.6-8.9-7.8c-1.8-2.1-1.8-3-1.8-3c0,2.1,0.5,3.7,1.1,4.8c0.7,1.1,3,3,6.2,5C1262.5,405.9,1263,407.3,1263,407.3
		 M1260.7,413.7c0,0-0.5-3.9-3.4-5C1257.5,411.4,1260.7,413.7,1260.7,413.7 M1259.3,434.1c0-3-0.2-6.4-0.5-7.8
		c-0.9,1.4-1.6,3.4-2.1,5.3L1259.3,434.1z M1242.6,425.8c0.9-0.2,3-1.4,4.1-1.6l0.9-0.2l0,0c0.7-2.3,1.6-6,2.5-7.6
		C1249.5,416.2,1243.7,424.2,1242.6,425.8 M1251.7,426.3l2.1,1.8c0.2-2.3,1.4-9.8,0.9-10.8C1252,422.4,1251.7,425.8,1251.7,426.3
		 M1252,383.5c0,0,0-1.4-0.9-3c-0.5-0.9-1.8-2.1-2.7-3c-0.7-0.7-0.7-1.1-0.7-1.1c-0.2,0.9,0.2,3,0.5,3.7c0.2,0.9,0.9,1.8,1.8,2.5
		C1251.3,383.2,1252,383.5,1252,383.5 M1249.7,436.2l-22.7,21.3c1.4,1.4,3,3,3.9,4.1h1.1c1.4-1.4,24.1-22,25.9-23.6v-0.5
		c-0.9-1.1-3.4-3.7-5-5.5c-2.1-2.1-4.6-4.8-6.4-4.4s-1.8,0.7-4.4,1.1c-4.8,0.9-8.5-0.2-10.3-0.7l-0.5-0.2l-0.2,1.6l-0.2,1.6
		c2.3,0.5,3.7,0.5,9.4,0.5c1.8,0,3,0.7,1.4,2.3c0,0-14.9,14.7-15.6,15.6c-3.2,3-3.2,3.7-2.3,4.6c0.2,0.2,0.2,0,0.9,0.9l6-5.3
		l9.6-8.5l7.3-6.9l0.9-0.2l1.4,1.4L1249.7,436.2z M1284.5,431.3c5.5,0,6.9,0,9.2-0.5l-0.5-1.8l-0.2-1.4h-0.2
		c-1.8,0.5-5.5,1.6-10.3,0.7c-2.3-0.5-2.5-0.5-4.4-1.1c-1.6-0.5-4.4,2.3-6.4,4.4c-1.8,1.8-4.1,4.6-5,5.5v0.7
		c1.8,1.6,24.5,22.4,25.9,23.6h1.1c0.9-0.9,2.5-2.5,3.9-4.1l-22.7-21.3l-0.2-0.9l1.4-1.4l0.9,0.2l7.3,6.9l9.6,8.5l6,5.3
		c0.9-0.9,0.7-0.7,0.9-0.9c0.9-0.9,0.7-1.6-2.3-4.6c-0.9-0.9-15.6-15.6-15.6-15.6C1281.8,432,1282.7,431.3,1284.5,431.3
		 M1279.9,370.6c0,0,3.4-3.4,4.8-14.4c0.7,0.9,1.8,1.6,2.3,3.2c2.3-2.7,6.6-17.6,7.1-22.7c1.4,0.7,0.2,0.2,1.8,1.1
		c1.1-2.1,3.7-10.5,4.8-22.2l1.8,0.7c0.7-5.3,1.6-14,1.8-19.9c0.2-5.3,0-15.8-2.1-22c-2.3-6.2-3.2-9.4-6.6-14.9c0,0-1.4,0.7-1.8,1.6
		c-0.9-3-3.7-10.1-5-12.6c-3.4-6.6-5-10.8-8.5-13.1c1.6,0,2.3,0.5,4.1,0.5c-2.3-2.1-3.2-3.7-5.7-5.5c0.9-0.5,2.3-0.5,4.8,0
		c-3.4-3.2-4.6-8-13.5-11.2c1.6-0.2,2.7,0.2,4.8,0.2c-1.1-1.8-3.9-4.6-8.2-6c-9.2-1.8-21.5-2.1-27.5,4.8c-0.5,0.5-2.1,0.9-3.4,1.4
		c-0.9,0.5-1.4,0.7-1.6,0.9c-0.9,0.7-1.1,1.8,0.7,4.6c-2.5-0.5-3.2-2.7-3.7-2.5c-0.9,0.7-1.8,1.4-2.7,2.7s-1.6,3.9-1.4,5
		c0.2,0.2,2.5,1.1,2.7-1.4c0.2-0.9,4.1-1.1,5.5-1.1c2.1,0,3.9,0.5,6.4,0.5c-0.9,0.2-3.7,1.1-4.8,1.4c-1.1,0.2-1.1,1.6-0.2,1.6
		c1.1,0.2,1.6-0.5,2.7-0.7c0.5,0.2,0,1.6,0.5,2.3c7.3-1.6,7.8,6.2,15.6,4.6c-3.7-3-6.9-7.6-9.6-9.2c7.8,1.1,11.9,8,20.2,8.5
		c-0.2-0.7-0.2-0.7-0.9-2.3c2.7,0,4.8,2.3,5.7,2.1c-1.1,1.1-3.4,2.1-6.6,2.5c0.5,1.1,3.7,1.4,4.8,1.4c-1.6,1.6-3.7,2.3-7.3,1.6
		c-1.1,1.1-3,3.7-8.2,7.1c0-1.4,0-1.4,0.2-2.5c-3.7,2.1-6,6-8.7,6.9c0.9-1.4,1.4-3.7,2.1-4.8c-9.4,8.5-18.3,16.7-21.8,22.9
		c-3.7,6.9-5,14-4.4,25.7c0.5,6.2,3,24.1,3.4,27.5c0.7-0.2,1.4-0.7,1.8-0.9c2.3,13.1,8.9,31.2,12.6,37.1c0.7-1.4,0.9-2.1,2.1-2.7
		c0.5,3.4,2.3,7.3,5.3,9.8c0-2.3,0.9-3.7,1.1-4.6c0.7,2.5,0.2,10.3,4.8,14.7c-0.2-2.1,0.5-3.9,1.1-6.9c0.7,2.5,0.9,5.7,2.1,8.2
		c1.4,3,3.2,6,4.8,6.6c-0.2-6.2,0.7-6,0.9-8.5c0,0.5,2.5,2.7,3.7,10.5c4.6-3.4,6.4-14.9,6.4-14.9s1.4,1.1,2.3,4.4
		c3.9-4.1,5.3-9.6,6.4-13.7C1280.1,366.3,1280.4,369.3,1279.9,370.6 M1206.2,320.9c3.4,4.8,9.8,20.2,9.8,30.7
		c4.1-10.5-2.5-31.4-8.7-42.8c0,3.4-0.9,4.4-1.6,5.7c-1.1-13.3-9.6-23.1-11-32.3c-0.2,1.6-0.5,2.7-0.9,4.1c-3-5.3-5.7-11.5-7.6-19
		c-0.5,0.7-1.6,3-1.6,5.5c-4.1-11.5-0.2-16.3,1.1-17c3.2-1.8,6.9,1.1,9.8,4.4c4.4,4.8,8.9,14.7,23.8,14.9c2.3,0,3.2-0.5,2.1-0.7l0,0
		c-12.1-2.3-14.4-7.1-24.7-18.3c-6.4-6.9-12.6-11-20.2-2.1c-14.7,17.2-19.2,31.6-21.8,43.5c-1.6,6.9-2.5,21.1-0.7,28.2
		c1.8-0.7,1.8-1.1,1.8-1.1s1.8,19.7,5.3,24.5c0.9-2.1,2.3-7.3,2.3-11.9c1.8,5.7,3.4,8.9,6.2,12.1c1.4-4.8,1.4-9.4,0.7-14.9
		c3,7.1,5.3,10.1,6.9,11.2c1.1-3.2,2.5-8.2,1.6-24.3c1.1,6,1.8,10.8,2.1,14.4c0.9,0.7,2.1,1.6,3.2,2.1c0.5-1.6,2.1-3.9-0.5-24.3
		c6.9,22,3,27.9,2.3,29.5c-2.3-1.4-3.9-3-4.8-4.1c0.2,6.6-1.1,9.2-2.1,11.7c-2.5-1.4-4.1-3.2-5.7-5.7c0.2,6.9-1.6,11-1.6,11
		s-5-5.5-6.4-9.8c0.2,2.5-1.6,10.5-3.2,11.9c-5.7-7.3-7.6-28.4-7.6-28.4l-0.9,0.7c0.2,5,0.9,13.1,1.6,22l0,0
		c0.9,10.5,1.8,22.2,2.7,32.8c2.3,25.2,5,50.4,8.5,75.4c0,0,0.5,4.1,1.1,6.4c0.7-2.5,0.9-12.6,0.5-18.1c-0.2-1.4,1.8-3.7,1.8-11.2
		c0-3-3.4-41.7-4.8-56.8c-0.2-1.8-0.5-6-0.5-6l0.2,1.6c1.1,5.7,2.1,11.5,3,17.2c0.5,3.4,1.1,7.1,1.6,10.8c1.6,11.2,3,22.4,3.2,33.7
		c0.2,7.3-2.3,9.2-2.1,10.8c1.4,8.9,0.2,17.6-1.6,22.7c-0.7-0.2-1.4-0.9-1.6-1.4c1.1,6.9,2.7,12.4,2.7,12.4
		c2.7-5.7,4.1-11.9,3.7-27.3c0-1.1,2.3-4.6,2.5-12.6c0-2.3-0.2-9.8-0.9-19c-1.1-16.5-2.5-33-3.9-49.2c0-0.7-0.2-2.7-0.2-3
		c0.2,0.7,0.5,1.4,0.5,2.3c4.6,21.1,6.4,43.1,7.6,64.4c0.5,9.6-3.2,17-3,18.3c0.5,4.8,0.5,4.6,0.2,8.7c-0.2,5-0.5,5.7-0.5,5.7
		c1.6-3.7,6.9-16.3,5.3-55.7c0-0.9,0-1.8-0.2-3c-1.4-27.5-3.7-45.4-3.7-45.4c2.5,7.6,4.8,24.1,6.2,43.3l0.5-0.9
		c2.7-7.3,3.2-14.7,2.7-22.2c-0.9-14.4-2.5-26.1-2.5-26.1l0.5,1.1c0.5,1.6,1.8,6,3.2,13.3c0.9,5,1.8,10.3,2.1,15.3
		c0,0.7,0,1.4,0,2.1l0,0c5.5-8.2,3.2-24.5,0.5-41.5c2.3,5.5,6.6,20.6,5.5,32.1c8.2-7.8,3.7-22.9,0.7-40.5c4.6,10.5,8,23.1,6.9,31.6
		c6.6-8.7,4.1-20.2-1.8-42.6c3.7,6,8.7,20.2,8.9,28.9C1215.6,351.4,1210.5,334.7,1206.2,320.9 M1214.9,400c1.4-2.1-0.7-2.7-4.4-0.2
		c-2.3,1.4-10.1,6.6-14.2,12.1c-0.9,1.4-0.7,2.1,1.1,0.5c3.9-3.9,10.1-9.6,9.8-6.9c0,2.3,0.2,4.6,1.1,6.9l1.8-0.5l5.3-1.4
		C1213.7,406.4,1213.3,402.5,1214.9,400 M1212.3,427.2c-2.1,2.3-3.9,4.8-3.9,8.2c0,2.3,1.6,3.7,3.4,3.7c3-0.2,1.4-3.4,3.2-1.6
		c0.7,0.9,3-1.8,3.7-2.5c-1.4,0.2-3.2,0.5-3-1.6c0.2-1.4,1.4-2.5,2.1-3.7c0.7-0.9,3.2-5.7,4.8-5c0.7,0.5,0.2,5-0.9,7.8
		c-2.7,5.7-3.2,9.6-1.4,10.8h0.2v0.2c-0.2,2.1-0.2,4.4,2.3,5.7l0.2-0.2c-0.7-2.1,0-3.2,0.2-4.1c0-0.2,0.2-0.9-1.4-1.4h-0.2l0,0h2.7
		c1.1-0.2,2.3-0.5,2.5-2.5c0-0.7,0.2-1.4,0.2-2.3c0.5-3.2,0.9-6.2,1.4-8.5c0.5-2.5,1.1-8.9,1.1-8.9l1.4-0.2c0.7,0,1.8,0.5,2.5,1.8
		c0.2,0.5,0.2,1.1,0,2.1c0.7-0.2,1.6-0.9,1.6-2.3v-0.2l0,0c0.9-0.7,1.4-1.4,1.6-2.3c0.5-2.3-2.3-4.6-2.5-4.8
		c-1.6-1.1-1.1-3.7-0.5-5.7l0.9-2.5c0.9,0.9,1.8,2.1,3.2,2.7c3.7,2.5,7.3,2.1,7.3,2.1s-0.9-2.1-1.1-4.6c-0.5-3.4-0.2-6.2-0.2-6.2
		l2.7,3c0,0,1.6-5.5,0.7-16c-1.1-12.1-3.9-16.7-4.4-18.6c-0.9-2.7-2.5-5.5-2.5-5.5s-0.2,1.4-2.3,3.2c-2.3-3-6.4-8.7-7.6-12.6
		c-0.7,1.1-1.6,2.1-2.3,3l-0.5,0.5v-0.5c-0.5-3-2.1-5-3.7-7.1c-1.1-1.4-2.3-3-2.7-4.4c-0.9,3.2-1.1,6.6-1.4,9.8
		c-0.2,3.2-0.5,5.7-1.1,7.6l1.4-0.9c0.7-0.5,1.1-0.7,1.4-0.7h0.2l0,0l0.2,0.5c-0.9,4.1-1.8,8.9-2.1,11.7c-0.5,4.1,0,7.8,0.2,9.6
		l3.2-1.8c0,0-1.8,6-0.9,16c0.2,1.6,0,4.6-0.2,5.5c1.8-0.2,3.4-1.1,4.4-1.8c-0.7,2.7-1.4,5-2.1,6c-2.5,3.4-7.8,4.4-11.7,5.3
		c-4.8,1.4-9.6,2.3-14,4.6c-1.4,0.7-3,2.3-2.5,3.4c0.5,1.1,2.1,1.4,2.7,1.4l0.2,0.7c1.1,1.6,4.6,0.7,5.5,0.2
		c0.9-0.5,1.6-1.1,1.8-1.4c-0.2,0.2-1.4-0.2-2.1-0.5l-0.5-0.7c-0.2-2.1,8.2-2.3,9.6-2.3c1.4,0,1.8,0.2,2.3,1.1
		C1216.9,420.3,1217.4,421.7,1212.3,427.2 M1216.5,457c-1.6,5.3-5,13.1-10.3,20.4c-2.5,3.7-6.4,7.6-6.4,7.6s-0.2,0.7-0.5,1.8
		l-0.7,0.5l4.4-2.3c0.7-0.5,1.4-0.7,2.1-1.1c2.7-1.6,6-3,8.9-4.4c3-5.5,6.6-12.1,7.8-13.7c-0.5,1.4-1.1,5-4.4,12.4l2.3-0.9
		c4.8-1.8,9.2-3.4,11.2-4.4c3.4-1.6,4.8-2.7,6.2-3.9l1.4-1.1l-3.4-3.4l-1.1,0.9c0,0-2.1,1.8-3.9,0.2c-1.6-1.4-8.7-9.4-9.4-10.1
		c-0.7-0.9-1.6-2.3,0.2-4.8v-0.2c-2.3-2.1-2.5-4.8-2.5-6.2c-0.9-1.1-1.4-2.7-1.1-4.8c-0.7,0.5-1.4,0.7-2.1,0.5
		c-0.7,0.7-1.8,1.4-3,1.4h-0.5c-1.1,0-2.3-0.2-3.2-0.9c-0.9-0.9-0.9-0.7-1.8-2.3l-0.2-0.2c-4.1,4.4-8,9.8-13.5,18.6
		c-6.9,11-8.5,14.9-9.8,19c4.6-0.2,7.1-0.9,12.8-7.1c2.7-2.7,9.8-13.5,14.4-19c-3.9,9.4-8,16.5-11.5,21.1c-3.9,5.5-8,8.9-8,8.9
		s-1.8,1.1-2.7,6.6c3,0,11-4.4,18.3-14.4C1208.9,468.2,1210.5,465.9,1216.5,457 M1265.3,492.3c0,5.5,4.6,11,5.5,11.9
		c0,0,1.6-2.1,2.5-7.6C1269.6,495,1267.1,493.4,1265.3,492.3 M1296.4,498.7c10.1,1.4,31.6,0.9,39.4-2.1c-3-2.3-15.1-10.3-33.9-17.6
		c-3.9-1.6-8.9-3.4-12.4-6c-2.1-1.6-3.4-2.5-5.5-4.6c-6.2-5.7-22.4-22.7-25.4-25.9l-10.8,9.8c0,0,28.6,27.9,36,31.8
		c9.2,5,35.7,11,35.7,11s-20.2-1.6-35.7-7.8c-9.2-3.7-38.5-32.5-38.5-32.5l-7.1,6.6c3.7,3.9,11.5,12.8,24.3,23.1
		C1271,492,1281.8,496.9,1296.4,498.7 M1316.6,449.7c4.6,5.7,11.7,16.3,14.4,19c6,6.2,8.5,6.9,12.8,7.1c-1.4-4.1-3-8.2-9.8-19.2
		c-3.7-5.7-9.6-15.1-15.8-22c0,1.1,0,2.1-0.5,3.2l-0.2,0.7c-0.5,0.7-0.9,1.4-1.6,1.8c-0.9,0.7-2.3,0.9-3.4,0.9
		c-1.1-0.2-2.3-0.7-3-1.4c-0.7,0-1.4-0.2-2.3-0.5c0.2,2.1-0.2,3.7-1.1,4.8c0,1.4-0.2,3.9-2.3,6l0.2,0.5c1.6,2.7,0.9,3.9,0.2,4.8
		c-0.7,0.7-7.8,8.7-9.4,10.1c-1.8,1.6-3.9-0.2-3.9-0.2l-1.1-0.9c0,0-1.8,1.8-3.2,3.2l0.5,0.5l0,0c2.3,2.1,5,3.7,8,5
		c2.5,1.1,10.1,3.9,15.3,6c-1.1-3.7-2.5-8-4.1-12.4c1.4,1.8,5,8.2,8,14h0.2c4.1,1.8,9.6,4.6,13.5,7.1c-0.2-1.4-0.7-2.3-0.7-2.3
		s-3.9-3.9-6.4-7.6c-5.3-7.6-8.5-15.3-10.3-20.4c6,8.9,7.3,11.5,9.6,14.4c7.3,10.1,15.3,14.2,18.3,14.4c-1.1-5.5-3-6.9-3-6.9
		s-3.7-3-7.6-8.5c0.9,1.4,1.8,2.5-0.2-0.2c-1.6-2.1-0.9-1.4,0-0.2C1324.4,465.9,1320.5,458.8,1316.6,449.7 M1309.5,410.5l4.8,1.1
		c0.7,0.2,1.4,0.5,2.3,0.5c0.7-2.3,1.1-4.6,1.1-6.9c0-2.5,6,3,9.8,6.9c1.6,1.6,2.1,0.9,0.9-0.5c-3.9-5.5-11.9-10.8-14.2-12.1
		c-3.9-2.3-5.7-1.8-4.4,0.2C1311.5,402.7,1311.3,406.4,1309.5,410.5 M1302.4,362.4l0.2-0.5h0.2h0.2c0.2,0,0.7,0.2,1.4,0.7l1.4,0.9
		c-0.9-1.8-0.9-4.6-1.1-7.6c-0.2-3.2-0.2-6.4-1.1-9.4l-0.2-0.5c-0.5,1.6-1.6,3-2.7,4.4c-1.6,2.1-3.2,4.4-3.7,7.1v0.5l-0.5-0.5
		c0.9,0.7-2.3-2.7-2.3-3c-1.1,4.6-9.2,14.4-11,16.5l0,0c-0.2,0.2-3.2,4.8-4.4,15.8c-1.1,10.5,0,17,0,17l2.7-3c0,0,0.2,3-0.2,6.2
		c-0.2,2.5-1.1,4.6-1.1,4.6s5.5,0.9,9.8-4.1l0.7,2.1c0.7,2.1,1.1,4.4-0.5,5.7c-0.2,0.2-3,2.5-2.5,4.8c0.2,0.7,0.5,1.6,1.6,2.3l0,0
		v0.2c0,1.4,1.1,2.1,1.6,2.3c-0.2-1.1,0-1.8,0-2.1c0.7-1.4,1.6-1.8,2.5-1.8l1.4,0.2c0,0,0.7,6.4,1.1,8.9c0.5,2.3,1.1,5.3,1.4,8.5
		c0,0.7,0.2,1.4,0.2,2.3c0.2,2.1,1.6,2.3,2.7,2.5h2.7l0,0h-0.2c-1.6,0.5-1.6,1.1-1.4,1.4c0.2,0.9,0.7,2.1,0.2,4.1l0.2,0.2
		c2.5-1.4,2.5-3.7,2.3-5.7v-0.2h0.2c1.8-1.1,1.4-4.8-1.4-10.8c-1.4-2.7-1.8-7.3-0.9-7.8h0.2c0.5,0,0.9,0,2.3,1.8
		c0.9,1.4,1.8,2.3,3,3.9c1.1,1.4,1.8,2.5,1.8,3.7l-0.2,0.9l-0.9,0.2l-1.8-0.2c0.7,0.7,3,3.2,3.7,2.5c1.6-2.1,0.2,1.1,3.2,1.6
		c1.8,0,3.4-1.1,3.4-3.7c0-0.9-0.2-1.4-0.2-2.1c-0.5-2.3-2.1-4.4-3-5.3l-0.7-0.7c-5-5.5-4.6-6.9-4.4-7.3c0.5-0.9,0.9-1.1,2.3-1.1
		c2.1,0,4.1,0.2,4.4,0.2c2.1,0.5,5.5,0.9,5.3,2.1l-0.5,0.7c-0.7,0.2-1.8,0.7-2.1,0.5c0.2,0.2,0.9,0.9,1.8,1.4
		c0.9,0.5,4.4,1.4,5.5-0.2l0.5-0.7c0.7,0,2.3-0.2,2.7-1.4c0.2-1.1-1.1-2.5-2.5-3.4c-1.1-0.7-4.6-2.1-7.6-2.7
		c-1.1-0.2-2.5-0.7-3.7-0.9l-6.2-1.6c-0.2,0-3.4-1.1-4.6-1.6l-1.4-0.7c-1.1-0.5-1.8-1.1-2.5-2.3c-0.7-0.9-1.4-3.4-2.1-6.2
		c0.7,0.5,2.5,1.6,4.8,2.1c-0.2-0.9-0.5-3.9-0.2-5.5c0.9-10.1,1.1-15.8,1.1-15.8l2.1,2.1c0.2-1.8-0.2-6-0.7-10.1l0,0
		C1304,371.3,1303.3,366.5,1302.4,362.4 M1327.6,283.8c0.9-3.4,0.9-8,0.5-11.7c-1.6,3.7-3.4,11.2-3,18.3
		C1325.7,288.4,1326.9,286.1,1327.6,283.8 M1317.9,304.4c2.7-9.6,4.4-15.3,4.4-23.4C1319.8,283.8,1317.7,294.1,1317.9,304.4
		 M1309,295.7c3.4-10.5,0.5-15.8-1.4-17C1307.6,283.6,1308.8,285.9,1309,295.7 M1307,341.1c1.6-20.8,5.3-33.4,8-44.2
		C1304,309,1305.6,336.7,1307,341.1 M1356.4,334.2c-0.7,5.3-0.7,9.8,0.7,14.9c2.5-3.2,4.1-6.4,6.2-12.1c0,4.6,1.4,9.8,2.3,11.9
		c3.4-4.8,5.3-24.5,5.3-24.5s0,0.5,1.8,1.1c1.8-7.1,0.9-21.3-0.7-28.2c-2.5-11.9-7.3-26.3-21.8-43.5c-7.6-8.9-13.7-4.8-20.2,2.1
		c-10.3,11.2-12.4,16-24.7,18.3l0,0c-1.1,0.2-0.2,0.9,2.1,0.7c14.7-0.2,19.2-10.1,23.8-14.9c3-3.2,6.6-6.2,9.8-4.4
		c1.1,0.7,5.3,5.3,1.1,17c0-2.7-0.9-4.8-1.6-5.5c-1.8,7.6-4.6,13.7-7.6,19c-0.5-1.4-0.7-2.5-0.9-4.1c-1.4,9.4-9.8,19-11,32.3
		c-0.9-1.4-1.6-2.3-1.6-5.7c-6.4,11.7-12.8,32.5-8.7,43.1c-0.2-10.5,6.4-25.9,9.8-30.7c-4.4,13.7-9.4,30.5-5,40.8
		c0.2-8.7,5.3-22.9,8.9-28.9c-6,22.4-8.5,33.9-1.8,42.6c-1.1-8.5,2.3-21.3,6.9-31.6c-3.2,17.6-7.6,32.8,0.7,40.5
		c-1.1-11.5,3.2-26.8,5.5-32.1c-2.7,17-5,33.2,0.5,41.5c0-6,1.1-11.9,2.3-17.6c1.4-7.3,3.7-14.4,3.7-14.4s-1.6,11.9-2.7,26.1
		c-0.2,2.3-0.2,4.8-0.2,7.3c0,3,0.2,6,0.9,8.9c0.5,2.5,1.1,5,2.5,7.3c1.4-19,3.7-35.5,6.2-43.3c0,0-2.3,17.9-3.7,45.4
		c0,0.9,0,1.8-0.2,3c-1.8,39.4,3.4,52,5.3,55.7c0,0-0.5-0.7-0.5-5.7c-0.2-4.4-0.2-3.9,0.2-8.7c0.2-1.4-3.4-8.7-3-18.3
		c0.2-6,0.7-11.7,1.1-17.4c0.5-5.3,0.9-10.3,1.4-15.1c0.7-4.4,0.9-8.7,1.6-13.1c0.9-6.4,2.1-12.6,3.2-19c0.9-5,0.5-0.7,0.2,0.7
		c-0.5,5.7-1.6,18.1-2.5,30.7c-0.7,9.4-2.7,28.4-2.3,37.3c0.5,7.8,2.7,11.5,2.5,12.6c-0.5,15.3,1.1,21.5,3.7,27.3
		c0,0,1.6-5.5,2.7-12.4c-0.2,0.5-0.7,1.1-1.6,1.4c-1.8-5-3-13.7-1.6-22.7c0.2-1.6-2.1-3.7-2.1-10.8c0.2-11.2,1.8-22.7,3.2-33.7
		c0.5-3.7,0.9-7.3,1.6-10.8c0.5-2.3,0.7-4.4,1.1-6.6c0.5-3.7,1.1-7.1,1.8-10.5l0.2-1.6c0,0,0,2.5-0.5,6c-1.1,15.1-4.6,53.8-4.6,56.8
		c-0.2,7.6,1.8,9.8,1.8,11.2c-0.5,5.5-0.2,15.6,0.5,18.1c0.7-2.3,1.1-6.4,1.1-6.4s2.1-15.6,4.6-38c0.5-3.4,0.7-6.9,1.1-10.3
		c0.2-3.2,0.7-6.6,0.9-9.8c0.5-3.9,0.7-8,1.1-11.9c0.2-1.8,0.2-3.4,0.5-5.3c0.9-10.5,2.1-22.4,2.7-32.8c0,0,1.4-17,1.8-22.2
		l-0.9-0.7c0,0-1.8,21.1-7.6,28.4c-1.6-1.4-3.2-9.2-3.2-11.9c-1.1,4.1-6.4,9.8-6.4,9.8s-1.8-4.1-1.6-11c-1.8,2.5-3.2,4.4-5.7,5.7
		c-0.9-2.3-2.3-5-2.1-11.7c-0.9,1.1-2.5,2.7-4.8,4.1c-0.7-1.6-4.4-7.6,2.3-29.5c-2.7,20.2-1.1,22.7-0.5,24.3
		c1.1-0.5,2.3-1.4,3.2-2.1c0.2-3.7,0.9-8.5,2.1-14.4c-0.9,16,0.2,21.1,1.6,24.3C1351.4,344.3,1353.5,341.3,1356.4,334.2
		 M1401.1,194.5c-10.8,2.3-17.4,2.1-21.5,2.1c-2.7,5.7-4.8,11.2-4.8,21.3c-4.4-1.4-6.6-2.5-8.9-5c-3,4.1-4.8,6.4-8,10.5
		c28.2,50.2,28.2,96.4,28.6,109.5c21.8-12.4,35.7-24.3,38.5-26.6C1422.4,259.8,1415.3,224.7,1401.1,194.5 M1409.1,475.6
		c-10.8,21.1-24.1,34.1-42.1,45.6c-26.6,17-54.3,12.8-63.2,7.6l0.9,2.3l0.9,2.3c3.7,9.6,1.1,19.5-11.9,21.1
		c-3.4,0.5-7.3,0.5-11.7,2.5c-3.2,1.6-6.6,3.9-10.5,7.8c-1.6,1.6-5,6-6.6,9.4l0,0l0,0c-1.6-3.4-5-7.8-6.6-9.4
		c-3.9-3.9-7.3-6.4-10.5-7.8c-4.6-2.1-8.2-2.3-11.7-2.5c-13.1-1.6-15.3-11.5-11.9-21.1l0.9-2.1l0.9-2.3c-6.6,3.9-22.9,6.9-41.9,1.6
		l-1.8-0.5c-15.3-4.1-28.9-11.7-40.3-22.4c-13.7-13.1-21.3-27-24.3-32.3c-25.2-52.2-21.8-129.9-21.8-138.1
		c-0.9-89.6,19-139.7,36-164c-5-6.9-8.2-10.8-8.5-11c-1.6-1.6-4.6-4.4-10.8-5.3c-1.6-11.7-6-25.7-6-25.7s11.7,8.5,22.7,13.3
		c-0.9,6,0.7,9.4,2.3,11.7c0.2,0.2,2.7,3.7,6.6,8.9c7.6-9.4,15.6-16.3,28.2-23.6c3-1.8,6.2-3.4,9.8-5c-0.2-4.8,1.4-9.4,4.6-12.6
		c0.2-2.7,2.5-6.2,5.3-7.3l0,0c3-0.7,7.3,0.7,9.4,2.5c4.8,0.7,9.4,3.2,12.6,6.9c10.3-2.3,22.2-3.9,35.7-4.6c1.6-6.6,6-11.5,11.2-14
		c1.4-2.7,5.3-5.7,8.7-6l0,0l0,0l0,0c3.4,0.2,7.3,3,8.7,6c5.3,2.5,9.6,7.3,11.2,14c13.5,0.9,25.4,2.5,35.7,4.6
		c3.4-3.7,7.8-6.2,12.6-6.9c2.1-2.1,6.4-3.4,9.4-2.5l0,0c2.7,1.1,5,4.6,5.3,7.3c3.2,3.2,4.8,7.8,4.6,12.6c3.4,1.6,6.6,3.2,9.8,5
		c12.6,7.3,21.3,15.1,28.6,23.8c4.6-6,7.3-9.6,7.3-9.9c1.6-2.1,3-5.7,2.3-11.7c11-4.8,22.7-13.1,22.7-13.1s-4.4,14-6,25.7
		c-6,0.9-8.9,3.4-10.8,5.3c-0.2,0.2-3.9,4.8-9.6,12.6c17,24.5,36.4,74.2,35.7,163.1C1430.9,344.3,1434.3,423.3,1409.1,475.6
		 M1209.4,170.7c1.6,0.7,2.7,1.4,4.6,2.1c1.1-1.4,1.8-2.1,3.2-3.7c-1.8-0.7-3-1.4-4.8-2.1C1211.4,168.1,1210.3,169.7,1209.4,170.7
		 M1296.6,154.2c-0.2,0-1.4,0.7-2.1,2.3c0.7,0.9,1.8,1.4,3.7,1.6h0.9C1300.1,156,1298.2,153.5,1296.6,154.2 M1335.1,164.5
		c-0.7,2.5-2.7,4.1-3.9,5.7c-6.6-2.5-21.3-6.2-29.3-7.1c-2.1,2.3-5.5,5.5-8.9,6.4c-5-0.7-8.2-1.8-11.7-3.4c1.8,0.2,2.5,0,3.9,0
		c5-0.2,9.4-1.6,12.6-3.7c-7.1-1.1-8.7-3-5.3-7.3c1.6-2.1,4.1-5.7,7.8-4.8c3,0.7,3.7,4.8,3.2,8c8.2,0.9,18.6,3.9,26.6,6.4
		c0.5-2.3-0.9-3.4-1.8-5c1.1-1.1,3-2.7,4.4-3.7C1334.7,157.4,1335.8,162,1335.1,164.5 M1303.1,168.1c1.1,1.1,2.1,2.1,3.4,3.4
		c1.8-0.9,2.5-1.4,4.6-2.5c-1.4-1.4-2.1-2.1-3.4-3.4C1306,166.5,1304.2,167.5,1303.1,168.1 M1339,166.5c-1.6,3.7-3,7.3-4.8,10.5
		c1.1,0.5,2.5-0.5,3.4-1.1c4.8-3,8.2-11,10.1-15.6c0-0.2-2.7,0.5-4.4,1.1C1340.9,162.9,1340.4,163.6,1339,166.5 M1341.3,159.4
		c3.9-0.2,7.3,0.7,8.9-1.1c-2.3-0.7-4.8-1.4-5.7-2.5c0.9-0.9,2.5,0.2,3.2,0.9l1.4-1.4c-2.5-2.1-6.4-0.9-7.3,1.4
		c0.7,0.5,1.8,0.7,2.3,1.1C1343.4,158.1,1341.8,159,1341.3,159.4 M1198.4,173.9c-1.1-0.5-2.1-0.7-3.4-1.1c-0.9,1.4-1.8,3-2.5,4.1
		c1.6,0.5,3,0.9,4.8,1.6c0.7-1.1,1.1-1.8,1.8-2.7c1.1,0.2,2.1,0.7,3.4,1.1c0.9-1.6,1.4-2.3,2.5-4.1c-1.8-0.5-3-0.9-5-1.6
		C1199.3,172,1198.8,173,1198.4,173.9 M1279,153c-2.3-3.9-11.5-0.5-17.2,2.1c3.2,0,6.2-0.2,9.6,0c1.4,0,5.3,0,7.6,0.2
		C1279.2,154.2,1279.5,153.7,1279,153 M1282.9,160.1c-19.2-1.1-57.3,0.9-75.8,6c0,0-2.1-4.8-3.7-6.6c-5-5.3-6.9,0.5-7.1,1.1
		c6.2,0.5,7.3,3.7,7.3,3.7c-1.4,2.7-2.5,3.7-6,6c-1.1,0.7-5,3.2-10.5,3.7c-11.7,0.5-8.5-11.7-1.4-16.5c-0.9,1.1-5,7.6-2.5,10.8
		c3,3.7,13.7,0.7,16.3-2.5c-1.4-1.4-4.1-1.8-8-1.4c0.2-1.8,1.1-6.9,6.6-11.7c2.1,0.5,7.8,3.4,9.6,8.5c17.2-4.6,48.3-6,49.9-6
		c-0.5-3-1.4-14.2-1.4-14.9c-0.2-1.8,1.1-2.7,2.3-3.4c1.4,2.3,2.5,3.2,5.5,4.4c-1.1,1.4-2.3,1.8-3.4,3c0.2,2.3,0.5,6.4,0.5,8
		c2.7-1.1,6.6-2.7,11.5-3.9c1.6-0.5,3.9-0.7,5.3-0.5c1.6,0.2,3.7,1.1,4.6,1.8c0.7,0.7,1.8,2.1,1.8,3.7
		C1284.3,155.8,1283.6,158.3,1282.9,160.1 M1250.1,217.8l-2.7,0.2l1.8,1.4l0.9-0.5V217.8z M1251.5,217.8c0,0,0.5,0.9,0.2,2.5
		c-0.2,1.6-0.9,3.2-3.4,3.7c-2.5,0.7-5.3-0.9-5.3-3.7c0-0.7,0.2-1.6,0.5-2.3c-0.9,0-0.9,0.7-1.8,1.8c-0.5,0.7-1.4,0.5-2.5,1.4
		c0-1.6,1.8-4.1,3.7-4.8c3-1.4,12.8-1.6,19.7,1.8c-2.5-0.5-4.6-0.2-6.9-0.5C1252.9,217.8,1251.5,217.8,1251.5,217.8 M1276.7,140.9
		c-1.6-1.1-2.5-1.8-4.1-3c-1.4,0.9-3,2.3-3.9,3c1.4,1.1,2.3,1.8,3.9,3C1274.2,142.7,1274.9,142,1276.7,140.9 M1235.5,221.3
		c-0.5,0.2-0.9,1.6,0.7,1.6c1.4,0,1.6-1.4,1.6-1.4L1235.5,221.3z M1278.1,233c-0.2-0.9-2.5-3.9-7.1-5c1.4,1.1,2.1,3.4,2.5,4.1
		c-0.9,0.5-3.4,0.7-4.4,0.9C1270.8,234.3,1274,234.6,1278.1,233 M1268.2,224.7c-2.7-3.2-6.4-4.4-8.2-4.8
		C1262.1,222.7,1264.3,225,1268.2,224.7 M1265.7,220.1c1.4,1.6,6.2,3.4,8.7,6C1274.2,222,1270.8,219.7,1265.7,220.1 M1263.9,277.6
		c-5.5,8,0,16.5,0,16.5C1263.9,293.9,1267.6,282.9,1263.9,277.6 M1273,309.7c0,0,6.2-5.7,6.6-17.2c-3.4,5.7-7.1,8.9-7.1,8.9
		s-3.2-2.3-6-5.5C1266.4,303.3,1273,309.7,1273,309.7 M1265.7,259.8c-4.8,5.3-1.8,9.6-1.8,9.6S1269.8,263,1265.7,259.8
		 M1272.6,240.3c1.6,1.6,6.6,2.7,9.4,5.3C1281.5,241.4,1277.2,238.7,1272.6,240.3 M1280.1,253.1c0-3-0.9-8.2-7.8-9.2
		C1271.9,247.4,1277.9,249.7,1280.1,253.1 M1277.4,262.7c-3.2,3.4-0.2,10.3,1.6,16.3C1280.6,276,1282.7,266,1277.4,262.7
		 M1294.1,278.3c-1.8,8.5-5.5,11.5-5.5,11.5s-3-2.3-5.3-5.5c-0.2,6.9,5.7,13.3,5.5,13.3C1288.9,297.6,1296,291.8,1294.1,278.3
		 M1285.2,249.5c-0.7,3.9,5.5,9.6,5.5,9.6C1290.7,258.9,1291.4,251.8,1285.2,249.5 M1296,267.1c-0.5,4.4,4.6,14.4,4.8,15.3
		C1300.8,281.5,1303.5,273.3,1296,267.1 M1255.6,319.1c1.4-3,5.3-8.5,3.2-17.9c-0.7,7.1-5.3,10.1-5.3,10.1s-2.5-1.4-4.6-5.7
		C1249.9,314.3,1253.1,316.8,1255.6,319.1 M1251.1,266c-7.8,6-4.1,11.5-2.7,14.4C1249.9,274.9,1250.6,273.3,1251.1,266
		 M1247.2,284.1c-5.3,6.6,3,14.9,2.7,14.9C1249.9,298.9,1250.6,286.6,1247.2,284.1 M1227.5,310.2c-1.1-6.6-0.7-11.2-3.9-17
		C1222.7,300.1,1226.8,309,1227.5,310.2 M1234.3,275.6c2.3-7.8,6.6-12.4,8.2-17C1234.6,264.4,1233,272.8,1234.3,275.6 M1237.8,296
		c0,3.4,0,6.4-0.9,10.1c-2.3-0.5-3.2-2.1-4.8-3.4c1.4,4.4,6.9,9.6,7.8,11C1240.5,307.4,1240.7,300.1,1237.8,296 M1232.3,310.9
		c-1.8,7.8,6,15.3,6,15.6C1238.2,326.4,1238.2,317,1232.3,310.9 M1234.6,331.9c2.7,4.6,4.8,6.6,6.9,8.7c-3.4-5-6-14.7-9.4-17.2
		C1231.8,324.8,1233,329.2,1234.6,331.9 M1224.9,285.9c-0.7-3.9,4.1-7.3,2.5-13.7C1222.7,277.6,1223.6,282.7,1224.9,285.9
		 M1253.1,339.3c-0.9-0.2-5.7-4.6-7.1-7.3c0.7,4.4,6.9,13.1,9.6,14.9c0.9-1.6,4.6-8.7,1.4-19.9
		C1255.6,333.5,1254.3,337,1253.1,339.3 M1274,319.3c-1.4,4.8-3.4,7.8-6.9,11.2c-1.4-1.4-3-3-5-7.1c-0.7,7.8,3.7,12.4,6.2,14
		C1269.8,336.3,1275.1,328.9,1274,319.3 M1284.3,339.9c4.8-6,7.3-12.6,5.3-19.7C1285.2,326.9,1285.2,333.8,1284.3,339.9
		 M1272.6,350.3c1.4-3.2,5-9.4,4.1-16.3C1274,336.7,1272.4,346.1,1272.6,350.3 M1297.8,312.2c2.1-3.4,5.3-8.5,2.7-11.5
		C1299.4,304,1298.7,307.6,1297.8,312.2 M1282,323.5c0,0,8-7.8,7.8-17.4c-2.3,6.4-7.8,9.2-7.8,9.2s-3-1.8-4.4-6.2
		C1276.5,318.9,1282,323.5,1282,323.5 M1296.9,301.5c0-0.2,5.3-9.2,2.3-14C1295.7,288.2,1296.9,301.5,1296.9,301.5 M1296.6,316.8
		c-3.2,4.1-3.9,13.7-5,17C1292.7,332.6,1298.5,319.1,1296.6,316.8 M1260.7,362.6c1.6-5.3,1.4-11.5-0.9-14.2
		C1258.4,353.7,1258.4,358.5,1260.7,362.6 M1265.7,376.1c1.6-4.6,1.6-10.1-0.2-12.6C1263.9,368.3,1263.9,372.7,1265.7,376.1
		 M1272.4,371.8c1.4-3.4,4.6-6.9,4.4-18.1C1273.3,357.1,1271.9,367.4,1272.4,371.8 M1251.7,363.5c-0.7-2.5-2.1-11-5.5-14.7
		C1244.9,354.8,1249,360.8,1251.7,363.5 M1292.1,370.9c0,0,0-2.5-0.9-3.4c-0.7,3-4.8,9.6-3.9,17.2c1.8-6.6,7.1-8,8.5-14.4
		c1.1,0.7,2.1,1.1,3.2,1.1c-0.7-2.5-2.5-5-3-10.1C1295.5,363.1,1294.8,368.1,1292.1,370.9 M1237.5,384.2c0.9-7.6-3.2-14-3.9-17.2
		c-0.9,0.9-0.9,3.4-0.9,3.4c-2.7-2.7-3.4-8-3.9-9.6c-0.7,5-2.5,7.8-3,10.1c1.1,0,2.1-0.5,3.2-1.1
		C1230.4,376.1,1235.5,377.5,1237.5,384.2 M1196.5,313.8c0,0-2.5-0.7-3.9-2.5c1.1,5.3,6,7.6,6,7.6s4.1-9.6-5-23.4
		C1198.4,310.2,1196.5,313.8,1196.5,313.8 M1191,328.3c0,0-2.3-0.9-3.7-2.7c0.7,3.9,2.1,5.5,5.7,8c1.8-5.7,3-10.3-5.3-27.3
		C1193.3,322.8,1191,328.3,1191,328.3 M1157.6,320.2c0,0-2.3-3.7-2.7-13.3c-2.1,10.3,1.8,16.5,1.8,16.5s2.7-1.8,2.5-4.8
		C1159,319.3,1157.6,320.2,1157.6,320.2 M1162.6,315.2c0,0-2.5-3.9-3.4-14.9c-1.8,11.9,3,18.6,3,18.6s3-2.1,2.7-5.5
		C1164.5,314.3,1162.6,315.2,1162.6,315.2 M1184.9,285.9c-2.3-2.5-5.7-6.2-9.2-19.5c0.5,11.2,6.2,21.8,10.3,25.4
		c2.1-2.7,2.3-11.2-0.5-17.4C1185.3,274.4,1185.8,281.3,1184.9,285.9 M1178.9,295.3c-2.1-2.7-5.7-8.5-8-22
		c-0.7,11.2,4.8,23.4,8.5,27.3c2.3-2.7,3-8,0.7-14.2C1180,286.3,1180.5,290.7,1178.9,295.3 M1173.4,302.4c-1.8-2.7-4.4-6.4-6.6-22.9
		c-0.5,14.9,3.4,23.6,6.9,27.9c2.5-2.5,3-7.1,2.3-10.1C1175.9,297.3,1174.8,301.2,1173.4,302.4 M1167.9,309.2
		c-1.6-2.5-2.7-5.5-4.1-20.2c-0.9,13.3,1.1,21.3,4.1,25.2c2.3-2.1,3-6.2,2.5-8.9C1170.4,305.4,1169.3,308.6,1167.9,309.2
		 M1367.2,318.2c0,3,2.5,4.8,2.5,4.8s3.9-6.2,1.8-16.5c-0.5,9.6-2.7,13.3-2.7,13.3S1367.4,318.9,1367.2,318.2 M1361.7,313.1
		c-0.2,3.4,2.7,5.5,2.7,5.5s4.8-6.9,3-18.6c-0.9,11-3.4,14.9-3.4,14.9S1361.9,313.8,1361.7,313.1 M1341.8,285.4
		c-1.1-4.6-0.5-11.5-0.5-11.5c-2.7,6.2-2.5,14.4-0.5,17.4c4.1-3.7,9.8-14.2,10.3-25.4C1347.5,279.2,1344.1,282.9,1341.8,285.4
		 M1347.5,294.8c-1.6-4.6-1.1-8.9-1.1-8.9c-2.3,6.4-1.6,11.7,0.7,14.2c3.7-3.9,9.2-16,8.5-27.3
		C1353.5,286.3,1349.6,292.1,1347.5,294.8 M1359.9,279c-2.3,16.3-4.8,20.2-6.6,22.9c-1.4-0.9-2.5-5-2.5-5c-0.7,3-0.2,7.6,2.3,10.1
		C1356.4,302.6,1360.3,293.9,1359.9,279 M1362.8,288.6c-1.4,14.7-2.7,17.6-4.1,20.2c-1.4-0.9-2.3-3.9-2.3-3.9
		c-0.5,2.7,0.2,6.6,2.5,8.9C1361.7,309.9,1363.8,301.9,1362.8,288.6 M1330.1,313.4c0,0-2.1-3.7,3-18.3c-9.2,13.7-5,23.4-5,23.4
		s4.8-2.3,6-7.6C1332.6,312.7,1330.1,313.4,1330.1,313.4 M1339,325.1c-0.7,3.9-2.1,5.5-5.7,8c-1.8-5.7-3-10.3,5.3-27.3
		c-5.5,16.7-3.2,22.2-3.2,22.2S1337.6,326.9,1339,325.1"/>
	<path class="st0" d="M74.8,420.1v-6.6h18.8v29.1c-5.3,3-11.2,4.4-18.1,4.4c-6.2,0-11-1.8-14-5.3c-3.2-3.4-4.6-9.4-4.6-17.9v-19.5
		c0-13.1,6.4-19.7,19-19.7c11.9,0,17.9,5,17.9,15.1v2.5H86c0-7.3-3.4-11-10.3-11c-3.9,0-6.9,1.1-8.5,3.7c-1.6,2.5-2.5,5.5-2.5,9.4
		v20.4c0,6.4,0.9,10.5,3,12.6s4.6,3,7.6,3c4.8,0,8.5-0.9,10.8-2.5v-17.9H74.8V420.1z"/>
	<path class="st0" d="M115.6,404.5v20.4c0,5.3,0.7,9.2,2.3,11.9c1.6,2.5,4.4,3.9,8.7,3.9c3.9,0,6.6-1.1,8.2-3.7
		c1.8-2.3,2.5-6.4,2.5-12.4v-20.6c0-4.1-0.9-7.3-3-9.4c-2.1-2.1-4.6-3.2-8-3.2C119.2,391.5,115.6,395.8,115.6,404.5 M107.8,424.2
		v-19.7c0-6.2,1.6-11,4.8-14.4c3.2-3.4,7.8-5.3,14-5.3s10.8,1.8,14,5.3c3.2,3.4,4.8,8.2,4.8,14.2V424c0,7.8-1.6,13.5-4.6,17.2
		s-7.8,5.5-14.2,5.5c-6.9,0-11.7-1.8-14.7-5.7C109.1,437.5,107.8,431.8,107.8,424.2"/>
	<polygon class="st0" points="175.3,438.9 189.3,386.2 197.1,386.2 179.7,445.8 170.5,445.8 153.1,386.2 161.4,386.2 	"/>
	<polygon class="st0" points="204.4,445.8 204.4,386.2 235.6,386.2 235.6,392.9 212.2,392.9 212.2,411.9 233.8,411.9 233.8,418.5 
		212.2,418.5 212.2,439.1 236.1,439.1 236.1,445.8 	"/>
	<path class="st0" d="M253.5,411.9h11.2c2.5,0,4.6-0.9,6-2.7c1.4-1.8,2.3-4.1,2.3-7.1c0-2.5-0.7-4.6-2.1-6.4c-1.4-1.8-3.2-2.7-6-2.7
		h-11.5V411.9z M245.7,445.8v-59.6h20.4c4.6,0,8,1.4,10.5,3.9c2.5,2.5,3.9,6.2,3.9,11c0,7.6-3.7,12.1-11.2,13.7
		c3.2,0.2,5.5,1.4,7.1,3.2c1.6,1.8,2.5,4.8,2.7,9.4c0.2,7.8,0.9,13.7,2.3,18.3h-8c-0.7-1.1-1.4-3.7-1.6-7.8c-0.2-3.9-0.5-8-0.7-11.9
		c-0.2-5-3.2-7.8-8.7-7.8h-8.9v27.3h-7.8V445.8z"/>
	<polygon class="st0" points="292.4,386.2 303.2,386.2 326.5,437.5 326.5,386.2 333.4,386.2 333.4,445.8 322.9,445.8 299.3,393.8 
		299.3,445.8 292.4,445.8 	"/>
	<polygon class="st0" points="347.1,386.2 359.5,386.2 374.9,436.4 390.2,386.2 402.8,386.2 402.8,445.8 395,445.8 395,393.1 
		378.3,445.8 371.2,445.8 354.3,392.6 354.3,445.8 347.1,445.8 	"/>
	<polygon class="st0" points="416.1,445.8 416.1,386.2 447,386.2 447,392.9 423.9,392.9 423.9,411.9 445.4,411.9 445.4,418.5 
		423.9,418.5 423.9,439.1 447.5,439.1 447.5,445.8 	"/>
	<polygon class="st0" points="457.8,386.2 468.8,386.2 492.2,437.5 492.2,386.2 499,386.2 499,445.8 488.5,445.8 464.7,393.8 
		464.7,445.8 457.8,445.8 	"/>
	<polygon class="st0" points="507.3,386.2 546,386.2 546,392.9 530.6,392.9 530.6,445.8 522.8,445.8 522.8,392.9 507.3,392.9 	"/>
	<path class="st0" d="M579.9,404.5v20.4c0,5.3,0.7,9.2,2.3,11.9c1.6,2.5,4.4,3.9,8.7,3.9c3.9,0,6.6-1.1,8.2-3.7
		c1.8-2.3,2.5-6.4,2.5-12.4v-20.6c0-4.1-0.9-7.3-3-9.4c-2.1-2.1-4.6-3.2-8-3.2C583.5,391.5,579.9,395.8,579.9,404.5 M572.1,424.2
		v-19.7c0-6.2,1.6-11,4.8-14.4c3.2-3.4,7.8-5.3,14-5.3s10.8,1.8,14,5.3c3.2,3.4,4.8,8.2,4.8,14.2V424c0,7.8-1.6,13.5-4.6,17.2
		c-3,3.7-7.8,5.5-14.2,5.5c-6.9,0-11.7-1.8-14.7-5.7C573.5,437.5,572.1,431.8,572.1,424.2"/>
	<polygon class="st0" points="622.3,445.8 622.3,386.2 652,386.2 652,392.9 630.1,392.9 630.1,411.9 650.9,411.9 650.9,418.5 
		630.1,418.5 630.1,445.8 	"/>
	<path class="st0" d="M686.6,424.7h19l-9.8-31.8L686.6,424.7z M672.7,445.8l18.8-59.6h9.8l19.5,59.6h-8.9l-4.4-14.2h-23.1l-4.4,14.2
		H672.7z"/>
	<path class="st0" d="M737,439.1h11c3.2,0,5.7-0.9,7.8-2.7c2.1-1.8,3-4.4,3-7.3c0-3.7-0.9-6.4-3-8.2c-2.1-1.8-5.5-2.7-10.3-2.7H737
		V439.1z M737,411.2h11c6,0,8.9-3.2,8.9-9.4c0-2.7-0.9-5-2.5-6.6c-1.6-1.6-3.9-2.3-6.6-2.3H737V411.2z M729.2,445.8v-59.6h19.9
		c4.8,0,8.7,1.4,11.5,3.9c2.7,2.5,4.4,6,4.4,10.3c0,8-3.9,12.8-11.5,14c8.9,0.7,13.3,5.5,13.3,14.4c0,5.7-1.6,9.8-4.6,12.6
		c-3,2.7-7.1,4.1-12.6,4.1h-20.4V445.8z"/>
	<path class="st0" d="M778.9,386.2h7.8v38.7c0,5.7,0.9,9.6,2.5,12.1c1.8,2.3,4.6,3.7,8.2,3.7c3.9,0,6.6-1.1,8.5-3.4
		c1.8-2.3,2.7-6.4,2.7-12.1v-38.5h7.8v37.8c0,8.2-1.6,14-4.8,17.6s-7.8,5.3-14,5.3c-6.4,0-11.2-1.8-14.2-5.3s-4.6-9.4-4.6-17.6
		V386.2z"/>
	<path class="st0" d="M856.1,439.1h7.8c5.3,0,8.9-1.4,11-3.9c2.1-2.5,3.2-7.1,3.2-13.3v-13.3c0-5.7-0.9-9.8-3-12.1
		c-2.1-2.5-4.8-3.7-8.7-3.7h-10.3V439.1z M848.4,445.8v-59.6h18.3c6.4,0,11.2,1.8,14.4,5.7c3.2,3.9,4.8,11.2,4.8,22.7
		c0,13.5-1.8,22-5.5,25.7c-3.7,3.7-9.2,5.5-16.5,5.5H848.4z"/>
	<polygon class="st0" points="899.2,386.2 907,386.2 907,411.9 927.6,411.9 927.6,386.2 935.4,386.2 935.4,445.8 927.6,445.8 
		927.6,418.5 907,418.5 907,445.8 899.2,445.8 	"/>
	<path class="st0" d="M957.8,424.7h19l-9.6-31.8L957.8,424.7z M943.6,445.8l18.8-59.6h9.8l19.5,59.6h-8.5l-4.4-14.2h-23.1l-4.4,14.2
		H943.6z"/>
	<path class="st0" d="M1008.2,439.1h11c3.2,0,5.7-0.9,7.8-2.7c2.1-1.8,3-4.4,3-7.3c0-3.7-0.9-6.4-3-8.2c-2.1-1.8-5.5-2.7-10.3-2.7
		h-8.7v21.1H1008.2z M1008.2,411.2h11c6,0,8.9-3.2,8.9-9.4c0-2.7-0.9-5-2.5-6.6c-1.6-1.6-3.9-2.3-6.6-2.3h-10.8L1008.2,411.2
		L1008.2,411.2z M1000.5,445.8v-59.6h19.9c4.8,0,8.7,1.4,11.5,3.9c2.7,2.5,4.4,6,4.4,10.3c0,8-3.9,12.8-11.5,14
		c8.9,0.7,13.3,5.5,13.3,14.4c0,5.7-1.6,9.8-4.6,12.6c-3,2.7-7.1,4.1-12.6,4.1h-20.4V445.8z"/>
	<rect x="1051.3" y="386.2" class="st0" width="7.8" height="59.6"/>
	<path class="st0" d="M90.8,351.2c0,1.4-0.5,2.5-1.4,3.4c-0.9,0.9-2.1,1.4-3.4,1.4c-1.4,0-2.5-0.5-3.4-1.4c-0.9-0.9-1.4-2.1-1.4-3.4
		c0-1.4,0.5-2.5,1.4-3.4c0.9-0.9,2.1-1.4,3.4-1.4c1.4,0,2.5,0.5,3.4,1.4C90.4,348.9,90.8,350,90.8,351.2 M75,351.2
		c0,1.4-0.5,2.5-1.4,3.4c-0.9,0.9-2.1,1.4-3.4,1.4c-1.4,0-2.5-0.5-3.4-1.4c-0.9-0.9-1.4-2.1-1.4-3.4c0-1.4,0.5-2.5,1.4-3.4
		c0.9-0.9,2.1-1.4,3.4-1.4c1.4,0,2.5,0.5,3.4,1.4C74.6,348.9,75,350,75,351.2 M118.1,310.2v7.3h-6.6l-13.1-41.7
		c-1.8,0.7-3.4,1.6-4.8,2.7c-1.4,1.1-2.5,2.5-3.7,4.1c-0.9,1.6-1.6,3.2-2.1,4.8c-0.5,1.8-0.7,3.4-0.7,5c0,3.9,1.1,7.3,3.7,10.3
		c2.5,3,5.5,5.7,8.7,8c0.9,0.5,1.6,1.1,2.1,1.4l1.1,1.4l1.8,3c0,2.1-0.5,4.6-1.4,7.1c-0.9,2.5-2.3,5-4.4,7.3c-2.1,2.3-4.6,4.4-7.8,6
		s-7.3,2.3-11.9,2.3c-2.3,0-4.6-0.5-7.1-1.1c-2.5-0.7-4.8-2.1-6.9-3.7c-2.1-1.6-3.9-3.7-5.3-6.2c-1.4-2.5-2.1-5.5-2.1-8.9v-8.9h7.3
		v9.4c0,2.1,0.5,3.9,1.4,5.5c0.9,1.6,2.1,3,3.4,3.9c1.4,0.9,3,1.8,4.6,2.3c1.6,0.5,3.2,0.7,4.6,0.7c3.7,0,6.6-0.5,8.9-1.6
		s4.1-2.3,5.5-3.9c1.4-1.6,2.3-3,2.7-4.6c0.5-1.6,0.9-2.7,1.1-3.7L97,318c-1.4-0.9-3-2.1-4.8-3.7c-1.8-1.4-3.7-3.2-5.5-5.3
		c-1.8-2.1-3.2-4.4-4.6-7.1c-1.1-2.7-1.8-5.7-1.8-9.2c0-3.2,0.5-6.2,1.4-9.2s2.5-5.5,4.4-7.8c2.1-2.3,4.4-4.4,7.3-5.7
		c3-1.6,6.4-2.5,10.3-3.2l13.5,43.3L118.1,310.2L118.1,310.2z"/>
	<path class="st0" d="M125.2,332.6c0-1.4,0.5-2.5,1.4-3.4c0.9-0.9,2.1-1.4,3.4-1.4s2.5,0.5,3.4,1.4c0.9,0.9,1.4,2.1,1.4,3.4
		s-0.5,2.5-1.4,3.4c-0.9,0.9-2.1,1.4-3.4,1.4s-2.3-0.5-3.4-1.4C125.6,335.1,125.2,334,125.2,332.6 M126.3,310.2v-35.5h7.3v35.5h6.2
		v7.3h-22c-1.4,0-2.5-0.5-3.4-1.4s-1.4-1.6-1.4-2.3c0-0.7,0.5-1.6,1.4-2.3c0.9-0.9,2.1-1.1,3.4-1.1h8.5V310.2z"/>
	<path class="st0" d="M165.3,317.5h-25.2c-1.4,0-2.5-0.5-3.4-1.1c-0.9-0.9-1.4-1.6-1.4-2.3c0-0.7,0.5-1.6,1.4-2.3
		c0.9-0.9,2.1-1.1,3.4-1.1h25.2V317.5z"/>
	<path class="st0" d="M190.2,317.5H165c-1.4,0-2.5-0.5-3.4-1.1c-0.9-0.9-1.4-1.6-1.4-2.3c0-0.7,0.5-1.6,1.4-2.3
		c0.9-0.9,2.1-1.1,3.4-1.1h25.2V317.5z"/>
	<path class="st0" d="M215.4,317.5h-25.2c-1.4,0-2.5-0.5-3.4-1.1c-0.9-0.9-1.4-1.6-1.4-2.3c0-0.7,0.5-1.6,1.4-2.3
		c0.9-0.9,2.1-1.1,3.4-1.1h25.2V317.5z"/>
	<path class="st0" d="M240.4,317.5h-25.2c-1.4,0-2.5-0.5-3.4-1.1c-0.9-0.9-1.4-1.6-1.4-2.3c0-0.7,0.5-1.6,1.4-2.3
		c0.9-0.9,2.1-1.1,3.4-1.1h25.2V317.5z"/>
	<path class="st0" d="M265.6,317.5h-25.2c-1.4,0-2.5-0.5-3.4-1.1c-0.9-0.9-1.4-1.6-1.4-2.3c0-0.7,0.5-1.6,1.4-2.3
		c0.9-0.9,2.1-1.1,3.4-1.1h25.2V317.5z"/>
	<path class="st0" d="M300,260c0,1.4-0.5,2.5-1.4,3.4s-2.1,1.4-3.4,1.4s-2.5-0.5-3.4-1.4c-0.9-0.9-1.4-2.1-1.4-3.4s0.5-2.5,1.4-3.4
		c0.9-0.9,2.1-1.4,3.4-1.4s2.5,0.5,3.4,1.4C299.5,257.5,300,258.6,300,260 M324.5,277.9c-8.5,0.7-15.3,2.5-20.6,5.3
		c-5.5,2.7-9.8,5.7-13.1,9.2c-3.2,3.4-5.7,6.6-7.3,10.1c-1.6,3.4-2.7,6-3.2,8h44.4v-32.5H324.5z M265.6,317.5
		c-1.4,0-2.5-0.5-3.4-1.1c-0.9-0.9-1.4-1.6-1.4-2.3c0-0.7,0.5-1.6,1.4-2.3c0.9-0.9,2.1-1.1,3.4-1.1h6.9v-66.4h7.3v50.4
		c1.8-2.7,4.1-5.5,6.9-8.5c2.7-2.7,6-5.5,10.1-7.6c3.9-2.3,8.5-4.1,13.7-5.7c5.3-1.4,11.2-2.3,17.9-2.3h3.7v47.2h-66.4V317.5z"/>
	<path class="st0" d="M368.9,310.2v-32.3c-6.2,1.6-11.2,4.4-14.9,8s-5.5,8-5.5,12.8c0,3.4,1.4,6.4,4.1,8.5c2.7,2.1,7.3,3,13.3,3
		H368.9z M376.2,321.2c0,3.4-0.2,6.6-0.7,9.8s-1.4,6-2.7,8.5c-1.4,2.5-3.2,4.4-5.7,6s-5.7,2.3-9.9,2.3v-7.3c3,0,5-0.7,6.6-1.8
		c1.6-1.1,2.7-2.7,3.4-4.8c0.7-2.1,1.1-4.4,1.4-6.9c0.2-2.5,0.2-5.3,0.2-8v-1.6h-2.5c-8.2,0-14.4-1.6-18.8-5
		c-4.4-3.4-6.4-7.8-6.4-13.3c0-3.9,0.9-7.6,2.5-11c1.6-3.4,4.1-6.4,7.3-9.2c3.2-2.7,6.9-4.8,11-6.4c4.4-1.6,8.9-2.7,14-3.2v41h6.2
		v7.3H376v3.7H376.2z"/>
	<path class="st0" d="M407.6,317.5h-25.2c-1.4,0-2.5-0.5-3.4-1.1c-0.9-0.9-1.4-1.6-1.4-2.3c0-0.7,0.5-1.6,1.4-2.3
		c0.9-0.9,2.1-1.1,3.4-1.1h25.2V317.5z"/>
	<path class="st0" d="M432.8,317.5h-25.2c-1.4,0-2.5-0.5-3.4-1.1c-0.9-0.9-1.4-1.6-1.4-2.3c0-0.7,0.5-1.6,1.4-2.3
		c0.9-0.9,2.1-1.1,3.4-1.1h25.2V317.5z"/>
	<path class="st0" d="M457.8,317.5h-25.2c-1.4,0-2.5-0.5-3.4-1.1c-0.9-0.9-1.4-1.6-1.4-2.3c0-0.7,0.5-1.6,1.4-2.3
		c0.9-0.9,2.1-1.1,3.4-1.1h25.2V317.5z"/>
	<path class="st0" d="M483,317.5h-25.2c-1.4,0-2.5-0.5-3.4-1.1c-0.9-0.9-1.4-1.6-1.4-2.3c0-0.7,0.5-1.6,1.4-2.3
		c0.9-0.9,2.1-1.1,3.4-1.1H483V317.5z"/>
	<path class="st0" d="M508.2,317.5H483c-1.4,0-2.5-0.5-3.4-1.1c-0.9-0.9-1.4-1.6-1.4-2.3c0-0.7,0.5-1.6,1.4-2.3
		c0.9-0.9,2.1-1.1,3.4-1.1h25.2V317.5z"/>
	<path class="st0" d="M533.2,317.5H508c-1.4,0-2.5-0.5-3.4-1.1c-0.9-0.9-1.4-1.6-1.4-2.3c0-0.7,0.5-1.6,1.4-2.3
		c0.9-0.9,2.1-1.1,3.4-1.1h25.2V317.5z"/>
	<path class="st0" d="M540.3,332.6c0-1.4,0.5-2.5,1.4-3.4c0.9-0.9,2.1-1.4,3.4-1.4s2.5,0.5,3.4,1.4s1.4,2.1,1.4,3.4
		s-0.5,2.5-1.4,3.4c-0.9,0.9-2.1,1.4-3.4,1.4s-2.3-0.5-3.4-1.4C540.7,335.1,540.3,334,540.3,332.6 M541.6,310.2v-35.5h7.3v42.8
		h-15.8c-1.4,0-2.5-0.5-3.4-1.4s-1.4-1.6-1.4-2.3c0-0.7,0.5-1.6,1.4-2.3c0.9-0.9,2.1-1.1,3.4-1.1h8.5V310.2z"/>
	<path class="st0" d="M560.9,249.7h7.3v67.8h-7.3V249.7z M573.2,233.2c-2.1-0.9-4.1-1.4-6-1.4c-1.1,0-2.3,0.2-3,0.7
		c-0.7,0.5-1.1,1.4-1.1,2.5c0,1.8,0.7,3,2.1,3.9c1.4,0.9,3.2,1.1,5.3,1.1h3.4v3.7h-18.8v-3.7h6c-0.5-0.2-0.7-0.7-1.1-1.8
		c-0.5-1.1-0.5-2.1-0.5-3.2c0-2.5,0.7-4.4,2.3-5.3c1.6-0.9,3.2-1.6,5.3-1.6c2.5,0,5,0.5,7.6,1.6L573.2,233.2z"/>
	<path class="st0" d="M634.6,255.4c0,1.4-0.5,2.5-1.4,3.4s-2.1,1.4-3.4,1.4c-1.4,0-2.5-0.5-3.4-1.4s-1.4-2.1-1.4-3.4
		c0-1.4,0.5-2.5,1.4-3.4s2.1-1.4,3.4-1.4c1.4,0,2.5,0.5,3.4,1.4C634.2,253.1,634.6,254,634.6,255.4 M618.8,255.4
		c0,1.4-0.5,2.5-1.4,3.4s-2.1,1.4-3.4,1.4c-1.4,0-2.5-0.5-3.4-1.4s-1.4-2.1-1.4-3.4c0-1.4,0.5-2.5,1.4-3.4s2.1-1.4,3.4-1.4
		c1.4,0,2.5,0.5,3.4,1.4C618.4,253.1,618.8,254,618.8,255.4 M634.9,308.3c0,1.4,0.5,2.1,1.6,2.1h4.6v7.3h-5.5
		c-2.3,0-4.4-0.7-5.7-2.3s-2.3-3.9-2.3-6.9l-0.2-30.5c-1.6,0.9-3.7,1.8-6,3.2c-2.3,1.1-4.4,2.7-6.4,4.6c-2.1,1.8-3.7,3.9-5,6.2
		c-1.4,2.3-2.1,5-2.1,8c0,4.1,1.1,6.9,3.7,8.5s6.4,2.7,11.9,3.2l-0.5,7.3c-4.8-0.2-8.5-1.1-11.5-2.3c-3-1.4-5.3-3-6.9-4.6
		c-1.6-1.8-2.7-3.7-3.2-6c-0.5-2.1-0.9-4.1-0.9-6.2c0-5,1.4-9.6,4.1-13.3c2.7-3.7,6-6.9,9.6-9.6c3.7-2.5,7.3-4.6,11.2-6.2
		s6.9-2.5,9.2-3.2v40.5H634.9z"/>
	<path class="st0" d="M666.2,317.5H641c-1.4,0-2.5-0.5-3.4-1.1c-0.9-0.9-1.4-1.6-1.4-2.3c0-0.7,0.5-1.6,1.4-2.3
		c0.9-0.9,2.1-1.1,3.4-1.1h25.2V317.5z"/>
	<path class="st0" d="M691.4,317.5h-25.2c-1.4,0-2.5-0.5-3.4-1.1c-0.9-0.9-1.4-1.6-1.4-2.3c0-0.7,0.5-1.6,1.4-2.3
		c0.9-0.9,2.1-1.1,3.4-1.1h25.2V317.5z"/>
	<path class="st0" d="M716.4,317.5h-25.2c-1.4,0-2.5-0.5-3.4-1.1c-0.9-0.9-1.4-1.6-1.4-2.3c0-0.7,0.5-1.6,1.4-2.3
		c0.9-0.9,2.1-1.1,3.4-1.1h25.2V317.5z"/>
	<path class="st0" d="M741.6,317.5h-25.2c-1.4,0-2.5-0.5-3.4-1.1c-0.9-0.9-1.4-1.6-1.4-2.3c0-0.7,0.5-1.6,1.4-2.3
		c0.9-0.9,2.1-1.1,3.4-1.1h25.2V317.5z"/>
	<path class="st0" d="M766.6,317.5h-25.2c-1.4,0-2.5-0.5-3.4-1.1c-0.9-0.9-1.4-1.6-1.4-2.3c0-0.7,0.5-1.6,1.4-2.3
		c0.9-0.9,2.1-1.1,3.4-1.1h25.2V317.5z"/>
	<path class="st0" d="M798.4,279c-1.6,0.5-3.7,1.1-5.7,2.1c-2.3,0.9-4.4,2.1-6.4,3.4c-2.1,1.4-3.7,3-5,5c-1.4,2.1-2.1,4.1-2.1,6.9
		c0,5.3,1.6,8.7,5,10.5c3.4,1.8,8,2.7,14.2,3L798.4,279L798.4,279z M805.5,270.3v47.2h-38.9c-1.4,0-2.5-0.5-3.4-1.1
		c-0.9-0.9-1.4-1.6-1.4-2.3c0-0.7,0.5-1.6,1.4-2.3c0.9-0.9,2.1-1.1,3.4-1.1h9.8c-1.4-1.6-2.5-3.4-3.4-5.7c-0.9-2.3-1.4-4.8-1.4-8.2
		c0-4.8,1.4-8.9,4.1-12.1s6-6,9.6-8c3.7-2.1,7.3-3.4,11.2-4.4C800.5,271,803.5,270.3,805.5,270.3"/>
	<path class="st0" d="M842.9,310.2v-32.3c-6.2,1.6-11.2,4.4-14.9,8c-3.7,3.7-5.5,8-5.5,12.8c0,3.4,1.4,6.4,4.1,8.5
		c2.7,2.1,7.3,3,13.3,3H842.9z M850,321.2c0,3.4-0.2,6.6-0.7,9.8s-1.4,6-2.7,8.5c-1.4,2.5-3.2,4.4-5.7,6s-5.7,2.3-9.8,2.3v-7.3
		c3,0,5-0.7,6.6-1.8c1.6-1.1,2.7-2.7,3.4-4.8c0.7-2.1,1.1-4.4,1.4-6.9s0.2-5.3,0.2-8v-1.6h-2.5c-8.2,0-14.4-1.6-18.8-5
		c-4.4-3.4-6.4-7.8-6.4-13.3c0-3.9,0.9-7.6,2.5-11c1.6-3.4,4.1-6.4,7.3-9.2c3.2-2.7,6.9-4.8,11-6.4c4.4-1.6,8.9-2.7,14-3.2v41h6.2
		v7.3h-6.2v3.7H850z"/>
	<path class="st0" d="M881.6,317.5h-25.2c-1.4,0-2.5-0.5-3.4-1.1c-0.9-0.9-1.4-1.6-1.4-2.3c0-0.7,0.5-1.6,1.4-2.3
		c0.9-0.9,2.1-1.1,3.4-1.1h25.2V317.5z"/>
	<path class="st0" d="M906.8,317.5h-25.2c-1.4,0-2.5-0.5-3.4-1.1c-0.9-0.9-1.4-1.6-1.4-2.3c0-0.7,0.5-1.6,1.4-2.3
		c0.9-0.9,2.1-1.1,3.4-1.1h25.2V317.5z"/>
	<path class="st0" d="M931.7,317.5h-25.2c-1.4,0-2.5-0.5-3.4-1.1c-0.9-0.9-1.4-1.6-1.4-2.3c0-0.7,0.5-1.6,1.4-2.3
		c0.9-0.9,2.1-1.1,3.4-1.1h25.2V317.5z"/>
	<path class="st0" d="M956.9,317.5h-25.2c-1.4,0-2.5-0.5-3.4-1.1c-0.9-0.9-1.4-1.6-1.4-2.3c0-0.7,0.5-1.6,1.4-2.3
		c0.9-0.9,2.1-1.1,3.4-1.1h25.2V317.5z"/>
	<path class="st0" d="M1004.8,310.2h4.1v7.3h-9.8c-0.5-2.7-1.1-5.7-2.3-9.2c-1.1-3.4-2.5-6.6-4.4-9.8c0.5,1.8,0.5,3.7,0.5,6
		c0,1.8-0.2,3.7-0.5,5.5c-0.2,1.8-0.9,4.6-1.6,7.8h-33.9c-1.4,0-2.5-0.5-3.4-1.4s-1.4-1.6-1.4-2.3c0-0.7,0.5-1.6,1.4-2.3
		c0.9-0.9,2.1-1.1,3.4-1.1h27.9c0.5-1.8,0.5-3.9,0.5-6c0-4.4-0.9-8-2.7-10.8c-1.8-2.7-3.9-5-6.6-6.9c-2.5-1.6-5.3-3-8.2-3.9
		c-3-0.9-5.5-1.4-7.8-1.8l1.1-3.4c1.6-5.3,4.4-10.1,8.2-14.2c3.7-4.1,7.8-7.8,12.1-11c4.4-3.2,8.5-5.7,12.4-7.8
		c4.1-2.1,7.1-3.4,9.4-4.4v18.1h-7.3v-6.4c-1.8,0.9-3.9,2.3-6.4,3.9c-2.3,1.6-4.8,3.2-7.1,5.3c-2.5,2.1-4.8,4.1-6.9,6.4
		c-2.3,2.3-3.9,4.8-5.3,7.6c4.6,1.8,8.9,3.7,12.6,5.7c3.7,2.1,6.9,4.4,9.8,7.1c2.7,2.7,5.3,6,7.3,9.6
		C1001.8,301,1003.4,305.1,1004.8,310.2"/>
	<path class="st0" d="M1008.9,317.5c-1.4,0-2.5-0.5-3.4-1.1c-0.9-0.9-1.4-1.6-1.4-2.3c0-0.7,0.5-1.6,1.4-2.3
		c0.9-0.7,2.1-1.1,3.4-1.1h36.7c-0.9-1.8-1.6-4.4-2.1-7.3c-0.5-3-0.9-6.9-1.1-11.7c-0.2-3.4-0.9-6.2-1.6-8c-0.9-2.1-1.8-3.4-3-4.4
		c-1.1-0.9-2.5-1.6-3.9-1.8c-1.4-0.2-2.7-0.5-4.1-0.5c-3.2,0-6.6,1.1-10.1,3.4l-4.4-5.7c1.8-1.4,3.9-2.5,6.4-3.4
		c2.5-0.9,5.3-1.4,8.2-1.4c6.2,0,10.8,1.8,14,5.3c3.2,3.7,5.3,8.9,6,16c0.5,6.4,1.1,10.8,1.6,13.7c0.5,2.7,1.8,4.4,3.7,5l3.9,1.1
		l-0.2,6.9h-49.9V317.5z"/>
</g>
</svg>
