<?xml version="1.0" encoding="utf-8"?>
<!-- Generator: Adobe Illustrator 24.0.1, SVG Export Plug-In . SVG Version: 6.00 Build 0)  -->
<svg version="1.1" id="Layer_1" xmlns="http://www.w3.org/2000/svg" xmlns:xlink="http://www.w3.org/1999/xlink" x="0px" y="0px"
	 viewBox="0 0 1920 386" style="enable-background:new 0 0 1920 386;" xml:space="preserve">
<style type="text/css">
	.st0{fill:#FFFFFF;}
</style>
<g>
	<g>
		<path class="st0" d="M105,73.5c8.9-3.4,18.2-2.4,27.4-2.9c7.6-0.4,13.7,1.6,17.9,8.9c5.7,9.8,12.4,18.9,18.6,28.3
			c5.9,9.1,11.6,18.4,17.5,27.5c6.2,9.6,12.6,19.1,19,28.6c2.9,4.3,5.4,8.8,8.3,13.1c8.7,13,16.6,26.4,25.3,39.4
			c7.6,11.4,15,22.9,21.6,34.8c1.5,2.7,3.9,4.2,7,3.2c3.1-1,3.2-3.7,2.7-6.3c-1.9-10.4-1.3-20.9-1.3-31.4c0-41.7,0-83.3,0-125
			c0-3.5-0.4-7-0.6-10.5c-0.4-6.5,2.1-10,8.6-10.5c5.8-0.5,11.8-0.4,17.6-0.1c6.3,0.3,9,3.5,8.6,9.9c-0.3,5.2-0.6,10.3-0.6,15.5
			c0,67.7,0,135.4,0,203c0,3.8,0.5,7.5,0.6,11.3c0.2,7-2.6,10.2-9.5,10.5c-5.7,0.2-11.5,0.1-17.2,0.1c-3.4,0-6.2-1.4-8.5-3.9
			c-6-6.4-10-14.1-15-21.2c-4.2-6-8.2-12.3-12.2-18.5c-6-9.4-12.1-18.7-18-28.2c-2.9-4.8-6.2-9.3-9.1-14c-7-11.1-14.4-21.9-21.4-33
			c-8.4-13.2-17.5-25.9-25.8-39.1c-3.7-5.9-8.3-11.2-10.4-18.1c-1-3.2-3.5-5.4-6.3-7c-3.3-2-6.1-0.7-6.9,3.1
			c-0.5,2.2-0.4,4.5,0.1,6.7c1.3,5.6,1.3,11.4,1.3,17.1c0,48.1,0.1,96.2,0.2,144.3c0,9.1-3,12.2-12.1,12.1c-3.6,0-7.3-0.4-10.9,0.1
			c-6.1,0.8-11-2.8-16.7-3.4C105,236.4,105,155,105,73.5z"/>
		<path class="st0" d="M1521.8,73.8c16-1.1,31.2,2.5,45.2,9.5c12.5,6.2,23.8,14.7,32.5,26c3.1,4,6.3,7.9,7.9,12.8
			c0.6,1.9,2.1,3.3,3.6,4.6c4.4,3.6,8.9,2.5,11.2-2.7c7.7-18.1,20.7-31.4,36.6-42.5c24.6-17.2,51.7-19.1,80.3-15.4
			c11.5,1.5,22.1,5.6,32.1,10.6c13.6,6.8,24.3,17.2,33.7,29.1c4.6,5.9,8.6,12.2,11.8,18.7c4,8.1,7.6,16.6,9.5,25.4
			c6.3,29.5,6.5,59.2-0.4,88.7c-2.2,9.5-6.2,18.7-10.9,27.5c-4.8,8.8-10.2,17-17.1,24.2c-11.2,11.9-24.4,20.8-40,26
			c-4.9,1.6-9.8,3.3-14.8,4.8c-18.2,5.6-36.3,5.8-54.4-1.2c-9.1-3.5-18.5-6.2-27-11.3c-8.8-5.3-16.3-12.2-23.6-19.4
			c-5.2-5.2-8.6-11.7-13.2-17.4c-1.8-2.2-2.2-5.1-3.2-7.7c-1.9-5.2-6.3-6.3-10.7-2.9c-1.7,1.3-3,3-3.9,4.9
			c-8.2,16.2-21.2,27.6-37,36c-23.5,12.6-48.3,14.5-74.2,8.7c-10.4-2.3-20.2-5.7-29.5-10.6c-11.1-5.9-20.2-14.3-28.4-23.9
			c-9.3-10.8-15.1-23.5-19.8-36.6c-3.9-10.9-4.5-22.7-5.7-34.3c-2-18,0.6-35.8,4.6-53.3c2.1-9.4,6.2-18.4,11.3-26.8
			c5.3-8.7,11.1-16.7,18.5-23.7c10-9.4,21.3-16.2,34.4-21.1C1494.7,75.6,1508.1,74.2,1521.8,73.8z M1791.1,194.5
			c0.9-12.9-1.5-24.3-5.7-35.6c-2.8-7.7-7-14.3-12.1-20.3c-10.6-12.5-24.2-20.2-40.6-23.3c-19.5-3.7-37.8-1.7-55.5,7.2
			c-21.8,10.9-34.9,29.1-39.7,52.1c-4.8,22.6-2.3,44.8,10.9,65.2c10.6,16.4,25.3,27.2,43.6,31.2c25.5,5.7,50.8,4.4,72.6-13.1
			c8.3-6.7,14.8-15,19-24.6C1789,220.7,1792.8,207.7,1791.1,194.5z M1451.9,191.3c0.3,9.7-0.5,17,2.5,23.7
			c3.3,7.6,5.8,15.6,11.3,22.3c6.9,8.3,14.6,15.7,24.5,19.9c9.7,4.1,20,7.3,30.9,7.4c18.1,0.2,35-4,49.2-15.2
			c13.7-10.8,22.4-24.9,24.7-42.8c3-23.2-0.8-44.1-17.1-61.9c-8.5-9.3-18.9-15.8-30.8-18.7c-20.2-4.8-40.4-4.6-59.3,5.8
			c-12,6.6-21.5,16-27.7,27.9C1454.5,170.2,1450,181.5,1451.9,191.3z"/>
		<path class="st0" d="M649.3,195.6c0-37.8,0-75.5,0-113.3c0-9.9,2.7-12.4,12.7-11.6c2.9,0.2,5.9-0.1,8.8-0.1
			c7.3-0.1,13,1.9,17.2,8.8c8.1,13.3,17.2,26,25.8,39.1c8.5,13.1,16.5,26.6,25.3,39.5c6.5,9.4,12,19.5,18.9,28.7
			c3,4,5.4,8.4,8.2,12.6c9.5,14.5,18.7,29.1,28,43.7c1.4,2.2,2.4,4.7,3.6,7.1c1.1,2.2,2.6,4.1,5.1,4.6c3.1,0.6,5.3-0.4,5.7-3.9
			c0.1-1.1,0.2-2.3-0.1-3.3c-2.2-10.9-1.5-22-1.5-33.1c0-41.3,0-82.5,0-123.8c0-3.1-0.3-6.1-0.4-9.2c-0.3-6.2,2.2-9.9,8.3-10.4
			c6.4-0.6,12.9-0.5,19.3-0.1c4.5,0.2,6.9,3.1,7,8c0.1,4.6-0.4,9.2-0.4,13.8c0,68.4,0,136.8,0,205.2c0,4.5,0.5,8.9,0.5,13.4
			c-0.1,7.1-3,9.8-10.1,9.9c-5.3,0.1-10.7,0-16,0c-3.7,0-6.9-1.2-9.3-4.1c-5.7-6.7-10.2-14.3-15.1-21.6c-4.2-6.1-7.9-12.5-12.1-18.6
			c-3.1-4.5-5.7-9.2-8.8-13.7c-8.7-12.8-16.7-26.1-25.1-39.1c-8.5-13.1-17.3-26-25.9-39.1c-7.5-11.4-14.9-23-22.2-34.5
			c-1.1-1.7-1.6-3.9-2.5-5.8c-0.7-1.4-1.3-2.8-2.3-3.9c-2.2-2.3-4.7-5.1-8.3-3.7c-3.9,1.5-3.3,5.4-2.7,8.4
			c2.2,10.7,1.4,21.5,1.4,32.2c0.1,40.7,0,81.4,0,122.1c0,3.9,0.3,7.8,0.2,11.7c-0.1,5.9-3.5,9.4-9.4,9.6c-5,0.2-10.1,0.2-15.1,0.1
			c-4.8-0.1-7.5-2.5-8.2-7.3c-0.2-1.7-0.3-3.3-0.3-5C649.3,271.1,649.3,233.3,649.3,195.6z"/>
		<path class="st0" d="M360.7,195.6c0-38,0-76.1,0-114.1c0-7.6,3.5-11.5,10.5-11c12.8,0.8,25.5,0.4,38.3,0.4
			c27.8,0.1,55.5,0,83.3,0.1c4.8,0,9.5-0.9,14.3-0.3c6.4,0.9,8.8,3.6,8.8,10c0,3.1,0,6.2-0.1,9.2c0,4.3-2.3,6.8-6.4,7.5
			c-2.1,0.3-4.2,0.4-6.3,0.4c-31.8,0-63.7-0.1-95.5-0.1c-1.3,0-2.5,0-3.8,0.1c-7.7,0.3-11.3,3.7-10.7,11.3
			c1.2,16.1,0.3,32.2,0.6,48.2c0.1,4.6-0.4,9.2-0.6,13.8c-0.4,8.7,2.6,12.2,11.4,12.3c26.6,0.1,53.3,0,79.9,0c1.8,0,3.7-0.1,5.5,0.1
			c4.9,0.4,7.5,2.7,7.9,7.6c0.3,3.2,0.3,6.4,0.1,9.6c-0.4,6.6-3.7,9.6-10.7,9.6c-16.5,0-33.1,0-49.6-0.1c-10.9,0-21.9-0.1-32.8-0.1
			c-9.2,0-12.5,3.7-11.5,12.8c0.9,8.4,0.4,16.8,0.4,25.2c0.1,20.4,0.1,40.8,0.2,61.3c0,9.4-2.6,11.9-12.1,11.7
			c-3.9-0.1-7.9,0.1-11.8,0c-5.8-0.2-8.8-3.1-9.1-8.8c-0.2-4,0.1-8.1,0.1-12.2c0-34.8,0-69.6,0-104.5
			C360.8,195.6,360.7,195.6,360.7,195.6z"/>
		<path class="st0" d="M1259.5,271.7c0.2-12.6-0.4-25.2,0.4-37.8c0.3-4-1.1-7.5-3-11.2c-3.6-7.2-7.8-14.2-11.7-21.3
			c-3.5-6.4-6.5-13.3-10.9-19.3c-3.3-4.5-5.2-9.8-7.9-14.7c-3.4-6.3-7.3-12.5-10.3-19.1c-3.1-6.7-7.1-13-10.9-19.3
			c-3.1-5.1-5.5-10.6-8.6-15.8c-5.8-10-10.8-20.4-17-30.2c-1.9-2.9-4.8-6.3-2.6-10c2.4-3.9,6.7-2.6,10.4-2.4
			c4.2,0.3,8.4,0.2,12.6-0.1c8.5-0.6,13.5,3,16.9,10.7c2.7,6.2,6.2,12.1,9.3,18.3c4.2,8.5,8.5,16.9,13.1,25.2
			c3.8,6.8,6.8,14,10.9,20.7c3.5,5.8,6.5,12,9.3,18.2c3.2,7.2,8.4,13.5,9.9,21.6c0.6,3.3,3.6,5.2,7.4,5c3.3-0.2,5.2-2.3,5.7-5.2
			c1.6-8.3,7-14.8,10.5-22.2c4.1-8.7,8.5-17.3,13.2-25.6c3.8-6.8,6.5-14.2,11-20.6c3.3-4.6,5.3-10.2,7.7-15.2
			c3.3-6.8,7.5-13.1,10.2-20.1c2.9-7.5,9.2-11.3,17.2-10.6c5.3,0.5,10.6,0.3,16-0.2c2.7-0.3,5.5-0.3,7.1,2.5
			c1.6,2.9,0.1,5.3-1.4,7.7c-4.1,6.5-8,13.1-11.7,19.8c-3.5,6.3-6.5,12.9-10.5,19c-3.5,5.3-6.1,11.2-9.3,16.8
			c-6.9,12.4-13.7,24.9-20.5,37.4c-3.5,6.5-7.3,12.8-10.5,19.5c-3.2,6.8-7.2,13.2-10.9,19.7c-5,8.9-9.5,17.4-8.8,28.6
			c1.2,18,0.3,36.1,0.4,54.1c0,4.6,0.3,9.2,0.4,13.8c0.3,8.2-3.3,11.9-11.5,11.8c-3.6,0-7.3,0-10.9,0c-7.7,0.1-10.7-2.7-10.8-10.5
			c-0.1-8.8,0-17.6,0.1-26.4C1259.6,280.1,1259.5,275.9,1259.5,271.7z"/>
		<path class="st0" d="M1047.5,209.4c0-29.9,0-59.9,0-89.8c0-4.1,0.4-8.1,0.3-12.2c-0.3-7.3-2.9-9.7-10.2-9.7
			c-18.5,0-37,0.1-55.5,0.1c-2.2,0-4.5,0.1-6.7-0.1c-5.6-0.4-7.7-2.7-7.9-8.3c-0.1-3.6-0.1-7.3,0-10.9c0.2-4.6,2.3-6.7,6.9-7.6
			c4.2-0.8,8.4-0.1,12.6-0.1c52,0,104,0,156,0c2.2,0,4.5-0.4,6.7-0.5c6.4-0.3,10.5,3.2,10.9,9.6c0.2,3.2,0.2,6.4,0.1,9.6
			c-0.1,4.7-2.7,7.6-7.5,8.1c-3.1,0.3-6.2,0.1-9.2,0.1c-17.2-0.1-34.5-0.2-51.7-0.3c-7.8,0-11.4,3.4-11.4,11.3
			c0,64.2,0.1,128.4,0.2,192.6c0,3.1,0.6,6.1,0.7,9.2c0.1,6-2.8,9.8-8.8,10.2c-6.1,0.5-12.3,0.3-18.5,0.2c-3.6-0.1-5.9-2.4-6.7-5.9
			c-0.4-1.9-0.5-3.9-0.5-5.8c0-33.3,0-66.6,0-99.8C1047.4,209.4,1047.5,209.4,1047.5,209.4z"/>
		<path class="st0" d="M594.9,221.4c0,29,0,52.8,0,76.6c0,4.2,0.6,8.4,0.7,12.5c0.2,6.3-3.1,10.1-9.5,10.4c-7.3,0.3-14.6,0.3-21.8,0
			c-6-0.2-9.3-3.7-9-9.8c0.3-6.6,0.7-13.1,0.7-19.7c-0.1-35.1,0-70.2,0-105.2c0-4.3,0.1-8.7-0.6-13c-1.1-6.7,2.2-11,6.9-14.7
			c8.3-6.7,16.3-13.6,23.9-21.1c0.9-0.9,2-1.6,3.1-2c4.3-1.7,7.5,0.5,7,5C593.2,169.2,596,198,594.9,221.4z"/>
		<path class="st0" d="M898.5,240.4c0-22.9,0.1-45.9,0-68.8c0-5.7,2-10.3,6.5-13.8c8.1-6.4,16-13.1,23.5-20.4c0.5-0.5,1-1,1.6-1.4
			c1.6-1.3,3.4-2.1,5.4-1.1c2.1,1,2.3,2.9,2.3,5c-1.3,56.2-0.4,112.4-0.5,168.6c0,1.8,0,3.7-0.3,5.4c-0.8,4.6-3.4,7-8,7.1
			c-7.3,0.2-14.6,0.2-21.9,0c-5.1-0.1-8-2.8-8.4-8.1c-0.3-4.3,0-8.7,0-13c0-19.9,0-39.7,0-59.6C898.6,240.4,898.5,240.4,898.5,240.4
			z"/>
		<path class="st0" d="M557.8,109.4c-0.4-9.6,0.4-18.9-0.7-28.3c-0.6-5.2,1.9-8.1,7.1-8.3c7.4-0.3,14.9-0.3,22.3,0
			c5.4,0.2,8.5,3.4,7.7,8.3c-1.5,9-0.7,17.8-0.2,26.8c0.3,6-2.2,10.7-6.6,14.2c-7.8,6.2-15.6,12.2-22.7,19.3
			c-1.7,1.7-3.8,3.2-6.4,1.8c-2.4-1.4-1.9-3.8-1.5-6C558.6,127.9,557.3,118.6,557.8,109.4z"/>
		<path class="st0" d="M918.2,72.8c3.6,0,7.3-0.1,10.9,0c4.5,0.2,7,2.3,6.7,6.8c-0.6,10.9-0.2,21.8-0.2,32.7c0,2.7-1.3,4.8-3.3,6.5
			c-8.4,7.5-17.6,14.3-25.2,22.7c-1.5,1.6-3.2,2.9-5.6,1.8c-2.4-1.1-2.1-3.3-2-5.5c0.9-18.3,0.8-36.6,0.1-54.9
			c-0.3-7.3,2.3-10.3,9.7-10.3C912.3,72.7,915.3,72.7,918.2,72.8C918.2,72.7,918.2,72.7,918.2,72.8z"/>
	</g>
</g>
</svg>
