<?xml version="1.0" encoding="utf-8"?>
<!-- Generator: Adobe Illustrator 24.0.1, SVG Export Plug-In . SVG Version: 6.00 Build 0)  -->
<svg version="1.1" id="Layer_1" xmlns="http://www.w3.org/2000/svg" xmlns:xlink="http://www.w3.org/1999/xlink" x="0px" y="0px"
	 viewBox="0 0 936 226.8" style="enable-background:new 0 0 936 226.8;" xml:space="preserve">
<style type="text/css">
	.st0{fill:#191817;}
	.st1{fill:#FFFFFF;}
	.st2{fill:url(#SVGID_1_);}
	.st3{fill:url(#SVGID_2_);}
	.st4{fill:url(#SVGID_3_);}
	.st5{fill:url(#SVGID_4_);}
	.st6{fill:url(#SVGID_5_);}
	.st7{fill:url(#SVGID_6_);}
	.st8{fill-rule:evenodd;clip-rule:evenodd;fill:#191817;}
	.st9{fill-rule:evenodd;clip-rule:evenodd;fill:#FFFFFF;}
	.st10{fill:none;}
	.st11{fill:#E1E0E0;}
	.st12{fill:url(#SVGID_7_);}
	.st13{fill:#008B39;}
	.st14{fill:url(#SVGID_8_);}
	.st15{fill:#D70926;}
</style>
<g id="Layer_2_1_">
	<g id="Layer_1-2">
		<path class="st0" d="M143.2,172.2l-0.2,0.1c-15.8,9.5-33.7,16.2-52.5,16.7c-0.9,0.7-3,2.4-3,2.4s-2.2-1.6-3.1-2.4
			c-18.8-0.5-36.8-7.1-52.5-16.7l-0.2-0.1L15,182.5v21.9c21.1,12.5,44.3,20,69.3,20.5c0.8,0.8,3.1,2.5,3.1,2.5s2.2-1.7,3-2.5
			c25-0.5,48.2-8,69.3-20.5v-21.9L143.2,172.2z"/>
		<path class="st1" d="M143.8,175.8c-15.7,9-34.6,16-52.9,16.5l-3.5,2.6c0,0-3.1-2.3-3.5-2.6c-18.3-0.6-37.2-7.5-52.9-16.5
			l-12.7,8.7v18.3c20.2,11.6,42.9,18,66.1,18.6h0.4l2.6,2.2l0,0c0.8-0.7,2.6-2.2,2.6-2.2h0.4c23.2-0.6,46-7,66.1-18.6v-18.3
			L143.8,175.8z"/>
		<path class="st1" d="M64,10.6c-4.2,2.3-4.4,5.1-3.5,7c0.4-0.3,2.2-0.3,4.2-1.3c0.9-0.2,5.5,0.6,8.6,3.2c0.3-1.2,0.5-2.4,0.5-3.7
			c0.1-3.8-1.7-7.5-4.6-9.9l-1,0.5C64.7,8.4,65.1,9.9,64,10.6z"/>
		<path class="st1" d="M171.7,99.2c-0.1-1-0.2-2-0.4-3c-1-8.5-0.7-16.7-0.5-25.2c0.2-7.9-1-15.2-5-22.1c-3.5-6.1-9.7-14.1-17.2-15.1
			c-6.9-0.9-11.5,5.2-17.8,6.9c-7,1.8-11.1,1.7-17.6-3.1c-2.7-2.6-12.2-22.4-14.8-26.5c-2.7-4.5-7.1-7.6-12.2-8.7
			c-6-1.4-16.7,1.1-19,4c-1.6,2-2.4,1.7-2.4,3.1c-0.1,2.4,4.8,7.4,8.8,10.1c-3,0.2,1.6,7.2,0.9,9s-0.6,10.6-10.8,12.5
			c-8.1,2.1-17.6,0.2-20-0.5c-6.4-1.7-11.5-7.5-18.4-6.6c-7.5,1-13.2,8.7-16.7,14.8c-3.9,6.8-5.1,14.2-4.9,22
			c0.2,8.5,0.4,16.8-0.5,25.2l-0.4,3C2.7,98.9,38,80.5,39,79.5c1.6-1.6,2.3-2.6,4.1-4.5l0.1,47.4c0,0,5.6-7.3,7.1-5.8
			c0.9,0.9-2.8,25.7-6,37.4c0.8,0,5-2.5,5.6-2.2s0.4,6.2,0.7,6.8c0.4-0.7,1.9-3.4,3.1-3.1s1.3,3.5,1.3,4.4c1-2.2,1.9-5.2,3-7.4
			s3.3-6.1,4.8-8.4c1.2-1.8,6.1-7.1,9-8c3.8-1.2,13.5-0.2,15.2,4.9h0.7c2.7-6.9,12.3-7.1,17.1-3.4c2.4,1.9,8.6,10.2,9.7,12.3
			s4.1,7.9,5.2,10.1c0-0.9-0.1-4.2,1.1-4.5s2.7,2.4,3.1,3.1c0.3-0.5,0-6.4,0.6-6.8s4.8,2.2,5.6,2.2c-3.2-10.2-5.6-30.7-5.7-32.1
			c0-1.1-0.5-9.8,0.1-13.2c0.3,6.1,1,7.4,6.7,13.8c0.1-1.6,0.5-43.1,0.1-47.4c1.8,1.8,2.3,3.2,4.1,4.5
			C141.2,83.5,171.8,98.9,171.7,99.2z"/>
		<path class="st1" d="M131.6,113.1c0.1-0.2,0.2-0.3,0.3-0.4c0.7,0.6,1.4,1.3,2,2c2.9,2.9,4.8,6.5,7.1,9.8c2.5,3.5,5.8,6.3,8.9,9.2
			c6.8,5.6,13.9,10.7,21.3,15.5c0.9-4.9-0.3-14.7-0.2-19.6c0.1-4.4,0-7.5-3.9-10.2c-5.1-3.6-11-5.9-16.4-8.9
			c-4.7-2.7-9.1-6.3-13.8-9.1c-3.5-2.1-4.9-4.5-5.4-7.3C130.9,100.3,130.9,106.7,131.6,113.1z"/>
		<path class="st1" d="M43,113.1c-0.1-0.2-0.2-0.3-0.3-0.4c-0.7,0.6-1.4,1.3-2,2c-2.9,2.9-4.8,6.5-7.1,9.8c-2.5,3.5-5.8,6.3-8.9,9.2
			c-6.8,5.6-13.9,10.7-21.3,15.5c-0.9-4.9,0.3-14.7,0.2-19.6c-0.1-4.4,0-7.5,4-10.2c5.1-3.6,11-5.9,16.4-8.9
			c4.7-2.7,9.1-6.3,13.8-9.1c3.5-2.1,4.8-4.5,5.4-7.3C43.6,100.3,43.6,106.7,43,113.1z"/>
		<path class="st1" d="M105.5,137.3c-3.6-3.6-12.4-4.4-18.2,2.8c-5.8-7.2-14.6-6.4-18.2-2.8c-0.7,3.6-10.2,35-11.4,38.3
			c4.8,1.4,4.7,0.6,7.9-0.2c0.6,8.9,6,3.6,7.2,2.4c4.2,7.6,8.1,2.9,10.3-0.5c0,2.8,1.2,4.2,4.2,6.4c3-2.2,4.2-3.6,4.2-6.4
			c2.2,3.4,6.1,8.1,10.3,0.5c1.2,1.2,6.6,6.5,7.2-2.4c3.2,0.9,3,1.6,7.9,0.2C115.6,172.2,106.1,140.8,105.5,137.3z"/>
		<path class="st1" d="M131.6,96.4c3.3,9.6,33.8,22.9,39.9,26.7c0-6.3-0.6-10.3-0.5-15.3c0.1-4.4,0-7.5-3.9-10.3
			c-5.1-3.5-11-5.9-16.4-8.9c-4.7-2.7-9.1-6.3-13.8-9.1c-3.5-2.1-4.9-4.4-5.4-7.3C130.8,78.6,131.4,96.5,131.6,96.4z"/>
		<path class="st1" d="M131.6,130.1c0,4.5,3.1,8,6.5,10.8c0.1,2.6,1.6,9.2,7,11.3c0,3.7,3.1,8.9,8.6,11.5c0,4.7,5.8,8.9,8.8,9.5
			c-2.1,14.9,6.9,19.4,9,20.8c0-6.3-0.6-32.1-0.5-37c0.1-4.4-0.1-7.4-3.9-10.3c-15.6-11.6-29.9-27.9-35.8-34.9
			C130.8,117.8,130.9,124,131.6,130.1z"/>
		<path class="st1" d="M43,96.4c-3.3,9.6-33.8,22.9-39.9,26.7c0-6.3,0.6-10.3,0.5-15.3c-0.1-4.4,0-7.5,4-10.3
			c5.1-3.5,11-5.9,16.4-8.9c4.7-2.7,9.1-6.3,13.8-9.1c3.5-2.1,4.8-4.4,5.4-7.3C43.7,78.6,43.1,96.5,43,96.4z"/>
		<path class="st1" d="M43,130.1c0,4.5-3.1,8-6.5,10.8c-0.1,2.6-1.6,9.2-7,11.3c0,3.7-3.1,8.9-8.6,11.5c0,4.7-5.8,8.9-8.9,9.5
			c2.1,14.9-6.8,19.4-9,20.8c0-6.3,0.6-32.1,0.5-37c-0.1-4.4,0.1-7.4,4-10.3c15.6-11.6,29.8-27.9,35.8-35
			C43.7,117.8,43.6,124,43,130.1z"/>
		
			<linearGradient id="SVGID_1_" gradientUnits="userSpaceOnUse" x1="87.275" y1="49.3078" x2="87.275" y2="94.9278" gradientTransform="matrix(1 0 0 -1 0 228)">
			<stop  offset="0" style="stop-color:#FFFFFF"/>
			<stop  offset="0.18" style="stop-color:#FAF9F9"/>
			<stop  offset="0.41" style="stop-color:#EAEAEA"/>
			<stop  offset="0.66" style="stop-color:#D0CFCF"/>
			<stop  offset="0.94" style="stop-color:#ADABAB"/>
			<stop  offset="1" style="stop-color:#A4A2A2"/>
		</linearGradient>
		<path class="st2" d="M105.5,137.3c-3.6-3.6-12.4-4.4-18.2,2.8c-5.8-7.2-14.6-6.4-18.2-2.8c-0.7,3.6-10.2,35-11.4,38.3
			c4.8,1.4,4.7,0.6,7.9-0.2c0.6,8.9,6,3.6,7.2,2.4c4.2,7.6,8.1,2.9,10.3-0.5c0,2.8,1.2,4.2,4.2,6.4c3-2.2,4.2-3.6,4.2-6.4
			c2.2,3.4,6.1,8.1,10.3,0.5c1.2,1.2,6.6,6.5,7.2-2.4c3.2,0.9,3,1.6,7.9,0.2C115.6,172.2,106.1,140.8,105.5,137.3z"/>
		
			<linearGradient id="SVGID_2_" gradientUnits="userSpaceOnUse" x1="146.2874" y1="119.6591" x2="154.0074" y2="135.5491" gradientTransform="matrix(1 0 0 -1 0 228)">
			<stop  offset="0" style="stop-color:#FFFFFF"/>
			<stop  offset="0.18" style="stop-color:#FAF9F9"/>
			<stop  offset="0.41" style="stop-color:#EAEAEA"/>
			<stop  offset="0.66" style="stop-color:#D0CFCF"/>
			<stop  offset="0.94" style="stop-color:#ADABAB"/>
			<stop  offset="1" style="stop-color:#A4A2A2"/>
		</linearGradient>
		<path class="st3" d="M131.6,96.4c3.3,9.6,33.8,22.9,39.9,26.7c0-6.3-0.6-10.3-0.5-15.3c0.1-4.4,0-7.5-3.9-10.3
			c-5.1-3.5-11-5.9-16.4-8.9c-4.7-2.7-9.1-6.3-13.8-9.1c-3.5-2.1-4.9-4.4-5.4-7.3C130.8,78.6,131.4,96.5,131.6,96.4z"/>
		
			<linearGradient id="SVGID_3_" gradientUnits="userSpaceOnUse" x1="151.6094" y1="75.444" x2="159.9794" y2="85.184" gradientTransform="matrix(1 0 0 -1 0 228)">
			<stop  offset="0" style="stop-color:#FFFFFF"/>
			<stop  offset="0.18" style="stop-color:#FAF9F9"/>
			<stop  offset="0.41" style="stop-color:#EAEAEA"/>
			<stop  offset="0.66" style="stop-color:#D0CFCF"/>
			<stop  offset="0.94" style="stop-color:#ADABAB"/>
			<stop  offset="1" style="stop-color:#A4A2A2"/>
		</linearGradient>
		<path class="st4" d="M131.6,130.1c0,4.5,3.1,8,6.5,10.8c0.1,2.6,1.6,9.2,7,11.3c0,3.7,3.1,8.9,8.6,11.5c0,4.7,5.8,8.9,8.8,9.5
			c-2.1,14.9,6.9,19.4,9,20.8c0-6.3-0.6-32.1-0.5-37c0.1-4.4-0.1-7.4-3.9-10.3c-15.6-11.6-29.9-27.9-35.8-34.9
			C130.8,117.8,130.9,124,131.6,130.1z"/>
		
			<linearGradient id="SVGID_4_" gradientUnits="userSpaceOnUse" x1="-312.3455" y1="119.6702" x2="-304.6355" y2="135.5602" gradientTransform="matrix(-1 0 0 -1 -284.06 228)">
			<stop  offset="0" style="stop-color:#FFFFFF"/>
			<stop  offset="0.18" style="stop-color:#FAF9F9"/>
			<stop  offset="0.41" style="stop-color:#EAEAEA"/>
			<stop  offset="0.66" style="stop-color:#D0CFCF"/>
			<stop  offset="0.94" style="stop-color:#ADABAB"/>
			<stop  offset="1" style="stop-color:#A4A2A2"/>
		</linearGradient>
		<path class="st5" d="M43,96.4c-3.3,9.6-33.8,22.9-39.9,26.7c0-6.3,0.6-10.3,0.5-15.3c-0.1-4.4,0-7.5,4-10.3
			c5.1-3.5,11-5.9,16.4-8.9c4.7-2.7,9.1-6.3,13.8-9.1c3.5-2.1,4.8-4.4,5.4-7.3C43.7,78.6,43.1,96.5,43,96.4z"/>
		
			<linearGradient id="SVGID_5_" gradientUnits="userSpaceOnUse" x1="-307.0405" y1="75.4783" x2="-298.6705" y2="85.2183" gradientTransform="matrix(-1 0 0 -1 -284.06 228)">
			<stop  offset="0" style="stop-color:#FFFFFF"/>
			<stop  offset="0.18" style="stop-color:#FAF9F9"/>
			<stop  offset="0.41" style="stop-color:#EAEAEA"/>
			<stop  offset="0.66" style="stop-color:#D0CFCF"/>
			<stop  offset="0.94" style="stop-color:#ADABAB"/>
			<stop  offset="1" style="stop-color:#A4A2A2"/>
		</linearGradient>
		<path class="st6" d="M43,130.1c0,4.5-3.1,8-6.5,10.8c-0.1,2.6-1.6,9.2-7,11.3c0,3.7-3.1,8.9-8.6,11.5c0,4.7-5.8,8.9-8.9,9.5
			c2.1,14.9-6.8,19.4-9,20.8c0-6.3,0.6-32.1,0.5-37c-0.1-4.4,0.1-7.5,4-10.3c21.6-15.4,29.8-27.9,35.8-35
			C43.7,117.8,43.6,124,43,130.1z"/>
		<path class="st1" d="M50.8,158.9c0-1.4,0.7-5.4-0.9-6.6c-1-0.8-3.6,1.4-5.7,2.7c3.7-11.6,12.4-46.4,11-56.7
			c8,4,15.6,8.6,22.9,13.8c6.5,4.7,7.2,18.4,3,16.8c-9.3-3.6-21.4,8.9-25.5,29.2C54.5,155.6,53.6,153.7,50.8,158.9z"/>
		<path class="st1" d="M123.7,158.9c0-1.4-0.7-5.4,0.9-6.6c1-0.8,3.6,1.4,5.7,2.7c-3.7-11.6-12.4-46.4-11-56.7
			c-8,4-15.6,8.6-22.8,13.8c-6.5,4.7-7.2,18.4-3,16.8c9.2-3.6,21.4,8.9,25.5,29.2C120.1,155.6,120.9,153.7,123.7,158.9z"/>
		<path class="st1" d="M69.2,40.2C48.5,55.1,29.3,33,22.7,39.3c-4,3.8-15.7,16.8-15.7,22.5s0.7,32.6-1.2,34.5
			c5.6,0,34-17.8,35.6-19.4c5.6-5.6,7.4-2.7,14.5-2.7c2.5-1.8,5.5-3,8.4-4.7C74.6,63.1,69.4,50.5,69.2,40.2z"/>
		<path class="st1" d="M167.2,60.7c-1.9-5.4-14.1-22-19.4-22c-6.6,0-17.4,10.8-30.2,5.8c-15.4-6.1-13.3-29.1-30.6-37.2
			c3.3,1,6.5,2.3,9.6,3.7C88.3-3.9,68.9,2.2,64.7,8.7c-0.7,2.6,4.2,7.3,8.2,10.5c3.7,5.7,4.1,6.2,1.1,16.1C71,45,94,42,100.4,49.7
			c6.9,8.4,14.8,15,25.4,17.4c0.3,0,0.7,0.1,1,0.2c2.1,5.7,18.6,21.5,42.3,29.2C165.7,92.1,169.1,66.1,167.2,60.7z"/>
		<path class="st1" d="M32.2,182.1c0.6,0.8,1.6,1.2,2.6,1.1c0.5-0.1,0.9-0.1,1.4,0c0.4,0.1,0.9,1.6,1.5,1.7s2.2,0,2.8,0.1
			c1,0.1,1.9,1.3,3,1.3c0.9-0.1,1.7-0.7,1.8-1.6c0.3-1.1-0.2-4.6,0.9-5.5c0.7,0.6,1.6,1.2,2.4,1.6c0.6,0.2,2.1,0.9,2.6,1
			c0.2,0.1-3-5.2-3.1-6.3c-0.4-3.6,2.8-8.4,3.8-10.5c0.4-1,1.5-4.6,1.9-5.6s0.8-3.5-0.2-2.8c-3.6,2.5-2.7-3.6-3.8-3.3
			c-2.8,0.6-3.4,5.1-4.1,7.3c-0.5,1.8-4.5,11.2-5.2,11.4c-0.7-0.4-1.9,0-2.8,1.6c-1.1-1.2-2.2-3-3.9-2.9c-2.2,0.2-1.3,3.4-1.1,4.8
			c0.1,0.9-0.8,4.3-0.7,5.1c0.1,0.5,0.2,0.9,0.3,1.4L32.2,182.1z"/>
		<path class="st1" d="M142.7,181.9c-0.8,1-2,1.5-3.3,1.5c-0.7,0.1-1.3,0.4-1.9,0.9c-0.4,0.4-1.1,0.3-1.7,0.4
			c-0.5,0.1-1.1,0.2-1.6,0.3c-1,0.1-1.9,1.1-3,1.2c-0.9-0.1-1.7-0.8-1.9-1.7c-0.3-1.1-0.9-4.8-1.6-4.5s-3.1,1.3-4.5,1.8
			c-0.2,0.1,2.8-5.4,3.2-6.4c0.5-1.1,0.5-2.3-0.2-3.4c-0.1-0.2-2.4-4.6-3.3-6.7c-0.4-1-1.8-5.1-2.2-6.1s-0.8-3.5,0.2-2.8
			c3.6,2.5,2.7-3.6,3.9-3.3c2.7,0.6,3.4,5.1,4.1,7.3c0.5,1.8,1.5,3.7,2.1,5.4s2.3,4.4,2.3,7c0.3-0.4,0.7-0.6,1.1-0.8
			c1.2-0.1,1.9-0.2,2.2,1.4c1-1.6,2.3-3.1,3.9-2.9c2.2,0.2,1.5,3.4,1.3,4.7c-0.1,0.8,0,1.6,0.3,2.3
			C143.6,180.8,142.7,181.9,142.7,181.9z"/>
		
			<linearGradient id="SVGID_6_" gradientUnits="userSpaceOnUse" x1="76.7222" y1="212.0439" x2="75.0622" y2="219.6339" gradientTransform="matrix(1 0 0 -1 0 228)">
			<stop  offset="0" style="stop-color:#FFFFFF"/>
			<stop  offset="1" style="stop-color:#191817"/>
		</linearGradient>
		<path class="st7" d="M78.8,9.7c-0.1,1.9-1.8,3.4-3.8,3.2c-1.7-0.1-3.1-1.5-3.2-3.2c0.1-1.9,1.8-3.4,3.8-3.2
			C77.3,6.6,78.7,8,78.8,9.7z"/>
		<path class="st0" d="M65.1,12.8c0.1,0,0.2,0,0.3,0l0,0c-0.1-0.6-0.7-1-1.4-0.9c-0.5,0.1-0.8,0.5-0.9,0.9c0,0.5,0.5,0.9,1,0.9
			c0-0.1-0.1-0.2-0.1-0.2C64,13.1,64.5,12.8,65.1,12.8z"/>
		<path class="st8" d="M72.5,10.3c1,3.4,6.3,1.6,4.7-2.2c1.7-0.6,3.5-1,5.4-1.1c-4.4-0.7-9.6-1.2-12.8,0.2C68.3,8,68.8,8.9,69,9.3
			c0.2-0.8,1.7-0.9,2.7-0.6c-0.8,6.4,7.5,5.7,7.2,0.4C78.2,13.5,72.7,13.5,72.5,10.3z"/>
		<path class="st9" d="M76.8,8.8c-0.8-0.6-1.9-0.6-2.7,0c0-0.8,0.6-1.4,1.4-1.4S76.8,8.1,76.8,8.8z"/>
		<path class="st0" d="M172.4,125c0.8,0.3,1.6,0.6,2.1,0.8c-2.3-3.4-2.1-9-2.1-10.3v-13.3c0.8,0.3,1.6,0.6,2.1,0.8
			c-2.3-3.4-2.1-9-2.1-10.3v-31c0-8.6-13.1-29.3-24.2-29.6c-7.9-0.2-17.1,10.9-28.4,8c-3.6-0.9-6.5-4.8-8.9-9.6
			c-4.2-8.6-8.2-20.1-18.5-26.8C81.1-3.7,68,4.5,66.6,5.8c-1.3,1.2-3.3,4.7-4.4,5.3c-2.4,1.1-4,3.5-4.1,6.1c0,1.2,0.3,4,2.4,5.7
			c-0.3-0.9-0.4-1.9-0.1-2.9c1.4,0.2,4.5,0.9,6.5,0c1,1,3.4,2.9,4.4,4.8c1.4,2.7,1.4,3.1,1.4,4.2c-0.1,3.8-2,7.2-5.2,9.2
			c-4.1,2.9-13.8,4.6-26,0.4c-6.6-2.3-9.3-6.8-15.2-6.7c-11.1,0.3-24.2,21-24.2,29.6v31C2.1,94,2.3,99.5,0,103
			c0.6-0.2,1.3-0.5,2.1-0.8v13.3c0,1.3,0.2,6.9-2.1,10.3c0.6-0.2,1.3-0.5,2.1-0.8v17c0,1.3,0.2,6.9-2.1,10.3
			c0.6-0.2,1.3-0.4,2.1-0.8V186c0.1,2.5-0.2,5-0.8,7.5c-0.3,1,0.4,2.3,1.5,1.8c4.4-1.8,10.9-5.2,10.9-14.9V175
			c4.3-1.6,7.4-5.4,8.2-9.9c3.6-1.8,7.6-4.9,8.5-11.2c3.7-2.2,7.4-5.9,7.4-13.1c3.2-2.4,5.1-5.3,5.5-7.5c0.4-3.1,0.5-6.1,0.5-9.2
			c2-1.4,3.7-3.3,5-5.4c-0.4,8.9-2.2,21-6.4,37.6c0.9,0,1.9-0.2,2.8-0.4c-1.2,5.2-3,10.2-5.3,15c-0.3,0-0.6,0-0.8,0
			c-0.6,0.1-1.1,0.7-1.4,1.5c-0.9-1.3-1.9-3.4-4.5-2.6s-2,3.9-1.5,5.3c0.9,2.7-1.1,3.6-0.7,5.9c0.2,1.4,1.1,2.6,2.3,3.2
			c0.3,0.7,0.9,1.2,1.6,1.5c0.8,0.3,0.7-0.4,0.7-1.4c0.2,0,0.3-0.1,0.5-0.2c0.2,0.7,0.7,1.3,1.3,1.6c0.4,0.7,1,1.3,1.8,1.7
			c1,0.5,0.3-0.6,0.2-1.6c0.4-0.1,0.8-0.3,1.1-0.5c0.1,0.3,0.3,0.6,0.6,0.8l0.3,0.2c0.3,1,1,1.8,2,2.2c0.7,0.2,0.4-0.6,0.4-1.4
			c1,0,1.9-0.6,2.3-2.2c0.6-2.3-0.7-2.1,0.7-4.8c0.3,0.1,2.3,0.9,2.7,1c-1.9-0.8-3-5.4-3.4-4.1c-1.7,3-0.2,8.6-2.1,8.7
			c-5.4,0.4-1.4-6.4-1.2-8.1c0.3-2.2,0-5.3,2.1-4.7c1.9,0.6,4.3,6.7,5.5,8.6c0.2,0.2,2.9,1.9,3,1.1c-2-2.2-3.4-4.8-4.2-7.7
			c-0.4-1.3-0.3-2.7,0.3-4c0.5-1.3,3.6-6.7,4.8-9.3c0.3,1.1,0.7,2,0.9,2.8c0.4-5.6,6.7-16.3,12.2-22.6c-2,6.4-6.5,22-7.8,26.4
			c-0.9,2.8-2.2,5.5-4,7.9c2.1,0.8,5.9,1.4,8.6,0.3c-0.5,1.3-0.2,2.9,0.8,3.9c1.5,1.5,5.6,2.5,7.6-0.9c1.6,5.8,7.8,5.5,10.3,1.5
			c1.1,3.3,3.2,3.8,4.5,5c1.3-1.3,3.5-1.7,4.5-5c2.4,4,8.7,4.3,10.3-1.5c2,3.5,6.2,2.4,7.6,0.9c1-1,1.4-2.5,0.8-3.9
			c2.7,1.1,6.5,0.5,8.6-0.3c-1.8-2.4-3.1-5-4-7.9c-1.2-4.3-5.7-20-7.8-26.4c5.5,6.3,11.8,17,12.2,22.6c0.2-0.8,0.5-1.8,0.9-2.8
			c1.3,2.6,4.3,8,4.8,9.3c0.6,1.3,0.7,2.7,0.3,4c-0.6,2.8-2,5.5-3.9,7.7c0.1,0.7,2.4-0.6,2.5-0.8c1.2-1.9,3.7-8.3,5.6-8.9
			c2.1-0.7,1.9,2.5,2.1,4.7c0.2,1.7,4.2,8.5-1.2,8.1c-1.9-0.1-0.4-5.7-2.1-8.7c-0.3-1.4-1.4,3.5-3.3,4.3c0.3-0.1,2.3-1.1,2.6-1.2
			c1.3,2.7,0.2,2.5,0.8,4.9c0.4,1.6,1.3,2.2,2.3,2.2c-0.1,0.8-0.3,1.6,0.4,1.4c1-0.4,1.7-1.2,2-2.2c0.1-0.1,0.2-0.1,0.3-0.2
			c0.3-0.2,0.5-0.4,0.6-0.8c0.3,0.2,0.7,0.4,1.1,0.5c-0.2,1-0.9,2.1,0.1,1.6c0.7-0.4,1.4-1,1.8-1.7c0.6-0.3,1.1-0.9,1.3-1.6
			c0.2,0.1,0.3,0.1,0.5,0.2c0,1-0.1,1.6,0.7,1.4c0.7-0.3,1.3-0.8,1.6-1.5c1.3-0.6,2.1-1.8,2.3-3.2c0.3-2.2-1.6-3.1-0.7-5.9
			c0.4-1.4,1-4.5-1.6-5.3s-3.6,1.3-4.4,2.6c-0.3-0.8-0.8-1.4-1.4-1.5c-0.3,0-0.6,0-0.8,0c-2.3-4.8-4.1-9.8-5.3-15
			c0.9,0.2,1.8,0.4,2.8,0.4c-4.2-16.6-6-28.7-6.4-37.6c1.2,2.1,2.9,4,4.9,5.4c0,3.1,0.2,6.2,0.5,9.2c0.4,2.2,2.3,5.1,5.5,7.5
			c0.1,7.2,3.7,10.9,7.4,13.1c0.9,6.3,4.9,9.4,8.5,11.2c0.8,4.5,3.9,8.3,8.2,9.9v5.4c0,9.5,6.3,13,10.7,14.8
			c1.1,0.5,2.1-0.4,1.8-1.2c-0.8-2.6-1.1-5.3-1-8v-34.3c0.8,0.3,1.6,0.5,2.1,0.7c-2.3-3.4-2.1-9-2.1-10.3L172.4,125z M67.6,18.5
			L67.6,18.5c-0.8,0.2-4.7,0.9-5.2,0.4c1.1-0.5,2.1-1.1,3.2-1.8c1.2,0.1,2.4,0.9,4.3,2C68.8,18.6,68.6,18.3,67.6,18.5z M10.8,156.7
			v9.7c0,1.2-0.1,4.8-0.1,8.9l0,0v6.5c0,4.1-3.9,7.7-6.8,8.9C4.4,190,5,188,5,185.1v-34.7c2-0.9,3.8-2.3,5.3-3.9l0.6-0.2
			C10.8,151.7,10.8,155.9,10.8,156.7z M10.8,127.1c0,1.6-0.1,9.7-0.1,10.7c0,4.2-3.9,7.7-6.8,9c0.6-0.7,1.2-2.7,1.2-5.6v-17.4
			c1.7-0.8,3.2-1.9,4.5-3.1l1.4-0.5C10.8,122.3,10.8,125.3,10.8,127.1z M3.8,120.2c0.6-0.7,1.2-2.7,1.2-5.7v-13.6
			c1.7-0.8,3.2-1.9,4.5-3.2l1.4-0.5c-0.1,1.1-0.1,2.3-0.1,3.7v8.3C10.9,114,8.2,118.3,3.8,120.2z M13.6,96.2c1.9-0.9,3.6-2.1,5-3.6
			l1-0.4c-0.1,1.1-0.1,2.3-0.1,3.8v8.5c0.2,4.5-2.4,8.7-6.5,10.7c0.5-1.7,0.8-3.4,0.8-5.2v-8.3C13.6,99.7,13.6,97.9,13.6,96.2
			L13.6,96.2z M19.4,151.8v8.5c0.1,4.5-2.3,8.6-6.3,10.6c0.6-0.7,0.6-2.4,0.6-5.4v-8c0-0.9,0-6,0-12.2c2.3-1,4.4-2.5,5.9-4.4
			C19.4,144.9,19.4,150.3,19.4,151.8L19.4,151.8z M19.4,122.2v8.5c0.1,4.5-2.4,8.6-6.4,10.6c0.4-1.5,0.6-3.1,0.6-4.7v-0.2l0,0
			c0-0.2,0-0.4,0-0.6v-8c0-2-0.1-5.9-0.1-8.8c1.9-0.9,3.6-2.1,5-3.6c0.3-0.1,0.6-0.2,1-0.4C19.4,117.4,19.4,120.6,19.4,122.2
			L19.4,122.2z M21.6,109.9c0.4-1.6,0.7-3.2,0.6-4.8V90.9c1-0.5,2-1.1,2.9-1.8c0.9-0.2,1.7-0.5,2.5-0.8c0,0.9,0,1.9,0,3.5v7.7
			C27.8,103.8,25.5,107.9,21.6,109.9L21.6,109.9z M27.6,143v7.6c0.1,4.1-1.9,7.9-5.4,10v-13.1c0-0.6,0-6.9,0-10.4
			c2.1-1.1,4-2.6,5.5-4.5C27.7,135.7,27.7,140.7,27.6,143L27.6,143z M27.6,115.2v7.7c0.1,4.1-1.9,8-5.4,10.1c0-0.6,0-1.1,0-1.7
			v-13.4c0-0.4,0-2.4,0-4.1c1.2-0.6,2.2-1.3,3.3-2.1c0.7-0.2,1.4-0.5,2.2-0.9C27.8,112.2,27.7,112.2,27.6,115.2L27.6,115.2z
			 M30.6,109.4c1.2-0.7,2.2-1.5,3.2-2.5c0.4-0.2,0.8-0.4,1.1-0.6c0,0.7,0,1.4,0,2.3v7.7c0.1,3.7-1.5,7.2-4.5,9.4
			c0.1-0.8,0.1-1.5,0.1-2.3v-11.4C30.6,111.2,30.6,110.3,30.6,109.4L30.6,109.4z M34.9,132.4v7.7c0.1,3.6-1.5,7.1-4.4,9.3v-9.5
			c0-1,0-6.7,0.1-9.9c1.7-1,3.1-2.3,4.3-3.8C34.9,128.3,34.9,131,34.9,132.4z M34.9,87.9v7.7c0.2,4-1.8,7.8-5.2,10
			c0.6-1.8,0.9-3.6,0.8-5.5V88.7c0-0.6,0-1.2,0-1.9c1.3-0.8,2.6-1.8,3.6-3l0.9-0.4C35,84.5,34.9,86,34.9,87.9z M42.3,130.1
			c0,2.4-2,4.8-4.5,6.8v-5.5c0-1.3-0.1-8.7,0-12.2c1.9-1.4,3.4-3.1,4.6-5.1C42.4,120.1,42.3,128.5,42.3,130.1z M37.8,104.5
			c1.9-1.3,3.4-3,4.6-5c0,4.2-0.1,8-0.1,9.1c0,2.4-2,4.8-4.5,6.8v-7.7C37.8,106.7,37.8,105.6,37.8,104.5z M42.3,93.7
			c0,2.6-2.3,5.2-5.1,7.2c0.4-1.5,0.6-3.1,0.6-4.7v-9.3c-0.1-1.8,0-3.5,0.1-5.3c1.8-1.3,3.4-3,4.5-5C42.4,82.7,42.3,91.9,42.3,93.7z
			 M36.1,175.7c0.2,0.8,1.1,6.6-1,7.2c-1.9,0.5-4.1-0.9-2.5-5.1c0.8-2.1-0.5-6.5,0.9-6.8c1.7-0.4,3.2,2.1,3.8,3.9
			c0.1,0.5,0.2,1,0.1,1.5C36.7,175.6,36,174.3,36.1,175.7L36.1,175.7z M42,177.5c-0.1,0.4-0.1,0.8-0.2,1.2c-0.4-0.9-1.2-3.2-1.2-1.6
			c0,1.1,0.1,7.1-1.9,7.3s-2.4-1.6-1.4-3.7s0.2-8.1,1.6-8.2s2.5,1.2,3,2.7C42.1,175.9,42.1,176.7,42,177.5z M51.2,164.9
			c-0.6,1.3-1.7,1.6-2.2,2.5c-0.7,1.1-0.4,2.9-1.2,3.8c-0.6,0.6-0.9,1.1-0.7,2.6c-0.4-0.7-1-1.3-1.8-1.8c-0.9-0.7-2.2-0.5-2.9,0.4
			c-0.1,0.1-0.2,0.3-0.2,0.4c-0.2-0.3-0.4-0.6-0.7-0.9c0.2-0.4,0.4-0.8,0.6-1.2c0.4-0.9,0.3-2.1,0.6-2.6s1-0.9,1.4-1.6
			s0.3-2.3,0.6-3.1c0.4-0.7,0.8-1.4,1.1-2.1c0.1-0.3,0.3-2.3,0.6-3c0.7-1.5,1.8-2.9,3.1-3.9c0,2.2,0.1,4.4,0.5,6.5
			c1.1-1,2.1-2.1,3.1-3.3c0.1,1.4-0.3,2.8-1,4C51.5,162.8,51.9,163.5,51.2,164.9L51.2,164.9z M59.1,174.5c1.1-1.1,1.7-3.4,2.4-6
			c0.5-2.1,6.2-23.3,7.6-28.6c0.8-0.8,1.6-1.5,2.5-2.1c0.6-0.4,1.3-0.7,2-0.9c-1.4,5.4-6.8,29.6-7.8,34.4
			C64.9,174.5,62.5,175.2,59.1,174.5L59.1,174.5z M72.2,174.1c-0.6,3.2-0.9,5.2-4.6,4.3c-2.4-0.6-0.3-4.3,0.2-6.9
			c0.4-2.3,6.2-30.4,7-34.7c1.1,0,2.2,0,3.3,0.3C77.4,140.2,72.2,174,72.2,174.1L72.2,174.1z M82.5,169.8c-0.2,3.1-0.5,5.4-0.6,6.2
			c-1.2,6.1-8.9,5.6-7.6-2.2c0.4-2.1,4.3-30.4,5.2-36.4c1.6,0.4,3.1,1,4.5,1.9C83.9,142.5,83.1,159.2,82.5,169.8L82.5,169.8z
			 M87.3,181.8c-1.5-0.9-2.7-2.5-2.7-7c0-4.1,0.6-30.3,0.8-34.5c1,0.8,1.7,1.9,2,3.2c0.3-1.3,1-2.4,2-3.2c0.1,4.2,0.8,30.4,0.8,34.5
			C90,179.2,88.8,180.9,87.3,181.8L87.3,181.8z M92.7,176.1c-0.1-0.8-0.3-3.1-0.6-6.2c-0.6-10.6-1.5-27.4-1.5-30.5
			c1.4-0.9,2.9-1.5,4.4-1.9c0.9,5.9,4.8,34.2,5.2,36.4C101.6,181.6,93.8,182.1,92.7,176.1L92.7,176.1z M107,178.4
			c-3.7,0.9-4-1.1-4.6-4.3c0-0.1-5.2-34-5.9-37c1.1-0.2,2.2-0.3,3.4-0.3c0.8,3.7,6.7,32.6,7,34.7C107.2,174.2,109.3,177.9,107,178.4
			z M113.2,168.6c0.6,2.6,1.3,4.9,2.3,6c-3.4,0.6-5.8,0-6.6-3.1c-1-4.9-6.4-29.1-7.8-34.4c0.7,0.1,1.4,0.4,2,0.9
			c0.9,0.6,1.7,1.3,2.5,2.1C107,145.3,112.6,166.5,113.2,168.6L113.2,168.6z M137.4,174.9c0.6-1.8,2.1-4.3,3.8-3.9
			c1.4,0.3,0.1,4.6,0.9,6.8c1.6,4.1-0.6,5.5-2.6,5.1c-2.1-0.5-1.2-6.3-1-7.2c0.1-1.4-0.6,0-1.1,0.7
			C137.2,175.9,137.2,175.4,137.4,174.9L137.4,174.9z M135.7,172.5c1.4,0.1,0.6,6.1,1.6,8.2s0.6,3.9-1.4,3.7s-1.9-6.3-1.9-7.3
			c0-1.5-0.8,0.8-1.2,1.6c-0.1-0.4-0.2-0.8-0.2-1.2c-0.1-0.8-0.1-1.6,0-2.3C133.1,173.7,134.2,172.4,135.7,172.5L135.7,172.5z
			 M130.5,166.5c0.4,0.7,1.2,1.2,1.4,1.6s0.2,1.7,0.6,2.6c0.2,0.4,0.4,0.8,0.6,1.2c-0.2,0.3-0.5,0.6-0.7,0.9c-0.5-1.1-1.7-1.5-2.8-1
			c-0.1,0.1-0.3,0.1-0.4,0.2c-0.7,0.5-1.3,1.1-1.7,1.8c0.2-1.5-0.1-2-0.7-2.6c-0.9-0.9-0.5-2.7-1.2-3.8c-0.5-0.9-1.6-1.1-2.2-2.5
			s-0.3-2-1-3.3c-0.7-1.2-1.1-2.6-1-4c1,1.2,2,2.3,3.1,3.3c0.4-2.2,0.6-4.3,0.5-6.5c1.3,1.1,2.4,2.4,3.1,3.9c0.3,0.7,0.5,2.6,0.6,3
			c0.3,0.7,0.7,1.4,1.1,2.1C130.2,164.2,130.1,165.8,130.5,166.5L130.5,166.5z M131,108.9c0,0.2,0,0.3,0,0.5
			C130.9,109.2,130.9,109.1,131,108.9L131,108.9z M136.8,131.4v5.5c-2.5-2-4.5-4.4-4.5-6.8c0-1.7-0.1-10-0.1-16
			c1.2,2,2.7,3.7,4.6,5.1C136.8,122.7,136.7,130.1,136.8,131.4L136.8,131.4z M132.2,99.4c1.2,2,2.8,3.7,4.6,5.1c0,1.1,0,2.2,0,3.1
			v7.7c-2.5-2-4.5-4.4-4.5-6.8C132.2,107.4,132.2,103.6,132.2,99.4L132.2,99.4z M132.3,93.7c0-1.8-0.1-11-0.1-17
			c1.1,2,2.7,3.7,4.5,5c0.2,1.8,0.2,3.6,0.1,5.3v9.3c0,1.6,0.2,3.1,0.6,4.7C134.5,98.8,132.2,96.3,132.3,93.7L132.3,93.7z
			 M144,139.9v9.5c-2.8-2.2-4.5-5.7-4.3-9.3v-7.7c0-1.4,0-4.1-0.1-6.2c1.2,1.5,2.7,2.8,4.3,3.8C144,133.2,144,138.9,144,139.9z
			 M139.7,116.3v-7.7c0-0.9,0-1.6,0-2.3c0.4,0.2,0.8,0.4,1.1,0.6c1,0.9,2,1.8,3.2,2.5c0.1,0.9,0.1,1.9,0.1,2.7v11.4
			c0,0.8,0.1,1.5,0.1,2.3C141.2,123.5,139.5,120,139.7,116.3L139.7,116.3z M139.7,95.7v-7.7c0-2,0-3.4-0.1-4.5l0.9,0.4
			c1,1.2,2.2,2.2,3.6,3c0,0.7,0,1.3,0,1.9v11.4c0,1.9,0.3,3.7,0.9,5.5C141.4,103.4,139.5,99.6,139.7,95.7L139.7,95.7z M152.3,147.5
			v13.2c-3.5-2.1-5.5-5.9-5.4-10V143c0-2.2-0.1-7.3-0.1-10.3c1.5,1.9,3.3,3.4,5.4,4.4C152.2,140.6,152.2,147,152.3,147.5
			L152.3,147.5z M146.9,122.8v-7.7c0-2.9-0.1-2.9-0.1-4.3c0.8,0.3,1.6,0.6,2.3,0.9c1,0.8,2.1,1.5,3.2,2.1v17.4c0,0.6,0,1.2,0.1,1.7
			C148.8,130.8,146.7,126.9,146.9,122.8L146.9,122.8z M146.9,99.5v-7.7c0-1.6,0-2.6,0-3.5c0.8,0.3,1.7,0.6,2.5,0.8
			c0.9,0.7,1.9,1.3,2.9,1.8v14.1c0,1.6,0.2,3.3,0.6,4.8C149.1,107.9,146.7,103.8,146.9,99.5L146.9,99.5z M155.2,160.2v-8.5
			c0-1.5,0-6.9-0.1-11c1.6,2,3.6,3.5,5.9,4.4c0,6.3,0,11.3,0,12.2v8c0,2.9,0,4.7,0.5,5.4C157.5,168.8,155,164.7,155.2,160.2
			L155.2,160.2z M155.2,130.6v-8.5c0-1.5,0-4.7-0.1-7.1c0.3,0.1,0.7,0.2,1,0.4c1.4,1.5,3.1,2.7,5,3.6c0.1,2.8,0,6.7,0,8.8v8.6l0,0
			v0.2c0,1.6,0.2,3.2,0.6,4.7C157.6,139.3,155,135.1,155.2,130.6L155.2,130.6z M155.2,104.5V96c0-1.5,0-2.8-0.1-3.8l1,0.4
			c1.4,1.5,3.1,2.7,5,3.6c0,1.8,0,3.6,0,5.5v8.3c0,1.8,0.2,3.5,0.7,5.2C157.6,113.2,155,109,155.2,104.5L155.2,104.5z M164,181.8
			v-6.5l0,0c0-4.1-0.1-7.7-0.1-8.9v-9.7c0-0.8,0-5,0-10.5c0.2,0.1,0.4,0.1,0.5,0.2c1.5,1.6,3.3,3,5.2,3.9v34.7c0,3,0.6,4.9,1.1,5.6
			C167.8,189.5,163.9,185.8,164,181.8L164,181.8z M164,137.8c0-1-0.1-9.1-0.1-10.7c0-1.8-0.1-4.8-0.2-7l1.4,0.6
			c1.3,1.3,2.9,2.4,4.5,3.2v17.3c0,2.9,0.6,4.9,1.1,5.6C167.8,145.5,163.9,142,164,137.8L164,137.8z M163.8,109.3v-8.4
			c0-1.4,0-2.6-0.1-3.7l1.4,0.5c1.3,1.3,2.9,2.4,4.5,3.2v13.6c0,3,0.6,4.9,1.1,5.7C166.4,118.3,163.7,114,163.8,109.3L163.8,109.3z
			 M163.8,86.4v-3l0,0c0-1.5,0-3,0-3.7c0-2.8-0.5-6.6-3.2-8.5c0.8,3.2,0.3,3.8,0.3,9.1V87c0,1.8,0.2,3.5,0.7,5.2
			c-4.1-1.9-6.7-6.1-6.5-10.6c0-2-0.5-10-2.9-13.4v14c0,1.7,0.2,3.3,0.7,4.9c-7.4-3.7-6.6-16.4-9-21.4c0,4.3,0.1,7.2,0.1,11.5
			c0,1.9,0.3,3.7,0.8,5.5c-6.4-4.1-7.2-12.2-7.7-18.2c-1.2,4.5-1.2,9.2,0.1,13.7c-4.3-3.3-6.7-10.4-6.4-15.4c-1,3.6-1,7.5,0,11.1
			c-0.2,4.7-0.2,42.1-0.2,46.2c-3.3-2.8-5.1-7-4.7-11.3c0.1-0.9,0.2-1.8,0.3-2.6c1.7-11.7,2.1-28.5-2.7-42c3.9,21-1,42.6-1.6,47
			c-1.2,7.8,1.4,23.9,6.9,41.7c-1.1-1.1-4.7-2.6-6.2-4.1c0,1.6,0.6,3.4,0.6,6.9c-1.9-3.2-2.6-3.3-4.6-6.8c0.4,2.6,0.6,5.3,0.4,8
			c-2-3.7-3-8.6-7.5-15.5c-10-15.5-24.3-5.9-24.3-3.2c0-2.7-14.3-12.3-24.3,3.2c-4.5,7-5.5,11.9-7.5,15.5c-0.1-2.7,0-5.4,0.5-8
			c-2,3.5-2.7,3.6-4.6,6.8c0-3.5,0.6-5.3,0.6-6.9c-1.5,1.5-5.1,3-6.2,4.1c5.5-17.8,8.1-33.9,6.9-41.7c-0.7-4.3-5.5-26-1.6-47
			c-4.8,13.4-4.5,30.3-2.7,42c0.1,0.8,0.2,1.7,0.3,2.6c0.4,4.3-1.4,8.5-4.7,11.3c0-4.1,0.1-41.4-0.2-46.2c1-3.6,1-7.5,0-11.1
			c0.3,5-2.1,12.1-6.4,15.4c1.3-4.5,1.3-9.2,0.1-13.7c-0.5,6-1.2,14.1-7.7,18.2c0.6-1.8,0.9-3.6,0.8-5.5c0-4.3,0.1-7.2,0.1-11.5
			c-2.3,4.8-1.6,17.5-9,21.2c0.4-1.6,0.7-3.2,0.6-4.9v-14c-2.4,3.4-2.9,11.4-2.9,13.4c0.1,4.5-2.4,8.7-6.5,10.6
			c0.5-1.7,0.8-3.4,0.8-5.2v-6.7c0-5.4-0.6-5.9,0.3-9.1c-2.7,1.8-3.2,5.6-3.2,8.5v3.7l0,0v3c0.2,4.7-2.6,9-6.9,10.9
			C4.4,96.6,5,94.6,5,91.6V62.3c0-8.2,9.6-17.7,13.2-21.9c9.9-11.6,14.2-2.2,24.1,1.2C58.8,47.2,67.6,41,67.6,41
			c8.8-5.5,8.8-10.8,8.8-14.1c0-2.5-0.9-5-2.4-6.9c-3-3-8.4-4-9.3-3.8c-2,1-3.8,1-4.2,1.3c-0.9-1.8-0.7-4.7,3.5-7
			c1.2-0.6,0.7-2.1,4.3-4.2c10.4-6,20.5-3.8,26.4,2.8c-2.4-1-5-1.6-7.6-1.8c6.2,2.3,11.4,6.8,14.6,12.6c1.6,2.7,5.1,10.2,6.3,12.4
			c2.7,4.8,7.4,14.9,24.3,9.2c9.9-3.3,14.2-12.7,24.1-1.2c3.6,4.2,13.2,13.7,13.2,21.9v29.3c0,2.9,0.6,4.9,1.1,5.7
			C166.4,95.5,163.6,91.1,163.8,86.4L163.8,86.4z"/>
		<path class="st10" d="M50,160.9c-0.4-2.2-0.5-4.3-0.5-6.5c-1.3,1.1-2.4,2.4-3.1,3.9c-0.3,0.7-0.5,2.6-0.6,3
			c-0.3,0.7-0.7,1.4-1.1,2.1c-0.3,0.8-0.3,2.4-0.6,3.1s-1.2,1.2-1.4,1.6s-0.2,1.7-0.6,2.6c-0.2,0.4-0.4,0.8-0.6,1.2
			c0.2,0.3,0.5,0.6,0.7,0.9c0.5-1,1.7-1.5,2.8-1c0.1,0.1,0.3,0.1,0.4,0.2c0.7,0.4,1.3,1.1,1.8,1.8c-0.2-1.5,0.1-2,0.7-2.6
			c0.9-0.9,0.5-2.7,1.2-3.8c0.5-0.9,1.6-1.1,2.2-2.5s0.3-2,1-3.3c0.7-1.2,1.1-2.6,1-4C52.2,158.7,51.1,159.9,50,160.9z"/>
		<path class="st10" d="M128.1,158.3c-0.7-1.5-1.8-2.9-3.1-3.9c0,2.2-0.1,4.4-0.5,6.5c-1.1-1-2.2-2.2-3.1-3.3c-0.1,1.4,0.3,2.8,1,4
			c0.7,1.3,0.3,2,1,3.3s1.7,1.6,2.2,2.5c0.7,1.1,0.4,2.9,1.2,3.8c0.6,0.6,0.9,1.1,0.7,2.6c0.4-0.7,1-1.3,1.7-1.8
			c0.9-0.7,2.2-0.5,2.9,0.4c0.1,0.1,0.2,0.3,0.2,0.4c0.2-0.3,0.4-0.6,0.7-0.9c-0.2-0.4-0.4-0.8-0.6-1.2c-0.4-0.9-0.3-2.1-0.6-2.6
			s-1-0.9-1.4-1.6s-0.3-2.3-0.6-3.1c-0.4-0.7-0.8-1.4-1.1-2.1C128.6,161,128.4,159,128.1,158.3z"/>
		<path class="st10" d="M130.9,109.4c0-0.2,0-0.3,0-0.5C130.9,109.1,130.9,109.2,130.9,109.4z"/>
		<path class="st1" d="M65.5,17.1c-1,0.6-2.1,1.2-3.2,1.8c0.5,0.5,4.5-0.2,5.2-0.4l0,0c1-0.2,1.1,0.1,2.2,0.6
			C67.9,17.9,66.7,17.2,65.5,17.1z"/>
		<path class="st11" d="M119.6,85.8c0,17.8-14.4,32.2-32.2,32.2c-17.8,0-32.2-14.4-32.2-32.2s14.4-32.2,32.2-32.2c0,0,0,0,0,0
			C105.1,53.6,119.5,68,119.6,85.8z"/>
		
			<linearGradient id="SVGID_7_" gradientUnits="userSpaceOnUse" x1="59.66" y1="142.1879" x2="114.44" y2="142.1879" gradientTransform="matrix(1 0 0 -1 0 228)">
			<stop  offset="1.000000e-02" style="stop-color:#E1E0E0"/>
			<stop  offset="5.000000e-02" style="stop-color:#E7E6E6"/>
			<stop  offset="0.16" style="stop-color:#F5F4F4"/>
			<stop  offset="0.3" style="stop-color:#FDFDFD"/>
			<stop  offset="0.54" style="stop-color:#FFFFFF"/>
			<stop  offset="0.68" style="stop-color:#FBFBFB"/>
			<stop  offset="0.81" style="stop-color:#F0F0F0"/>
			<stop  offset="0.94" style="stop-color:#DDDDDD"/>
			<stop  offset="0.97" style="stop-color:#D6D6D6"/>
		</linearGradient>
		<path class="st12" d="M114.4,85.8c0,15.1-12.2,27.4-27.4,27.4c-15.1,0-27.4-12.2-27.4-27.4c0-15.1,12.2-27.4,27.4-27.4
			c0,0,0,0,0.1,0C102.2,58.4,114.4,70.7,114.4,85.8C114.4,85.8,114.4,85.8,114.4,85.8z"/>
		<path class="st13" d="M112.9,76.6L112.9,76.6c-23.9-6.4-51.6,0-51.6,0C66.3,62.4,82,54.9,96.2,60C104,62.7,110.1,68.8,112.9,76.6z
			"/>
		<path class="st0" d="M112.9,94.9L112.9,94.9c-23.9,6.4-51.6,0-51.6,0c5,14.3,20.7,21.7,34.9,16.7
			C104,108.8,110.1,102.7,112.9,94.9z"/>
		
			<linearGradient id="SVGID_8_" gradientUnits="userSpaceOnUse" x1="92.4084" y1="142.0104" x2="74.8884" y2="131.0704" gradientTransform="matrix(1 0 0 -1 0 228)">
			<stop  offset="0" style="stop-color:#FFFFFF"/>
			<stop  offset="0.63" style="stop-color:#D6D6D6"/>
		</linearGradient>
		<path class="st14" d="M91.3,74.9c6.5,0.3,13.1,1,19.5,2.2c2.5,2.5,2.3,12.8,0.1,17.2c-5.9,1.2-11.8,1.9-17.8,2.2
			c-5.1,0.1-10.2,0-15.3-0.4c-0.3-3.4-0.4-6.9-0.3-10.3c0-7.4,0.3-10.5,0.3-10.5C82.3,74.9,86.8,74.8,91.3,74.9z"/>
		<path class="st15" d="M76,85.2c-0.1,8.8,0.5,17.6,1.8,26.3c-14.2-5.2-21.5-20.9-16.4-35.1c2.8-7.6,8.8-13.7,16.5-16.4
			C77.9,60,76,69.3,76,85.2z"/>
		<path class="st0" d="M87.3,119.4c-18.5,0-33.6-15-33.6-33.6s15-33.6,33.6-33.6s33.6,15,33.6,33.6l0,0
			C120.9,104.4,105.8,119.4,87.3,119.4z M87.3,54.6C70,54.6,56,68.6,56,85.9s14,31.3,31.3,31.3s31.3-14,31.3-31.3
			C118.6,68.6,104.6,54.6,87.3,54.6z"/>
		<path class="st0" d="M106.8,114.3c0,0-2.8-0.8-3.5-1l-0.9-3.5c0,0,0-0.1-0.1-0.1c0,0-0.1,0-0.1,0c0,0-1.6,2.3-2,2.9
			c-0.8,0-3.6-0.2-3.6-0.2c0,0-0.1,0-0.1,0c0,0,0,0.1,0,0.1l2.2,2.9c-0.3,0.7-1.4,3.4-1.4,3.4c0,0,0,0.1,0,0.1c0,0,0.1,0,0.1,0
			c0,0,0,0,0,0l3.4-1.4l2.7,2.1h0.1c0,0,0-0.1,0-0.1c0,0,0-3,0-3.4C104.2,115.8,106.7,114.4,106.8,114.3
			C106.7,114.4,106.7,114.3,106.8,114.3C106.7,114.3,106.7,114.3,106.8,114.3"/>
		<path class="st1" d="M103.9,114.8L103.9,114.8C104,114.7,104,114.7,103.9,114.8l-0.4-0.2l-1.2-0.4l-0.2-0.7l-0.2-1l0,0
			c0,0,0,0-0.1-0.1c0,0,0,0-0.1,0l-1.1,1.4H99l0,0l0,0l0,0l0,0l1.1,1.4l-0.3,0.9l-0.2,0.7c0,0,0,0,0,0.1l0,0h0.1l0.6-0.3l0.9-0.4
			l1.4,1.1h0.1c0,0,0,0,0-0.1v-1.8L103.9,114.8L103.9,114.8"/>
		<path class="st0" d="M77.7,112.5C77.7,112.5,77.7,112.5,77.7,112.5c-0.1,0-2.9,0.2-3.7,0.2c-0.5-0.6-2-2.9-2-2.9c0,0-0.1,0-0.1,0
			c0,0-0.1,0-0.1,0.1l-0.9,3.5c-0.8,0.2-3.5,1-3.5,1c0,0-0.1,0-0.1,0.1c0,0,0,0.1,0,0.1c0,0,2.4,1.4,3.1,1.8c0,0.5,0,3.4,0,3.4
			s0,0,0,0.1l0,0h0.1l2.8-2.1l3.4,1.4c0,0,0.1,0,0.1,0c0,0,0-0.1,0-0.1c0,0-1.1-2.7-1.4-3.4l2.2-2.9
			C77.6,112.6,77.6,112.5,77.7,112.5"/>
		<path class="st1" d="M74.7,114.6l0.6-0.8l0,0l0,0c0,0,0,0-0.1,0h-1.7l-0.5-0.7l-0.5-0.7l0,0c0,0,0,0-0.1,0s0,0-0.1,0.1l-0.4,1.7
			l-0.8,0.3l-0.8,0.3c0,0-0.1,0-0.1,0.1c0,0,0,0.1,0,0.1l1.4,0.8v1.8c0,0,0,0,0,0.1l0,0h0.1l0.9-0.7l0.5-0.4l1.1,0.4l0.4,0.2
			c0,0,0,0,0.1,0l0,0c0,0,0-0.1,0-0.1l-0.3-0.9l-0.2-0.7L74.7,114.6z"/>
		<path class="st0" d="M67.1,65.8l-3.3-1.7l-0.3-3.7c0,0,0-0.1,0-0.1c0,0-0.1,0-0.1,0c0,0-1.9,2.1-2.4,2.7l-3.3-0.8c0,0,0,0-0.1,0
			c0,0,0,0.1,0,0.1c0,0,1.1,2.4,1.4,3.1c-0.5,0.6-2,3-2,3c0,0,0,0.1,0,0.1c0,0,0,0,0.1,0s2.8-0.5,3.6-0.6l2.3,2.8c0,0,0,0,0.1,0l0,0
			c0,0,0,0,0.1,0c0,0,0.5-2.7,0.6-3.5c0.8-0.3,3.3-1.3,3.3-1.3c0,0,0,0,0-0.1C67.1,65.8,67.1,65.8,67.1,65.8"/>
		<path class="st0" d="M92.3,51.5C92.3,51.5,92.3,51.4,92.3,51.5l-3.7-0.3c-0.3-0.7-1.5-3-1.5-3l0,0c0,0,0,0-0.1,0c0,0,0,0-0.1,0
			c0,0-1.2,2.3-1.5,3.1c-0.8,0-3.6,0.2-3.6,0.2s-0.1,0-0.1,0.1c0,0,0,0.1,0,0.1c0,0,2.1,1.9,2.7,2.5l-0.7,3.5c0,0,0,0.1,0,0.1H84
			c0,0,2.4-1.4,3.1-1.7c0.7,0.3,3.1,1.7,3.1,1.7s0.1,0,0.1,0s0,0,0-0.1l-0.7-3.6c0.6-0.5,2.7-2.5,2.7-2.5
			C92.3,51.6,92.3,51.5,92.3,51.5"/>
		<path class="st1" d="M89.6,52.4C89.6,52.4,89.6,52.4,89.6,52.4l-1.7-0.1l-0.8-1.7c0,0,0-0.1-0.1-0.1c0,0-0.1,0-0.1,0.1l-0.8,1.7
			l-1.6,0.1h-0.1c0,0,0,0.1,0,0.1l1.2,1.2l-0.3,1.8c0,0,0,0.1,0,0.1c0,0,0.1,0,0.1,0l1.6-0.8l1.6,0.8l0,0l0,0c0,0,0-0.1,0-0.1
			l-0.3-1.8l1.2-1.2c0,0,0-0.1,0-0.1"/>
		<path class="st0" d="M117.2,68.5c0,0-1.6-2.3-2-3c0.4-0.7,1.4-3.1,1.4-3.1c0,0,0-0.1,0-0.1c0,0-0.1,0-0.1,0l-3.3,0.8
			c-0.5-0.6-2.4-2.7-2.4-2.7s0,0-0.1,0c0,0,0,0.1,0,0.1l-0.3,3.7l-3.3,1.7c0,0,0,0,0,0.1c0,0,0,0.1,0.1,0.1s2.6,1,3.3,1.3
			c0.2,0.8,0.6,3.5,0.6,3.5s0,0.1,0.1,0.1l0,0c0,0,0,0,0.1,0l2.3-2.8c0.8,0.1,3.6,0.6,3.6,0.6s0.1,0,0.1,0S117.2,68.6,117.2,68.5"/>
		<path class="st1" d="M114.8,66.9l-1-1.3l0.8-1.7c0,0,0-0.1,0-0.1c0,0-0.1,0-0.1,0l-1.8,0.4l-1-1.2c0,0-0.1,0-0.1,0c0,0,0,0,0,0.1
			l-0.1,1.7l-1.6,0.8c0,0,0,0-0.1,0.1c0,0,0,0,0.1,0.1l1.6,0.7l0.3,1.7l0,0l0,0c0,0,0,0,0.1,0l1.2-1.4l1.7,0.2c0,0,0.1,0,0.1,0
			C114.8,67,114.8,67,114.8,66.9C114.8,66.9,114.8,66.9,114.8,66.9"/>
		<path class="st1" d="M64.3,65.6l-1.6-0.8l-0.1-1.7c0,0,0-0.1-0.1-0.1c0,0-0.1,0-0.1,0l-1,1.2l-1.8-0.4c0,0-0.1,0-0.1,0
			c0,0,0,0.1,0,0.1l0.8,1.7l-1,1.3c0,0,0,0.1,0,0.1c0,0,0,0,0.1,0l1.7-0.2l1.2,1.4c0,0,0,0,0,0l0,0c0,0,0,0,0.1,0l0.3-1.7L64.3,65.6
			C64.3,65.7,64.3,65.7,64.3,65.6C64.3,65.6,64.3,65.6,64.3,65.6"/>
		<path class="st0" d="M60.5,95.3l-2.3-2.7c0.2-0.8,1-3.4,1-3.4c0,0,0-0.1,0-0.1c0,0-0.1,0-0.1,0l-3.4,1.5c-0.7-0.4-3-2.1-3-2.1
			c0,0-0.1,0-0.1,0c0,0,0,0,0,0.1s0.4,2.8,0.5,3.6l-2.7,2.1c0,0,0,0.1,0,0.1c0,0,0,0.1,0.1,0.1c0,0,2.6,0.6,3.3,0.8
			c0.2,0.8,1,3.4,1,3.4s0,0.1,0.1,0.1l0,0c0,0,0,0,0.1,0c0,0,1.4-2.5,1.8-3.1l3.6-0.1c0,0,0.1,0,0.1-0.1
			C60.6,95.4,60.6,95.4,60.5,95.3"/>
		<path class="st1" d="M58.1,94.2L57,92.9l0.4-1.7c0,0,0,0,0-0.1c0,0,0,0-0.1,0c0,0,0,0,0,0l-1.7,0.7l-1.4-0.9c0,0-0.1,0-0.1,0
			c0,0,0,0.1,0,0.1l0.2,1.6L53,93.7c0,0,0,0.1,0,0.1c0,0,0,0.1,0.1,0.1l1.8,0.4l0.4,1.6c0,0,0,0.1,0.1,0.1l0,0c0,0,0,0,0.1,0
			l0.9-1.4h1.8c0,0,0,0,0.1,0c0,0,0-0.1,0-0.1"/>
		<path class="st0" d="M123.7,94.3l-2.7-2.1c0.2-0.8,0.6-3.6,0.6-3.6s0,0,0-0.1c0,0-0.1,0-0.1,0c0,0-2.3,1.7-3,2.1l-3.3-1.5
			c0,0-0.1,0-0.1,0c0,0,0,0.1,0,0.1c0,0,0.8,2.6,1,3.4c-0.5,0.6-2.3,2.7-2.3,2.7c0,0,0,0.1,0,0.1c0,0,0,0.1,0.1,0.1l3.6,0.1
			c0.4,0.7,1.8,3.1,1.8,3.1c0,0,0,0,0.1,0l0,0c0,0,0.1,0,0.1-0.1c0,0,0.8-2.7,1-3.4C121.1,95,123.7,94.4,123.7,94.3
			C123.7,94.4,123.7,94.3,123.7,94.3C123.8,94.3,123.8,94.2,123.7,94.3"/>
		<path class="st1" d="M121.2,93.7l-1.5-1.1l0.3-1.6c0,0,0-0.1,0-0.1c0,0-0.1,0-0.1,0c0,0,0,0,0,0l-1.4,0.9l-1.6-0.7
			c0,0-0.1,0-0.1,0c0,0,0,0,0,0.1l0.4,1.7l-1.2,1.3c0,0,0,0.1,0,0.1c0,0,0,0,0.1,0h1.8l0.9,1.4c0,0,0,0,0.1,0l0,0c0,0,0.1,0,0.1-0.1
			l0.4-1.6L121.2,93.7C121.2,93.8,121.2,93.8,121.2,93.7C121.3,93.7,121.3,93.7,121.2,93.7"/>
		<path class="st1" d="M133.2,206.5c0.4,1.5-0.6,3-2,3.3c0,0,0,0-0.1,0c-1.2,0.4-2.6,0-3.4-1.1c0.5,0.6,1.4,0.8,2.1,0.6
			c1-0.2,1.6-1.2,1.4-2.2c0,0,0,0,0,0l0,0c-0.4-1.4-0.8-2.7-1.2-4.1c-0.2-0.5-0.7-0.7-1.1-0.6c0,0,0,0-0.1,0c0.7-1.1,1.3-2.2,2-3.3
			C131.6,201.6,132.4,204,133.2,206.5z"/>
		<path class="st1" d="M77.4,215.9c0.5,0.1,0.9-0.3,1-0.8c0-0.5-0.4-0.9-0.9-0.9c-0.5,0-1,0.3-1.1,0.8
			C76.4,215.4,76.9,215.9,77.4,215.9C77.4,215.9,77.4,215.9,77.4,215.9z"/>
		<path class="st1" d="M51,197.4c-0.5-0.2-1,0.1-1.1,0.6c-0.2,0.5,0,1,0.5,1.2c0.5,0.2,1,0,1.2-0.5C51.8,198.2,51.6,197.7,51,197.4
			C51.1,197.5,51,197.5,51,197.4z"/>
		<path class="st1" d="M116.1,200.6c-0.5,0.1-0.7,0.6-0.6,1.1c0.1,0.5,0.6,0.7,1.1,0.6c0.4-0.1,0.7-0.6,0.6-1
			C117.1,200.8,116.6,200.5,116.1,200.6z"/>
		<path class="st1" d="M81.4,216.1c0.5,0.1,0.9-0.3,1-0.8c0-0.6-0.4-1-1-1s-1,0.4-1,1C80.5,215.7,80.9,216.1,81.4,216.1
			C81.4,216.1,81.4,216.1,81.4,216.1z"/>
		<path class="st1" d="M75,215.6c0.5,0.1,0.9-0.2,1-0.6c0.1-0.5-0.2-0.9-0.6-1c-0.1,0-0.2,0-0.3,0c-0.5-0.1-1,0.2-1.1,0.8
			C74.1,215.2,74.5,215.6,75,215.6C75,215.6,75,215.6,75,215.6z"/>
		<path class="st1" d="M53.1,198c-0.5-0.2-1,0.1-1.1,0.6c0,0,0,0,0,0c-0.2,0.5,0.1,1,0.6,1.2c0.5,0.2,1-0.1,1.2-0.6
			C53.9,198.8,53.7,198.2,53.1,198C53.2,198.1,53.1,198.1,53.1,198L53.1,198z"/>
		<path class="st1" d="M118.3,200.1c-0.5,0.1-0.8,0.5-0.7,1c0.1,0.5,0.6,0.7,1.1,0.6c0,0,0,0,0,0c0.5-0.1,0.8-0.5,0.8-1
			c-0.1-0.5-0.5-0.8-1-0.8C118.4,200,118.4,200.1,118.3,200.1L118.3,200.1z"/>
		<path class="st1" d="M153.4,197.3L153.4,197.3c-0.3-0.5-0.5-1-0.8-1.5l0,0c-2-4.1-4.1-8.1-6.1-12.2c1.2,0.3,2.3,0.6,3.5,0.9
			c-0.5,0.3-0.6,1-0.3,1.5l5.4,10.4L153.4,197.3z"/>
		<path class="st1" d="M105.2,211.8L105.2,211.8c-0.6-5.1-1.2-10.1-1.8-15.2l3,2c-0.5,0.2-0.9,0.8-0.7,1.3l1.6,11.6L105.2,211.8z"/>
		<path class="st1" d="M64.8,211L64.8,211c0.8-5.1,1.6-10.1,2.4-15.1c0.8,0.9,1.5,1.9,2.3,2.8c-0.6,0-1,0.5-1.1,1.1
			c-0.6,3.9-1.1,7.8-1.7,11.6C66.1,211.2,65.5,211.1,64.8,211z"/>
		<path class="st1" d="M127.3,207.4L127.3,207.4c-0.2-0.6-0.3-1.1-0.5-1.6l0,0c-1.2-4.4-2.5-8.8-3.7-13.1c1.1,0.5,2.2,1,3.3,1.5
			c-0.5,0.3-0.8,0.9-0.5,1.4c1.1,3.8,2.2,7.5,3.3,11.3L127.3,207.4z"/>
		<path class="st1" d="M125.3,207.9c-0.7-2.7-1.4-5.5-2.2-8.2c-0.7,1-1.4,2-2.2,3c0.6-0.1,1.1,0.3,1.2,0.9c0.3,1.1,0.5,2.1,0.8,3.2
			c-2.8,0.7-5.7,1.3-8.6,1.9l-1.2,0.2c-0.6-0.4-1.2-0.7-1.8-1.1c1.5-1.6,2.1-3.7,1.7-5.8c-0.1,2.8-2,5.2-4.8,6
			c1.4,0.9,2.9,1.9,4.4,2.8c0.7-0.1,1.3-0.2,1.9-0.4l0,0C118.3,209.6,121.9,208.8,125.3,207.9z"/>
		<path class="st1" d="M139.3,197.4L139.3,197.4c1.2,0.4,2.4,0.9,3.7,1.3l1.2,2.8c-0.9,0.4-1.8,0.8-2.8,1.1
			c-0.2-0.5-0.4-1.1-0.6-1.6l0.9-0.4c-0.1-0.2-0.2-0.4-0.3-0.6c-0.4-0.1-0.8-0.3-1.2-0.4l0,0C139.9,198.9,139.6,198.1,139.3,197.4z
			 M134.8,205L134.8,205l-0.6-1.6l0,0l-4.4-12.9c1.1,0.5,2.2,0.9,3.3,1.4c-0.5,0.3-0.7,0.9-0.5,1.4c1.1,3.1,2.2,6.3,3.4,9.5l1.9-0.7
			l-0.5-1.3c0.6-1.1,1.2-2.3,1.8-3.4c0.3,0.7,0.6,1.5,0.9,2.2l-0.6,1.1c0.1,0.2,0.2,0.4,0.2,0.6l0.9-0.4c0.2,0.5,0.4,1.1,0.6,1.6
			c-1.6,0.6-3.1,1.2-4.7,1.8l-0.5,0.2L134.8,205z"/>
		<path class="st1" d="M94.5,204.1L94.5,204.1c0.8,0.1,1.5,0.6,1.9,1.2l2.2-0.1c-0.8,1.9-1.8,3.8-2.7,5.6c1.7-0.1,3.4-0.2,5.1-0.4
			c-0.3-3.3-0.6-6.7-0.9-10c0-0.6-0.4-1.1-1-1.1c0.8-0.9,1.6-1.8,2.4-2.6c0.6,5.1,1.1,10.2,1.6,15.3l0,0l-1.7,0.2h-0.3
			c-2.1,0.2-4.2,0.4-6.4,0.4c-0.1-1.1-0.1-2.3-0.2-3.4l0,0c0.4-0.7,0.7-1.4,1-2.1h-0.6c0-0.4-0.3-0.8-0.6-1l0,0
			C94.5,205.5,94.5,204.8,94.5,204.1z M88.7,213.6c-0.1,1.5-1.4,2.6-2.9,2.6c0,0-0.1,0-0.1,0c-1.3,0-2.5-0.8-2.9-2.1
			c0.3,0.7,1.1,1.2,1.9,1.2c1,0.1,1.9-0.7,2-1.7l0,0c0-1.4,0-2.8,0-4.3c0-0.5-0.3-0.9-0.8-0.9c0,0-0.1,0-0.1,0
			c1-0.9,1.9-1.7,2.8-2.6c0,1.7,0,3.4,0,5.1c1.7,0,3.3-0.1,5-0.1c-1.1-1.8-2.2-3.6-3.2-5.4l2.2-0.1c0.4-0.7,1-1.2,1.8-1.4
			c0,0.7,0,1.3,0.1,2c-0.3,0.3-0.5,0.6-0.5,1.1h-0.6c0.4,0.7,0.8,1.3,1.2,2c0.1,1.1,0.1,2.3,0.2,3.4c-2.1,0.1-4.2,0.2-6.3,0.2
			L88.7,213.6z"/>
		<path class="st1" d="M56.1,209.3c1.6,0.4,3.2,0.7,4.8,1h0.2l1.7,0.3l0,0c0.9-5,1.7-10.1,2.6-15.1c-1,0.6-2,1.3-3.1,1.9
			c0.5,0.2,0.8,0.8,0.7,1.4c-0.6,3.3-1.2,6.6-1.8,9.9l-1.9-0.4c0.1-0.4,0.2-0.9,0.3-1.3c-0.8-1-1.5-2.1-2.3-3.1
			c-0.2,0.8-0.3,1.6-0.5,2.3c0.3,0.4,0.5,0.7,0.8,1c0,0.2-0.1,0.4-0.1,0.7l-1-0.2C56.4,208.2,56.2,208.8,56.1,209.3z M43.7,204.2
			L43.7,204.2l0.2-0.6c0.4-1.6-0.6-3.1-2.1-3.6l-0.4-0.1l0,0c-3.6-1.2-7.1-2.6-10.5-4.2c0.2-0.5,0.5-1,0.7-1.6
			c0.2-0.4,0.7-0.6,1.2-0.4c0,0,0,0,0,0c-0.5-1.2-1-2.3-1.5-3.5l-2.9,6.2c4.2,1.9,8.5,3.7,12.8,5.2c0.6,0.2,0.9,0.8,0.8,1.3l0,0
			c-0.1,0.2-0.2,0.4-0.2,0.6l0,0l-0.6,1.8l-1.2,0.5c-0.2-0.4-0.5-0.8-0.7-1.2l0.6-1.7l-1.4-0.5l-0.5-0.2c-3.5-1.3-7-2.8-10.4-4.3
			l-0.7,1.6c3.5,1.6,7,3.1,10.5,4.4c-0.1,0.3-0.2,0.5-0.3,0.8c0.7,1.2,1.3,2.3,2,3.4l0,0c1.2-0.5,2.4-0.9,3.7-1.4
			c0.1-0.3,0.2-0.6,0.3-0.8c1.4,0.4,2.7,0.9,4.1,1.3c0.3,0.4,0.6,0.7,1,1c-0.2-0.3-0.3-0.6-0.5-0.9c1.1,0.3,2.3,0.6,3.4,0.9
			c1.6,0.4,3.2,0.8,4.8,1.2c0.1-0.6,0.2-1.1,0.4-1.7c-0.3-0.1-0.6-0.1-1-0.2c0-0.2,0.1-0.4,0.2-0.7l1.1-0.6l0,0
			c0.2-0.8,0.3-1.6,0.5-2.3l0,0c-1.1,0.6-2.2,1.2-3.4,1.8c-0.1,0.4-0.2,0.9-0.3,1.3c-0.7-0.2-1.3-0.3-1.9-0.5c0.5-1.9,1-3.7,1.5-5.6
			c-1.1,0.5-2.2,1-3.4,1.6c0.5,0.2,0.8,0.9,0.6,1.4c-0.2,0.7-0.4,1.4-0.6,2.1l-0.8-0.2l0,0c-0.5-0.1-1.1-0.3-1.6-0.4
			c0-0.7,0.1-1.3,0.2-2c0.4-2.1,1-4.5-1.6-7.3l-2.3,1.1c1.6,0.6,2.7,2,2.9,3.6c0.3,1.7-0.6,2.9-0.2,4.3
			C45.4,204.8,44.5,204.5,43.7,204.2L43.7,204.2z"/>
		<path class="st1" d="M72.8,210.3l1,0.1c0.1-0.7,0.2-1.4,0.2-2.2c-0.3,0.1-0.7,0.2-1,0.2c0.1-0.6,0.1-1.3,0.2-1.9
			c0.6-0.2,1-0.7,1.1-1.3l0.5-4.9c0.1-0.6-0.2-1.1-0.8-1.3c1-0.7,1.9-1.4,2.9-2.1c-0.4,4.6-0.8,9.1-1.2,13.6c1,0.1,2.1,0.2,3.1,0.2
			c0-0.7,0.1-1.5,0.1-2.2c0.1-0.6-0.3-1.1-0.9-1.2c1-0.7,2-1.5,3-2.2c-0.1,1.9-0.2,3.9-0.3,5.8l2,0.1c0-0.8,0-1.5,0.1-2.2
			c0.1-0.6-0.3-1.1-0.9-1.2c1-0.8,1.9-1.5,2.9-2.3c-0.1,2.5-0.1,5-0.2,7.5c-2.9-0.1-5.8-0.2-8.7-0.4l0,0l-3.3-0.3
			C72.7,211.5,72.8,210.9,72.8,210.3z M72.8,208.5L72.8,208.5c-0.4,0-0.8,0.4-0.9,0.8c0,0.3-0.1,0.6-0.1,0.9l1,0.1
			c-0.1,0.6-0.1,1.1-0.2,1.7l-0.6-0.1l0,0l-2.3-0.3c0.1-0.9,0.2-1.7,0.3-2.6c0.2-1.3,1.3-2.2,2.6-2.2c0.2-0.1,0.4-0.2,0.6-0.2
			c-0.1,0.6-0.1,1.3-0.2,1.9L72.8,208.5z"/>
		<path class="st1" d="M23.1,195.7l0.9,0.4c0.3-0.6,0.6-1.3,1-1.9c-0.4,0-0.7,0-1.1-0.1l0.9-1.7c0.6,0,1.2-0.3,1.5-0.8l2.2-4.4
			c0.3-0.5,0.2-1.1-0.3-1.5c1.2-0.3,2.4-0.6,3.5-0.9c-2.2,4.6-4.4,9.2-6.6,13.9c-0.9-0.4-1.8-0.9-2.7-1.3L23.1,195.7z M23.8,194.1
			L23.8,194.1c-0.4-0.1-0.9,0-1.2,0.4l-0.4,0.8c0.3,0.2,0.6,0.3,0.9,0.5l-0.8,1.5l-2.7-1.4c0.4-0.8,0.8-1.5,1.2-2.3
			c0.7-1.1,2.1-1.6,3.3-1.1c0,0,0.3,0,0.6,0l-0.8,1.7C23.9,194.1,23.9,194.1,23.8,194.1L23.8,194.1z"/>
		<path class="st1" d="M73.3,197.5c0.1-0.5-0.3-0.9-0.8-1c-0.5-0.1-0.9,0.3-1,0.8s0.3,0.9,0.8,1C72.8,198.3,73.3,198,73.3,197.5
			L73.3,197.5z"/>
		<path class="st1" d="M73.1,199.5c0.1-0.5-0.3-0.9-0.8-1c0,0,0,0,0,0c-0.5-0.1-0.9,0.3-1,0.7c-0.1,0.5,0.3,0.9,0.8,1c0,0,0,0,0,0
			C72.5,200.4,73,200,73.1,199.5C73.1,199.6,73.1,199.5,73.1,199.5z"/>
		<path class="st1" d="M25.5,184.9c-0.2,0.4,0,1,0.4,1.2c0.4,0.2,1,0.1,1.2-0.3c0,0,0,0,0,0c0.2-0.4,0-1-0.4-1.2
			C26.3,184.3,25.7,184.5,25.5,184.9z"/>
		<path class="st1" d="M26.5,183.1c-0.2,0.4,0,1,0.4,1.2c0,0,0,0,0,0c0.4,0.2,0.9,0.1,1.2-0.3c0,0,0,0,0,0c0.2-0.4,0-1-0.4-1.2
			c0,0,0,0,0,0C27.2,182.5,26.7,182.7,26.5,183.1z"/>
		<path class="st1" d="M147,193.1c-1.2-2.7-2.5-5.3-3.8-8c1.3,0.4,2.5,0.8,3.8,1.2c-0.5,0.4-0.7,1-0.5,1.6c0.8,1.7,1.6,3.4,2.5,5.1
			c-0.3,0.6-0.5,1.3-0.8,1.9l2,0.6c0.4,0.9,0.9,1.9,1.3,2.8c-0.9,0.4-1.8,0.9-2.7,1.3c-0.2-0.5-0.5-1-0.7-1.6l0.9-0.4
			c-0.1-0.2-0.2-0.4-0.3-0.6l-1.3-0.4l0,0c-0.3-0.7-0.7-1.5-1-2.2l0,0C146.7,193.9,146.8,193.5,147,193.1z M148.8,199.5l-2.7,1.2
			c-0.4-0.9-0.8-1.9-1.2-2.8c0.3-0.6,0.6-1.2,0.9-1.9l-2-0.6c0-0.1-0.1-0.2-0.1-0.3c-0.7-1.6-1.4-3.2-2.1-4.8
			c-0.3-0.5-0.9-0.8-1.5-0.7c0.5-1.2,1.1-2.4,1.6-3.7l3.6,8.1l1.2,0.4c0.3,0.7,0.7,1.4,1,2.2l-0.5,1.2c0.1,0.2,0.2,0.4,0.3,0.6
			l0.9-0.4C148.4,198.4,148.6,198.9,148.8,199.5L148.8,199.5z"/>
		<path class="st1" d="M150.8,201.4l1.2,0.4c-1.2,0.6-2.4,1.1-3.7,1.7c0.2-0.3,0.3-0.7,0.5-1c0.1,0.1,0.3,0.1,0.6,0
			c-0.7-0.6,0.1-1.6,1-1.3c-0.1,0-0.2,0-0.3,0.1c-0.2,0.1-0.3,0.3-0.3,0.5c0.1,0.2,0.3,0.3,0.5,0.3c0,0,0.1,0,0.1,0
			C150.7,201.9,150.8,201.6,150.8,201.4z"/>
		<path class="st1" d="M294.3,52.6h7.9V76c0,0.7,0.3,0.8,0.9,0.8c1.6,0,3.2-0.1,4.7-0.3c0-0.9-0.1-2.3-0.1-5.4V52.6h7
			c0.9-0.2,2.1-1.3,2.3-3.7h-15.7c-4.4,0-5.6,0-6.3-0.2c-0.7,0.7-1.1,1.6-1.5,2.5C293.3,52.3,293.6,52.6,294.3,52.6z M654.1,75.5
			l0.7,0.8c2.6,0.3,5.2,0.5,7.8,0.4c2,0.1,4,0,6-0.2c1.3-0.7,2.1-2,2.3-3.5l-0.1-0.1c-2.1,0.2-5.3,0.2-7.1,0.2
			c-1.4,0-2.7-0.1-4.1-0.3v-8.6h6.7c1.5,0,2.5-0.6,2.9-3.7h-9.6v-7.9h4.6c1.4,0.1,2.8,0,4.1-0.3c0.8-1,1.3-2.1,1.3-3.4h-10.7
			c-1.7,0-3.4,0.2-5,0.6c0.1,1.8,0.1,3.4,0.1,5.5L654.1,75.5z M271.4,50.3v12.3c0,2.2,0,3.9,0.2,7.3c-1.4-2.7-3-5.3-4.7-7.8
			c-3.2-4.9-6.8-10.4-8.2-12.4c-0.4-0.5-0.8-0.8-1.2-0.8c-0.8,0-4.6,0.2-5.4,0.3v0.2l0.8,1.1v18.2c0,3.7,0,6.2-0.1,8
			c1.2,0,2.4,0,3.5-0.2c0.7-0.1,1-0.3,1-1.2V63.9c0-2.2,0-4.5-0.2-9c1.8,3.4,3.1,5.9,5.4,9.5c3.5,5.4,5.7,8.8,8,12
			c0.2,0.4,0.6,0.6,1.1,0.6c1.4-0.1,2.8-0.3,4.2-0.7V56.9c0-3.7,0-6.2,0.1-8.1c-1.2,0-2.4,0.1-3.6,0.2
			C271.7,49.1,271.4,49.2,271.4,50.3z M682,73.2c-2.3-0.1-4.5-0.8-6.3-2.1c-0.6,0.8-1,1.8-1,2.8c0,0.6,0.3,1,1,1.5
			c1.9,1.2,4.1,1.8,6.3,1.7c5.2,0,10-3,10-8.4c0-4.2-2.2-5.9-6.2-8.1s-5.5-3.4-5.5-5.5s1.7-3,4-3c1.5,0.1,3,0.4,4.3,1.1
			c1.5,0.1,2.2-1.7,2.2-2.8c-1.1-1.2-4-2.1-6.3-2.1l0,0c-7.3,0-9.4,4.8-9.4,7.8c0,2.7,0.9,5.5,6,8.2c4.4,2.4,5.5,3.5,5.5,5.5
			C686.5,72,684.6,73.2,682,73.2z M468,76.2c2.4,0.5,4.9,0.7,7.4,0.8c6.9,0,11.8-3,11.8-8.9c0-2.9-1.8-5.5-5.6-6.6
			c2.3-1.1,3.7-3.3,3.8-5.9c0-2.7-1.3-6.9-9.5-6.9c-2.7,0-5.4,0.3-8.1,0.8c0.1,2,0.1,3.3,0.1,5.6L468,76.2z M473.4,52.2
			c0.7-0.1,1.5-0.2,2.2-0.2c2.8,0,4.6,1.6,4.6,4.4c0,2.2-1,3.7-2.1,4.3c-1.6-0.1-3.1,0-4.7,0.2L473.4,52.2z M473.4,64
			c0.7-0.1,1.3-0.2,2-0.1c3.6,0,5.8,1.6,5.8,4.5c0,3.4-2.3,5.2-5.5,5.2c-0.8,0-1.5-0.1-2.3-0.2L473.4,64z M222.3,63.9
			c0,9.5,4,13.3,11.4,13.3c5.4,0,11.9-1.8,11.9-14.1v-6.2c0-3.7,0-6.2,0.1-8c-0.9,0-2.6,0-3.9,0.2c-0.6,0.1-1,0.3-1,1.1v13.2
			c0,8.4-3,9.9-6.6,9.9c-3,0-6.6-1.3-6.6-9.5V51.4c0-2.2-0.1-2.5-0.9-2.5s-3.9,0.2-4.7,0.3c0.1,0.9,0.1,2.7,0.1,5.7L222.3,63.9z
			 M288.9,51.2c0-2-0.1-2.4-0.9-2.4c-0.9,0-4,0.2-4.8,0.3c0.1,0.8,0.1,2.6,0.1,5.6v21.1c0,0.8,0.3,0.9,0.9,0.9
			c1.6,0,3.2-0.1,4.7-0.3c0-0.9-0.1-2.3-0.1-5.4V51.2z M503.3,75.5l0.7,0.8c2.6,0.3,5.2,0.5,7.8,0.4c2,0.1,4,0,6-0.2
			c1.3-0.7,2.2-2,2.3-3.5l-0.1-0.1c-2.1,0.2-5.3,0.2-7.1,0.2c-1.4,0-2.7-0.1-4.1-0.3v-8.6h6.7c1.5,0,2.5-0.6,2.9-3.7h-9.6v-7.9h4.6
			c1.4,0.1,2.8,0,4.1-0.3c0.8-0.9,1.3-2.1,1.3-3.4h-10.7c-1.7,0-3.4,0.2-5,0.6c0.1,1.8,0.1,3.4,0.1,5.5L503.3,75.5z M605.3,76.1
			c0.6-1.4,1.8-4.7,2.9-7.2h10c1,2.5,1.6,4.2,2.4,6.4c0.4,1.2,0.8,1.4,1.5,1.4c1.7,0,3.3-0.2,4.9-0.5V76c-0.9-1.8-1.9-4.6-3.7-9.1
			c-1.5-3.8-4.9-12.5-6.9-17.3c-0.1-0.4-0.5-0.8-1-0.8c-1.6,0.1-3.1,0.2-4.6,0.5l0.4,0.9c-1.7,4-8.5,20.4-10.8,25.8v0.2
			c1.3,0.3,2.6,0.5,3.9,0.6C604.8,76.7,605.2,76.5,605.3,76.1z M613.3,55.1c0.5,1.4,1.8,4.7,3.8,10.2h-7.7
			C610.9,61.5,612.2,58,613.3,55.1L613.3,55.1z M568.6,71V51.2c0-2-0.1-2.4-0.9-2.4c-0.9,0-4,0.2-4.8,0.3c0.1,0.8,0.1,2.6,0.1,5.6
			v21.1c0,0.8,0.3,0.9,0.9,0.9c1.6,0,3.1-0.1,4.7-0.3C568.7,75.5,568.6,74.1,568.6,71z M593.7,76.8c1.2,0.1,2.4-0.1,3.6-0.4v-0.2
			c-1.8-2.1-3.3-4.4-4.6-6.9c-1-2.1-2.3-4-3.9-5.7c1.8-0.8,5.3-2.8,5.3-7c0-5.6-3.5-8-10.5-8c-2.5,0.1-5.1,0.3-7.6,0.8
			c0.1,1.2,0.1,2.3,0.1,4.5v14.8c0,3.7,0,6.3-0.1,8c0.9,0,3.3,0,4.5-0.2c0.8-0.1,1-0.3,1-1.2V65.3h0.8c1.5,0,2.3,0.3,3.7,2.9
			c1.1,2.3,2.4,4.6,3.8,6.7C590.7,76.2,592.2,76.9,593.7,76.8z M585.7,61.8c-1.4,0.3-2.8,0.4-4.2,0.3v-10c0.6-0.1,1.3-0.1,1.9-0.1
			c2.7,0,5,1.5,5,5.2C588.6,59.1,587.5,60.9,585.7,61.8L585.7,61.8z M335.9,76.5c1.3-0.7,2.1-2,2.3-3.5l-0.1-0.1
			c-2.1,0.2-5.3,0.2-7.1,0.2c-1.4,0-2.7-0.1-4.1-0.3v-8.6h6.7c1.5,0,2.5-0.6,2.9-3.7h-9.6v-7.9h4.6c1.4,0.1,2.8,0,4.1-0.3
			c0.8-1,1.3-2.1,1.3-3.4h-10.7c-1.7,0-3.4,0.2-5,0.6c0.1,1.8,0.1,3.4,0.1,5.5v20.3l0.7,0.8c2.6,0.3,5.2,0.5,7.8,0.4
			C331.9,76.8,333.9,76.7,335.9,76.5z M627.7,48.8c-0.7,0.7-1.1,1.6-1.5,2.5c-0.3,1,0,1.3,0.8,1.3h7.9V76c0,0.7,0.3,0.8,0.9,0.8
			c1.6,0,3.2-0.1,4.7-0.3c0-0.9-0.1-2.3-0.1-5.4V52.6h7c0.9-0.2,2.1-1.3,2.3-3.7H634C629.6,49,628.4,48.9,627.7,48.8z M541,76.2
			c0.8-0.1,1.4-0.7,1.6-1.4c2.8-8.3,5.4-15.6,6.7-19.4l1.3,11.1c0.5,4.7,0.7,7,1,9.3c0,0.6,0.5,1.1,1.1,1.1c0,0,0.1,0,0.1,0
			c1.5,0,2.9-0.1,4.4-0.4c-0.4-2.1-0.9-5.4-1.6-10l-2.3-16.2c-0.1-1.1-0.4-1.4-0.8-1.4c-1.6,0-3.1,0.2-4.7,0.6v0.7
			c-1.8,4.5-4.8,12.4-7,18.2l-5.9-16.4c-0.8-2.2-1.2-2.9-1.8-3c-1.6,0-3.2,0.2-4.8,0.6l0.1,0.8c-1.7,10-3.5,21.4-4.3,26.1
			c0.7,0.4,2.7,0.4,3.9,0.4c0.4,0,0.8-0.2,0.8-0.6c0,0,0,0,0-0.1c0.7-5.2,2-15.2,2.6-20.6c2,6,5.9,17.7,6.9,21.1
			C539.2,76.5,540.1,76.4,541,76.2z M397.2,49.6c-0.1-0.4-0.5-0.8-1-0.8c-1.6,0.1-3.1,0.2-4.6,0.5l0.4,0.9
			c-1.7,4-8.5,20.4-10.8,25.8v0.2c1.3,0.3,2.6,0.5,3.9,0.6c0.7,0,1.1-0.2,1.2-0.6c0.6-1.4,1.9-4.7,2.9-7.2h9.9
			c1,2.5,1.6,4.2,2.4,6.4c0.4,1.2,0.8,1.4,1.5,1.4c1.7,0,3.3-0.2,4.9-0.5v-0.2c-0.9-1.8-1.9-4.6-3.8-9.1
			C402.6,63.1,399.2,54.4,397.2,49.6z M390.3,65.3c1.5-3.8,2.7-7.3,3.8-10.2c0.5,1.4,1.8,4.7,3.8,10.2H390.3z M367.7,62.4
			c0-5.6-2.4-13.6-15.6-13.6c-3,0-6,0.3-9,0.8c0,1.1,0.1,2,0.1,5v21.5c2.9,0.6,5.8,0.9,8.7,0.8C360.9,76.9,367.7,71.8,367.7,62.4
			L367.7,62.4z M352,73.5c-1.2,0-2.3-0.1-3.4-0.3V52.4c0.9-0.2,1.9-0.2,2.8-0.2c6.5,0,10.3,3.6,10.3,10.3
			C361.8,71.6,356,73.5,352,73.5z M452.7,49.6c-0.1-0.4-0.5-0.8-1-0.8c-1.6,0.1-3.1,0.2-4.6,0.5l0.4,0.9c-1.7,4-8.5,20.4-10.8,25.8
			v0.2c1.3,0.3,2.6,0.5,3.9,0.6c0.7,0,1-0.2,1.2-0.6c0.6-1.4,1.9-4.7,2.9-7.2h9.9c1,2.5,1.6,4.2,2.4,6.4c0.4,1.2,0.8,1.4,1.5,1.4
			c1.7,0,3.3-0.2,4.9-0.5v-0.2c-0.9-1.8-1.9-4.6-3.7-9.1C458,63.1,454.7,54.4,452.7,49.6z M445.8,65.3c1.5-3.8,2.7-7.3,3.8-10.2
			c0.5,1.4,1.8,4.7,3.8,10.2H445.8z M425.1,63.6c1.8-0.8,5.3-2.8,5.3-7c0-5.6-3.5-8-10.5-8c-2.5,0.1-5.1,0.3-7.6,0.8
			c0.1,1.2,0.1,2.3,0.1,4.5v14.8c0,3.7,0,6.3-0.1,8c0.9,0,3.3,0,4.5-0.2c0.8-0.1,1-0.3,1-1.2V65.3h0.8c1.5,0,2.3,0.3,3.6,2.9
			c1.1,2.4,2.4,4.6,3.8,6.7c0.8,1.3,2.3,2.1,3.9,2c1.2,0.1,2.4-0.1,3.6-0.4v-0.2c-1.8-2.1-3.3-4.4-4.6-6.9
			C428,67.3,426.7,65.4,425.1,63.6z M422.1,61.7c-1.4,0.3-2.8,0.4-4.2,0.3v-10c0.6-0.1,1.3-0.1,1.9-0.1c2.7,0,5,1.5,5,5.2
			C425,59.1,423.9,61,422.1,61.7L422.1,61.7z"/>
		<path class="st1" d="M245.8,107.2c1.5-0.4,3.1-0.6,4.7-0.6c0.4,0,0.7,0.3,0.8,1.4l2.3,16.2c0.7,4.6,1.2,7.9,1.6,10
			c-1.5,0.2-2.9,0.4-4.4,0.4c-0.6,0.1-1.2-0.4-1.2-1c0,0,0-0.1,0-0.1c-0.3-2.2-0.5-4.6-1-9.3l-1.3-11c-1.2,3.8-3.8,11.1-6.6,19.4
			c-0.2,0.8-0.8,1.4-1.6,1.4c-0.9,0.2-1.8,0.3-2.7,0.3c-1.1-3.4-4.9-15.1-6.9-21.1c-0.6,5.4-1.9,15.5-2.6,20.6
			c-0.1,0.5-0.3,0.7-0.8,0.7c-1.2,0-3.2,0-3.9-0.4c0.8-4.7,2.6-16.1,4.3-26.1l-0.1-0.8c1.6-0.4,3.2-0.6,4.8-0.6c0.7,0.2,1,0.8,1.8,3
			l5.9,16.4c2.2-5.8,5.1-13.7,7-18.2L245.8,107.2z"/>
		<path class="st1" d="M261.1,112.5c0-2.9,0-4.8-0.1-5.6c0.8-0.1,3.8-0.3,4.8-0.3c0.8,0,0.9,0.4,0.9,2.4v19.8c0,3.1,0.1,4.5,0.1,5.4
			c-1.6,0.2-3.1,0.3-4.7,0.4c-0.7,0-0.9-0.1-0.9-0.9V112.5z"/>
		<path class="st1" d="M273.3,107.1v-0.2c0.8-0.1,4.6-0.3,5.4-0.3c0.4,0,0.8,0.3,1.2,0.8c1.4,2,5,7.5,8.2,12.4
			c1.7,2.5,3.3,5.1,4.7,7.8c-0.3-3.4-0.2-5.1-0.2-7.3V108c0-1,0.3-1.2,0.9-1.3c1.4-0.1,2.6-0.2,3.6-0.2c-0.1,1.9-0.1,4.4-0.1,8.1
			v19.4c-1.4,0.4-2.8,0.6-4.2,0.7c-0.5,0-0.9-0.2-1.1-0.6c-2.3-3.2-4.5-6.6-8-12c-2.3-3.7-3.6-6.2-5.4-9.6c0.3,4.4,0.2,6.7,0.2,9
			v11.5c0,0.9-0.3,1.1-1,1.2c-1.2,0.2-2.4,0.2-3.5,0.2c0.1-1.8,0.1-4.3,0.1-8v-18.3L273.3,107.1z"/>
		<path class="st1" d="M304.6,112.5c0-2.9,0-4.8-0.1-5.6c0.8-0.1,3.8-0.3,4.8-0.3c0.8,0,0.9,0.4,0.9,2.4v19.8c0,3.1,0.1,4.5,0.1,5.4
			c-1.6,0.2-3.1,0.3-4.7,0.4c-0.7,0-0.9-0.1-0.9-0.9L304.6,112.5z"/>
		<path class="st1" d="M325.3,106.1c2.3,0,5.2,1,6.3,2.1c0,1.1-0.7,2.9-2.2,2.8c-1.3-0.7-2.8-1-4.3-1.1c-2.3,0-4,1.1-4,3
			s1.5,3.1,5.5,5.5s6.2,3.9,6.2,8.1c0,5.4-4.8,8.4-10,8.4c-2.3,0.1-4.5-0.5-6.4-1.7c-0.8-0.5-1-0.9-1-1.5c0.1-1,0.4-2,1.1-2.8
			c1.9,1.3,4.1,2,6.3,2.1c2.6,0,4.5-1.1,4.5-3.4c0-1.9-1-3-5.5-5.4c-5.1-2.8-6-5.6-6-8.2C315.9,110.8,318,106.1,325.3,106.1
			L325.3,106.1z"/>
		<path class="st1" d="M344.1,110.4h-7.9c-0.7,0-1.1-0.3-0.8-1.3c0.3-0.9,0.8-1.8,1.5-2.6c0.7,0.2,1.9,0.2,6.3,0.2h15.7
			c-0.2,2.3-1.4,3.4-2.3,3.7h-7v18.4c0,3,0.1,4.5,0.1,5.4c-1.6,0.2-3.1,0.4-4.7,0.4c-0.6,0-0.9-0.1-0.9-0.8V110.4z"/>
		<path class="st1" d="M368.5,133.2c0,0.9-0.3,1.1-1,1.1c-1.2,0.1-3.6,0.2-4.5,0.2c0.1-1.8,0.1-4.4,0.1-8.1v-14.7
			c0-2.2,0-3.2-0.1-4.5c2.5-0.4,5-0.7,7.6-0.8c7,0,10.5,2.4,10.5,8c0,4.2-3.5,6.2-5.3,7c1.5,1.7,2.8,3.6,3.9,5.7
			c1.3,2.4,2.8,4.8,4.6,6.9v0.2c-1.2,0.4-2.4,0.5-3.6,0.4c-1.6,0.1-3.1-0.7-3.9-2c-1.5-2.1-2.7-4.4-3.8-6.7
			c-1.4-2.5-2.2-2.9-3.7-2.9h-0.8L368.5,133.2z M368.5,119.9c1.4,0.1,2.8,0,4.2-0.3c1.8-0.8,2.9-2.7,2.7-4.6c0-3.7-2.3-5.2-5-5.2
			c-0.6,0-1.3,0-1.9,0.1L368.5,119.9z"/>
		<path class="st1" d="M393.9,123.3c0.1-0.7-0.1-1.4-0.4-2c-2.4-4.1-6.3-10-8.9-13.8v-0.1c1.6-0.5,3.2-0.7,4.8-0.8
			c0.8,0,1.1,0.2,2.2,2.1c1.5,2.5,3.7,6.3,5.6,9.5c1.9-2.9,6.1-10,7-11.5c1.2,0,2.5,0.1,3.7,0.4c0.7,0.3,0.6,0.8,0,1.8
			c-1.1,1.8-7.6,11.4-8.1,12.2c-0.3,0.6-0.5,1.2-0.5,1.8v6c0,3,0.1,4.3,0.1,5.3c-1.6,0.3-3.2,0.4-4.8,0.4c-0.7,0-0.8-0.1-0.8-0.8
			L393.9,123.3z"/>
		<path class="st1" d="M436,106.1c8.9,0,14,6.4,14,14.2s-4.9,14.6-14.2,14.6c-10.2,0-14.2-7.5-14.2-14.2
			C421.6,112.4,426.9,106.1,436,106.1L436,106.1z M435.5,109.5c-4.3,0-7.9,3.5-7.9,10.7s4,11.3,8.6,11.3c4.9,0,8-4,8-10.8
			C444.2,114.4,441,109.5,435.5,109.5L435.5,109.5z"/>
		<path class="st1" d="M455.8,112.1c0-1.9,0-3.1-0.1-4.7c1.8-0.4,3.5-0.6,5.3-0.7c1.6,0,9.1,0,11.2,0c-0.1,1.3-0.7,2.5-1.5,3.4
			c-1.1,0.3-2.3,0.4-3.4,0.3h-5.9v8.8h9.9c-0.4,3.3-1.5,3.7-3.2,3.7h-6.7c0,4.4,0,8,0.1,11.4c-1.5,0.3-3.1,0.4-4.7,0.4
			c-0.7,0-1-0.1-1-0.8L455.8,112.1z"/>
		<path class="st1" d="M504.3,118.1V108c0-1,0.4-1.1,1.1-1.2c1.1-0.1,3.2-0.1,4.6-0.2c-0.1,1.7-0.1,4.3-0.1,8v14.2
			c0,3.1,0.1,4.5,0.1,5.4c-1.6,0.2-3.1,0.3-4.7,0.4c-0.6,0-0.9-0.1-0.9-0.8v-12.1c-0.9,0.1-2.3,0.1-5,0.1h-6.7v11.4
			c0,0.9-0.4,1.1-1.4,1.2c-1.4,0.1-2.8,0.2-4.3,0.2c0.1-1.8,0.1-4.4,0.1-8.1v-13.9c0-3,0-4.8-0.1-5.6c1.6-0.2,3.1-0.3,4.7-0.3
			c0.8,0,0.9,0.4,0.9,2.4v9.2L504.3,118.1z"/>
		<path class="st1" d="M517.3,112.9c0-2.1,0-3.7-0.1-5.5c1.6-0.4,3.3-0.6,5-0.6h10.7c0,1.2-0.5,2.4-1.3,3.4
			c-1.4,0.3-2.8,0.4-4.1,0.3h-4.6v7.9h9.6c-0.4,3.1-1.4,3.7-2.9,3.7h-6.7v8.6c1.4,0.2,2.7,0.3,4.1,0.3c1.8,0,5,0,7.1-0.2l0.1,0.1
			c-0.2,1.5-1.1,2.8-2.3,3.5c-2,0.2-4,0.3-6,0.2c-2.6,0.1-5.2-0.1-7.8-0.4l-0.7-0.8L517.3,112.9z"/>
		<path class="st1" d="M545.1,126.6c-1,2.6-2.3,5.8-2.9,7.2c-0.2,0.4-0.5,0.6-1.2,0.6c-1.3,0-2.6-0.2-3.9-0.6v-0.2
			c2.3-5.4,9.2-21.7,10.8-25.8l-0.3-0.9c1.5-0.3,3.1-0.5,4.6-0.5c0.5,0,0.9,0.4,1,0.8c2,4.8,5.4,13.5,6.9,17.3
			c1.8,4.5,2.9,7.3,3.7,9.1v0.2c-1.6,0.3-3.3,0.5-4.9,0.5c-0.7,0-1-0.2-1.5-1.4c-0.8-2.2-1.4-3.9-2.4-6.4L545.1,126.6z M554,123
			c-2-5.5-3.3-8.8-3.8-10.2c-1.1,2.9-2.3,6.4-3.8,10.2L554,123z"/>
		<path class="st1" d="M568.5,112.6c0-2.9,0-4.8-0.1-5.7c1.6-0.2,3.2-0.3,4.8-0.3c0.8,0,0.9,0.4,0.9,2.6v21.4c1.3,0.2,2.7,0.3,4,0.3
			c1.8,0,4.5,0,6.7-0.2v0.1c-0.2,1.5-1,2.8-2.2,3.6c-1.8,0.2-3.7,0.3-5.5,0.2c-2.6,0-5.1-0.1-7.7-0.4l-0.7-0.8L568.5,112.6z"/>
		<path class="st1" d="M592.1,110.4h-7.9c-0.7,0-1.1-0.3-0.8-1.3c0.3-0.9,0.8-1.8,1.5-2.6c0.7,0.2,1.9,0.2,6.3,0.2h15.7
			c-0.2,2.3-1.4,3.4-2.3,3.7h-7v18.4c0,3,0.1,4.5,0.1,5.4c-1.6,0.2-3.1,0.4-4.7,0.4c-0.6,0-0.9-0.1-0.9-0.8L592.1,110.4z"/>
		<path class="st1" d="M628.4,118.1V108c0-1,0.3-1.1,1.1-1.2c1-0.1,3.2-0.1,4.6-0.2c-0.1,1.7-0.1,4.3-0.1,8v14.2
			c0,3.1,0.1,4.5,0.1,5.4c-1.6,0.2-3.1,0.3-4.7,0.4c-0.6,0-0.9-0.1-0.9-0.8v-12.1c-0.9,0.1-2.3,0.1-5,0.1h-6.7v11.4
			c0,0.9-0.3,1.1-1.4,1.2c-1.4,0.1-2.8,0.2-4.3,0.2c0.1-1.8,0.1-4.4,0.1-8.1v-13.9c0-3,0-4.8-0.1-5.6c1.6-0.2,3.1-0.3,4.7-0.3
			c0.8,0,0.9,0.4,0.9,2.4v9.2L628.4,118.1z"/>
		<path class="st1" d="M676.4,134c-1.6,0.5-3.3,0.8-4.9,0.8c-0.7,0-1.4-0.3-1.9-0.8c-0.8-0.8-2-1.9-3-2.7c-2,2.2-4.9,3.5-7.9,3.5
			c-5.3,0-8.6-2.9-8.6-7.6c0-3.9,3.3-5.7,5.4-7c-1.7-1.6-2.6-3.7-2.7-6c0-3.8,3-6.9,7.3-6.9c3.8,0,6.9,1.9,6.9,6.1
			c0,3.5-3,5.2-5.3,6.7c2,1.8,4.8,4.3,5.5,5c1-1.9,2.5-5.2,3.8-7.4c0.6-0.9,1.2-1.5,1.9-1.5c1.2,0,2.4,0.3,3.4,1.1v0.2
			c-1.3,1.4-3.6,4.9-6.5,10.2C674.2,131.8,675.7,133.3,676.4,134L676.4,134z M660.2,130.9c1.6,0,3.1-0.7,4.1-1.9
			c-1.6-1.5-5.6-5.3-7-6.9c-1.3,0.9-2.1,2.4-2.1,4c0,2.6,2.1,4.7,4.7,4.7C660,130.9,660,130.9,660.2,130.9L660.2,130.9z
			 M657.2,113.5c0,1.7,0.8,3.1,2.5,4.6c1.8-1.3,2.8-2.7,2.8-4.6c0-2.1-1.2-3.2-2.6-3.2S657.2,111.4,657.2,113.5L657.2,113.5z"/>
		<path class="st1" d="M692.1,112.9c0-2.1,0-3.9-0.2-5.9c2.4-0.3,4.8-0.5,7.2-0.5c6.7,0,11.4,2.3,11.4,8.9c0.1,4.7-3.6,8.6-8.4,8.8
			c-0.8,0-1.5-0.1-2.2-0.3c-0.9-0.7-1.5-1.8-1.5-3c0.5,0.1,0.9,0.1,1.4,0.1c2.2,0,4.9-1.2,4.9-5.6c0-4.2-2.8-5.5-5.4-5.5
			c-0.6,0-1.2,0-1.8,0.1v18.9c0,3.1,0.1,4.4,0.1,5.2c-1.5,0.2-3.1,0.4-4.7,0.4c-0.7,0-1-0.1-1-0.8L692.1,112.9z"/>
		<path class="st1" d="M720.9,133.2c0,0.9-0.3,1.1-1,1.1c-1.2,0.1-3.7,0.2-4.5,0.2c0.1-1.8,0.1-4.4,0.1-8.1v-14.7
			c0-2.2,0-3.2-0.1-4.5c2.5-0.4,5-0.7,7.6-0.8c7,0,10.5,2.4,10.5,8c0,4.2-3.5,6.2-5.3,7c1.5,1.7,2.8,3.6,3.9,5.7
			c1.3,2.4,2.8,4.8,4.6,6.9v0.2c-1.2,0.4-2.4,0.5-3.6,0.4c-1.6,0.1-3.1-0.7-3.9-2c-1.5-2.1-2.8-4.4-3.8-6.7
			c-1.4-2.5-2.2-2.9-3.7-2.9h-0.8L720.9,133.2z M720.9,119.9c1.4,0.1,2.8,0,4.2-0.3c1.8-0.8,2.9-2.7,2.7-4.6c0-3.7-2.3-5.2-5-5.2
			c-0.6,0-1.3,0-1.9,0.1L720.9,119.9z"/>
		<path class="st1" d="M740.9,112.9c0-2.1,0-3.7-0.1-5.5c1.6-0.4,3.3-0.6,5-0.6h10.7c0,1.2-0.5,2.4-1.3,3.4
			c-1.4,0.3-2.7,0.4-4.1,0.3h-4.6v7.9h9.6c-0.4,3.1-1.4,3.7-2.9,3.7h-6.7v8.6c1.4,0.2,2.7,0.3,4.1,0.3c1.8,0,5,0,7.1-0.2l0.1,0.1
			c-0.2,1.5-1.1,2.8-2.3,3.5c-2,0.2-4,0.3-6,0.2c-2.6,0.1-5.2-0.1-7.8-0.4l-0.7-0.8L740.9,112.9z"/>
		<path class="st1" d="M765.3,106.6c0.7,0,1,0.6,1.8,2.9c1.6,4.6,4.4,11.8,6.6,18.7c2.4-6.9,5.2-14.4,7.7-21.6
			c1.3,0,2.6,0.2,3.9,0.6c0.7,0.2,0.7,0.8,0.3,1.9c-3.1,8.2-6.4,16.1-9.6,23.8c-0.3,0.8-0.7,1.3-1.1,1.4c-1.3,0.4-2.6,0.6-4,0.5
			c-3.2-8.7-6.9-18.7-10.7-27.2C761.9,107,763.6,106.7,765.3,106.6z"/>
		<path class="st1" d="M790.5,112.9c0-2.1,0-3.7-0.1-5.5c1.6-0.4,3.3-0.6,5-0.6H806c-0.1,1.2-0.5,2.4-1.3,3.4
			c-1.4,0.3-2.8,0.4-4.1,0.3H796v7.9h9.6c-0.4,3.1-1.4,3.7-2.9,3.7H796v8.6c1.4,0.2,2.7,0.3,4.1,0.3c1.8,0,5,0,7.1-0.2l0.1,0.1
			c-0.2,1.5-1,2.8-2.3,3.5c-2,0.2-4,0.3-6,0.2c-2.6,0.1-5.2-0.1-7.8-0.4l-0.7-0.8L790.5,112.9z"/>
		<path class="st1" d="M811.4,107.1v-0.2c0.8-0.1,4.6-0.3,5.4-0.3c0.4,0,0.8,0.3,1.2,0.8c1.4,2,5,7.5,8.2,12.4
			c1.7,2.5,3.3,5.1,4.7,7.8c-0.3-3.4-0.2-5.1-0.2-7.3V108c0-1,0.3-1.2,0.9-1.3c1.4-0.1,2.5-0.2,3.6-0.2c-0.1,1.9-0.1,4.4-0.1,8.1
			v19.4c-1.4,0.4-2.8,0.6-4.2,0.7c-0.5,0-0.9-0.2-1.1-0.6c-2.3-3.2-4.5-6.6-8-12c-2.3-3.7-3.6-6.2-5.4-9.6c0.3,4.4,0.2,6.7,0.2,9
			v11.5c0,0.9-0.3,1.1-1,1.2c-1.2,0.2-2.3,0.2-3.5,0.2c0.1-1.8,0.1-4.3,0.1-8v-18.3L811.4,107.1z"/>
		<path class="st1" d="M848.3,110.4h-7.9c-0.7,0-1.1-0.3-0.8-1.3c0.3-0.9,0.8-1.8,1.5-2.6c0.7,0.2,1.9,0.2,6.3,0.2h15.7
			c-0.2,2.3-1.4,3.4-2.3,3.7h-7v18.4c0,3,0.1,4.5,0.1,5.4c-1.6,0.2-3.1,0.4-4.7,0.4c-0.6,0-0.9-0.1-0.9-0.8L848.3,110.4z"/>
		<path class="st1" d="M867.4,112.5c0-2.9,0-4.8-0.1-5.6c0.8-0.1,3.8-0.3,4.8-0.3c0.8,0,0.9,0.4,0.9,2.4v19.8c0,3.1,0.1,4.5,0.1,5.4
			c-1.6,0.2-3.1,0.3-4.7,0.4c-0.7,0-0.9-0.1-0.9-0.9V112.5z"/>
		<path class="st1" d="M893.1,106.1c8.9,0,14,6.4,14,14.2s-4.9,14.6-14.2,14.6c-10.2,0-14.2-7.5-14.2-14.2
			C878.7,112.4,884,106.1,893.1,106.1L893.1,106.1z M892.6,109.5c-4.3,0-7.9,3.5-7.9,10.7s4,11.3,8.6,11.3c4.9,0,8-4,8-10.8
			C901.3,114.4,898.1,109.5,892.6,109.5L892.6,109.5z"/>
		<path class="st1" d="M912.2,107.1v-0.2c0.8-0.1,4.6-0.3,5.4-0.3c0.4,0,0.8,0.3,1.2,0.8c1.4,2,5,7.5,8.2,12.4
			c1.7,2.5,3.3,5.1,4.7,7.8c-0.3-3.4-0.2-5.1-0.2-7.3V108c0-1,0.3-1.2,0.9-1.3c1.4-0.1,2.5-0.2,3.6-0.2c-0.1,1.9-0.1,4.4-0.1,8.1
			v19.4c-1.4,0.4-2.8,0.6-4.2,0.7c-0.5,0-0.9-0.2-1.1-0.6c-2.3-3.2-4.5-6.6-8-12c-2.3-3.7-3.6-6.2-5.4-9.6c0.3,4.4,0.2,6.7,0.2,9
			v11.5c0,0.9-0.3,1.1-1,1.2c-1.2,0.2-2.3,0.2-3.5,0.2c0.1-1.8,0.1-4.3,0.1-8v-18.3L912.2,107.1z"/>
	</g>
</g>
</svg>
