<?xml version="1.0" encoding="utf-8"?>
<!-- Generator: Adobe Illustrator 24.0.1, SVG Export Plug-In . SVG Version: 6.00 Build 0)  -->
<svg version="1.1" id="Layer_1" xmlns="http://www.w3.org/2000/svg" xmlns:xlink="http://www.w3.org/1999/xlink" x="0px" y="0px"
	 viewBox="0 0 704 659" style="enable-background:new 0 0 704 659;" xml:space="preserve">
<style type="text/css">
	.st0{fill:#FFFFFF;}
</style>
<g>
	<g>
		<path class="st0" d="M207.4,221.5c20.4,0,40.9-0.1,61.3,0.1c5.5,0.1,10.1,3.2,14.4,6.5c7.4,5.7,10.5,13.7,10.4,22.8
			c-0.3,24.8,0,49.7,0.1,74.5c0.1,13.3-0.1,26.6,0,39.8c0.1,8.9-2.9,16.6-9.4,22.5c-4.6,4.1-10.1,7.2-16.7,7.2
			c-31.2,0-62.5,0.1-93.7,0.1c-7.8,0-15.7,0.2-23.5,0.1c-5.2-0.1-10.5-0.4-15.2-3.2c-8.9-5.4-14.5-12.9-14.8-23.6
			c-0.3-10.1-0.1-20.3-0.1-30.4c0-30.1-0.2-60.2,0.2-90.3c0.1-8.9,4.6-16.3,12.5-21.3c5.7-3.6,11.8-4.9,18.5-4.8
			C170,221.7,188.7,221.5,207.4,221.5C207.4,221.5,207.4,221.5,207.4,221.5z"/>
		<path class="st0" d="M430.6,124.2c0-15.9-0.2-31.7,0.1-47.6c0.1-8.5,4.4-14.9,11.1-20c5-3.8,10.8-3.7,16.4-3.7
			c26.8-0.1,53.5,0,80.3,0c4.9,0,9.7-0.1,14.6,0.3c9.8,0.9,15,7,18.8,15.1c1.6,3.4,1.7,7.2,1.7,11c0,30.2,0.1,60.4,0,90.6
			c0,8.9-3.3,16.5-10.9,21.8c-4.5,3.2-9.8,3.8-15,3.8c-20.6,0.1-41.3,0-61.9,0c-9.4,0-18.7-0.2-28.1,0.1c-6.7,0.2-12.6-1.6-18.1-5.1
			c-1.5-0.9-2.6-2.5-3.5-4.1c-2.9-5.1-5.5-10.1-5.4-16.3C430.8,154.8,430.6,139.5,430.6,124.2C430.6,124.2,430.6,124.2,430.6,124.2z
			"/>
		<path class="st0" d="M323.2,356.7c0-13.3-0.1-26.6,0-39.8c0.2-11.1,9.4-19.1,20.4-19c25.5,0.2,51,0,76.5,0
			c8.4,0,18.8,6.8,19.7,16.8c0.7,7.1,0.3,14.1,0.3,21.2c0.1,20.5,0,41.1,0,61.6c0,6.7-5.6,13.9-12.4,16.4c-2.9,1-5.8,1.5-8.9,1.5
			c-25.8-0.1-51.6,0.1-77.4-0.1c-9.8-0.1-18.3-7.4-18.3-18.1C323.2,383.6,323.2,370.2,323.2,356.7
			C323.2,356.7,323.2,356.7,323.2,356.7z"/>
		<path class="st0" d="M346.9,123.9c-12.5,0-25,0.2-37.6-0.1c-5.9-0.2-10.9-3-13.7-8.4c-2.2-4.3-3.2-8.9-3.1-13.8
			c0.6-21.9,0.5-43.7,0.2-65.6c-0.2-10.8,6.9-20.2,19.3-20.1c23.5,0.2,47,0.2,70.5,0c10.2-0.1,18.1,7.9,18.2,17.7
			c0.2,20.9,0.3,41.8,0,62.8c-0.1,4.5,0.4,8.9-0.4,13.4c-1.3,7.8-8.2,14.2-16.2,14.2C371.8,124,359.4,123.9,346.9,123.9
			C346.9,123.9,346.9,123.9,346.9,123.9z"/>
		<path class="st0" d="M372,262.8c-10.2,0-20.4,0.1-30.7,0c-8.8-0.1-15.8-6.7-15.8-15.8c-0.1-20.4-0.1-40.7-0.1-61.1
			c0-7,5.7-13.5,12.6-15c6.2-1.3,12.4-0.5,18.6-0.6c15.1-0.3,30.2-0.4,45.3-0.1c10.6,0.2,16.8,6.3,16.6,17.2
			c-0.3,19.6,0.1,39.2,0.1,58.8c0,8.2-6.4,17-16.2,16.6C392.3,262.4,382.1,262.7,372,262.8C372,262.8,372,262.8,372,262.8z"/>
		<path class="st0" d="M214.6,585.5c-10.5,0.4-19.8-1.5-28.3-5.8c-10.6-5.4-19.3-13.2-25.5-23.5c-7-11.5-9.5-23.8-7.6-37.2
			c3-21.2,15.2-35.3,33.6-44.5c9.6-4.8,20-6.8,30.8-5.9c16.2,1.3,30,8,41,20.1c5.2,5.7,9.4,12.2,11.8,19.4c3.6,10.4,4.4,21.1,1.5,32
			c-2.4,8.9-6.2,16.9-12,24c-7,8.6-16.1,14.4-26.3,18.1C227.3,584.6,220.6,586.4,214.6,585.5z M211.7,489c-4.7-0.5-11.6,0.7-17.4,4
			c-9.5,5.4-17,13-19.9,24.2c-2.8,11-1.5,21.2,4.8,30.6c6.2,9.2,15.2,14.4,26,16.7c8.3,1.8,16.5,1.2,24.1-2.4
			c14.2-6.7,22.6-17.7,23-33.9c0.2-7-0.7-13.9-4.6-20C239.9,495.8,228.6,489.6,211.7,489z"/>
		<path class="st0" d="M57.9,552.4c0,9.4-0.4,18.7,0.2,28.1c0.2,2.4-1.1,3.8-3.3,3.6c-5.4-0.4-10.7-0.2-16,0.1
			c-1.9,0.1-2.7-0.9-2.7-2.9c0.6-27,0.1-54.1,0.3-81.1c0.1-8.9,0-17.8,0-26.7c0-1-0.3-2.4,0.8-2.9c1.4-0.6,1.9,0.8,2.7,1.6
			c8.7,9.8,18,19,27.1,28.4c5.4,5.6,10.9,11,16.2,16.6c1.8,1.9,3,1.8,4.8,0c8.7-8.9,17.6-17.7,26.3-26.8c4.8-4.9,9.8-9.7,14.5-14.6
			c1.2-1.2,2.4-2.5,3.2-4c0.6-1.1,1.4-1.9,2.7-1.6c1.4,0.4,1.5,1.7,1.4,2.8c-0.4,7.1-0.1,14.1-0.1,21.2c0,26.6,0,53.1,0,79.7
			c0,2.4,0.1,4.8,0.1,7.2c0,2.7-1.2,4-3.8,3.8c-4.6-0.3-9.1-0.5-13.7-0.2c-4.2,0.3-4.9-0.8-4.8-5.1c0.2-10.4-0.1-20.8,0.1-31.2
			c0.2-9.5-0.7-19.1,0.1-28.6c0.1-0.7,0.1-1.4-0.6-1.8c-0.7-0.4-1.2,0.3-1.7,0.8c-7.9,8.3-16.4,15.9-23.9,24.7
			c-1.4,1.7-2.7,1.6-4,0.1c-7.5-8-15.3-15.7-23.3-23.3c-0.7-0.7-1.4-2-2.6-1.2c-1.1,0.7-0.6,1.9-0.3,2.9c0.8,3.4,0.2,6.9,0.2,10.3
			C58,539,57.9,545.7,57.9,552.4z"/>
		<path class="st0" d="M442.5,563.8c-6.7,0-13.4,0.1-20.1-0.1c-2.3-0.1-3.7,0.8-4.5,2.7c-2,4.9-4.8,9.5-6.4,14.6
			c-0.7,2.3-2.3,3.6-4.9,3.5c-5-0.1-9.9-0.6-14.9,0c-1.2,0.2-2.6,0.2-3.4-1c-0.9-1.3,0.2-2.3,0.8-3.4c3.3-5.9,5.6-12.3,8.3-18.5
			c5.7-12.8,11.2-25.8,16.8-38.6c4.1-9.4,8.3-18.8,12.5-28.1c0.9-2.1,0.4-2.7-2.2-2.7c-6.4,0-12.8,0-19.2,0c-4,0-3.9-0.1-3.7-4.1
			c0.2-4.3,0.1-8.6,0-12.9c-0.2-3.9,0.8-4.7,4.5-4.3c5.7,0.6,11.4,0.3,17.2,0.3c7.7,0,15.5,0,23.2-0.1c2.3,0,3.3,0.9,4.2,3
			c3.4,8.4,6.9,16.7,10.4,25c4.5,10.8,9.1,21.5,13.7,32.2c5.3,12.2,10.1,24.6,15.7,36.7c2.1,4.6,3.9,9.3,5.8,14
			c1,2.6,0.3,3.6-2.4,3.5c-5.5-0.3-11.1-0.1-16.6,0c-2,0-2.9-0.6-3.7-2.6c-1.9-4.8-4.7-9.2-6.1-14.1c-1.4-4.8-4.3-5-8.3-4.8
			C453.6,564,448.1,563.8,442.5,563.8z M454.6,544.5c1.9,0.4,2.5-0.9,1.7-3.1c-2.4-6-4.8-12-7.1-18c-1.9-4.8-3.7-9.6-5.6-14.3
			c-0.3-0.7-0.6-1.6-1.5-1.5c-1,0.1-0.9,1-1.1,1.7c-2.3,7.2-6,13.7-8.2,20.9c-1.2,3.9-3,7.6-4.6,11.3c-0.9,2.1-0.1,2.8,1.9,2.8
			c0.7,0,1.3,0,2,0C439.6,544.5,447.1,544.5,454.6,544.5z"/>
		<path class="st0" d="M332,469.6c5.8-0.3,11.7-0.3,17.4,0.9c10.8,2.3,20.3,7.3,28.1,15.4c1.4,1.4,1.2,2.6-0.4,3.8
			c-4.2,3.4-9,6.2-12.7,10.2c-1.3,1.4-2.4,1.1-3.7-0.4c-4.5-5.3-9.9-8.9-16.9-10.5c-4.7-1.1-9.4-2-14.2-1.4
			c-4.8,0.6-9.5,1.8-13.6,4.7c-3.8,2.8-5.7,6.5-5.9,10.9c-0.2,4.8,3.2,7.6,7,9.7c6.3,3.5,13.5,3.8,20.5,4.6
			c4.1,0.5,8.3-0.2,12.3,0.6c9.4,1.7,18.6,4.1,25.1,12.1c7.5,9.1,8.1,24.2,2.4,33.8c-5.1,8.6-11.7,15-21.2,18.3
			c-7.9,2.8-16.1,3.7-24.3,4.5c-5.9,0.6-11.3-1-16.9-2.4c-8.7-2.1-16.6-5.9-24-10.9c-2.5-1.7-4.4-4-6.6-5.9
			c-1.4-1.1-0.7-2.6,0.3-3.5c4.5-4.1,9.1-8.2,13.3-12.6c1.1-1.1,2.3-0.6,3.2,0.5c8.9,10.5,20.9,14.3,33.8,15.8
			c6.7,0.8,13.2-1.3,18.4-5.7c4.1-3.5,6.6-8.4,5.5-14c-0.8-3.8-3.9-6.5-7.4-8.2c-6.7-3.2-13.9-3.6-21.2-4.1
			c-9-0.6-17.7-2.1-26.1-5.6c-12.8-5.3-20.3-19.2-16.4-32.4c3-10.3,10-17.5,19.2-22.8C314.8,470.6,323.4,469.9,332,469.6z"/>
		<path class="st0" d="M490.6,213c8.6,0,17.2,0,25.8,0c4,0,9.8,5,10.5,8.9c0.4,2.2,0.7,4.4,0.7,6.5c-0.1,15.1,0,30.2,0,45.3
			c0,7.6-3.6,13.4-12.8,13.8c-15.7,0.7-31.3,0.3-47,0c-4-0.1-7.6-0.5-10.9-3.3c-3.3-2.9-4.1-6.8-4.2-10.6c-0.2-15.5,0-30.9,0.1-46.4
			c0-6.5,2.7-11.1,8.8-13.7c1-0.4,2-0.7,3-0.7c8.6,0,17.2,0,25.8,0C490.6,212.8,490.6,212.9,490.6,213z"/>
		<path class="st0" d="M612.9,585.6c-12.5,0.1-24.2-2.8-34.5-10.2c-8.1-5.8-14.9-12.8-19.7-21.6c-3.6-6.7-6.2-13.9-6.3-21.7
			c0-3.2,0-6.3,0-9.5c0-11,4.4-20.4,10.7-29.3c7.5-10.6,17.8-17.4,29.9-21.5c22.2-7.4,42.2-2.7,60.2,11.9c2.3,1.9,4.4,4,6.3,6.2
			c1.8,2.2,1.8,3.1-0.5,4.5c-4.2,2.7-8.2,5.5-11.9,8.8c-1.2,1-2.2,1.6-3.6-0.1c-8.1-9.7-18.6-14.1-31.1-14.2
			c-12.8,0-23.7,4.4-31.6,14.5c-14.2,18.2-9.4,43.1,8.8,54.8c8.1,5.2,17,7.5,26.3,7c9.6-0.6,18.3-4.2,24.8-11.8
			c2.5-3,2.7-2.8,5.7-0.2c3.5,3,7,5.9,10.5,8.9c2.8,2.3,2.6,2.4-0.1,4.7c-3.7,3.1-7.1,6.6-11.2,9.3
			C635.6,582.8,624.6,585.5,612.9,585.6z"/>
		<path class="st0" d="M117.8,167.1c0-7,0.2-14-0.1-20.9c-0.1-3.4,1.6-5.6,3.8-7.2c2.3-1.6,5.3-2.7,8.3-2.7c12,0.1,24,0.2,36.1,0.2
			c3,0,5.7,0.9,8.2,2.2c3,1.6,4.3,4.6,4.3,7.9c-0.4,14-0.3,28.1-0.1,42.1c0.1,4.6-5.2,9.2-10.3,9.2c-11.6,0-23.1-0.1-34.7-0.1
			c-3.2,0-6.4,0.4-9.5-1.3c-3.8-2.1-6.2-4.6-6.1-9.3C118,180.5,117.8,173.8,117.8,167.1C117.8,167.1,117.8,167.1,117.8,167.1z"/>
		<path class="st0" d="M610.2,245.2c0,6.7,0.2,13.4,0,20.1c-0.2,6.1-5,10.7-10.8,10.8c-12.7,0.2-25.4-0.1-38.1,0.1
			c-6.6,0.1-12-4.6-12-11.7c0-12.1,0.1-24.3-0.1-36.4c-0.1-7.9,2.2-11.1,8.7-12.9c1.5-0.4,3-0.2,4.6-0.2c12.1,0,24.3,0,36.4-0.1
			c6.8,0,11.7,4.7,11.5,11.4c-0.1,3.1,0,6.3,0,9.5C610.2,238.9,610.2,242.1,610.2,245.2z"/>
		<path class="st0" d="M509.5,528.1c0-17.8,0-35.5,0-53.3c0-2,0.8-2.7,2.7-2.7c5.7,0.1,11.5,0,17.2,0c3.5,0,3.7,0.5,3.7,4
			c-0.2,7.6-0.1,15.3-0.1,22.9c0,24.4,0,48.7,0,73.1c0,3,0,5.9,0,8.9c0.1,2.9-0.7,3.8-3.6,3.8c-3.9,0-7.8-0.2-11.7-0.2
			c-1.4,0-2.9,0.1-4.3,0.2c-3,0.3-3.8-0.4-3.8-3.4C509.6,563.7,509.6,545.9,509.5,528.1C509.5,528.1,509.5,528.1,509.5,528.1z"/>
		<path class="st0" d="M684.6,161.8c0,5,0,9.9,0,14.9c0,5.4-3.3,9-8.6,9.1c-9.1,0.1-18.1,0.2-27.2,0.1c-9.1-0.1-11.7-2.4-11.8-11.5
			c-0.1-8.8-0.2-17.6,0.1-26.3c0.2-6.3,2.5-10,10.1-10.1c9.5-0.1,19.1-0.1,28.6,0c5.4,0,8.7,3.5,8.8,8.9c0,2.5,0.1,5,0.1,7.4
			C684.6,156.8,684.6,159.3,684.6,161.8C684.6,161.8,684.6,161.8,684.6,161.8z"/>
		<path class="st0" d="M33.4,63.4c4.2,0,8.4,0,12.6,0c6,0,8.3,2,8.4,8c0.2,9.1,0.1,18.1-0.1,27.2c-0.1,3.9-2.2,6.1-6.1,6.2
			c-9.6,0.2-19.3,0.2-28.9,0c-4.8-0.1-6.6-2.3-6.7-7.1c-0.1-9-0.1-17.9,0-26.9c0.1-4.1,1.3-7.5,7-7.3C24.2,63.6,28.8,63.5,33.4,63.4
			C33.4,63.5,33.4,63.5,33.4,63.4z"/>
		<path class="st0" d="M224.7,122.3c0,2.8,0,5.5,0,8.3c0.1,4-1.9,6-5.9,6c-6,0-12,0-18,0c-3.4,0-6.1-2.6-6.1-6.1
			c0-5.7,0-11.4,0.1-17.2c0-3.3,2-6,5.2-6.1c6.7-0.3,13.5-0.2,20.3,0c2.5,0.1,4.3,3.1,4.3,6.5c0,2.9,0,5.7,0,8.6
			C224.6,122.3,224.6,122.3,224.7,122.3z"/>
		<path class="st0" d="M646.3,642.8c-2.5,0-5,0-7.4,0c-2.7,0-3.6-1-3.3-3.7c0.9-7.7,0.4-15.4,0.4-23.1c0-3.3,0.1-6.7-0.3-10
			c-0.2-1.7,0.7-2.7,2.5-2.6c5.2,0.4,10.5,0.4,15.7,0c1.7-0.1,3.5,0.3,3.4,2.5c0,2-1.4,3.1-3.4,3c-3.3-0.1-6.7-0.1-10-0.3
			c-2-0.1-2.9,0.6-2.6,2.6c0.3,2.1,0.4,4.2,0,6.3c-0.4,2,1,2.8,2.7,2.8c2.9,0,5.7,0,8.6-0.2c2.3-0.2,3.4,0.7,3.5,3
			c0.1,2.4-1.5,2.5-3.2,2.4c-3-0.1-5.9-0.1-8.9-0.3c-1.8-0.1-2.9,0.6-2.7,2.4c0.3,2.3,0.2,4.6,0,6.8c-0.1,1.9,0.8,2.8,2.8,2.7
			c3-0.1,6.1-0.2,9.1-0.3c0.7,0,1.3,0,2,0.1c1.8,0.3,2.7,1.3,2.7,3.1c0,1.7-1.3,2.3-2.7,2.4c-2.9,0.1-5.9,0-8.9,0
			C646.3,642.8,646.3,642.8,646.3,642.8z"/>
		<path class="st0" d="M603.9,642.9c-1.9,0.1-3.1-0.6-3.8-2.4c-1.8-4.7-3-9.6-4.5-14.3c-2-6.3-4.2-12.6-6.4-18.8
			c-0.4-1.1-1.2-2.1-0.4-3.2c0.9-1.1,2.3-0.8,3.5-0.6c1.9,0.3,3.4,1.6,3.4,3.4c0,4.2,2.1,7.7,3.4,11.4c1.5,4.5,2.3,9,3.7,13.5
			c0.2,0.6,0.3,1.5,1,1.6c1,0.1,1.1-0.9,1.2-1.6c1.5-7.4,4.5-14.3,7-21.3c0.6-1.5,0.8-3.1,1.2-4.7c0.4-1.6,1.5-2.4,3.1-2.4
			c1.1,0,2.4-0.4,3.1,0.8c0.7,1.2,0.4,2.4-0.4,3.5c-2,2.5-2.4,5.6-3.3,8.5c-2.4,7.7-5.8,15-7.7,22.9
			C607.4,641.3,606.6,643.1,603.9,642.9z"/>
		<path class="st0" d="M531,623c0-5.3,0-10.7,0-16c0-3,1.2-4,4.1-3.5c1.4,0.2,1.9,0.9,1.8,2.4c-0.6,8-0.2,16-0.3,24
			c0,0.8,0,1.5,0,2.3c-0.2,5.3-0.2,5.3,5.2,5.2c2.6,0,5.1-0.2,7.7-0.4c2.1-0.2,3.3,0.5,3.4,2.7c0.1,2.2-1,3.2-3.1,3.1
			c-5.4-0.2-10.9-0.3-16.3-0.1c-2.3,0.1-2.7-1.6-2.7-3.5C530.9,633.8,530.9,628.4,531,623C531,623,531,623,531,623z"/>
		<path class="st0" d="M574.6,623.4c0,5.6,0,11.3,0,16.9c0,2-1.2,2.7-3,2.6c-1.8-0.2-3.7-0.7-3.2-3c1.2-6.3,0.5-12.6,0.5-18.8
			c0-4.8,0.7-9.7-0.4-14.5c-0.4-1.9,0.6-2.9,2.5-3c2-0.1,3.7,0.1,3.6,2.8C574.6,612,574.6,617.7,574.6,623.4
			C574.6,623.4,574.6,623.4,574.6,623.4z"/>
	</g>
</g>
</svg>
