<?xml version="1.0" encoding="utf-8"?>
<!-- Generator: Adobe Illustrator 24.0.1, SVG Export Plug-In . SVG Version: 6.00 Build 0)  -->
<svg version="1.1" id="圖層_1" xmlns="http://www.w3.org/2000/svg" xmlns:xlink="http://www.w3.org/1999/xlink" x="0px" y="0px"
	 viewBox="0 0 245 75" style="enable-background:new 0 0 245 75;" xml:space="preserve">
<style type="text/css">
	.st0{fill:#FFFFFF;}
</style>
<g>
	<path id="Path_38_2_" class="st0" d="M76.5,63.6h-3.7v-1.3h9.1v1.3h-3.8v11.1h-1.6V63.6z"/>
	<path id="Path_39_2_" class="st0" d="M83.6,70.1c0,0.5,0.1,1,0.2,1.4s0.3,0.8,0.5,1.1c0.2,0.3,0.5,0.5,0.8,0.7
		c0.7,0.3,1.5,0.3,2.2,0c0.3-0.2,0.6-0.4,0.8-0.7c0.2-0.3,0.4-0.7,0.5-1.1c0.1-0.5,0.2-1,0.2-1.4c0-0.5-0.1-1-0.2-1.4
		s-0.3-0.8-0.5-1.1c-0.2-0.3-0.5-0.6-0.8-0.7c-0.7-0.3-1.5-0.3-2.2,0c-0.3,0.2-0.6,0.4-0.8,0.7c-0.2,0.3-0.4,0.7-0.5,1.1
		C83.6,69.1,83.6,69.6,83.6,70.1 M82,70.1c0-0.7,0.1-1.4,0.4-2.1c0.2-0.6,0.5-1.1,0.9-1.5s0.8-0.7,1.4-0.9c1-0.4,2.2-0.4,3.2,0
		c0.5,0.2,1,0.5,1.4,0.9s0.7,1,0.9,1.5c0.5,1.3,0.5,2.8,0,4.1c-0.2,0.6-0.5,1.1-0.9,1.5s-0.8,0.7-1.4,0.9c-1,0.4-2.2,0.4-3.2,0
		c-0.5-0.2-1-0.5-1.4-0.9s-0.7-1-0.9-1.5C82.1,71.4,81.9,70.8,82,70.1"/>
	<path id="Path_40_2_" class="st0" d="M92.9,66.7h-1.4v-1.2l1.4-0.1l0.2-2.6h1.3v2.6h2.5v1.3h-2.5v5.1c0,0.5,0.1,0.9,0.3,1.3
		c0.3,0.3,0.7,0.5,1.1,0.5c0.2,0,0.4,0,0.5-0.1c0.2,0,0.3-0.1,0.5-0.2l0.3,1.2c-0.3,0.1-0.5,0.2-0.8,0.2c-0.3,0.1-0.6,0.1-0.9,0.1
		c-0.4,0-0.8-0.1-1.2-0.2c-0.3-0.1-0.6-0.4-0.8-0.6c-0.2-0.3-0.4-0.6-0.4-1c-0.1-0.4-0.1-0.8-0.1-1.2V66.7z"/>
	<path id="Path_41_2_" class="st0" d="M99.7,72.1c0,0.4,0.1,0.9,0.5,1.1c0.3,0.2,0.7,0.4,1.1,0.3c0.4,0,0.9-0.1,1.3-0.3
		c0.5-0.3,0.9-0.6,1.3-0.9v-2.6c-0.7,0.1-1.3,0.2-2,0.4c-0.4,0.1-0.9,0.3-1.3,0.5c-0.3,0.2-0.5,0.4-0.7,0.7
		C99.7,71.6,99.7,71.9,99.7,72.1 M98.1,72.3c0-1,0.5-1.9,1.4-2.3c1.3-0.7,2.8-1,4.3-1.1c0-0.3,0-0.6-0.1-0.9s-0.2-0.5-0.3-0.7
		c-0.1-0.2-0.3-0.4-0.6-0.5c-0.3-0.1-0.6-0.2-0.9-0.2c-0.5,0-1,0.1-1.5,0.3c-0.4,0.2-0.9,0.4-1.2,0.7l-0.6-1.1
		c0.5-0.3,1-0.6,1.6-0.8c0.6-0.3,1.3-0.4,2-0.4c0.9-0.1,1.8,0.3,2.4,1c0.5,0.8,0.8,1.8,0.8,2.8v5.6h-1.3l-0.1-1.1l0,0
		c-0.4,0.4-0.9,0.7-1.4,0.9c-0.5,0.3-1.1,0.4-1.6,0.4c-0.7,0-1.4-0.2-1.9-0.7C98.4,73.7,98.1,73,98.1,72.3"/>
	<path id="Path_42_2_" class="st0" d="M108.3,61.2h1.6v11.7c0,0.2,0,0.4,0.1,0.5s0.2,0.2,0.3,0.2h0.1c0.1,0,0.1,0,0.2,0l0.2,1.2
		c-0.1,0.1-0.2,0.1-0.4,0.1c-0.2,0-0.4,0-0.5,0c-0.5,0-1-0.2-1.3-0.5c-0.3-0.5-0.4-1-0.4-1.6L108.3,61.2z"/>
	<path id="Path_43_2_" class="st0" d="M120.8,73.4c0.9,0.1,1.7-0.2,2.5-0.6c0.6-0.4,0.9-1.1,0.9-1.9c0-0.7-0.3-1.3-0.9-1.7
		c-0.8-0.4-1.6-0.6-2.5-0.5h-2.2v4.7H120.8z M120.5,67.5c0.8,0.1,1.6-0.1,2.3-0.6c0.5-0.4,0.7-1,0.7-1.6s-0.2-1.1-0.7-1.5
		c-0.7-0.3-1.4-0.5-2.2-0.4h-1.9v4.1H120.5z M117.1,62.2h3.7c0.6,0,1.2,0.1,1.7,0.2c0.5,0.1,0.9,0.3,1.3,0.5s0.7,0.6,0.9,0.9
		c0.2,0.4,0.3,0.9,0.3,1.4c0,0.6-0.2,1.2-0.5,1.7c-0.4,0.5-1,0.9-1.6,1V68c0.8,0.1,1.5,0.4,2.1,0.9c0.5,0.5,0.8,1.3,0.8,2
		c0,0.5-0.1,1.1-0.3,1.6c-0.2,0.5-0.6,0.8-1,1.1c-0.5,0.3-1,0.5-1.5,0.7c-0.6,0.2-1.3,0.2-1.9,0.2h-4V62.2z"/>
	<path id="Path_44_2_" class="st0" d="M128.1,65.4h1.3l0.1,1.7h0.1c0.3-0.5,0.7-1,1.1-1.4c0.4-0.3,0.9-0.5,1.5-0.5
		c0.3,0,0.7,0.1,1,0.2l-0.3,1.4c-0.1,0-0.3-0.1-0.4-0.1c-0.2,0-0.3,0-0.5,0c-0.4,0-0.9,0.2-1.2,0.5c-0.5,0.4-0.9,1-1.1,1.6v5.9h-1.5
		v-9.3H128.1z"/>
	<path id="Path_45_2_" class="st0" d="M135.3,72.1c0,0.4,0.1,0.9,0.5,1.1c0.3,0.2,0.7,0.4,1.1,0.3c0.4,0,0.9-0.1,1.3-0.3
		c0.5-0.3,0.9-0.6,1.3-0.9v-2.6c-0.7,0.1-1.3,0.2-2,0.4c-0.4,0.1-0.9,0.3-1.3,0.5c-0.3,0.2-0.5,0.4-0.7,0.7
		C135.4,71.6,135.3,71.9,135.3,72.1 M133.8,72.3c0-1,0.5-1.9,1.4-2.3c1.3-0.7,2.8-1,4.3-1.1c0-0.3,0-0.6-0.1-0.9s-0.2-0.5-0.3-0.7
		s-0.3-0.4-0.6-0.5s-0.6-0.2-0.9-0.2c-0.5,0-1,0.1-1.5,0.3c-0.4,0.2-0.8,0.4-1.2,0.7l-0.6-1.1c0.5-0.3,1-0.6,1.6-0.8
		c0.6-0.3,1.3-0.4,2-0.4c0.9-0.1,1.8,0.3,2.4,1c0.5,0.8,0.8,1.8,0.8,2.8v5.6h-1.3l-0.1-1.1l0,0c-0.4,0.4-0.9,0.7-1.4,0.9
		c-0.5,0.3-1.1,0.4-1.6,0.4c-0.7,0-1.4-0.2-1.9-0.7C134,73.7,133.7,73,133.8,72.3"/>
	<path id="Path_46_2_" class="st0" d="M143.9,65.4h1.3l0.1,1.3h0.1c0.4-0.4,0.9-0.8,1.4-1.1c0.5-0.3,1.1-0.5,1.7-0.4
		c0.8-0.1,1.6,0.3,2.1,0.9c0.5,0.8,0.7,1.7,0.7,2.7v5.8h-1.6V69c0.1-0.7-0.1-1.3-0.4-1.9c-0.3-0.4-0.8-0.6-1.3-0.6
		c-0.4,0-0.9,0.1-1.3,0.4c-0.5,0.3-0.9,0.7-1.2,1.1v6.7h-1.6V65.4z"/>
	<path id="Path_47_2_" class="st0" d="M155.2,70c-0.1,0.9,0.2,1.8,0.7,2.6c0.4,0.6,1.1,1,1.9,0.9c0.4,0,0.8-0.1,1.2-0.3
		c0.4-0.3,0.8-0.6,1.1-1v-4.8c-0.3-0.3-0.7-0.6-1.1-0.7c-0.3-0.1-0.7-0.2-1.1-0.2c-0.4,0-0.7,0.1-1,0.3c-0.3,0.2-0.6,0.4-0.8,0.7
		c-0.3,0.3-0.4,0.7-0.6,1.1C155.3,69.1,155.2,69.6,155.2,70 M153.6,70.1c0-0.7,0.1-1.4,0.3-2s0.5-1.1,0.9-1.5s0.8-0.7,1.3-1
		c0.5-0.2,1-0.3,1.5-0.3s1,0.1,1.4,0.3c0.4,0.2,0.8,0.5,1.2,0.8l-0.1-1.6v-3.5h1.6v13.5h-1.3l-0.1-1.1h-0.1
		c-0.4,0.4-0.8,0.7-1.3,0.9c-0.5,0.3-1,0.4-1.5,0.4c-1.1,0-2.1-0.4-2.8-1.2C153.9,72.6,153.5,71.3,153.6,70.1"/>
	<path id="Path_48_2_" class="st0" d="M174,69.6l-0.6-1.9c-0.2-0.7-0.4-1.4-0.6-2.1c-0.2-0.7-0.4-1.4-0.6-2.1h-0.1
		c-0.2,0.7-0.4,1.4-0.6,2.1c-0.2,0.7-0.4,1.4-0.6,2.1l-0.6,1.9H174z M174.4,70.9h-4.5l-1.2,3.8h-1.6l4.2-12.4h1.8l4.2,12.4h-1.7
		L174.4,70.9z"/>
	<path id="Path_49_2_" class="st0" d="M178.2,70.1c0-0.7,0.1-1.4,0.4-2.1c0.2-0.6,0.5-1.1,1-1.5c0.4-0.4,0.9-0.7,1.4-0.9
		c0.5-0.2,1.1-0.3,1.7-0.3c0.5,0,1.1,0.1,1.6,0.3c0.4,0.2,0.8,0.5,1.1,0.8l-0.8,1c-0.3-0.2-0.6-0.4-0.9-0.6c-0.3-0.2-0.6-0.2-1-0.2
		s-0.8,0.1-1.2,0.3c-0.4,0.2-0.7,0.4-0.9,0.7c-0.3,0.3-0.5,0.7-0.6,1.1c-0.2,0.5-0.2,1-0.2,1.4c0,0.5,0.1,1,0.2,1.4
		c0.1,0.4,0.3,0.8,0.6,1.1c0.2,0.3,0.5,0.6,0.9,0.7c0.7,0.3,1.6,0.3,2.4,0c0.3-0.2,0.7-0.4,1-0.7l0.7,1c-0.4,0.4-0.9,0.7-1.4,0.9
		c-0.5,0.2-1,0.3-1.6,0.3s-1.2-0.1-1.7-0.3c-0.5-0.2-1-0.5-1.4-0.9s-0.7-1-0.9-1.5C178.3,71.4,178.2,70.8,178.2,70.1"/>
	<path id="Path_50_2_" class="st0" d="M187.6,66.7h-1.4v-1.2l1.4-0.1l0.2-2.6h1.3v2.6h2.5v1.3h-2.5v5.1c0,0.5,0.1,0.9,0.3,1.3
		c0.3,0.3,0.7,0.5,1.1,0.5c0.2,0,0.4,0,0.5-0.1c0.2,0,0.3-0.1,0.5-0.2l0.3,1.2c-0.3,0.1-0.5,0.2-0.8,0.2c-0.3,0.1-0.6,0.1-0.9,0.1
		c-0.4,0-0.8-0.1-1.2-0.2c-0.3-0.1-0.6-0.4-0.8-0.6c-0.2-0.3-0.4-0.6-0.4-1c-0.1-0.4-0.1-0.8-0.1-1.2L187.6,66.7z"/>
	<path id="Path_51_2_" class="st0" d="M193.7,65.4h1.6v9.2h-1.6V65.4z M194.5,63.6c-0.3,0-0.6-0.1-0.8-0.3c-0.4-0.4-0.4-1,0-1.4l0,0
		c0.4-0.4,1.1-0.4,1.5,0s0.4,1,0,1.4l0,0C195.1,63.5,194.8,63.6,194.5,63.6"/>
	<path id="Path_52_2_" class="st0" d="M197.1,65.4h1.6l1.7,5.2c0.1,0.5,0.3,0.9,0.4,1.4c0.1,0.5,0.3,0.9,0.4,1.3h0.1
		c0.1-0.4,0.3-0.9,0.4-1.3c0.1-0.5,0.3-0.9,0.4-1.4l1.7-5.2h1.5l-3.3,9.2h-1.8L197.1,65.4z"/>
	<path id="Path_53_2_" class="st0" d="M208,72.1c0,0.4,0.1,0.9,0.5,1.1c0.3,0.2,0.7,0.4,1.1,0.3c0.4,0,0.9-0.1,1.3-0.3
		c0.5-0.3,0.9-0.6,1.3-0.9v-2.6c-0.7,0.1-1.3,0.2-2,0.4c-0.4,0.1-0.9,0.3-1.3,0.5c-0.3,0.2-0.5,0.4-0.7,0.7
		C208,71.6,207.9,71.9,208,72.1 M206.4,72.3c0-1,0.5-1.9,1.4-2.3c1.3-0.7,2.8-1,4.3-1.1c0-0.3,0-0.6-0.1-0.9s-0.2-0.5-0.3-0.7
		s-0.3-0.4-0.6-0.5s-0.6-0.2-0.9-0.2c-0.5,0-1,0.1-1.5,0.3c-0.4,0.2-0.8,0.4-1.2,0.7l-0.6-1.1c0.5-0.3,1-0.6,1.6-0.8
		c0.6-0.3,1.3-0.4,2-0.4c0.9-0.1,1.8,0.3,2.4,1c0.5,0.8,0.8,1.8,0.8,2.8v5.6h-1.3l-0.1-1.1l0,0c-0.4,0.4-0.9,0.7-1.4,0.9
		c-0.5,0.3-1.1,0.4-1.6,0.4c-0.7,0-1.4-0.2-1.9-0.7C206.7,73.7,206.4,73,206.4,72.3"/>
	<path id="Path_54_2_" class="st0" d="M216.6,66.7h-1.4v-1.2l1.4-0.1l0.2-2.6h1.3v2.6h2.5v1.3h-2.5v5.1c0,0.5,0.1,0.9,0.3,1.3
		c0.3,0.3,0.7,0.5,1.1,0.5c0.2,0,0.4,0,0.5-0.1c0.2,0,0.3-0.1,0.5-0.2l0.3,1.2c-0.3,0.1-0.5,0.2-0.8,0.2c-0.3,0.1-0.6,0.1-0.9,0.1
		c-0.4,0-0.8-0.1-1.2-0.2c-0.3-0.1-0.6-0.4-0.8-0.6c-0.2-0.3-0.4-0.6-0.4-1c-0.1-0.4-0.1-0.8-0.1-1.2L216.6,66.7z"/>
	<path id="Path_55_2_" class="st0" d="M222.7,65.4h1.6v9.2h-1.6V65.4z M223.5,63.6c-0.3,0-0.6-0.1-0.8-0.3c-0.4-0.4-0.4-1,0-1.4l0,0
		c0.4-0.4,1.1-0.4,1.5,0s0.4,1,0,1.4l0,0C224.1,63.5,223.8,63.6,223.5,63.6"/>
	<path id="Path_56_2_" class="st0" d="M228.3,70.1c0,0.5,0.1,1,0.2,1.4c0.1,0.4,0.3,0.8,0.5,1.1c0.2,0.3,0.5,0.5,0.8,0.7
		c0.7,0.3,1.5,0.3,2.2,0c0.3-0.2,0.6-0.4,0.8-0.7c0.2-0.3,0.4-0.7,0.5-1.1c0.1-0.5,0.2-1,0.2-1.4c0-0.5-0.1-1-0.2-1.4
		c-0.1-0.4-0.3-0.8-0.5-1.1c-0.2-0.3-0.5-0.6-0.8-0.7c-0.7-0.3-1.5-0.3-2.2,0c-0.3,0.2-0.6,0.4-0.8,0.7c-0.2,0.3-0.4,0.7-0.5,1.1
		C228.3,69.1,228.3,69.6,228.3,70.1 M226.7,70.1c0-0.7,0.1-1.4,0.4-2.1c0.2-0.6,0.5-1.1,0.9-1.5s0.8-0.7,1.4-0.9
		c1-0.4,2.2-0.4,3.2,0c0.5,0.2,1,0.5,1.4,0.9s0.7,1,0.9,1.5c0.5,1.3,0.5,2.8,0,4.1c-0.2,0.6-0.5,1.1-0.9,1.5s-0.8,0.7-1.4,0.9
		c-1,0.4-2.2,0.4-3.2,0c-0.5-0.2-1-0.5-1.4-0.9s-0.7-1-0.9-1.5C226.8,71.4,226.7,70.8,226.7,70.1"/>
	<path id="Path_57_2_" class="st0" d="M237.6,65.4h1.3l0.1,1.3h0.1c0.4-0.4,0.9-0.8,1.4-1.1c0.5-0.3,1.1-0.5,1.7-0.4
		c0.8-0.1,1.6,0.3,2.1,0.9c0.5,0.8,0.7,1.7,0.7,2.7v5.8h-1.6V69c0.1-0.7-0.1-1.3-0.4-1.9c-0.3-0.4-0.8-0.6-1.3-0.6
		c-0.4,0-0.9,0.1-1.3,0.4c-0.5,0.3-0.9,0.7-1.2,1.1v6.7h-1.6V65.4z"/>
	<path id="Path_58_2_" class="st0" d="M34.8,36.3c-0.4,1.3-0.7,0.9-1.3,1.6s-1,0.5-1,0.5s-1.6-0.1-2.9-0.2c-0.5,0-1,0-1.6-0.1
		c-0.8-0.1-0.8,0.3-1.2,0.3c-0.4,0-1.5,0.2-2,0.2c-0.4,0-0.8,0-1.2-0.1c-1.1-0.1-0.6-0.7-0.5-1c0.2-0.3,1.1-0.6,1.1-0.6l0.3-0.5H25
		c0.3,0.1,0.6,0.3,0.9,0.4c0.5,0.2,0.2,0,0.8,0.1c0.5,0.1,0.2-0.1,0.4-0.4c0.3-0.2,0.4,0,0.9,0.2c0.5,0.1,1,0.1,1.4-0.2
		c0.7-0.2,0.4-1.1,0.4-1.4c0-0.3-0.6-0.5-1-0.8c-0.5-0.2-0.9,0-1.5-0.1s-0.8-1.1-0.4-1.3s0.2,0,0.8-0.1c0.6-0.1,0.2-0.3,0.8-0.6
		c0.2-0.2,0.6-0.2,0.8,0c1,0.1,2,0.2,2.9,0.1c0.6-0.1,0.6-0.4,0.6-0.4s1.5-0.7,1.8-0.8c0.3-0.2,0.5-0.5,0.5-0.8
		c0.1-0.4-0.8-1.3-1.3-1.7c-0.4-0.3-1-0.2-1.5-0.4c-0.5-0.2-0.6,0.1-1.6,0.1c-0.9,0-1.7,0.2-2.6,0.1c-0.9,0-1-0.5-1.2-1.2
		c-0.1-0.7,0-0.8,0.5-1.2c0.5-0.4,0.5,0.2,1,0.5c0.3,0.1,0.6,0.1,0.9,0c0.4-0.2,0.8-0.5,1.1-0.7c0.3-0.3,0.6-0.5,1-0.6
		c0.5-0.1,0.9-0.5,1-1c0.1-0.6-0.1-1.2-0.4-1.6c-0.3-0.4-0.6-0.8-1.1-1c-0.6-0.5-1.2-1-1.8-1.6c-0.3-0.4-0.7-0.6-1.1-0.7
		s-1.5-0.9-2.4-1.2c-0.9-0.3-2.3,0.3-2.4,0.7c-0.2,1,0.6,0.7,0.9,1.3c0.4,0.7-0.4,1.1-0.9,1.1c-0.6,0-0.4-0.5-0.7-0.9
		c-0.6-0.7-1.3-1.3-2.1-1.7c-0.7-0.2-1.3-0.5-1.9-0.8c-0.4-0.5-1-0.9-1.7-0.9c-1.1,0.1-2.2,0.5-3,1.3c-1.3,1-0.6,1.6-0.9,2.1
		c-0.4,0.5-3.3,2.4-4.4,3.2c-1,0.8-0.3,3,0.3,3.6c0.6,0.5,1.2,1.3,1.8,1.2c0.5,0,1.1,0.1,1.5,0.4c0.6,0.3,0.7,0,1.6,0
		s0.7-0.6,0.8-1.1c0.2-0.5,0.9-0.7,1.3-0.9c0.4-0.2,1.2,0.2,1.2,0.2l-0.4,0.8c-0.4,0.4-0.9,0.7-1.4,1c-0.4,0.2-0.3,0.2-0.7,0.7
		c-0.3,0.4-0.7,0.6-1.2,0.8c-1,0.2-2.1,0.3-3.1,0.2c-0.5,0-1.1-0.1-1.6-0.1c-0.9-0.2-1-0.4-1.5-0.2c-0.4,0.2-0.6,0.6-0.6,1
		c0.1,0.5,0.3,1,0.5,1.4c0,0.8,0.7,0.4,1,0.8c0.5,0.8,1.4,1.4,2.4,1.6c0.4,0.1,0.8,0.1,1.1,0s0.6-0.5,1-0.5c0.6-0.1,1.3-0.3,1.9-0.5
		c0.6-0.1,1.2-0.2,1.7-0.1c0.9,0,0.8,0.8,0.5,1.2s-0.6,0.1-0.9,0.3c-0.5,0.1-1.1,0.2-1.6,0.2c-0.4,0.1-0.8,0.1-1.2,0.1
		c-0.6-0.1-0.6,0.2-1.4,0.7c-0.7,0.5,0.3,1,0.6,1.7c0.2,0.5,0.7,0.8,1.2,0.7l0,0c0.5-0.1,0.9,0,1.3,0.2c0.5,0.2,0.2,1,0.2,1
		s-0.6,0.1-1.3,0.4c-0.5,0.2-1,0.4-1.5,0.4c-0.6,0-1.1-0.1-1.7-0.2C9.7,40,9.2,40,7.7,39.8c-1.6-0.2-3-2.9-3-4.1
		C4.6,34.3,4.3,33,4.4,32c0-1.9,0.4-3.7,1.1-5.4c0.2-0.7,0.3-1.4,0.4-2c0.4-1.1,1.1-2.2,1.9-3c0.3-0.3,0.5-0.7,0.7-1
		c0.6-0.5,1.3-1,2-1.5c0.3-0.2,0.6-0.5,0.8-0.9c0.3-0.4,0.1-0.3,0.5-0.3s0.3-0.7,2.4-1.5c0.6-0.3,1.2-0.4,1.8-0.4
		c0.4-0.1,1.3-0.4,2.4-0.5c1.1-0.2,2.3-0.3,3.5-0.3c0.8,0.1,1.6,0.3,2.4,0.5c2.5,0.6,6.4,2.6,6.8,3.5c0.5,1.2,1.4,2.3,2.5,3
		c1.4,2.3,2.2,4.9,2.4,7.6C36.1,32,35.7,34.2,34.8,36.3 M29.8,43.3c-0.3,0.3-0.2,0.4-0.8,0.8c-0.6,0.4-0.6,0.5-1,0.5
		s-1.3-0.1-1.9-0.1s-1.1-0.1-1.6-0.2c-1-0.1-1-0.6-1.6-1c-0.5-0.4-0.3-0.8-0.1-1.3c0.2-0.5,1.6-0.4,1.6-0.4c0.6-0.2,1.2-0.3,1.8-0.4
		c0.6,0.1,1.2,0.1,1.8,0c0.4,0,0.8,0.1,1,0.4l1,0.9C30.1,42.8,30,43.1,29.8,43.3 M24.5,33.1l-0.7,0.4l-0.6-0.4l0.9-0.7
		C24.4,32.5,24.5,33.1,24.5,33.1 M22.1,29.2c-0.4,0.1-1,0.3-1,0.3c-0.2,0.1-0.4,0.2-0.6,0.2c-0.4,0-0.8,0-0.7-0.2
		c0.1-0.3,0.2-0.3,0.9-0.5c0.4-0.1,0.8-0.4,1-0.7c0.1-0.2,0.4-0.3,0.6-0.2c0.3,0.1,0.5,0,0.7-0.1l0.9-0.1l0.7,0.5
		c0,0,0.2,0.8-0.3,0.9c-0.4,0.2-0.2,0.2-1,0C22.6,29.2,22.6,29.1,22.1,29.2 M19,24.3c-0.1-0.6,0.5-0.7,0.9-0.7
		c0.3,0,0.6,0.1,0.9,0.2c0,0,0.2,0.8-0.2,1.2l-0.5,0.2C20.1,25.2,19.1,24.9,19,24.3 M21.2,47.8c-0.4,0.1-0.5,0-1.3,0.1
		c-0.9,0-1.4,0.1-1.7,0.1s0.1-0.7-0.9-0.7s-2.2-0.1-2.7-0.1c-0.4,0-0.8-0.1-1.1-0.3l-1.2-1.3c0,0,0.2-0.4-0.3-0.5
		c-0.6-0.1-0.8-0.5-0.4-1c0.3-0.3,0.7-0.6,1.1-0.8H14c0.3,0,0.6-0.1,0.8-0.2c0.6-0.2,0.8-0.1,1.5,0c0.4,0.1,0.7,0.4,0.8,0.8
		c-0.2,0.4-0.1,0.9,0.3,1.2c0.6,0.5,1,1.1,1.3,1.2c0.2,0.1,0.4,0.1,0.7,0.2c0.2,0.3,0.5,0.5,0.9,0.7c0.4,0.1,0.8,0.2,1.2,0.2
		C21.5,47.2,21.5,47.7,21.2,47.8 M39.1,24.8c-0.5-0.7-0.2-1.1-0.3-1.8c-0.1-0.8-2.9-4.7-3.5-5.6c-0.7-0.9-1.7-1.3-2.3-1.9
		c-1.4-1.3-3-2.4-4.7-3.3c-2-0.8-4.2-1.3-6.3-1.5c-0.8-0.1-1.6,0-2.4,0.1c-1.9,0.2-3.8,0.5-5.7,1c-2.4,1-4.7,2.3-6.7,4
		c-0.8,0.8-0.6,1.3-1.6,2c-0.9,0.7-3.6,4.1-3.8,5.5c-0.2,1.3-0.9,3.4-1.4,6.2c-0.3,1.5-0.3,3,0.1,4.5c-0.1,2.1,0.5,4.3,1.6,6.1
		c1.7,3.2,4.1,6,7,8.1c0.7,0.5,1.2,1,1.8,1.3c3.3,1.6,5.2,1.2,6.1,1.6c1.8,0.4,3.6,0.7,5.4,0.7c0.3,0,0.6-0.1,0.9-0.2
		c0,0,0.7,0.2,1.2,0.2c0.4,0,0.8,0,1.2,0c0,0,1.3-0.2,1.9-0.4c0.9-0.3,0.8-1,0.8-1s1.1-0.1,2-0.1s0.4-0.2,0.4-0.2s0.7-0.1,1-0.1
		c0.4-0.1,0.3-0.7,0.3-0.7c0.2-0.3,0.4-0.5,0.7-0.7s0.6-0.3,0.8-0.6c0.3-0.2,0.6-0.5,0.9-0.8c0.3-0.4,0.1-0.5-0.7-0.2
		c-0.7,0.3-0.9,0.2-0.8-0.2c0.1-0.4,1-0.5,1-0.5c1.6-1.1,2.7-2.7,3.4-4.5c0.3-0.9,0.5-0.7,1.1-2c1.5-3.2,2.1-6.8,1.9-10.3
		C40.2,27.8,39.8,26.2,39.1,24.8"/>
	<path id="Path_59_2_" class="st0" d="M60.5,45.7C60.5,45.7,60.6,45.7,60.5,45.7C60.6,45.7,60.5,45.7,60.5,45.7 M59.2,36.5V25.8
		c0-1.5,0-3.2,1-4.3c0,0,0,0,0.1-0.1c1.6-2.4,4.8-3.3,7.2-3.3c3,0,5.8,1.2,7.9,3.4c2.3,2.6,3.5,6,3.4,9.5c0,6.6-4.5,13.4-12.1,13.4
		c-2,0-3.9-0.6-5.5-1.8C59.4,41.1,59.2,38.7,59.2,36.5 M70.2,13.8c-4,0.2-7.8,1.6-10.9,4.1v-2.3c0-0.5-0.1-1-0.4-1.5
		c-0.2-0.2-0.6-0.4-0.9-0.4c-0.6,0-3.3,1.6-4.9,2.6c-4.4,2.8-4.4,3.3-4.4,3.7c0,0.6,0.5,1.3,1.5,1.3h0.9c0.5-0.1,1,0.1,1.5,0.3l0,0
		c0.2,0.2,0.5,1,0.5,3.7v43.2c0,0.3,0.1,0.5,0.4,0.6c0.2,0.1,0.5,0.1,0.7,0l4.7-2.9c0.2-0.1,0.3-0.4,0.3-0.6v-19v-0.3
		c0-0.2,0-0.4,0-0.6c0-0.1,0-0.3,0-0.4c0.2,0,0.4,0.1,0.6,0.2c0,0,0.4,0.1,0.6,0.1c2.3,0.9,4.7,1.4,7.1,1.5
		c4.9,0.1,9.6-1.7,13.1-5.1c6.3-6.4,6.5-16.6,0.4-23.2C78.7,16.4,74.6,13.7,70.2,13.8"/>
	<path id="Path_60_2_" class="st0" d="M129.9,39.4c-0.6,0.1-1.1,0.4-1.4,0.9l-0.1,0.2c-2,1.9-4.7,2.9-7.4,2.8
		c-7.5,0-12.2-7-12.2-13.5c0-4.1,1.7-7.9,4.7-10.6c1.8-1.6,4.1-2.5,6.5-2.7c3.8,0,7,2.3,8.6,3.4c0.8,0.6,1.1,0.8,1.6,0.6
		c0.3-0.1,0.4-0.4,0.4-0.7v-0.5c0.1-1,0.1-2.3-0.9-3.1c-2.7-1.6-5.8-2.4-8.9-2.4c-4.8,0-9.3,1.8-12.9,5c-3.6,3.1-5.7,7.6-5.7,12.3
		c0.1,8.9,7.2,16,16.1,16.1c3.8,0.1,7.5-1.2,10.4-3.5c2.3-1.9,2.3-2.8,2.3-3C131.1,40,130.6,39.4,129.9,39.4"/>
	<path id="Path_61_2_" class="st0" d="M151.3,16.6c7.3,0,11.2,7.3,11.2,14.2c0,6.6-4.2,13.8-10.9,13.8c-7.8,0-11.4-8.7-11.4-14.6
		C140.2,23.4,144.1,16.6,151.3,16.6 M163.6,18c-3.4-2.8-7.7-4.3-12.2-4.1c-4.8-0.2-9.4,1.6-12.9,4.8c-3.1,3.1-4.9,7.2-4.9,11.6
		c0,9.5,7.8,17,17.8,17s17.8-7.4,17.8-17C169.2,25.5,167.1,21.1,163.6,18"/>
	<path id="Path_62_2_" class="st0" d="M99.7,43.6h-0.3c-2.6-0.2-2.5-1.4-2.5-3.8v-1.1V15.6c0.1-0.5-0.1-1-0.4-1.4
		c-0.3-0.2-0.6-0.4-0.9-0.4s-0.6,0-4.6,3L90.6,17v29.6h9.7c0.8,0.1,1.5-0.5,1.5-1.3c0-0.1,0-0.1,0-0.2
		C101.9,43.7,100.3,43.6,99.7,43.6"/>
	<path id="Path_63_2_" class="st0" d="M94,8.1c2.2,0,4-1.8,4-4s-1.8-4-4-4s-4,1.8-4,4l0,0C90,6.3,91.8,8.1,94,8.1"/>
</g>
</svg>
