<?xml version="1.0" encoding="utf-8"?>
<!-- Generator: Adobe Illustrator 24.0.1, SVG Export Plug-In . SVG Version: 6.00 Build 0)  -->
<svg version="1.1" id="Layer_1" xmlns="http://www.w3.org/2000/svg" xmlns:xlink="http://www.w3.org/1999/xlink" x="0px" y="0px"
	 viewBox="0 0 117 29" style="enable-background:new 0 0 117 29;" xml:space="preserve">
<style type="text/css">
	.st0{fill:#FFFFFF;}
</style>
<g>
	<g>
		<path class="st0" d="M24.8,4.3H0.5V1.6h24.4V4.3z M76.2,22.4c-1.8,1.4-4.1,2.3-6.6,2.3c-6,0-10.9-4.9-10.9-10.9S63.5,2.9,69.5,2.9
			s10.9,4.9,10.9,10.9c0,2.5-0.9,4.8-2.3,6.6l4.4,4.4l1.9-1.9l-2.9-2.9c1-1.9,1.5-4,1.5-6.3c0-7.5-6.1-13.5-13.5-13.5
			S56,6.3,56,13.8c0,7.5,6.1,13.5,13.5,13.5c2.3,0,4.4-0.6,6.3-1.5l2.9,2.9l1.9-1.9L76.2,22.4z M0.5,7v2.7h8.1V26h2.7V7H0.5z M14,7
			v19h2.7V9.8h8.1V7H14z M69.5,8.7c-2.8,0-5.1,2.3-5.1,5.1c0,2.8,2.3,5.1,5.1,5.1c2.8,0,5.1-2.3,5.1-5.1C74.7,11,72.4,8.7,69.5,8.7
			 M69.5,6c4.3,0,7.8,3.5,7.8,7.8c0,4.3-3.5,7.8-7.8,7.8s-7.8-3.5-7.8-7.8C61.7,9.5,65.2,6,69.5,6"/>
		<path class="st0" d="M108,26L98.7,1.6h8.7l9.3,24.4H108z M86.9,26h8.7l4.2-10.9h-8.7L86.9,26z"/>
	</g>
	<path class="st0" d="M45.8,26L36.5,1.6h8.7L54.5,26H45.8z M24.7,26h8.7l4.2-10.9h-8.7L24.7,26z"/>
</g>
</svg>
