<?xml version="1.0" encoding="utf-8"?>
<!-- Generator: Adobe Illustrator 24.0.1, SVG Export Plug-In . SVG Version: 6.00 Build 0)  -->
<svg version="1.1" id="Layer_1" xmlns="http://www.w3.org/2000/svg" xmlns:xlink="http://www.w3.org/1999/xlink" x="0px" y="0px"
	 viewBox="0 0 1920 1080" style="enable-background:new 0 0 1920 1080;" xml:space="preserve">
<style type="text/css">
	.st0{fill:#FFFFFF;}
</style>
<g>
	<g>
		<path class="st0" d="M1096.2,651.9c-21.7,0.5-43.4,0.2-65.2,0.3c-10.1,0.1-11.9-0.9-16-10.2c-7.3-16.7-12.7-34.2-20.2-50.9
			c-3.4-7.6-3.3-7.5-11.7-7.4c-22.3,0.2-44.5,0.3-66.8,0.4c-12.3,0-24.5-0.1-36.8-0.1c-7,0-7.9,1-10.4,7.3
			c-7.3,18.6-14.8,37.1-22.1,55.7c-1.5,3.9-3.9,5.2-8,5.2c-17-0.1-34,0.1-51,0c-6.7,0-13.4-0.9-20.2-0.5c-5.1,0.3-7-2.8-4.7-7.3
			c11.2-22.6,19.9-46.4,30.5-69.3c5.9-12.9,10.7-26.4,16.3-39.5c6.9-16.1,13.3-32.4,20.3-48.4c10.8-24.5,20.5-49.4,31.2-74
			c9.7-22.2,18.4-44.8,27.8-67.1c2-4.8,4.7-9.4,6.4-14.4c1.1-3.3,3.5-4.6,7-4.4c19.5,1.1,39,0.7,58.5,0.1c5.8-0.2,9.5,2.5,11.7,7.6
			c3.2,7.3,6.6,14.6,9.2,22.1c6.3,18.2,14.7,35.6,22.2,53.3c5.2,12.4,10.7,24.8,15.9,37.2c7.9,18.9,15.5,38,23.9,56.6
			c3.9,8.6,7,17.6,10.2,26.5c4,11.1,9.6,21.5,14.3,32.2c8.1,18.3,15.6,36.8,22.9,55.4c2.7,7,5.9,13.8,8.8,20.7
			c0.8,1.8,1.6,3.7,2.1,5.6C1104,650.7,1102.2,652.9,1096.2,651.9z M931.1,527.3c9.7,0,19.5,0,29.2,0c8,0,9.2-1.5,7.6-9.5
			c-1.1-5.2-4.4-9.4-6.1-14.4c-7.7-23.2-18.1-45.4-25.5-68.8c-0.2-0.7-0.5-1.4-0.8-2.1c-1-1.9-2.5-3.3-4.8-2.9c-2,0.3-2.7,2-3.1,3.8
			c-2.8,15.1-10.3,28.5-15.1,43c-4.7,14.2-10.3,28.1-16.9,41.6c-3.1,6.4-1,9.2,6.2,9.2C911.6,527.3,921.4,527.3,931.1,527.3z"/>
		<path class="st0" d="M579.1,652.4c-39-0.8-71.2,0.5-103.5-0.6c-2.2-0.1-4.5,0.3-6.7,0.4c-6.3,0.3-8.9-2.1-8.6-8.4
			c0.2-4.7,1.1-9.4,1.1-14.2c-0.1-93.1-0.1-186.2-0.2-279.3c0-4.7-0.6-9.5-0.8-14.2c-0.3-6.8,2.2-9.2,9-8.3c8.7,1.2,17.5,0,26.2,0
			c53.6,0.1,107.1,0.7,160.7-0.1c7-0.1,14,0.7,21,0.2c6.2-0.4,8.8,2.2,8.8,8.4c0.2,17,0.2,34,0.2,51c0,5.8-2.8,8.4-9.3,7.8
			c-12.5-1-25-0.4-37.5-0.5c-27.5-0.3-55.1,0.7-82.6-0.4c-1.7-0.1-3.6-0.1-5.2,0.3c-2.9,0.8-4.7,2.5-4.3,6c1.3,13.5,0.7,27-0.1,40.4
			c-0.4,5.6,2.7,8.5,8.9,8.4c29.5-0.2,59-0.4,88.6-0.6c2.5,0,5-0.1,7.5,0.1c6,0.5,7.3,1.8,7.3,8c0,11.8-0.1,23.5-0.2,35.3
			c0,4.5,0.1,9,0.1,13.5c0,5.7-1.2,7.2-6.9,7.4c-5.5,0.2-11-0.1-16.5,0c-24.5,0.1-49,0.3-73.6,0.3c-2.2,0-4.5-0.5-6.7-0.6
			c-6-0.5-8.8,1.7-8.3,7.6c1.1,13,0.3,26,0.6,39c0.1,6.7,0.2,13.5-0.5,20.2c-0.6,5.9,1.8,8.1,7.9,8c37-0.5,74.1-0.7,111.1-0.1
			c4.2,0.1,8.5-0.4,12.8-0.2c5.4,0.2,7,2.1,7,7.5c-0.1,16-0.1,32-0.3,48c-0.1,7.9-2,9.5-10,9.5C641.5,652.4,607,652.4,579.1,652.4z"
			/>
		<path class="st0" d="M1179.6,504.5c0-46.2-0.1-78,0-109.8c0.1-19.5,0.9-39,0.3-58.5c-0.3-7.7,1.2-8.3,8.8-8.3
			c20.5,0.2,41,0.3,61.5,0.1c5.7-0.1,11.5,0.5,17.2-0.2c5.2-0.6,8.5,2.6,10.5,7c2.9,6.4,5.9,12.7,8.3,19.3
			c6,16.4,13.7,32.1,20.9,48.1c8.5,19.2,16.5,38.6,24.4,58c4.7,11.6,9.9,22.9,15.4,34.2c4.7,9.7,7.5,20.2,12,29.9
			c0.4,0.9,0.5,2,0.9,2.9c0.8,1.9,1.6,3.8,4.1,3.7c2.1-0.1,2.7-1.9,3.4-3.5c2.7-6.7,5.4-13.5,8.3-20.1c5.7-13.3,11.7-26.5,17.1-40
			c2.5-6.2,5.1-12.5,7.5-18.8c1.7-4.6,4.5-6.2,9.5-6.6c13.3-1,26.5,0.8,39.7,0.6c4.8,0,9.4-0.3,14.2-0.9c6.1-0.8,7.9,2,5.5,7.5
			c-10.4,23.3-18.7,47.4-28.5,71c-6.4,15.2-12.7,30.5-18.5,45.9c-6.3,16.9-14.6,32.9-20.4,49.9c-2.9,8.5-6.8,16.6-9.7,25.2
			c-3,9.1-7.5,11.5-17,11.3c-10.3-0.2-20.5-0.4-30.8,0c-5.6,0.2-8.9-1.8-11-6.9c-6.3-15.5-12.3-31.2-19.2-46.5
			c-9-20.1-14.7-41.4-24.3-61.3c-6.1-12.8-10.6-26.4-16-39.6c-2.2-5.6-4.7-11-7.1-16.5c-2.8-6.4-5.3-13-6.7-19.9
			c-1-4.8-3.4-8.9-6.8-12.3c-1.6-1.6-3.4-1.3-3.7,1.2c-0.3,2.2-0.1,4.5,0.1,6.7c2,15.7,1.7,31.4,1.2,47.2c-0.6,17-0.1,34-0.1,51
			c0,21.3,0,42.5,0,63.8c0,8-1.3,15.9,0.1,23.9c1.1,6-2.7,9.1-8.9,9.1c-18-0.1-36-0.1-54,0c-6.9,0-8.5-1.3-8.3-8.3
			C1181.4,592.6,1178.5,541.3,1179.6,504.5z"/>
		<path class="st0" d="M1567.8,328c30.3,0,60.5,0,90.8,0c5.7,0,11.5,0.4,17.2,0c6.1-0.4,7.8,2,5.5,7.8c-5.5,14.2-10.9,28.5-17,42.4
			c-3.4,7.8-6.2,15.8-9,23.8c-4.5,12.7-10,25-14.9,37.6c-9.4,24.5-19.4,48.8-29,73.2c-8.5,21.6-16.8,43.3-25.2,64.9
			c-8.1,20.7-16.3,41.4-24.5,62c-0.7,1.9-1.7,3.6-2.5,5.4c-2.2,4.9-5.9,7.1-11.3,7c-15-0.2-30-0.3-45-0.1c-10.2,0.2-20.4-1-30.6-0.3
			c-6.2,0.4-8.9-2.9-6-8.3c4.2-8,6.9-16.6,10.2-24.9c8.3-20.9,16.9-41.6,24.6-62.8c6.5-17.8,14.2-35.2,21.2-52.8
			c8.5-21.6,16.8-43.3,25.2-65c1.8-4.7,4.1-9.1,5.8-13.8c2.8-7.9,0.9-10.5-7.2-9.5c-8.5,1.1-17-0.4-25.5-0.2
			c-23.7,0.5-47.5,0.5-71.3,0.5c-8.2,0-16.5-1.1-24.7,0.2c-1,0.2-2,0-3-0.1c-5.1-0.7-6.9-3.4-4.3-7.7c5.8-9.5,9.7-19.8,13.9-29.9
			c4.7-11.3,9.8-22.4,15-33.5c1.1-2.4,1.4-5.3,2.1-8c1.2-5.2,3.3-7.4,8.6-7.8c3.7-0.3,7.5,0.1,11.2,0.1c33.3,0,66.5,0,99.8,0
			C1567.8,328.3,1567.8,328.1,1567.8,328z"/>
		<path class="st0" d="M226.2,328.2c41.8,0,83.6,0,125.4,0c5.5,0,11,0.5,16.5-0.3c5.4-0.8,7.2,1.3,7.2,6.8
			c0.1,17.8,0.1,35.5,0.1,53.3c0,5.4-1.9,7.5-7.1,7.3c-29.3-1.1-58.5,0.1-87.8-0.7c-8.2-0.2-10.8,2.1-10.5,9.8
			c2.1,55.8,0.4,111.6,0.9,167.4c0.2,21.3,0.7,42.5-0.7,63.8c-0.2,3.2,0.6,6.5,0.5,9.7c-0.2,5-2.9,7.8-7.7,6.9
			c-10-1.7-20,0.5-29.9,0.1c-14.2-0.5-28.5,0-42.7,0.1c-5.2,0-6.9-1.2-7.1-6.5c-0.3-8.2,0-16.5,0-24.8
			c-0.1-70.6-0.2-141.2-0.2-211.8c0-2.7,0.3-5.5,0.3-8.2c-0.1-5-1.7-6.8-6.8-6.8c-5.5,0-11,0.4-16.5,0.5
			c-23.3,0.3-46.5-0.7-69.8,0.5c-1.5,0.1-3,0-4.5-0.3c-4.4-0.9-5.9-2.9-5.8-7.3c0.6-17,0.9-34-0.1-51c-0.4-6.4,2.1-8.9,9-8.9
			c26.8,0,53.5,0,80.3,0c19,0,38,0,57.1,0C226.2,328.1,226.2,328.1,226.2,328.2z"/>
		<path class="st0" d="M1836.4,489.9c0,47.5,0,95.1,0,142.6c0,3.5,0.5,7,0.6,10.5c0.1,6.6-2.6,9.2-9,9.2
			c-23.2-0.1-46.5-0.2-69.7-0.2c-7.8,0-10.6-2.4-9.9-9.6c2.3-23.2,0.8-46.5,1.1-69.8c0.5-48.8,0.1-97.6,0-146.4c0-0.8,0-1.5,0-2.3
			c-0.1-8.2-1.3-9.4-9.7-9.4c-6,0-12,0.2-18,0.1c-6.4-0.1-7.4-1.4-7.4-7.6c0.2-23.8,0.8-47.5-0.1-71.3c-0.2-5.7,1.5-7.9,7.2-8.1
			c5.5-0.2,11,0.4,16.5,0.4c27,0.1,54,0.2,81.1,0.2c2.5,0,5-0.4,7.5-0.6c7.8-0.7,10.1,1.4,10.1,9c-0.1,28-0.2,56-0.2,84.1
			C1836.3,443.9,1836.4,466.9,1836.4,489.9C1836.4,489.9,1836.4,489.9,1836.4,489.9z"/>
	</g>
</g>
</svg>
