<?xml version="1.0" encoding="utf-8"?>
<!-- Generator: Adobe Illustrator 24.0.1, SVG Export Plug-In . SVG Version: 6.00 Build 0)  -->
<svg version="1.1" id="Layer_1" xmlns="http://www.w3.org/2000/svg" xmlns:xlink="http://www.w3.org/1999/xlink" x="0px" y="0px"
	 viewBox="0 0 220 220" style="enable-background:new 0 0 220 220;" xml:space="preserve">
<style type="text/css">
	.st0{fill-rule:evenodd;clip-rule:evenodd;fill:#FFFFFF;}
</style>
<g id="logo-sketch">
	<g id="text" transform="translate(49 150)">
		<g id="Mask">
			<path id="path-1" class="st0" d="M143.3,36.2c3.2,0,5.3,1.8,5.5,4.1c0,1.7-1.4,3-3,3c-3.6,0-2.7-2.7-4.2-2.7
				c-3.4,0-6.1,5.2-8.6,10.8l-0.4,0.9l-0.6,1.3l-0.6,1.3c-1.4,2.7-2,3.2-3,3.2c-2.6,0-3-6.8-4.1-9.8c-2.1,4.5-6.4,9.8-13,9.8
				c-3.9-0.2-7.7-2.1-7.7-8.2c0-6.8,4.5-11.7,9.1-11.7c3.5,0,5.8,3.6,5.8,6.1c-0.2,6.7-9.1,6.8-9.1,8.2c0,1.4,2.3,1.8,3.6,1.8
				c5.8,0,9.5-7.4,10.9-12.6c0.3-0.9,1.1-2.7,2.7-2.7c1.8,0,0.9,11.2,3.5,11.2C131.6,50.1,133.8,36.2,143.3,36.2z M53.6,20.9
				c3-0.2,5.5,2.7,5.8,7.3c0.6,12.1-3.5,17-5.6,21.4c0.5,1.7,3.3,4.5,6.1,4.5c1.1,0,2.3-0.5,2.6-0.9c-0.3-0.8-0.5-1.5-0.5-2.9
				c0-7,4.7-12.7,8.6-12.7c3.2,0,5,4.1,5,6.8c0,3.2-2.7,5.8-6.8,8.2c0.8,0.8,2.1,1.2,3.2,1.2c5.8,0.2,8.9-6.8,11.2-13
				c0.5-1.2,1.2-2.9,2.6-2.9c2.4,0,3.3,15.8,7.4,15.8c1.7,0,3.2-3.5,3.2-6.2c0.2-2.1-0.6-2.3-0.6-5.2c0-3.2,1.7-5.9,4.1-5.9
				c1.5,0,2,1.4,2,3C101.6,45.7,97,57.5,90,57.5c-5.2,0-4.7-8.8-6.5-8.8c-2,0-4.8,8.8-15,8.8c-1.7,0-3.5-0.8-4.8-2.4
				c-2.4,1.7-4.5,2.3-6.8,2.3c-3.8,0-5.5-3.8-7-3.8c-1.8,0-3.9,3.8-10,3.8c-4.8,0-5.8-6.4-7.4-6.4c-1.5,0-3.9,6.4-6.5,6.4
				c-2.1,0-3.3-2.6-4.5-5.3L21,51.3c-1.1-2.5-2.3-4.9-4-4.9c-1.4,0-4.2,2.6-7.1,5.2L9,52.3c-2.9,2.6-5.7,5.1-6.9,5
				c-1.1-0.2-1.5-0.8-1.4-1.8c0.2-1.4,1.5-5.2,2-6.8c0.9-3,1.7-6.4,2.1-7.4c0.3-1.1,1.5-1.8,2.4-1.7c0.5,0,0.6,0.8,0.8,1.5
				c0.5,2.4,1.2,5,2,5c1.4,0,6.2-8.8,8.9-8.8c3.5,0,3.8,13.9,8.3,13.9c1.5,0,2.6-1.8,3.6-3.9c0.2-3.6,1.2-8.9,4.2-8.9
				c2.1,0,3,4.7,1.5,8.8c-0.2,4.8,3.2,6.1,5.3,6.1c1.5,0,4.1-0.5,6.2-3.6c-1.2-2.6-2-7.9-2.1-9.7C45.6,30.1,49.4,21,53.6,20.9z
				 M-4.7,23.9c1.8-0.6,2.6,0.3,3.3,2.4c0.9,3.2,0.9,7.4,0.6,13.3c-0.5,8.2-4.7,18-15.2,17.7c-9.1-0.2-13-5.9-13.3-14.5
				c-0.2-4.1,0.2-8.2,2-13.9c1.1-3,1.8-4.1,4.7-4.7c2.3-0.5,2,1.8,1.5,4.5c-1.2,5.9-1.7,8.8-1.4,15.6c0.5,7.1,3.8,10,7.4,10
				c5.6,0.2,8-4.2,9.1-10.8c0.8-5.2,0.2-7.6-0.3-9.2c-0.3-0.9-1.2-2.9-1.4-4.4C-8.2,26.6-6.4,24.4-4.7,23.9z M69.1,42.2
				c-0.9-0.2-3,0.9-3,4.1c0,2.6,0.9,3.8,1.4,4.2c3-0.9,3.8-3.3,3.6-5.3C71,43.6,70.1,42.2,69.1,42.2z M111.2,42.1
				c-3.9,0-3.6,6.2-3,7.6c2.9-0.5,4.8-2.1,5.3-3.6C113.9,44.5,113.3,42.1,111.2,42.1z M54,26.8l-0.2,0c-2,0.2-2.9,6.4-2.6,12.9
				c0.3,4.2,0.9,4.8,1.5,4.8c1.1,0,3.8-7.7,3.5-13.8c-0.2-2.7-0.9-4.1-2.4-3.9L54,26.8z M36.3,22.1c1.8,0,3,1.1,3.2,2.7
				c0.3,2.3-1.4,4.7-3.6,4.7c-2,0-2.9-1.4-3.2-3C32.6,24.1,34.4,22.1,36.3,22.1z"/>
		</g>
	</g>
	<path id="fish" class="st0" d="M123.8,139.1c-0.6-1.1-0.2-2.9-1.8-2.9c-1.1,0-1.2,0.9-1.4,1.7c-2.3-0.8-4.2-1.1-6.1-1.1
		c-1.2,0-2.3,0.2-3.3,0.5c-0.6-1.1-3.3-3.2-5.6-3.9c-0.9,5-5.3,8.8-11.8,9.4c-0.3,3.2-2.9,4.1-4.8,4.1c-1.4,0-3.6-0.5-3.8-1.1
		c-0.8-4.7-4.2-7.3-5.9-7.9c0,0.5,0.2,1.1,0.2,1.5c0,3.9-2.7,6.4-7.7,6.4c-0.8,0-1.8,0-2.6-0.2c5.8,6.4,9.8,4.1,12.4,5.3
		c3.5,1.5,6.4,6.5,17.6,6.5c4.1,0,8.2-1.7,10.9-3.3c0.5,1.7,2.1,3.2,5,3.2c4.7,0,7.4-1.5,7.4-2.7c0-0.3,0-0.8-0.9-0.8
		c-0.8,0-0.8,0.2-3.3,0.2c-3,0-7.9-1.2-10.2-6.5c-0.5-0.9-1.1-0.9-1.2-0.9c-1.5,0-3.9,5.5-13.5,5.5c-4.1,0-5.9-1.5-5.9-1.8
		c0,0,0-0.2,0.2-0.2c0.5,0,1.8,0.2,3.6,0.2c6.1,0,10.9-2.9,13.9-6.1c1.1-1.2,1.5-1.4,2.4-1.4c0.8,0,1.5,0.6,2,1.7
		c1.4,3.5,4.5,6.4,7.9,6.4c4.5,0,4.7-7.9,5.8-8.3c0.2,0,0.5,0.2,0.6,0.2c0.6,0,1.4-0.5,1.4-1.4C125.3,140,124,139.7,123.8,139.1
		L123.8,139.1z M116.3,145c-1.2,0-2.1-0.9-2.1-2.1c0-1.2,0.9-2.3,2.1-2.3c1.2,0,2.1,1.1,2.1,2.1C118.5,144.1,117.5,145,116.3,145z	"
		>
<animate  accumulate="none" additive="replace" attributeName="fill" begin="o1.begin+4s" calcMode="linear" dur="1s" fill="remove" restart="always" values="#1F36C7;#00D7C4;#1F36C7">
			</animate>
	</path>
	<path id="chilli_pepper" class="st0" d="M100.5,123.9c1.1,0,1.5,0.9,1.7,1.8c0.3-0.3,0.8-0.5,1.2-0.5c1.1,0,1.7,0.8,1.7,1.7
		c0,0.6-0.3,1.1-0.8,1.4c0.6,0.3,1.1,0.8,1.1,1.4c0,0.8-0.6,1.4-1.5,1.4c-0.8,0-1.4-0.9-2.1-0.9c-0.5,0-1.1,0.2-1.2,0.5
		c0.3,0.8,0.5,1.4,0.5,2.1c0,3.9-5.3,7.1-10.9,7.1c-5.5,0-7.6-3.2-7.6-4.5c0-0.3,0.2-0.5,0.6-0.5c0.9,0,1.1,0.3,3.6,0.3
		c5.9,0,3.8-7.6,9.4-7.6c0.8,0,2.4,0.5,3,1.5c0.5-0.5,0.6-1.1,0.6-1.5c0-0.9-0.6-1.5-0.6-2.3C99.1,124.5,99.7,124.1,100.5,123.9z	">
<animate  accumulate="none" additive="replace" attributeName="fill" begin="o1.begin+4.05s" calcMode="linear" dur="1s" fill="remove" restart="always" values="#1F36C7;#EB0000;#1F36C7">
			</animate>
	</path>
	<path id="swirl" class="st0" d="M65.3,120c6.7,0,11.8,5.6,11.8,13.6c0,3.6-2,8.9-10,8.9c-9.5,0-15.3-8-15.3-13.2
		c0-4.4,2.9-7.1,4.7-7.6c-2,7.9,2.4,15.5,11.2,15.5c4.4,0,6.5-2.1,6.5-5.9c0-4.2-2.9-8.3-7.9-8.3c-2.4,0-4.2,1.4-4.2,3.3
		c0,3.2,2.7,5.2,5.6,5.2c1.8,0,3-0.8,3-2c0-0.2,0-0.5-0.2-0.6c-0.2,0.2-0.6,0.2-1.2,0.2c-2.3,0-4.1-1.2-4.1-2.6
		c0-1.1,0.8-1.7,1.7-1.7c3.3,0,5.6,3.3,5.6,5.8s-1.8,4.5-4.8,4.5c-6.5,0-9.4-5.3-9.4-8.8C58.5,122.5,61.7,120,65.3,120z	">
<animate  accumulate="none" additive="replace" attributeName="fill" begin="o1.begin+4.1s" calcMode="linear" dur="1s" fill="remove" restart="always" values="#1F36C7;#EB0000;#1F36C7">
			</animate>
	</path>
	<g id="packaging">
		<path class="st0" d="M145.2,137.9c-1.4,1.1-4.7,3.5-10.3,3.5c-3,0-4.2-0.9-4.7-0.9c-0.6,0-1.2,0.6-1.8,1.2c-1.4,1.5-3,4.2-3,7.4
			c0,2.1,1.7,4.2,4.8,4.2c10.3,0,17.9-6.4,17.9-11.4C148.2,139.1,146.4,137.9,145.2,137.9z M139.9,147.7l-5.9,1.7
			c0.5-1.2,0.8-2.6,0.8-3.9c0-0.5,0-0.8-0.2-1.2h0.8c4.4,0,6.2-1.7,6.5-1.7c0.3,0,0.6,0.2,0.6,1.1
			C142.5,144.8,141.9,146.5,139.9,147.7L139.9,147.7z"/>
		<path class="st0" d="M136.4,139.1c2.4,0,4.5-0.6,5.9-1.8c0.5-0.3,0.6-0.9,0.6-1.5v-1.2c0-1.5-2.4-2.4-5.8-2.4
			c-3.9,0-6.1,1.8-6.1,2.6v2.4C131.1,138,133.4,139.1,136.4,139.1L136.4,139.1z"/>
		
			<animate  accumulate="none" additive="replace" attributeName="fill" begin="o1.begin+4.15s" calcMode="linear" dur="1s" fill="remove" restart="always" values="#1F36C7;#001F82;#1F36C7">
			</animate>
	</g>
	<path id="clothes" class="st0" d="M154.9,113.3c-8,0-5.9,6.8-15.3,8.9c-1.7,0.3-2.3,0.9-2.3,1.7c0,1.4,0.8,3.2,1.8,3.2
		c4.1,0,10.3-8.3,11.5-8.3c0.5,0,0.9,0,0.9,1.2c0,3-8.8,7-8.8,9.1c0,1.2,3,3.9,6.2,3.9c4.4,0,8.3-8.8,9.2-8.8c0.8,0,0.9,0.5,0.9,1.1
		c0,2.4-3,7.1-8.2,9.1c-1.1,0.5-1.2,0.9-1.2,1.2c0,1.2,1.4,2.9,2.6,2.9c1.5,0,11.7-8.8,11.7-15.8
		C164.3,116.2,159.3,113.3,154.9,113.3L154.9,113.3z M158.5,120.9c-0.6,0-1.2-0.2-1.5-0.5c-0.8-0.3-2-1.4-2-2.9c0-1.5,0.8-2,1.5-2
		c2.3,0,4.8,2,4.8,3.6C161.4,120.6,160.2,120.9,158.5,120.9z	">
<animate  accumulate="none" additive="replace" attributeName="fill" begin="o1.begin+4.2s" calcMode="linear" dur="1s" fill="remove" restart="always" values="#1F36C7;#9C44C0;#1F36C7">
			</animate>
	</path>
	<path id="spoon" class="st0" d="M82.8,124.5h-1.4c-0.5,0-1.2-0.2-1.7-0.5c-0.9-0.8-1.2-4.8-2.7-7.3c-1.8-2.7-3.8-3.5-6.4-3.5
		c-1.8,0-3.9,1.1-3.9,2.6c0,0.9,0.5,1.5,3.9,2.4c4.4,1.1,6.5,3.5,7,6.2c0.5,2.7,0.9,4.8,2,5.9c1.4,1.5,3.9,2.9,6.4,2.9
		c2,0,3.5-0.6,3.5-2.4C89.3,128.9,86.6,124.5,82.8,124.5z M85.7,130.4c-1.7,0-4.1-1.7-4.1-2.7c0-0.8,0.8-1.2,1.4-1.2
		c1.4,0,3.8,1.7,3.8,3C86.7,130,86.4,130.4,85.7,130.4z	">
<animate  accumulate="none" additive="replace" attributeName="fill" begin="o1.begin+4.25s" calcMode="linear" dur="1s" fill="remove" restart="always" values="#1F36C7;#E60067;#1F36C7">
			</animate>
	</path>
	<g id="wave">
		<path class="st0" d="M115.8,118.9c-1.1,0-1.1,1.7-1.1,2.3c0,0.6,0,0.8-0.5,0.8s-0.8-0.2-1.2-0.2c-0.3,0-0.6,0.3-0.6,0.8
			c0,2.3,2.9,4.1,5.8,4.1c3.8,0,5.6-1.7,6.7-1.7c0.5,0,0.6,0.5,0.6,0.8c0,0.6-0.6,1.4-0.6,1.7c0,0.9,1.8,0.2,1.8,1.2
			c0,1.4-2.3,2.4-5.8,2.4c-6.8,0-11.2-4.7-11.2-9.1c0-8.2,8.8-5.6,8.8-8.8c0-1.1-1.1-1.7-1.8-1.7c0.9-1.2,2.1-1.4,3.3-1.4
			c0.9,0,1.8,0.2,2.6,0.2c1.1,0,2.1-0.5,2.1-1.7c0-0.8-0.6-1.7-3.2-2c0.3-1.7,3.8-0.8,3.8-2.3c0-1.1-2-1.8-4.4-1.8
			c-9.4,0-16.1,7.7-16.1,16.1c0,7.6,5.5,15.9,15.6,15.9c9.8,0,14.5-8,14.5-14.1c-1.8,1.7-6.7,2.1-9.1,2.1
			C118.8,122.7,116.9,118.9,115.8,118.9z"/>
		<path class="st0" d="M123.5,120c1.5,0,2.6-1.2,2.6-2.6c0-2.1-2.1-4.1-5.3-4.1c0.6,0.6,0.8,1.1,0.8,1.7c0,0.8-0.5,1.7-0.5,2.6
			C121.1,118.9,122,120,123.5,120z M138.8,109.7c0.5,0.6,0.6,1.2,0.6,1.8c0,1.5-1.1,3-1.1,4.5c0,1.8,1.4,3.3,3.5,3.3
			c2.3,0,3.8-1.8,3.8-3.9C145.5,112.4,142.9,110,138.8,109.7z M127.9,103.9c0.8,0.9,1.1,1.8,1.1,2.9c0,2.4-1.8,4.8-1.8,7.1
			c0,3,2,5,4.8,5c3,0,4.8-2.6,4.8-5.5C136.9,109.4,133.7,105,127.9,103.9z M132.2,112.5c-0.8,0-1.4-0.6-1.4-1.4
			c0-0.5,0.3-1.1,0.3-1.7c0.2-0.8,0-1.4,0.5-1.4c0.9,0,2,1.7,2,2.7C133.5,111.8,133.1,112.5,132.2,112.5z"/>
		
			<animate  accumulate="none" additive="replace" attributeName="fill" begin="o1.begin+4.3s" calcMode="linear" dur="1s" fill="remove" restart="always" values="#1F36C7;#47C8FF;#1F36C7">
			</animate>
	</g>
	<g id="bowl">
		<path class="st0" d="M97.2,106c-2.4-0.9-3.5-2.3-4.1-5.2c-1.2,1.7-1.8,3.2-1.8,4.1c0,3.6,5,3.6,5,6.1c0,1.4-2.6,2.9-5.9,2.9
			c-3.8,0-6.5-0.6-8.9-3c-0.6-0.6-0.9-1.2-1.7-1.2c-0.9,0-1.4,1.5-1.4,3c0,5.2,5,11.4,12,11.4c8.6,0,12.1-5.9,12.1-10.8
			C102.6,110.4,102,107.9,97.2,106z M94.7,120.6c-0.8,0-0.9-0.3-0.9-1.1c0-0.5,0.2-1.4,0.2-2.1c0-1.8,0.8-1.7,2.6-2.6
			c1.4-0.6,1.8-1.4,2.3-1.4s0.9,0.3,0.9,1.1C99.7,117.2,96.7,120.6,94.7,120.6z"/>
		<path class="st0" d="M86.1,97.2c-0.9,0-2.4-0.9-3.9-2.1c-1.7,1.7-2.9,3.9-2.9,6.5c0,5.3,5.6,9.7,11.1,9.7c0.9,0,1.8-0.2,2.7-0.3
			c-3-0.3-4.8-2.6-4.8-5.3c0-3.5,3.9-6.7,3.9-9.4c0-3.3-4.1-3.6-4.1-6.4c0-2.3,3.9-3.9,3.8-7.6c0-2.1-2.1-4.7-5-6.2
			c0.5,0.9,0.8,2.1,0.8,2.9c0,4.2-8.2,6.1-8.2,9.4c0,4.2,7.9,5.9,7.9,7.9C87.3,96.8,87,97.2,86.1,97.2z"/>
		
			<animate  accumulate="none" additive="replace" attributeName="fill" begin="o1.begin+4.35s" calcMode="linear" dur="1s" fill="remove" restart="always" values="#1F36C7;#9C44C0;#1F36C7">
			</animate>
	</g>
	<path id="heart" class="st0" d="M168.7,100c2.7,0,4.8,3.5,4.8,7.6c0,4.4-2.1,9.1-5.8,12.4c0-7.3-8.9-5-8.9-10.3
		c0-2.3,1.7-3.8,3.6-3.8c1.7,0,3,0.5,4.1,1.5c-0.9-0.9-1.5-2.3-1.5-3.5C165,101.9,166.3,100,168.7,100L168.7,100z	">
<animate  accumulate="none" additive="replace" attributeName="fill" begin="o1.begin+4.4s" calcMode="linear" dur="1s" fill="remove" restart="always" values="#1F36C7;#EB0000;#1F36C7">
			</animate>
	</path>
	<path id="flower" class="st0" d="M61.4,107.4c-0.8,0.2-1.4,0.3-1.8,0.8c-0.5-1.7-2-3.2-4.1-2.7c-1.8,0.3-3.2,2-2.9,4.1
		c0,0.3,0.2,0.8,0.3,1.1c0,0-0.3,0-0.6,0.2c-1.5,0.3-3.3,1.8-3,4.1c0.3,2,2,3.3,3.9,3.2c0.8-0.2,1.4-0.3,1.8-0.6
		c0.5,1.8,2,2.9,3.9,2.7c2-0.3,3.3-2,3.2-3.9c0-0.6-0.2-0.9-0.3-1.2h0.5c2-0.5,3.3-2,3.2-3.9C64.9,108.6,63.2,107.1,61.4,107.4
		L61.4,107.4z M57.5,114.8c-1.2,0.2-2.1-0.8-2.3-1.8c-0.2-1.2,0.6-2.3,1.8-2.4c1.2-0.2,2.1,0.8,2.3,1.8
		C59.4,113.6,58.7,114.7,57.5,114.8z	">
<animate  accumulate="none" additive="replace" attributeName="fill" begin="o1.begin+4.45s" calcMode="linear" dur="1s" fill="remove" restart="always" values="#1F36C7;#F752C7;#1F36C7">
			</animate>
	</path>
	<g id="transformation">
		<path class="st0" d="M159.6,98.3c0-0.8,1.8-2.6,1.8-3.2c0-0.2-0.2-0.3-0.3-0.3c-0.8,0-3.3,2-7.1,2c-1.5,0-2.6-0.2-2.6-1.4
			c0-1.1,0.9-2,2.4-2.6c1.7-0.8,5-0.8,5-1.5c0-0.6-3.2-0.6-3.2-1.2c0-0.8,1.2-2.6,1.2-3.3c0,0,0-0.3-0.2-0.3c-0.6,0-2.1,1.8-3,1.8
			S152,86,151.3,86c-0.2,0-0.5,0.2-0.5,0.6c0,0.9,0.5,2.6,0.5,4.8c0,2-1.1,3.6-2.1,3.6c-1.4,0-1.8-1.7-1.8-3c0-2,1.1-4.2,1.1-6.4
			c0-0.5-0.2-0.6-0.5-0.6c-0.8,0-2,2.3-2.9,2.3c-0.6,0-1.7-2.7-2.6-2.7c-0.2,0-0.3,0.5-0.3,1.1c0,0.8,0.2,1.8,0.2,2.3
			c0,0.6-0.8,0.8-1.7,0.8c-0.6,0-1.8,0-1.8,0.5s1.2,0.9,2.3,1.7c2,1.4,5.2,2.7,5.2,5.9c0,2.9-4.1,4.8-7,5.5
			c-1.4,0.2-2.7,0.5-2.7,0.9c0,0.6,3.6,0.8,3.6,1.5c0,0.5-1.7,2.6-1.7,3.2c0,0.2,0.2,0.2,0.2,0.2c0.6,0,2.4-1.5,3.2-1.5
			c1.1,0,0.9,3.2,1.7,3.2c0.9,0,0.6-4.7,0.9-5.9c0.6-2.1,2.1-4.2,3.5-4.2c1.7,0,1.8,2.9,1.8,4.2c0,2.7-2,5.6-2,7
			c0,0.2,0.2,0.3,0.3,0.3c0.6,0,2-1.8,2.7-1.8c0.8,0,2.4,3,3,3c0.3,0,0.5-0.3,0.5-0.6c0-0.9-0.5-2.4-0.5-3.3c0-1.1,3.5-0.5,3.5-1.2
			c0-0.3-1.5-0.9-2.4-1.5c-2-1.2-4.2-3.8-4.2-5.9c0-0.8,0.5-1.4,1.1-1.4c4.2,0,6.1,6.5,6.8,6.5c0.8,0,0.3-2.9,0.6-3.3
			c0.2-0.2,0.6-0.3,1.1-0.3c0.8,0,1.7,0.2,2.3,0.2c0.5,0,0.6,0,0.6-0.2C162.9,100.3,159.6,99.2,159.6,98.3L159.6,98.3z"/>
		<path class="st0" d="M142.8,96.5c0-1.4-5.9-5.9-7.1-5.9c-0.3,0-0.5,0.2-0.5,0.5c0,0.5,0.2,1.1,0.2,1.5c0,1.1-0.5,1.2-1.5,1.2
			c-1.2,0-3.2-0.5-3.2-2.4c0-3.8,7.3-2.9,8-6.4c-3.2,0-4.7-2.1-6.8-2.1c-0.8,0-2.3,0.5-2.3,2.4c0,0.6,0.2,1.7,0.2,2.6
			c0,0.9-0.2,1.5-1.2,1.5c-0.9,0-1.1-1.1-1.1-2.3c0-1.1,0.2-2.3,0.2-3c0-5.6-6.2-3.3-6.8-7.9c-1.5,2.7-2,4.7-2,6.4
			c0,5.9,8,5.3,8,9.4c0,1.1-0.8,1.7-1.5,1.7c-1.4,0-2.3-2.9-4.4-2.9c-1.1,0-1.8,0.8-1.8,2.4c0,1.2,0.3,2.1,0.3,3.3
			c0,2.4-1.1,3.5-2.1,4.5c7.3-0.6,7.7-6.1,9.8-6.1c0.6,0,0.9,0.5,0.9,0.8c0,0.9-1.5,2.4-1.5,3.9c0,2,2.3,3,3.8,3
			c1.8,0,2.4-0.6,2.4-1.8c0-1.4-2.4-3.2-2.4-4.7c0-0.8,0.8-0.9,1.8-0.9c2.3,0,3,0.3,3,0.8c0,0.6-0.9,1.8-0.9,2.1
			c0,0.2,0.2,0.6,0.6,0.6C136.6,99.1,142.8,97.7,142.8,96.5z"/>
		
			<animate  accumulate="none" additive="replace" attributeName="fill" begin="o1.begin+4.5s" calcMode="linear" dur="1s" fill="remove" restart="always" values="#1F36C7;#00D7C4;#1F36C7">
			</animate>
	</g>
	<path id="hair" class="st0" d="M66.3,76c-1.1,2-1.4,4.5-1.4,6.1c0,9.2,11.1,17.9,11.1,23.6c0,2.3-1.7,5-4.7,5
		c-2.7,0-4.2-2.1-4.2-3.9c0-1.4,0.9-2.6,1.4-2.6c0.2,0,0.2,0.2,0.2,0.5c0,0.8,0.6,1.8,1.8,1.7c1.2,0,1.8-0.8,1.8-1.8
		c0-4.5-9.1-12.4-9.1-23.2c-0.5,1.2-1.1,2.7-1.1,5c0,5.2,3.8,10.6,3.8,15.6c0,2-1.5,3.8-3.5,3.8c-2.3,0-3-1.8-3-2.9
		c0-0.8,0.3-1.5,0.6-1.5s0.2,1.2,1.4,1.2c1.4,0,1.8-0.9,1.8-2.6c0-4.5-2.6-7.7-2.6-12.4c0-0.8,0-1.5,0.2-2.1
		c-1.4,1.7-1.5,4.1-1.5,6.2v5.6c0,3.8-1.8,5.5-4.1,5.5c-1.5,0-2.9-1.2-2.9-3.2c0-0.3,0.2-1.2,0.5-1.2c0.5,0,0.8,1.2,2,1.2
		c2.4,0,2.6-2.3,2.6-7C56.9,86.8,59,80.6,66.3,76L66.3,76z	">
<animate  accumulate="none" additive="replace" attributeName="fill" begin="o1.begin+4.55s" calcMode="linear" dur="1s" fill="remove" restart="always" values="#1F36C7;#CF98D9;#1F36C7">
			</animate>
	</path>
	<path id="hand" class="st0" d="M51.3,73.3c0.8,0,1.1,0.8,1.1,1.4c0,2.6-3.3,10.2-3.3,12.3c0,0.3,0.2,0.6,0.5,0.6
		c1.4,0,4.1-5.9,5-8.8c0.5-1.5,1.2-2.3,1.8-2.3c0.6,0,1.1,0.6,1.1,1.8c0,2.9-2.7,9.8-5.2,14.4c-1.8,3.6-4.8,8.8-4.8,11.7
		c0,1.5,0.3,3,2.4,4.8c-3.5-0.2-5-0.6-6.4-3.2c-5.9,11.5,10.9,10.5,5.2,20.8c-1.1-1.8-9.4-3.8-9.4-14.5c0-9.2,8.3-14.7,8.3-18.6
		c0-0.8-0.3-1.4-1.1-2c-1.8-1.5-1.8-2.7-3.3-2.7c-1.1,0-2.3,2.4-1.1,4.5c0.5,0.8,0.8,1.2,0.8,1.8c0,1.5-2.4,5.6-4.1,5.6
		c-1.7,0-3-4.2-3-10.9c0-5.9,1.4-12,3-12c0.5,0,0.6,0.3,0.6,0.8c0,0.8-0.2,2.1-0.2,4.5c0,2.6,0.6,2.7,1.1,2.7
		c1.8,0,1.5-11.4,4.5-11.4c0.8,0,0.9,0.8,0.9,1.5c0,2.6-1.2,6.4-1.2,8.3c0,1.1,0.3,1.4,0.8,1.4C46.7,85.7,49,73.3,51.3,73.3
		L51.3,73.3z	">
<animate  accumulate="none" additive="replace" attributeName="fill" begin="o1.begin+4.6s" calcMode="linear" dur="1s" fill="remove" restart="always" values="#1F36C7;#FFC000;#1F36C7">
			</animate>
	</path>
	<path id="plant" class="st0" d="M174.4,88.2c-2.6,0-3.9,4.5-6.5,4.7c1.5-6.5,8-10,8-16.1c0-7-5.8-9.4-8.2-10.9
		c-3.9-5.8-6.8-10.3-13.3-10.3c-2.7,0-4.5,0.5-6.4,0.5c-3.6,0-4.8-1.4-5-1.4c0,0-0.2,0-0.2,0.3c0,5.2,2.7,16.7,14.2,16.7
		c6.2,0,8.8-2.4,10.3-2.4c1.5,0,6.5,1.7,6.5,7.6c0,3.2-2.6,6.5-3.5,6.5s-1.8-1.5-1.8-3c0-1.7,0.9-4.8,0.9-6.8c0-0.8-0.2-1.1-0.6-1.1
		c-0.9,0-5.6,3-5.6,6.7c0,3.2,4.7,5.2,6.5,6.1c-1.8,2.9-2.9,4.8-3.6,7.6c0-2.1-2-6.2-2.6-8c-2.9-8.2-3.9-9.7-10.2-10.5
		c0.9,3.3,11.5,11.2,11.5,19.2c0,0.5,0,1.2-0.2,1.5c-3.2-9.4-8.6-11.7-10.6-13.9c-3.2-3.6-1.4-7.1-6.5-9.1c0.3,0.5,0.5,1.1,0.5,1.5
		c0,1.8-0.9,3.9-0.9,5.5c0,5.8,6.5,3.9,10.5,7.1c3.8,3,5.9,8,7.4,13.6c1.5-2.4,2.4-5.5,5-5.5c1.7,0,2.3,2.1,2.3,3.8v0.8
		c2.6-2.3,3.9-5.9,3.9-8.3C176.3,89.2,175.6,88.2,174.4,88.2L174.4,88.2z M164.1,66.8c-0.6,0-1.5-0.3-2.3-0.3
		c-1.8,0-3.2,2.6-4.1,2.6c-0.3,0-0.5-0.3-0.5-0.6c0-1.1,1.8-2.3,1.8-3c0-0.5-0.8-0.6-1.1-0.6c-1.8,0-4.4,2.6-5.9,2.6
		c-0.3,0-0.6-0.2-0.6-0.5c0-0.8,2-1.7,2-2.4c0-0.8-0.8-0.8-1.4-0.8c-0.9,0-2.7,0.5-3.8,0.5c-0.6,0-1.1-0.2-1.1-0.6
		c0-1.1,3.5-0.5,3.5-1.7c0-0.6-1.1-1.8-1.1-2.4c0-0.3,0.3-0.5,0.6-0.5c1.2,0,2.6,3.5,3.9,3.5c0.6,0,0.8-0.5,0.8-1.2
		c0-0.8-0.2-1.1-0.2-1.7c0-0.6,0.3-0.8,0.5-0.8c0.9,0,1.7,4.8,4.2,4.8c1.1,0,0.3-3,1.4-3c0.6,0,0.8,0.9,0.8,1.4
		c0.3,3.2,3.2,3.3,3.2,4.5C164.7,66.5,164.6,66.8,164.1,66.8L164.1,66.8z	">
<animate  accumulate="none" additive="replace" attributeName="fill" begin="o1.begin+4.65s" calcMode="linear" dur="1s" fill="remove" restart="always" values="#1F36C7;#00D7C4;#1F36C7">
			</animate>
	</path>
	<g id="particles">
		<path class="st0" d="M127.9,59.7c1.2,0,2.1,0.9,2.1,2c0,1.1-0.9,2-2.1,2c-1.1,0-2.1-0.9-2.1-2C125.8,60.6,126.9,59.7,127.9,59.7z
			 M141.9,78.8c-1.1,0-2.1,0.9-2.1,2c0,1.2,1.1,2,2.1,2c1.2,0,2.1-0.9,2.1-2.1C144,79.5,143.1,78.8,141.9,78.8z M134.9,75
			c-2.1,0-3.8,1.7-3.8,3.6c0,2,1.7,3.6,3.8,3.6c2.1,0,3.8-1.7,3.8-3.6C138.7,76.6,137,75,134.9,75z M128.2,73.3
			c-1.2,0-2.1,0.9-2.1,2.1c0,1.2,1.1,2.1,2.1,2.1c1.2,0,2.1-0.9,2.1-2.1C130.3,74.2,129.4,73.3,128.2,73.3z M141.6,76.6
			c1.4,0,2.6-1.1,2.6-2.4c0-1.4-1.2-2.4-2.6-2.4c-1.4,0-2.6,1.1-2.6,2.4C139,75.4,140.2,76.6,141.6,76.6z M121.9,68.9
			c-1.7,0-3.2,1.4-3.2,3s1.4,3,3.2,3c1.7,0,3.2-1.4,3.2-3C124.9,70.3,123.5,68.9,121.9,68.9z M133.2,71.2c0,1.2,0.9,2.1,2.1,2.1
			s2.1-0.9,2.1-2.1c0-1.2-0.9-2.1-2.1-2.1S133.2,70.1,133.2,71.2z M129,71.8c1.8,0,3.3-1.4,3.3-3.2c0-1.8-1.5-3.2-3.3-3.2
			c-1.8,0-3.3,1.4-3.3,3.2C125.6,70.3,127,71.8,129,71.8z M141.1,69.7c1.2,0,2.3-1.1,2.3-2.3s-1.1-2.3-2.3-2.1
			c-1.2,0-2.3,1.1-2.3,2.3C138.8,68.8,139.9,69.7,141.1,69.7z M122.8,66.6c1.2,0,2.1-0.9,2.1-2.1c0-1.2-0.9-2.1-2.1-2.1
			c-1.2,0-2.1,0.9-2.1,2.1C120.5,65.7,121.6,66.6,122.8,66.6z M135.2,66.5c2,0,3.5-1.5,3.5-3.3c0-1.8-1.5-3.3-3.5-3.3
			c-2,0-3.5,1.5-3.5,3.3C131.7,65,133.2,66.5,135.2,66.5z M137.8,58.6c1.2,0,2.1-0.9,2.1-2c0-1.1-0.9-2-2.1-2c-1.2,0-2.1,0.9-2.1,2
			C135.8,57.9,136.7,58.6,137.8,58.6z"/>
		
			<animate  accumulate="none" additive="replace" attributeName="fill" begin="o1.begin+4.7s" calcMode="linear" dur="1s" fill="remove" restart="always" values="#1F36C7;#FFA91F;#1F36C7">
			</animate>
	</g>
	<path id="tree" class="st0" d="M76.6,61.3c1.4,0,3.8,2.3,4.4,4.7c-0.3,0-0.6-0.2-0.8-0.2c-1.8,0-2.7,1.7-4.1,4.5
		c3.2-2.1,6.1-3.8,9.4-3.8c2.9,0,5.2,1.7,5.2,4.2c0,1.1-0.6,2.3-1.2,3.5c-0.5-2.4-2.4-3.5-5.9-3.5c-2,0-4.4,0.3-6.4,1.1
		c6.2,0.9,7.1,3,7.1,5c0,3.3-3.5,5-5.8,6.1c0.2-0.9,0.5-2,0.5-3c0-2-0.8-4.4-3.9-6.5c-0.5,2.1-2.3,3.5-2.3,5.2
		c0,0.6,0.5,0.9,0.8,0.9c0,0.9-0.5,3.6-0.5,4.4c0,1.4,0.3,1.7,1.1,1.8c0.5,1.2,0.5,3.3,0.8,4.4c0.2,0.6,0.6,0.8,1.1,0.8
		c0.5,1.1,1.1,2.7,2,3.3c0.2,0.2,0.5,0.6,0.5,0.9c0,0.9-1.5,2-2.4,2c-0.3,0-0.8-0.2-1.2-1.2c-0.3-0.8-3-2.4-3.2-3.3
		c0.2-0.2,0.3-0.5,0.3-0.9c0-1.5-2.4-3.2-2.4-5.6c0.3-0.2,0.6-0.6,0.6-1.1c0-1.4-1.4-3.9-1.4-5.8c0.6,0,0.9,0,0.9-0.9
		c0.2-1.8,0.5-4.4,2.1-5.9c-0.5,0-0.9-0.2-1.5-0.2c-3.3,0-8.3,1.8-10.3,6.1c-0.2-0.6-0.2-1.2-0.2-1.8c0-3.5,2.1-5.8,3.8-6.5
		c0.8-0.3,1.8-0.5,2.9-0.5c1.8,0,3.8,0.3,5.9,0.8c-1.8-2.4-4.7-4.1-7.1-4.1c-1.1,0-2,0.3-2.3,1.2c-0.2-0.5-0.2-1.2-0.2-1.8
		c0-2.6,0.9-4.1,3.2-4.1c3.3,0,6.4,3.9,8,7.6v-0.5c0-5.2,0.2-7.7,2.3-7.9L76.6,61.3L76.6,61.3z	">
<animate  accumulate="none" additive="replace" attributeName="fill" begin="o1.begin+4.75s" calcMode="linear" dur="1s" fill="remove" restart="always" values="#1F36C7;#00D7C4;#1F36C7">
			</animate>
	</path>
	<g id="bee">
		<path class="st0" d="M34.4,70c0,4.1,1.4,6.1,3.6,6.1c1.8,0,4.2-1.2,7.1-3.6c-2.3,0.5-3.9,0.8-5.5,0.8C37.8,73.2,36.1,72.4,34.4,70
			z M50.2,64.4c-1.4,0.3-3.9,1.8-3.9,4.5c0,2,1.5,3.2,3.5,3.2c1.1,0,1.8-0.2,2.3-0.6c-1.5-1.5-2.1-3-2.1-4.7
			C49.9,65.7,50,65,50.2,64.4z M54.9,60c-1.2,1.4-2.6,3.8-2.6,6.2c0,2.9,1.8,5.3,4.7,5.3c2.7,0,4.1-2.3,4.1-4.5
			C61.3,63.3,57.8,60.7,54.9,60z M36.4,65.1v0.8c0,2.6,1.4,3.9,3.3,3.9c1.4,0,3-0.8,4.5-2.6c-0.6,0.2-1.4,0.2-2,0.2
			C40,67.6,37.8,66.9,36.4,65.1z M47.6,51.2c-1.8,0-4.1,0.2-6.5,1.7c-4.8,3-4.2,7.9-5,9.2C36,62.2,36,62.4,36,62.7
			c0,0.5,0.6,1.1,1.1,1.1c0.5,0,0.8-0.2,0.9-0.2c1.4,0,2.9,0.9,5.2,0.9c1.4,0,2.9-0.5,4.7-1.4c4.1-2,5.6-6.8,5.6-7.6
			c0-1.1-0.9-0.9-1.5-1.8c-0.8-0.9-0.5-1.8-0.9-2.3c-0.3-0.3-1.1-0.3-2.1-0.3C48.8,51.2,47.6,51.2,47.6,51.2z M44.3,61.9
			c-1.8,0-3.9-2.3-3.9-4.2c0-1.1,0.9-2.4,1.5-2.4c0.2,0,0.3,0.2,0.5,0.6c0.3,2.6,2.1,4.1,3.8,4.8c0.2,0.2,0.3,0.2,0.3,0.3
			C46.3,61.5,45.2,61.9,44.3,61.9z M51,56.9c0,0.8-0.5,1.7-1.4,1.7c-2,0-3.5-2.9-3.6-4.5c0-1.1,0.6-1.1,1.5-1.1c0.5,0,0.6,0,0.9,0.2
			c0.5,0.3,0.5,1.4,1.1,2.1C49.9,55.9,51,56.5,51,56.9z M55.2,54.5c0,1.2,1.1,2.1,2.3,2.1c1.2,0,2.3-0.9,2.3-2.1s-1.1-2.1-2.3-2.1
			C56.3,52.2,55.2,53.3,55.2,54.5z M54.4,51.8c1.2,0,2.3-0.9,2.3-2.1s-1.1-2.1-2.3-2.1c-1.2,0-2.3,0.9-2.3,2.1
			C52.3,50.7,53.2,51.8,54.4,51.8z M39.1,50.7c2,0,3.6-1.2,3.6-1.2c-3.3-0.9-5.2-3.2-5.2-6.4v-0.9c-2.1,0.9-3,2.6-3,4.2
			C34.7,49.1,36.7,50.7,39.1,50.7z M49,48.3c0.3-0.9,0.5-2,0.5-3.2c0-2.6-1.2-6.5-5.2-6.5c-2.3,0-3.8,1.7-3.8,3.6
			C40.7,46.6,45.2,48.3,49,48.3z"/>
		
			<animate  accumulate="none" additive="replace" attributeName="fill" begin="o1.begin+4.8s" calcMode="linear" dur="1s" fill="remove" restart="always" values="#1F36C7;#FFE300;#1F36C7">
			</animate>
	</g>
	<g id="ice_cream">
		<path class="st0" d="M173.5,46.9c-2.4,4.8-8.5,5.9-10.5,5.6c0.6,5,8,11.7,10,11.5c1.4-0.2,1.8-6.5,1.8-11.5
			C174.9,49.7,175,47.4,173.5,46.9L173.5,46.9z M173.7,42.3c0-1.8-0.8-3.2-2.9-3.5c0.3,0.5,0.5,0.9,0.5,1.7c0,2.9-4.2,6.1-8.9,6.1
			c-1.7,0-2.3,1.2-2.1,1.8c0,1.5,1.4,2.1,3.3,2.1C168.8,50.3,173.7,46,173.7,42.3L173.7,42.3z"/>
		<path class="st0" d="M162.3,44.5c2.1,0,6.7-1.8,6.7-4.2c0-0.8-0.3-1.5-1.5-1.5c-1.7,0-3.9,1.7-6.2,1.7c-0.8,0-1.7,0-2.6-0.3
			c0.9,0.6,0.8,2.1,1.2,3.2C160.6,44.5,161.6,44.5,162.3,44.5z"/>
		
			<animate  accumulate="none" additive="replace" attributeName="fill" begin="o1.begin+4.85s" calcMode="linear" dur="1s" fill="remove" restart="always" values="#1F36C7;#F752C7;#1F36C7">
			</animate>
	</g>
	<g id="cycle">
		<path class="st0" d="M133.8,45.7c0,4.8-3.3,6.8-6.4,6.8c-0.8,0-1.4-0.2-2-0.5c0.6-0.6,1.2-1.5,1.2-2.1c0-0.5-0.3-0.6-0.8-0.6
			c-0.3,0-1.1,0.2-1.7,0.2c-1.5,0-2.7-0.6-4.1-2c-0.9,1.4-1.4,3.2-1.4,5c0,2.9,1.1,5.8,2.3,5.9c0.6,0,0.6-2,1.7-2
			c0.3,0,1.5,0.9,4.1,0.9c3.8,0,8-2.3,8-8.2C134.7,48.5,134.4,46.6,133.8,45.7L133.8,45.7z"/>
		<path class="st0" d="M125.2,42.7c0.8,0,2.3,0.3,2.7,1.1c-0.6,0.3-1.2,1.1-1.2,1.7c0,0.3,0.2,0.6,0.5,0.8c1.4,0.6,2.1,1.7,2.6,2.6
			c2.4-1.4,3.3-5.2,3.3-7.3c0-0.6,0-1.5-0.6-1.5c-0.5,0-0.9,0.6-1.5,0.6c-0.5,0-1.8-1.8-5.2-1.8c-3.8,0-5.5,2.9-5.5,5.3
			c0,0.6,0.2,1.4,0.3,1.8C121.4,44.4,122.9,42.7,125.2,42.7L125.2,42.7z"/>
		
			<animate  accumulate="none" additive="replace" attributeName="fill" begin="o1.begin+4.9s" calcMode="linear" dur="1s" fill="remove" restart="always" values="#1F36C7;#47C8FF;#1F36C7">
			</animate>
	</g>
	<path id="DNA" class="st0" d="M86.9,45.9c-2.7,0-5.2,2.3-7,5.3C80,50.6,80,50,80,49.4c0-4.2-2.3-7.9-6.4-7.9c-3.3,0-6.5,2-7.7,5.9
		c0.3-0.3,1.5-1.1,2.4-1.1c1.1,0,1.4,0.9,1.4,2.4c0,0.9-0.2,2.1-0.6,3.2c-0.6,1.8-1.8,2.3-2.4,2.3c-2.6,0-1.4-4.4-2.7-4.4
		c-1.1,0-1.4,2.4-1.4,3.3c0,3,2,6.2,6.4,6.2c4.7,0,7.3-2.3,10-5.2c0.6,3.2,2.3,8.8,7,8.8c2.6,0,4.4-2.1,4.5-4.7
		c-0.3,0.3-0.8,0.6-1.4,0.6c-0.9,0-1.2-1.4-1.2-2.6c0-2,0.6-4.1,1.5-4.1c0.5,0,0.8,0.3,0.9,1.8c0.2,1.1,0,2.4,0.8,2.4
		s1.1-2.3,1.1-3.6C92,48.9,90.3,45.7,86.9,45.9L86.9,45.9z M71.3,56.2c-0.5,0-0.6-0.5-0.6-0.8c0-2.1,2.3-11.5,3.9-11.5
		c0.3,0,0.5,0.3,0.5,0.8C75,46.3,73.1,56.2,71.3,56.2z M78.2,52.1c-1.4,1.5-2.1,2.3-2.7,2.3c-0.3,0-0.6-0.6-0.6-1.2
		c0-1.1,0.8-5.5,2.4-5.5c0.6,0,1.1,1.2,1.1,2.3C78.4,50.9,78.4,51.5,78.2,52.1z M81.4,55.9c-0.5,0-0.9-0.9-0.9-2.7
		c0.9-1.5,1.4-2.1,2-2.1c0.2,0,0.5,0.2,0.5,1.1C82.8,54.1,82,55.9,81.4,55.9z M84.1,59.1c-0.3,0-0.6-0.5-0.6-1.7
		c0-2.9,1.8-8.2,2.9-8.2c0.3,0,0.5,0.8,0.5,1.5C87,53.9,85.5,59.1,84.1,59.1z	">
<animate  accumulate="none" additive="replace" attributeName="fill" begin="o1.begin+4.95s" calcMode="linear" dur="1s" fill="remove" restart="always" values="#1F36C7;#E60067;#1F36C7">
			</animate>
	</path>
	<path id="lips" class="st0" d="M153.7,39.7c-1.1,0-2.7,1.2-3.9,1.2c-1.7,0-1.2-2.3-3-2.3c-0.5,0-0.9,0.2-1.4,0.5
		c-3.8,2-6.8,1.2-7.4,1.7c-0.2,0.2-0.3,0.2-0.3,0.6c0,4.2,4.2,10.6,11.2,10.6c4.8,0,8.8-1.7,8.8-4.5C157.5,45,155.2,39.7,153.7,39.7
		z M149.3,47.9c-3.9,0-6.4-2.3-6.4-3.6c0-0.2,0.2-0.3,0.3-0.3c0.6,0,2.3,0.9,4.5,1.2c2.6,0.5,3.9,0.5,4.7,0.5s1.1,0.2,1.1,0.5
		C153.4,46.8,151.6,47.9,149.3,47.9z	">
<animate  accumulate="none" additive="replace" attributeName="fill" begin="o1.begin+5s" calcMode="linear" dur="1s" fill="remove" restart="always" values="#1F36C7;#EB0000;#1F36C7">
			</animate>
	</path>
	<path id="dove" class="st0" d="M174.9,14.2c-2.7,0-3-0.8-4.8-0.8c-2.1,0-3.6,1.5-3.6,3.8c0,0.8,0.3,2,0.3,3.5c0,1.8-0.3,3.6-2,3.6
		c-1.5,0-2.1-1.1-2.1-2.3c0-2.1,1.1-3.6,1.1-5c0-2.6-3-3.3-6.4-3.3c-3.9,0-8.2,1.1-8.2,1.7c0,0.9,5.6,0.3,9.7,5.6
		c-2.6,0-7.6,1.2-7.6,2c0,0.9,9.1,1.8,9.1,5.6c0,2.4-2,2.7-2.7,2.7c-3,0-4.5-3.2-5.3-3.2c-0.2,0-0.5,0.2-0.5,0.5
		c0,0.5,0.5,1.8,0.5,3.2c0,3.5-3.8,3.8-3.8,4.5c0,0.3,0.2,0.3,0.6,0.5c2.7,0.5,5.6,0.6,8.2,0.6c9.7,0,17.4-3,17.4-11.5
		c0-4.7-1.5-6.2-1.5-8.5C172.9,16.6,173.5,15,174.9,14.2z M161.4,32.7h-2c6.2-1.1,9.7-4.7,9.7-9.5c1.4,0.5,2.3,1.8,2.3,3.3
		C171.3,29.4,168.7,32.7,161.4,32.7L161.4,32.7z M170,18c-0.8,0-1.4-0.6-1.4-1.4c0-0.8,0.6-1.4,1.4-1.4c0.8,0,1.4,0.6,1.4,1.4
		C171.4,17.4,170.8,18,170,18z	">
<animate  accumulate="none" additive="replace" attributeName="fill" begin="o1.begin+5.05s" calcMode="linear" dur="1s" fill="remove" restart="always" values="#1F36C7;#00D7C4;#1F36C7">
			</animate>
	</path>
	<path id="spark" class="st0" d="M137.2,12.4c-3.6,0-6.4,1.8-7.9,1.8c-0.9,0-2.1-2.1-2.9-2.1c-0.3,0-0.6,0.6-0.6,1.5v0.3
		c0,0.8-0.2,2.1-0.6,2.1c-1.4,0-6.5-3.6-6.5-2.4c0,1.2,3.5,5,3.5,5.9c0,0.9-3.3,1.8-3.3,2.6c0,1.2,3.6,1.4,3.6,2.9
		c0,1.5-3.8,2.7-3.8,3.8c0,0.9,3.8,0.3,3.8,1.4s-2.7,4.8-2.7,5.9c0,0.3,0,0.3,0.3,0.3c1.1,0,4.2-3.5,5-3.5c0.9,0,1.1,2.1,1.2,3.3
		c0.2,0.6,0.2,0.8,0.5,0.8c0.6,0,1.7-2.4,2.4-2.4c1.1,0,3.8,2.9,8.5,2.9c6.7,0,12.9-4.5,12.9-12.6C150.6,16.9,144.9,12.4,137.2,12.4
		L137.2,12.4z M127.9,29.7c-0.2,0-0.3-0.2-0.3-0.5l-0.2-2.1c0-0.2-0.2-0.5-0.5-0.5h-2.3c-0.3,0-0.5,0-0.5-0.2c0-0.5,2.3-2,2.3-2.3
		c0-0.6-2.1-1.7-2.1-2.4c0-0.2,0.2-0.2,0.3-0.2c0.6,0,1.7,0.2,2.4,0.2s0.8-3,1.4-3c0.5,0,1.1,2.9,1.7,2.9c0.8,0,2-0.8,2.6-0.8
		c0.2,0,0.2,0,0.2,0.2c0,0.3-1.4,1.8-1.4,2.3s3,1.1,3,1.5c0,0.6-3.2,0.5-3.2,0.9c0,0.3,1.2,1.8,1.2,2.4c0,0.2,0,0.2-0.2,0.2
		c-0.5,0-2.1-0.8-2.6-0.8C129.3,27.6,128.4,29.7,127.9,29.7z M137.3,34.4c-3.8,0-6.4-1.8-6.4-2.9c0-0.5,0.3-0.8,0.8-0.8
		c1.2,0,3.8,1.8,4.7,1.8c0.2,0,0.5-0.2,0.5-0.5c0-0.9-0.9-2.6-0.9-3.3c0-0.2,0.2-0.3,0.5-0.3c1.5,0,3.6,0.6,4.8,0.6
		c0.5,0,0.5-0.2,0.5-0.5c0-1.2-3.6-3.5-3.6-4.2c0-0.6,4.4-1.7,4.4-2.6c0-1.1-6.1-0.3-6.1-1.4c0-0.8,1.2-2,1.2-2.6
		c0-0.3-0.2-0.3-0.6-0.3s-3.2,1.1-4.2,1.1c-0.6,0-1.2-0.2-1.2-0.9c0-1.2,2.1-2.6,5.5-2.6c5.5,0,8.6,3.6,8.6,9.7
		C145.8,32.4,140.3,34.4,137.3,34.4z	">
<animate  accumulate="none" additive="replace" attributeName="fill" begin="o1.begin+5.1s" calcMode="linear" dur="1.5s" fill="remove" restart="always" values="#1F36C7;#FCA6DE;#1F36C7">
			</animate>
	</path>
	<g id="sun">
		<path class="st0" d="M79.7,27.9c2.1,0,8.5,2.9,11.4,2.9c1.1,0,1.7-0.6,1.7-1.2c0-3.3-8.9-9.2-9.1-11.7c0-0.3,0.2-0.5,0.3-0.6
			c1.5-1.7,7.9-2.7,7.9-4.1c0-0.8-1.4-0.8-2-0.8c-5.2,0-12.6,1.8-12.6,3.6s6.7,6.4,6.7,8.6c0,0.6-0.5,0.8-1.1,0.8
			c-1.8,0-5.9-2.3-7.9-2.3c-0.9,0-1.2,0.6-1.2,1.5c0,2.6,3.2,7.6,3.2,9.1c0,0.2,0,0.5-0.3,0.5c-1.1,0-5.6-5.5-7.3-5.5
			c-0.6,0-0.6,0.8-0.6,2v1.8c0,1.2,0,2-0.6,2c-1.4,0-2.1-3.9-3.5-3.9c-1.4,0-1.7,7.1-3,7.1c-1.7,0-0.3-7.7-1.8-7.7
			c-1.7,0-3.6,5.2-4.8,5.2c-0.5,0-0.6-0.5-0.6-0.8c0-1.5,0.9-4.1,0.9-5.6c0-0.8-0.2-1.2-0.9-1.2c-1.7,0-5.5,2.7-6.8,2.7
			c-0.2,0-0.5-0.2-0.5-0.3c0-1.4,6.1-5.5,6.1-7.3c0-1.8-8.3-0.6-8.3-2.7c0-1.7,5.9-3.5,5.9-5.3c0-1.5-7-2.3-9.7-2.3
			c-3.2,0-5,0.5-5,1.4c0,1.4,7.4,1.8,7.4,3c0,1.2-7.7,4.4-7.7,6.2c0,1.7,10.8,0.2,10.8,1.8c0,1.8-9.4,9.8-9.4,12.6
			c0,0.6,0.5,0.9,1.1,0.9c2.9,0,10.3-5.5,12.3-5.5c0.8,0,0.8,0.9,0.8,1.7c0,1.4-0.5,3.6-0.5,5.2c0,1.2,0.3,2.1,1.4,2.1
			c2,0,3.9-3.5,5.3-3.5c1.8,0,0.8,10,3.3,10c2.3,0,3.2-10.9,4.5-10.9c1.4,0,2.6,3.2,3.9,3.2c1.7,0,0.9-5.5,2.6-5.5
			c2,0,7.4,6.5,10,6.5c0.8,0,1.1-0.6,1.1-1.4c0-2.9-4.1-9.4-4.1-11.5C79,28,79.1,27.9,79.7,27.9L79.7,27.9z"/>
		<path class="st0" d="M83.2,31.6c-0.2,0-0.3,0.2-0.3,0.3c0,2,7,11.2,8.2,11.2c1.1,0,2-2,2-3.5c0-0.5-0.2-0.9-0.3-1.2
			C91.7,36.9,84.7,31.6,83.2,31.6z M42.5,26.3c0-0.5-0.9-0.6-1.7-0.6c-1.2,0-2.9,0.3-3.6,0.9c-0.6,0.5-1.1,2-1.1,3
			c0,0.6,0.2,1.2,0.8,1.2C38.2,31,42.5,27.4,42.5,26.3z M52.3,19.5c1.2,0,3.2-0.6,4.5-0.6c0.8,0,1.5,0.2,1.5,0.9c0,1.4-3,3.8-3,4.8
			c0,0.3,0.3,0.5,0.6,0.5c1.1,0,3-2.7,4.7-2.7c2.9,0,1.1,6.2,2.6,6.2c1.7,0,0.9-6.1,3.3-6.1c2,0,3.3,4.2,4.7,4.2
			c0.3,0,0.6-0.3,0.6-0.6c0-1.2-1.7-3.5-1.7-5c0-0.9,0.6-1.4,1.5-1.4c1.2,0,3,0.8,3.9,0.8c0.3,0,0.6-0.2,0.6-0.5
			c0-1.4-4.8-2.7-4.8-4.4c0-1.7,2.7-1.7,2.7-2.4c0-0.3-1.7-0.6-3.9-0.6c-3.6,0-3,2.9-5.9,2.9c-2.9,0-2.1-3-5.8-3
			c-2.3,0-4.2,0.5-4.2,0.9c0,0.6,2.6,0.3,2.6,2.1c0,2-5.6,2.4-5.6,3.6C51.3,19.4,51.7,19.5,52.3,19.5z M87,18.8c0,0.9,3.5,3,5,3
			c0.9,0,1.2-1.2,1.2-2.6c0-1.7-0.8-1.7-2.1-1.7C89.3,17.6,87,18,87,18.8z"/>
		
			<animate  accumulate="none" additive="replace" attributeName="fill" begin="o1.begin+5.15s" calcMode="linear" dur="1s" fill="remove" restart="always" values="#1F36C7;#FFE300;#1F36C7">
			</animate>
	</g>
</g>
</svg>
